<svg xmlns="http://www.w3.org/2000/svg" viewBox="0 0 68.99 68.96"><defs><style>.cls-1{fill:#4d4f53;}</style></defs><title>donate-icon</title><g id="Layer_2" data-name="Layer 2"><g id="Design"><path class="cls-1" d="M34.06,68.25a.51.51,0,0,1,.5-.51h0a.5.5,0,0,1,.5.5h0a.49.49,0,0,1-.49.5h0A.51.51,0,0,1,34.06,68.25Zm-6.93-.72a.5.5,0,0,1,.5-.5h0a.5.5,0,0,1,.5.49h0a.5.5,0,0,1-.5.5h0A.49.49,0,0,1,27.13,67.53Zm13.73-.06a.5.5,0,0,1,.49-.5h0a.51.51,0,0,1,.5.5h0a.5.5,0,0,1-.5.5h0A.5.5,0,0,1,40.86,67.47Zm-16.31-.42h0a.51.51,0,0,1-.14-.7h0a.5.5,0,0,1,.69-.14h0a.5.5,0,0,1,.14.69h0a.48.48,0,0,1-.41.23h0A.57.57,0,0,1,24.55,67.05Zm19.19-.22a.5.5,0,0,1,.13-.7h0a.51.51,0,0,1,.7.14h0a.5.5,0,0,1-.14.69h0a.48.48,0,0,1-.28.08h0A.48.48,0,0,1,43.74,66.83Zm-9.69-1.58a.51.51,0,0,1,.5-.51h0a.51.51,0,0,1,.5.5h0a.5.5,0,0,1-.5.5h0A.5.5,0,0,1,34.05,65.25Zm-11.78-.36a.49.49,0,0,1,.07-.7h0a.51.51,0,0,1,.71.08h0A.5.5,0,0,1,23,65h0a.51.51,0,0,1-.31.11h0A.47.47,0,0,1,22.27,64.89Zm23.72,0a.5.5,0,0,1-.08-.7h0a.5.5,0,0,1,.7-.09h0a.5.5,0,0,1,.09.7h0a.48.48,0,0,1-.39.2h0A.53.53,0,0,1,46,64.87ZM34,62.25a.5.5,0,0,1,.49-.51h0a.52.52,0,0,1,.51.5h0a.49.49,0,0,1-.5.5h0A.49.49,0,0,1,34,62.25Zm-13.47.07a.5.5,0,0,1,.19-.68h0a.5.5,0,0,1,.68.2h0a.5.5,0,0,1-.19.68h0a.53.53,0,0,1-.24.06h0A.49.49,0,0,1,20.57,62.32Zm27.12.08a.5.5,0,0,1-.2-.68h0a.49.49,0,0,1,.67-.2h0a.5.5,0,0,1,.21.68h0a.53.53,0,0,1-.44.26h0A.5.5,0,0,1,47.69,62.4ZM19.25,59.57h0a.5.5,0,0,1,.27-.66h0a.51.51,0,0,1,.65.27h0a.5.5,0,0,1-.27.66h0a.66.66,0,0,1-.19,0h0A.5.5,0,0,1,19.25,59.57ZM34,59.25a.51.51,0,0,1,.5-.51h0a.5.5,0,0,1,.5.5h0a.49.49,0,0,1-.49.5h0A.5.5,0,0,1,34,59.25Zm15,.45a.5.5,0,0,1-.28-.65h0a.51.51,0,0,1,.66-.27h0a.5.5,0,0,1,.27.65h0a.51.51,0,0,1-.46.31h0A.4.4,0,0,1,49,59.7Zm-30.82-3a.49.49,0,0,1,.32-.63h0a.49.49,0,0,1,.63.32h0a.51.51,0,0,1-.32.63h0l-.16,0h0A.49.49,0,0,1,18.19,56.72Zm31.87.18a.51.51,0,0,1-.32-.63h0a.5.5,0,0,1,.63-.33h0a.51.51,0,0,1,.32.63h0a.51.51,0,0,1-.48.35h0Zm-16-.65a.5.5,0,0,1,.5-.5h0a.49.49,0,0,1,.5.49h0a.5.5,0,0,1-.5.5h0A.49.49,0,0,1,34,56.25ZM17.33,53.81a.5.5,0,0,1,.36-.61h0a.5.5,0,0,1,.61.36h0a.5.5,0,0,1-.36.61h0l-.13,0h0A.5.5,0,0,1,17.33,53.81ZM50.91,54a.51.51,0,0,1-.36-.61h0a.5.5,0,0,1,.61-.36h0a.5.5,0,0,1,.36.61h0A.5.5,0,0,1,51,54h-.13ZM34,53.25a.49.49,0,0,1,.49-.5h0a.49.49,0,0,1,.5.49h0a.49.49,0,0,1-.49.5h0A.49.49,0,0,1,34,53.25Zm-1,.49a.5.5,0,0,1-.5-.5h0a.51.51,0,0,1,.51-.5h0a.49.49,0,0,1,.49.51h0a.49.49,0,0,1-.5.49Zm2.5-.5a.5.5,0,0,1,.49-.51h0a.49.49,0,0,1,.51.49h0a.5.5,0,0,1-.49.51h0A.51.51,0,0,1,35.54,53.24ZM30,53.66a.51.51,0,0,1-.48-.52h0a.51.51,0,0,1,.52-.48h0a.5.5,0,0,1,.48.52h0a.5.5,0,0,1-.5.48h0Zm8.52-.52a.5.5,0,0,1,.48-.52h0a.49.49,0,0,1,.52.47h0a.5.5,0,0,1-.47.53h0A.51.51,0,0,1,38.54,53.14ZM27,53.48a.51.51,0,0,1-.46-.54h0a.5.5,0,0,1,.54-.46h0a.5.5,0,0,1,.46.54h0a.5.5,0,0,1-.5.46h0ZM41.54,53a.49.49,0,0,1,.45-.54h0a.49.49,0,0,1,.54.45h0a.49.49,0,0,1-.45.54h0A.5.5,0,0,1,41.54,53ZM24,53.19a.5.5,0,0,1-.43-.56h0a.5.5,0,0,1,.55-.44h0a.51.51,0,0,1,.44.56h0a.51.51,0,0,1-.5.44H24Zm20.52-.54a.5.5,0,0,1,.44-.56h0a.51.51,0,0,1,.56.44h0a.49.49,0,0,1-.44.55H45A.51.51,0,0,1,44.52,52.65ZM21,52.78a.5.5,0,0,1-.42-.57h0a.51.51,0,0,1,.57-.42h0a.5.5,0,0,1,.42.58h0a.5.5,0,0,1-.49.42H21Zm26.48-.54a.5.5,0,0,1,.42-.57h0a.49.49,0,0,1,.57.41h0a.49.49,0,0,1-.41.57H48A.52.52,0,0,1,47.49,52.24ZM18,52.25a.49.49,0,0,1-.39-.58h0a.5.5,0,0,1,.59-.39h0a.49.49,0,0,1,.39.58h0a.49.49,0,0,1-.49.4H18Zm32.42-.54a.5.5,0,0,1,.39-.59h0a.49.49,0,0,1,.59.38h0a.52.52,0,0,1-.39.6h-.1A.5.5,0,0,1,50.45,51.71Zm-35.37-.12a.51.51,0,0,1-.36-.61h0a.5.5,0,0,1,.61-.36h0a.5.5,0,0,1,.36.61h0a.5.5,0,0,1-.48.37h-.13ZM53.38,51a.5.5,0,0,1,.35-.61h0a.5.5,0,0,1,.61.36h0a.5.5,0,0,1-.35.61h-.13A.48.48,0,0,1,53.38,51Zm-36.75-.17h0a.5.5,0,0,1,.39-.59h0a.49.49,0,0,1,.59.38h0a.5.5,0,0,1-.38.6h-.11A.51.51,0,0,1,16.63,50.87Zm35,.23a.5.5,0,0,1-.39-.59h0a.5.5,0,0,1,.59-.39h0a.5.5,0,0,1,.39.59h0a.5.5,0,0,1-.49.4h-.1Zm-39.43-.34a.51.51,0,0,1-.33-.63h0a.51.51,0,0,1,.63-.33h0a.51.51,0,0,1,.33.63h0a.5.5,0,0,1-.48.35h0ZM34,50.25a.5.5,0,0,1,.5-.5h0a.49.49,0,0,1,.5.49h0a.5.5,0,0,1-.5.5h0A.49.49,0,0,1,34,50.25Zm22.28,0a.5.5,0,0,1,.32-.63h0a.5.5,0,0,1,.63.32h0a.5.5,0,0,1-.32.63h0a.38.38,0,0,1-.15,0h0A.5.5,0,0,1,56.26,50.22Zm-47-.49h0A.49.49,0,0,1,9,49.08H9a.5.5,0,0,1,.65-.28h0a.5.5,0,0,1,.27.65h0a.49.49,0,0,1-.46.31h0Zm49.78-.52a.5.5,0,0,1,.26-.66h0a.52.52,0,0,1,.66.27h0a.52.52,0,0,1-.27.66h0a.66.66,0,0,1-.19,0h0A.5.5,0,0,1,59.09,49.21ZM6.54,48.43h0a.5.5,0,0,1-.21-.68h0a.51.51,0,0,1,.68-.2H7a.51.51,0,0,1,.2.68h0a.49.49,0,0,1-.44.26h0A.53.53,0,0,1,6.54,48.43Zm9.54-.53a.49.49,0,0,1,.41-.57h0a.5.5,0,0,1,.58.41h0a.51.51,0,0,1-.42.57h-.08A.5.5,0,0,1,16.08,47.9ZM61.81,48a.5.5,0,0,1,.2-.68h0a.5.5,0,0,1,.68.19h0a.5.5,0,0,1-.2.68h0a.45.45,0,0,1-.24.07h0A.51.51,0,0,1,61.81,48Zm-9.66.19a.5.5,0,0,1-.42-.57h0a.5.5,0,0,1,.57-.42h0a.51.51,0,0,1,.42.57h0a.5.5,0,0,1-.5.42h-.07ZM34,47.25a.5.5,0,0,1,.49-.51h0a.51.51,0,0,1,.51.5h0a.5.5,0,0,1-.5.5h0A.49.49,0,0,1,34,47.25ZM4,46.76a.5.5,0,0,1-.09-.7h0a.49.49,0,0,1,.7-.08h0a.5.5,0,0,1,.09.7h0a.53.53,0,0,1-.4.19h0A.48.48,0,0,1,4,46.76Zm60.4-.38a.51.51,0,0,1,.08-.71h0a.5.5,0,0,1,.7.08h0a.5.5,0,0,1-.08.7h0a.45.45,0,0,1-.31.11h0A.5.5,0,0,1,64.36,46.38ZM15.65,44.91h0a.49.49,0,0,1,.43-.56h0a.5.5,0,0,1,.56.43h0a.5.5,0,0,1-.43.56h-.07A.49.49,0,0,1,15.65,44.91Zm36.92.27a.5.5,0,0,1-.44-.56h0a.5.5,0,0,1,.55-.44h0a.5.5,0,0,1,.44.56h0a.5.5,0,0,1-.49.44h-.06ZM34,44.25a.51.51,0,0,1,.5-.51h0a.5.5,0,0,1,.5.5h0a.49.49,0,0,1-.5.5h0A.5.5,0,0,1,34,44.25ZM1.78,44.5a.52.52,0,0,1,.13-.7h0a.51.51,0,0,1,.7.14h0a.51.51,0,0,1-.14.7h0a.53.53,0,0,1-.27.08h0A.49.49,0,0,1,1.78,44.5Zm64.74-.2a.49.49,0,0,1-.15-.68h0a.5.5,0,0,1,.69-.14h0a.5.5,0,0,1,.15.69h0a.51.51,0,0,1-.42.23h0A.46.46,0,0,1,66.52,44.3ZM15.33,41.91a.51.51,0,0,1,.45-.55h0a.5.5,0,0,1,.54.46h0a.49.49,0,0,1-.45.54h0A.49.49,0,0,1,15.33,41.91Zm37.54.28a.49.49,0,0,1-.45-.54h0a.49.49,0,0,1,.53-.46h0a.51.51,0,0,1,.46.54h0a.5.5,0,0,1-.5.46h0ZM.77,41.43a.5.5,0,0,1,.49-.5h0a.5.5,0,0,1,.51.49h0a.51.51,0,0,1-.5.51h0A.5.5,0,0,1,.77,41.43Zm33.17-.18a.51.51,0,0,1,.5-.51h0a.51.51,0,0,1,.5.5h0a.5.5,0,0,1-.5.5h0A.49.49,0,0,1,33.94,41.25ZM15.12,38.9h0a.5.5,0,0,1,.47-.53h0a.51.51,0,0,1,.53.47h0a.51.51,0,0,1-.48.53h0A.5.5,0,0,1,15.12,38.9Zm38,.3a.5.5,0,0,1-.47-.53h0a.49.49,0,0,1,.52-.47h0a.5.5,0,0,1,.48.52h0a.51.51,0,0,1-.5.48h0Zm-19.15-1a.52.52,0,0,1,.5-.51h0a.5.5,0,0,1,.5.5h0a.49.49,0,0,1-.49.5h0A.51.51,0,0,1,33.92,38.25ZM15,35.88a.5.5,0,0,1,.49-.51h0a.5.5,0,0,1,.51.49h0a.51.51,0,0,1-.49.51h0A.49.49,0,0,1,15,35.88Zm38.16.32a.51.51,0,0,1-.49-.51h0a.49.49,0,0,1,.51-.49h0a.5.5,0,0,1,.49.5h0a.51.51,0,0,1-.5.5h0Zm-19.26-1a.5.5,0,0,1,.5-.5h0a.49.49,0,0,1,.5.49h0a.51.51,0,0,1-.5.51h0A.51.51,0,0,1,33.91,35.25ZM0,34.63a.5.5,0,0,1,.5-.5h0a.5.5,0,0,1,.5.5H1a.5.5,0,0,1-.5.5h0A.5.5,0,0,1,0,34.63Zm3,0a.5.5,0,0,1,.5-.5h0a.5.5,0,0,1,.5.49H4a.5.5,0,0,1-.5.51h0A.5.5,0,0,1,3,34.62Zm3,0a.51.51,0,0,1,.5-.51h0a.5.5,0,0,1,.5.5H7a.49.49,0,0,1-.5.5h0A.49.49,0,0,1,6,34.61Zm3,0a.49.49,0,0,1,.49-.5h0a.5.5,0,0,1,.51.5h0a.5.5,0,0,1-.5.5h0A.49.49,0,0,1,9,34.59Zm3,0a.49.49,0,0,1,.49-.5h0a.5.5,0,0,1,.51.49h0a.51.51,0,0,1-.5.51h0A.5.5,0,0,1,12,34.58Zm3,0a.5.5,0,0,1,.49-.5h0a.5.5,0,0,1,.51.5h0a.5.5,0,0,1-.5.5h0A.5.5,0,0,1,15,34.56Zm3,0a.5.5,0,0,1,.5-.5h0a.49.49,0,0,1,.5.49h0a.51.51,0,0,1-.5.51h0A.5.5,0,0,1,18,34.55Zm3,0a.5.5,0,0,1,.5-.5h0a.5.5,0,0,1,.5.5h0a.49.49,0,0,1-.5.5h0A.5.5,0,0,1,21,34.53Zm3,0a.5.5,0,0,1,.5-.5h0a.5.5,0,0,1,.5.5h0a.5.5,0,0,1-.5.5h0A.5.5,0,0,1,24,34.52Zm3,0a.5.5,0,0,1,.5-.51h0a.51.51,0,0,1,.5.5h0a.49.49,0,0,1-.5.5h0A.49.49,0,0,1,27,34.51Zm3,0a.5.5,0,0,1,.49-.5h0a.5.5,0,0,1,.51.5h0a.5.5,0,0,1-.5.5h0A.49.49,0,0,1,30,34.49Zm3,0a.49.49,0,0,1,.49-.5h0a.5.5,0,0,1,.51.49h0a.5.5,0,0,1-.5.5h0A.49.49,0,0,1,33,34.48Zm3,0a.5.5,0,0,1,.49-.5h0a.5.5,0,0,1,.51.5h0a.5.5,0,0,1-.5.5h0A.5.5,0,0,1,36,34.46Zm3,0a.5.5,0,0,1,.5-.5h0a.5.5,0,0,1,.5.5h0a.51.51,0,0,1-.5.5h0A.5.5,0,0,1,39,34.45Zm3,0a.5.5,0,0,1,.5-.51h0a.51.51,0,0,1,.5.5h0a.49.49,0,0,1-.5.5h0A.49.49,0,0,1,42,34.44Zm3,0a.5.5,0,0,1,.5-.5h0a.5.5,0,0,1,.5.5h0a.5.5,0,0,1-.5.5h0A.49.49,0,0,1,45,34.42Zm3,0a.49.49,0,0,1,.49-.5h0a.5.5,0,0,1,.51.49h0a.49.49,0,0,1-.5.5h0A.49.49,0,0,1,48,34.41Zm3,0a.5.5,0,0,1,.49-.5h0a.5.5,0,0,1,.51.5h0a.49.49,0,0,1-.5.5h0A.49.49,0,0,1,51,34.39Zm3,0a.49.49,0,0,1,.49-.5h0a.49.49,0,0,1,.51.49h0a.51.51,0,0,1-.5.51h0A.5.5,0,0,1,54,34.38Zm3,0a.51.51,0,0,1,.49-.51h0a.5.5,0,0,1,.51.5h0a.5.5,0,0,1-.5.5h0A.49.49,0,0,1,57,34.37Zm3,0a.5.5,0,0,1,.5-.5h0a.5.5,0,0,1,.5.5h0a.51.51,0,0,1-.5.5h0A.5.5,0,0,1,60,34.35Zm3,0a.49.49,0,0,1,.5-.5h0a.49.49,0,0,1,.5.49h0a.49.49,0,0,1-.5.5h0A.49.49,0,0,1,63,34.34Zm3,0a.5.5,0,0,1,.5-.5h0a.5.5,0,0,1,.5.5h0a.5.5,0,0,1-.5.5h0A.49.49,0,0,1,66,34.32Zm-50.51-1a.5.5,0,0,1-.5-.5h0a.51.51,0,0,1,.51-.49h0a.5.5,0,0,1,.49.51h0a.49.49,0,0,1-.5.49Zm37.18-.66a.49.49,0,0,1,.48-.51h0a.49.49,0,0,1,.51.49h0a.5.5,0,0,1-.48.51h0A.49.49,0,0,1,52.67,32.71ZM33.9,32.25a.49.49,0,0,1,.49-.5h0a.5.5,0,0,1,.51.49h0a.5.5,0,0,1-.5.5h0A.49.49,0,0,1,33.9,32.25ZM15.55,30.37a.49.49,0,0,1-.47-.52h0a.5.5,0,0,1,.52-.48h0a.49.49,0,0,1,.47.52h0a.5.5,0,0,1-.49.48h0Zm37-.64A.5.5,0,0,1,53,29.2h0a.5.5,0,0,1,.52.47h0a.5.5,0,0,1-.47.53h0A.51.51,0,0,1,52.55,29.73Zm-18.67-.48a.5.5,0,0,1,.5-.5h0a.49.49,0,0,1,.5.49h0a.5.5,0,0,1-.5.5h0A.5.5,0,0,1,33.88,29.25ZM.71,27.69a.49.49,0,0,1,.5-.5h0a.5.5,0,0,1,.5.5h0a.51.51,0,0,1-.5.5h0A.5.5,0,0,1,.71,27.69Zm15-.32a.49.49,0,0,1-.46-.53h0a.49.49,0,0,1,.54-.46h0a.5.5,0,0,1,.46.53h0a.49.49,0,0,1-.5.45h0Zm36.62-.62a.5.5,0,0,1,.46-.54h0a.49.49,0,0,1,.54.45h0a.5.5,0,0,1-.45.54h0A.53.53,0,0,1,52.34,26.75Zm-18.47-.5a.5.5,0,0,1,.5-.51h0a.51.51,0,0,1,.5.5h0a.49.49,0,0,1-.5.5h0A.49.49,0,0,1,33.87,26.25Zm-32-.94a.51.51,0,0,1-.15-.7h0a.51.51,0,0,1,.7-.14h0a.5.5,0,0,1,.14.69h0a.51.51,0,0,1-.42.23h0A.53.53,0,0,1,1.84,25.31Zm64.45-.43a.5.5,0,0,1,.14-.69h0a.49.49,0,0,1,.69.14h0A.48.48,0,0,1,67,25h0a.45.45,0,0,1-.27.08h0A.52.52,0,0,1,66.29,24.88ZM16,24.39a.52.52,0,0,1-.44-.56h0a.51.51,0,0,1,.56-.44h0a.51.51,0,0,1,.44.56h0a.51.51,0,0,1-.5.44H16Zm36-.61a.51.51,0,0,1,.43-.56h0a.51.51,0,0,1,.56.44h0a.5.5,0,0,1-.43.56h-.07A.5.5,0,0,1,52,23.78Zm-18.17-.53a.5.5,0,0,1,.49-.51h0a.5.5,0,0,1,.5.5h0a.49.49,0,0,1-.49.5h0A.49.49,0,0,1,33.86,23.25ZM3.77,23a.5.5,0,0,1,.08-.7h0a.49.49,0,0,1,.7.07h0a.51.51,0,0,1-.08.71h0a.51.51,0,0,1-.31.11h0A.51.51,0,0,1,3.77,23Zm60.57-.19a.5.5,0,0,1-.09-.7h0a.49.49,0,0,1,.7-.08h0a.49.49,0,0,1,.09.7h0a.53.53,0,0,1-.4.19h0A.51.51,0,0,1,64.34,22.84ZM6.22,21.31a.51.51,0,0,1,.2-.68h0a.5.5,0,0,1,.68.2h0a.49.49,0,0,1-.2.67h0a.44.44,0,0,1-.24.07h0A.49.49,0,0,1,6.22,21.31Zm10.15.1a.49.49,0,0,1-.41-.57h0a.49.49,0,0,1,.57-.42h0a.49.49,0,0,1,.41.57h0a.49.49,0,0,1-.49.42h-.08Zm45.52-.15h0a.5.5,0,0,1-.2-.68h0a.5.5,0,0,1,.68-.2h0a.51.51,0,0,1,.2.68h0a.49.49,0,0,1-.44.26h0A.53.53,0,0,1,61.89,21.26ZM51.6,20.83a.5.5,0,0,1,.41-.57h0a.51.51,0,0,1,.58.41h0a.5.5,0,0,1-.41.57H52.1A.5.5,0,0,1,51.6,20.83Zm-17.76-.58a.51.51,0,0,1,.5-.51h0a.51.51,0,0,1,.5.5h0a.5.5,0,0,1-.5.5h0A.49.49,0,0,1,33.84,20.25ZM8.9,20a.51.51,0,0,1,.27-.65h0a.5.5,0,0,1,.66.27h0a.51.51,0,0,1-.27.65h0a.47.47,0,0,1-.2,0h0A.49.49,0,0,1,8.9,20Zm50.33,0a.51.51,0,0,1-.28-.65h0a.51.51,0,0,1,.65-.28h0a.51.51,0,0,1,.28.66h0a.51.51,0,0,1-.47.31h0A.59.59,0,0,1,59.23,20ZM11.7,18.88a.51.51,0,0,1,.32-.63h0a.5.5,0,0,1,.63.32h0a.5.5,0,0,1-.31.63h0a.46.46,0,0,1-.16,0h0A.5.5,0,0,1,11.7,18.88ZM56.44,19a.49.49,0,0,1-.32-.63h0a.49.49,0,0,1,.63-.32h0a.5.5,0,0,1,.32.63h0a.51.51,0,0,1-.48.35h0A.39.39,0,0,1,56.44,19Zm-39.57-.55a.51.51,0,0,1-.39-.59h0a.5.5,0,0,1,.59-.39h0a.49.49,0,0,1,.39.59h0a.49.49,0,0,1-.49.4h-.1ZM14.57,18a.5.5,0,0,1,.36-.61h0a.5.5,0,0,1,.61.36h0a.5.5,0,0,1-.36.61h0l-.12,0h0A.5.5,0,0,1,14.57,18Zm36.48-.09a.52.52,0,0,1,.39-.6h0a.5.5,0,0,1,.59.39h0a.5.5,0,0,1-.39.59h-.1A.5.5,0,0,1,51.05,17.91Zm2.53.28a.51.51,0,0,1-.36-.61h0a.5.5,0,0,1,.61-.36h0a.49.49,0,0,1,.36.61h0a.5.5,0,0,1-.49.37h-.12Zm-19.75-.94a.51.51,0,0,1,.49-.51h0a.51.51,0,0,1,.51.5h0a.5.5,0,0,1-.5.5h0A.49.49,0,0,1,33.83,17.25Zm-16.34,0a.49.49,0,0,1,.38-.59h0a.51.51,0,0,1,.6.39h0a.51.51,0,0,1-.39.59H18A.49.49,0,0,1,17.49,17.29Zm33.19.24a.5.5,0,0,1-.39-.59h0a.5.5,0,0,1,.59-.39h0a.5.5,0,0,1,.39.59h0a.49.49,0,0,1-.49.4h-.1Zm-30.25-.81a.51.51,0,0,1,.41-.58h0a.51.51,0,0,1,.58.42h0a.5.5,0,0,1-.41.57h-.08A.51.51,0,0,1,20.43,16.72ZM47.75,17a.51.51,0,0,1-.42-.57h0A.5.5,0,0,1,47.9,16h0a.5.5,0,0,1,.42.57h0a.49.49,0,0,1-.49.42h-.08ZM23.4,16.27a.49.49,0,0,1,.43-.56h0a.5.5,0,0,1,.56.44h0a.49.49,0,0,1-.43.55h-.07A.5.5,0,0,1,23.4,16.27Zm21.4.34h0a.49.49,0,0,1-.44-.56h0a.49.49,0,0,1,.55-.43h0a.5.5,0,0,1,.44.55h0a.5.5,0,0,1-.5.44h0Zm-18.42-.67a.51.51,0,0,1,.46-.55h0a.51.51,0,0,1,.54.46h0a.5.5,0,0,1-.46.54h0A.49.49,0,0,1,26.38,15.94Zm15.45.38h0a.5.5,0,0,1-.46-.54h0a.49.49,0,0,1,.54-.45h0a.51.51,0,0,1,.46.54h0a.51.51,0,0,1-.5.46h0Zm-12.46-.61a.51.51,0,0,1,.48-.53h0a.5.5,0,0,1,.52.47h0a.5.5,0,0,1-.47.53h0A.51.51,0,0,1,29.37,15.71Zm9.48.43a.5.5,0,0,1-.48-.52h0a.5.5,0,0,1,.52-.48h0a.5.5,0,0,1,.48.52h0a.5.5,0,0,1-.5.48h0Zm-6.48-.56a.5.5,0,0,1,.49-.51h0a.5.5,0,0,1,.51.49h0a.49.49,0,0,1-.49.51h0A.5.5,0,0,1,32.37,15.58Zm3.5.47a.5.5,0,0,1-.5-.5h0a.5.5,0,0,1,.51-.49h0a.49.49,0,0,1,.49.5h0a.5.5,0,0,1-.5.49Zm-18.36-.53a.51.51,0,0,1-.36-.61h0a.5.5,0,0,1,.61-.36h0a.5.5,0,0,1,.36.61h0a.5.5,0,0,1-.48.37h-.13ZM50.37,15h0a.5.5,0,0,1,.35-.61h0a.5.5,0,0,1,.61.35h0a.48.48,0,0,1-.35.6h0a.29.29,0,0,1-.13,0h0A.5.5,0,0,1,50.37,15Zm-16.56-.76a.5.5,0,0,1,.5-.5h0a.49.49,0,0,1,.5.49h0a.51.51,0,0,1-.5.51h0A.51.51,0,0,1,33.81,14.25Zm-15.5-1.63A.5.5,0,0,1,18,12h0a.51.51,0,0,1,.63-.33h0a.5.5,0,0,1,.33.63h0a.51.51,0,0,1-.48.35h0A.39.39,0,0,1,18.31,12.62Zm31.21-.46a.51.51,0,0,1,.32-.63h0a.51.51,0,0,1,.64.32h0a.51.51,0,0,1-.32.63h0a.45.45,0,0,1-.16,0h0A.5.5,0,0,1,49.52,12.16ZM33.8,11.25a.49.49,0,0,1,.49-.5h0a.5.5,0,0,1,.51.49h0a.5.5,0,0,1-.5.5h0A.49.49,0,0,1,33.8,11.25ZM19.29,9.79A.5.5,0,0,1,19,9.14h0a.5.5,0,0,1,.65-.28h0a.5.5,0,0,1,.27.66h0a.49.49,0,0,1-.46.31h0A.7.7,0,0,1,19.29,9.79Zm29.2-.4a.51.51,0,0,1,.27-.66h0a.49.49,0,0,1,.65.27h0a.49.49,0,0,1-.26.65h0a.47.47,0,0,1-.2,0h0A.5.5,0,0,1,48.49,9.39ZM33.78,8.25a.5.5,0,0,1,.5-.5h0a.49.49,0,0,1,.5.49h0a.49.49,0,0,1-.49.5h0A.51.51,0,0,1,33.78,8.25ZM20.52,7.05a.5.5,0,0,1-.2-.68h0a.51.51,0,0,1,.68-.2h0a.5.5,0,0,1,.21.68h0a.5.5,0,0,1-.45.26h0A.47.47,0,0,1,20.52,7.05Zm26.7-.32a.5.5,0,0,1,.19-.68h0a.51.51,0,0,1,.68.2h0a.5.5,0,0,1-.2.68h0a.47.47,0,0,1-.24.06h0A.49.49,0,0,1,47.22,6.73ZM33.77,5.25a.5.5,0,0,1,.5-.51h0a.5.5,0,0,1,.5.5h0a.49.49,0,0,1-.5.5h0A.5.5,0,0,1,33.77,5.25ZM22.08,4.49a.5.5,0,0,1-.09-.7h0a.5.5,0,0,1,.7-.09h0a.51.51,0,0,1,.09.71h0a.53.53,0,0,1-.4.19h0A.48.48,0,0,1,22.08,4.49ZM45.61,4.3h0a.51.51,0,0,1,.08-.71h0a.5.5,0,0,1,.7.08h0a.5.5,0,0,1-.08.7h0a.45.45,0,0,1-.31.11h0A.49.49,0,0,1,45.61,4.3ZM33.76,2.25a.5.5,0,0,1,.5-.51h0a.51.51,0,0,1,.5.5h0a.5.5,0,0,1-.5.5h0A.49.49,0,0,1,33.76,2.25Zm-9.63.06a.48.48,0,0,1,.14-.69h0a.49.49,0,0,1,.69.14h0a.5.5,0,0,1-.14.69h0a.48.48,0,0,1-.28.08h0A.47.47,0,0,1,24.13,2.31Zm19.42.06h0a.5.5,0,0,1-.14-.69h0a.49.49,0,0,1,.69-.15h0a.5.5,0,0,1,.15.69h0a.51.51,0,0,1-.42.23h0A.56.56,0,0,1,43.55,2.37Z"/><path class="cls-1" d="M34.07,69h0a.5.5,0,0,1-.49-.5h0a.5.5,0,0,1,.51-.5h0a.52.52,0,0,1,.5.51h0a.51.51,0,0,1-.5.49h0Zm2.51-.55a.5.5,0,0,1,.46-.54h0a.5.5,0,0,1,.53.46h0a.5.5,0,0,1-.46.54h0A.5.5,0,0,1,36.58,68.41ZM31,68.8a.5.5,0,0,1-.45-.55h0a.49.49,0,0,1,.54-.45h0a.5.5,0,0,1,.45.55h0a.49.49,0,0,1-.49.45H31Zm8.52-.7a.51.51,0,0,1,.41-.58h0a.51.51,0,0,1,.58.42h0a.5.5,0,0,1-.42.57h-.08A.5.5,0,0,1,39.56,68.1ZM28,68.36a.49.49,0,0,1-.4-.58h0a.5.5,0,0,1,.58-.4h0a.5.5,0,0,1,.4.58h0a.51.51,0,0,1-.49.41H28Zm14.47-.84a.49.49,0,0,1,.36-.6h0a.5.5,0,0,1,.61.36h0a.49.49,0,0,1-.36.6h0l-.12,0h0A.5.5,0,0,1,42.5,67.52Zm-17.43.14h0a.51.51,0,0,1-.35-.62h0a.5.5,0,0,1,.62-.34h0a.5.5,0,0,1,.34.62h0a.49.49,0,0,1-.48.36h0A.29.29,0,0,1,25.07,67.66Zm20.31-1a.51.51,0,0,1,.31-.64h0a.51.51,0,0,1,.64.31h0A.51.51,0,0,1,46,67h0a.32.32,0,0,1-.17,0h0A.49.49,0,0,1,45.38,66.69Zm-23.2,0a.49.49,0,0,1-.29-.64h0a.5.5,0,0,1,.64-.29h0a.49.49,0,0,1,.29.64h0a.5.5,0,0,1-.47.33h0A.38.38,0,0,1,22.18,66.7Zm26-1.09a.49.49,0,0,1,.24-.66h0a.5.5,0,0,1,.67.24h0a.5.5,0,0,1-.25.66h0a.52.52,0,0,1-.21,0h0A.49.49,0,0,1,48.18,65.61Zm-28.79-.12h0a.5.5,0,0,1-.24-.67h0a.51.51,0,0,1,.68-.23h0a.5.5,0,0,1,.22.67h0a.48.48,0,0,1-.44.28h0A.42.42,0,0,1,19.39,65.49Zm31.47-1.21a.5.5,0,0,1,.19-.68h0a.5.5,0,0,1,.68.18h0a.51.51,0,0,1-.18.69h0a.57.57,0,0,1-.25.06h0A.51.51,0,0,1,50.86,64.28ZM16.71,64a.52.52,0,0,1-.17-.69h0a.49.49,0,0,1,.69-.17h0a.5.5,0,0,1,.17.68h0a.51.51,0,0,1-.43.25h0A.59.59,0,0,1,16.71,64Zm36.71-1.32a.51.51,0,0,1,.13-.7h0a.51.51,0,0,1,.7.13h0a.51.51,0,0,1-.13.7h0a.5.5,0,0,1-.28.08h0A.51.51,0,0,1,53.42,62.72Zm-39.24-.37a.5.5,0,0,1-.11-.7h0a.51.51,0,0,1,.7-.11h0a.51.51,0,0,1,.11.7h0a.49.49,0,0,1-.41.21h0A.46.46,0,0,1,14.18,62.35Zm41.66-1.41a.49.49,0,0,1,.06-.7h0a.51.51,0,0,1,.71.06h0a.49.49,0,0,1-.07.7h0a.47.47,0,0,1-.32.12h0A.49.49,0,0,1,55.84,60.94Zm-44-.49a.51.51,0,0,1-.05-.71h0a.52.52,0,0,1,.71,0h0a.49.49,0,0,1,0,.7h0a.49.49,0,0,1-.38.18h0A.53.53,0,0,1,11.8,60.45ZM58.09,59a.5.5,0,0,1,0-.71h0a.51.51,0,0,1,.71,0h0a.51.51,0,0,1,0,.71h0a.46.46,0,0,1-.35.14h0A.5.5,0,0,1,58.09,59ZM9.6,58.35a.5.5,0,0,1,0-.71h0a.49.49,0,0,1,.7,0h0a.5.5,0,0,1,0,.71h0a.5.5,0,0,1-.35.13h0A.51.51,0,0,1,9.6,58.35Zm50.55-1.57a.5.5,0,0,1-.06-.7h0A.51.51,0,0,1,60.8,56h0a.49.49,0,0,1,.06.7h0a.5.5,0,0,1-.39.18h0A.51.51,0,0,1,60.15,56.78ZM7.59,56.06a.5.5,0,0,1,.08-.7h0a.5.5,0,0,1,.7.08h0a.49.49,0,0,1-.07.7h0a.56.56,0,0,1-.32.11H8A.49.49,0,0,1,7.59,56.06ZM62,54.44a.5.5,0,0,1-.12-.7h0a.5.5,0,0,1,.7-.12h0a.51.51,0,0,1,.12.7h0a.54.54,0,0,1-.41.21h0A.53.53,0,0,1,62,54.44ZM5.79,53.61h0a.5.5,0,0,1,.14-.69h0a.5.5,0,0,1,.7.14h0a.5.5,0,0,1-.14.69h0a.5.5,0,0,1-.28.08h0A.52.52,0,0,1,5.79,53.61Zm57.88-1.68a.51.51,0,0,1-.18-.68h0a.51.51,0,0,1,.69-.18h0a.49.49,0,0,1,.18.68h0a.5.5,0,0,1-.43.25h0A.48.48,0,0,1,63.67,51.93ZM4.22,51a.49.49,0,0,1,.2-.68h0a.49.49,0,0,1,.67.2h0a.5.5,0,0,1-.2.68h0a.47.47,0,0,1-.23.06h0A.49.49,0,0,1,4.22,51ZM65.1,49.3a.51.51,0,0,1-.24-.67h0a.5.5,0,0,1,.67-.24h0a.5.5,0,0,1,.24.66h0a.5.5,0,0,1-.46.29h0A.54.54,0,0,1,65.1,49.3Zm-62.22-1a.5.5,0,0,1,.25-.66h0a.5.5,0,0,1,.66.26h0a.5.5,0,0,1-.26.66h0a.44.44,0,0,1-.2,0h0A.48.48,0,0,1,2.88,48.28Zm63.41-1.74a.5.5,0,0,1-.3-.64h0a.51.51,0,0,1,.64-.3h0a.5.5,0,0,1,.3.64h0a.48.48,0,0,1-.47.33h0ZM1.78,45.44a.5.5,0,0,1,.32-.63h0a.49.49,0,0,1,.63.32h0a.49.49,0,0,1-.32.63h0l-.16,0h0A.5.5,0,0,1,1.78,45.44Zm65.45-1.75a.49.49,0,0,1-.35-.61h0a.5.5,0,0,1,.61-.35h0a.49.49,0,0,1,.35.61h0a.5.5,0,0,1-.48.37h0A.31.31,0,0,1,67.23,43.69ZM.94,42.52a.5.5,0,0,1,.37-.6h0a.51.51,0,0,1,.61.36h0a.51.51,0,0,1-.37.61H1.43A.5.5,0,0,1,.94,42.52Zm67-1.75a.48.48,0,0,1-.41-.57h0a.48.48,0,0,1,.57-.41h0a.49.49,0,0,1,.41.58h0a.49.49,0,0,1-.49.41h-.08ZM.37,39.53A.5.5,0,0,1,.79,39h0a.5.5,0,0,1,.57.42h0A.5.5,0,0,1,.94,40H.87A.51.51,0,0,1,.37,39.53Zm68-1.72a.51.51,0,0,1-.46-.54h0a.5.5,0,0,1,.54-.46h0a.5.5,0,0,1,.46.54h0a.52.52,0,0,1-.5.46h0ZM.06,36.5h0A.49.49,0,0,1,.53,36h0a.5.5,0,0,1,.53.47h0A.49.49,0,0,1,.59,37h0A.5.5,0,0,1,.06,36.5ZM68,34.31a.52.52,0,0,1,.14-.34h0a.53.53,0,0,1-.15-.34h0a.52.52,0,0,1,.49-.52h0a.5.5,0,0,1,.51.49h0a.5.5,0,0,1-.13.36h0a.5.5,0,0,1,.14.35h0a.5.5,0,0,1-.5.5h0A.5.5,0,0,1,68,34.31ZM.5,34A.5.5,0,0,1,0,33.46H0A.49.49,0,0,1,.53,33h0a.48.48,0,0,1,.48.51H1A.5.5,0,0,1,.52,34h0Zm67.28-3.3a.5.5,0,0,1,.44-.55h0a.49.49,0,0,1,.55.44h0a.49.49,0,0,1-.43.55h-.06A.51.51,0,0,1,67.78,30.68ZM.67,31a.5.5,0,0,1-.44-.55h0A.51.51,0,0,1,.79,30h0a.51.51,0,0,1,.44.56h0a.51.51,0,0,1-.5.44H.67Zm66.65-3.22a.51.51,0,0,1,.39-.59h0a.5.5,0,0,1,.59.4h0a.49.49,0,0,1-.39.58h-.1A.5.5,0,0,1,67.32,27.76ZM1.11,28a.5.5,0,0,1-.39-.6h0A.5.5,0,0,1,1.31,27h0a.5.5,0,0,1,.39.59h0a.51.51,0,0,1-.49.4h-.1ZM66.6,24.9a.51.51,0,0,1,.34-.62h0a.49.49,0,0,1,.62.33h0a.5.5,0,0,1-.33.62h0a.4.4,0,0,1-.15,0h0A.51.51,0,0,1,66.6,24.9Zm-64.8.2a.5.5,0,0,1-.33-.62h0a.5.5,0,0,1,.62-.34h0a.5.5,0,0,1,.34.63h0a.51.51,0,0,1-.48.35H2A.4.4,0,0,1,1.8,25.1Zm63.84-3a.5.5,0,0,1,.28-.65h0a.5.5,0,0,1,.65.28h0a.51.51,0,0,1-.28.65h0a.64.64,0,0,1-.19,0h0A.5.5,0,0,1,65.64,22.11Zm-62.88.15a.51.51,0,0,1-.28-.65h0a.5.5,0,0,1,.65-.28h0a.51.51,0,0,1,.28.65h0a.51.51,0,0,1-.47.31h0Zm61.67-2.85a.49.49,0,0,1,.22-.67h0a.51.51,0,0,1,.67.22h0a.5.5,0,0,1-.22.67h0a.49.49,0,0,1-.23.06h0A.48.48,0,0,1,64.43,19.41ZM4,19.51a.49.49,0,0,1-.22-.67h0a.49.49,0,0,1,.67-.22h0a.5.5,0,0,1,.22.67h0a.5.5,0,0,1-.45.27h0A.6.6,0,0,1,4,19.51Zm59-2.67a.51.51,0,0,1,.16-.69h0a.49.49,0,0,1,.69.16h0a.49.49,0,0,1-.16.69h0a.48.48,0,0,1-.26.07h0A.51.51,0,0,1,63,16.84Zm-57.58,0a.5.5,0,0,1-.16-.69h0A.49.49,0,0,1,5.93,16h0a.51.51,0,0,1,.16.69h0a.51.51,0,0,1-.43.23h0A.49.49,0,0,1,5.4,16.88ZM61.32,14.4a.49.49,0,0,1,.1-.7h0a.5.5,0,0,1,.7.1h0a.51.51,0,0,1-.1.7h0a.49.49,0,0,1-.3.1h0A.49.49,0,0,1,61.32,14.4Zm-54.26,0a.51.51,0,0,1-.1-.7H7a.52.52,0,0,1,.71-.1h0a.51.51,0,0,1,.09.7h0a.51.51,0,0,1-.4.2h0A.5.5,0,0,1,7.06,14.38Zm52.38-2.27a.49.49,0,0,1,0-.7h0a.5.5,0,0,1,.71,0h0a.5.5,0,0,1,0,.7h0a.5.5,0,0,1-.33.13h0A.51.51,0,0,1,59.44,12.11ZM8.94,12a.48.48,0,0,1,0-.7h0a.49.49,0,0,1,.7,0h0a.51.51,0,0,1,0,.71h0a.5.5,0,0,1-.37.16h0A.5.5,0,0,1,8.94,12Zm48.43-2a.5.5,0,0,1,0-.71h0a.5.5,0,0,1,.71,0h0a.5.5,0,0,1,0,.71h0a.52.52,0,0,1-.36.16h0A.52.52,0,0,1,57.37,10ZM11,9.88a.5.5,0,0,1,0-.71h0a.5.5,0,0,1,.71,0h0a.5.5,0,0,1,0,.71h0a.53.53,0,0,1-.34.13h0A.47.47,0,0,1,11,9.88Zm44.11-1.8h0a.5.5,0,0,1-.09-.7h0a.51.51,0,0,1,.71-.09h0a.51.51,0,0,1,.08.71h0a.51.51,0,0,1-.39.19h0A.51.51,0,0,1,55.13,8.08ZM13.27,7.91a.51.51,0,0,1,.09-.71h0a.5.5,0,0,1,.7.09h0A.5.5,0,0,1,14,8h0a.5.5,0,0,1-.3.11h0A.53.53,0,0,1,13.27,7.91ZM52.73,6.36a.5.5,0,0,1-.15-.69h0a.5.5,0,0,1,.69-.15h0a.51.51,0,0,1,.15.7h0a.52.52,0,0,1-.42.22h0A.44.44,0,0,1,52.73,6.36Zm-37-.22a.49.49,0,0,1,.15-.69h0a.49.49,0,0,1,.69.14h0a.52.52,0,0,1-.15.7h0a.48.48,0,0,1-.28.09h0A.5.5,0,0,1,15.7,6.14ZM50.18,4.86A.5.5,0,0,1,50,4.19h0A.5.5,0,0,1,50.65,4h0a.5.5,0,0,1,.21.67h0a.51.51,0,0,1-.45.27h0A.46.46,0,0,1,50.18,4.86ZM18.26,4.59a.51.51,0,0,1,.21-.68h0a.51.51,0,0,1,.68.21h0a.52.52,0,0,1-.21.68h0a.52.52,0,0,1-.23.06h0A.51.51,0,0,1,18.26,4.59Zm29.25-1a.49.49,0,0,1-.26-.65h0a.49.49,0,0,1,.65-.27h0a.52.52,0,0,1,.27.66h0a.5.5,0,0,1-.46.3h0A.46.46,0,0,1,47.51,3.59ZM21,3.27a.49.49,0,0,1,.26-.65h0a.5.5,0,0,1,.66.27h0a.5.5,0,0,1-.27.65h0a.43.43,0,0,1-.19,0h0A.5.5,0,0,1,21,3.27Zm23.78-.71a.49.49,0,0,1-.32-.62h0a.5.5,0,0,1,.63-.33h0a.51.51,0,0,1,.32.63h0a.5.5,0,0,1-.48.35h0A.41.41,0,0,1,44.74,2.56Zm-21-.36a.5.5,0,0,1,.32-.63h0a.5.5,0,0,1,.63.33h0a.51.51,0,0,1-.33.63h0l-.15,0h0A.49.49,0,0,1,23.76,2.2Zm18.13-.41a.49.49,0,0,1-.37-.6h0a.49.49,0,0,1,.59-.38h0a.5.5,0,0,1,.38.6h0A.5.5,0,0,1,42,1.8h-.11ZM26.64,1.38A.5.5,0,0,1,27,.78h0a.51.51,0,0,1,.6.38h0a.51.51,0,0,1-.38.6h-.11A.5.5,0,0,1,26.64,1.38ZM39,1.27A.51.51,0,0,1,38.55.7h0a.51.51,0,0,1,.57-.43h0a.5.5,0,0,1,.43.56h0a.5.5,0,0,1-.5.43H39ZM29.59.82A.49.49,0,0,1,30,.26h0a.51.51,0,0,1,.57.43h0a.51.51,0,0,1-.43.56h-.07A.49.49,0,0,1,29.59.82ZM36,1a.49.49,0,0,1-.47-.52h0A.5.5,0,0,1,36.09,0h0a.52.52,0,0,1,.48.53h0a.51.51,0,0,1-.5.47h0ZM32.57.52A.5.5,0,0,1,33.05,0h0a.5.5,0,0,1,.52.48h0a.51.51,0,0,1-.48.52h0A.5.5,0,0,1,32.57.52Z"/></g></g></svg>