<svg xmlns="http://www.w3.org/2000/svg" viewBox="0 0 63 68.7"><defs><style>.cls-1{fill:#4d4f53;}</style></defs><title>read-icon</title><g id="Layer_2" data-name="Layer 2"><g id="Design"><path class="cls-1" d="M31.61,68.39a.49.49,0,0,1,.27-.65h0a.49.49,0,0,1,.65.26h0a.5.5,0,0,1-.27.66h0a.43.43,0,0,1-.19,0h0A.51.51,0,0,1,31.61,68.39ZM29.11,68a.52.52,0,0,1-.27-.66h0A.52.52,0,0,1,29.5,67h0a.52.52,0,0,1,.27.66h0a.52.52,0,0,1-.47.31h0A.66.66,0,0,1,29.11,68Zm5.27-.75a.5.5,0,0,1,.26-.65h0a.5.5,0,0,1,.66.27h0a.51.51,0,0,1-.27.65h0a.43.43,0,0,1-.19,0h0A.5.5,0,0,1,34.38,67.23Zm-8-.41a.5.5,0,0,1-.26-.66h0a.5.5,0,0,1,.65-.27h0a.5.5,0,0,1,.27.66h0a.51.51,0,0,1-.46.31h0A.69.69,0,0,1,26.34,66.82Zm10.8-.75a.51.51,0,0,1,.27-.65h0a.48.48,0,0,1,.65.27h0a.5.5,0,0,1-.26.65h0a.49.49,0,0,1-.2,0h0A.51.51,0,0,1,37.14,66.07Zm-13.56-.41a.5.5,0,0,1-.27-.66h0a.52.52,0,0,1,.66-.27h0a.5.5,0,0,1,.26.66h0a.5.5,0,0,1-.46.31h0A.63.63,0,0,1,23.58,65.65Zm16.33-.75a.49.49,0,0,1,.27-.65h0a.49.49,0,0,1,.65.27h0a.49.49,0,0,1-.27.65h0a.41.41,0,0,1-.19,0h0A.51.51,0,0,1,39.91,64.9Zm-19.1-.41a.52.52,0,0,1-.27-.66h0a.52.52,0,0,1,.66-.27h0a.52.52,0,0,1,.27.66h0a.52.52,0,0,1-.47.31h0A.63.63,0,0,1,20.81,64.49Zm21.87-.75a.49.49,0,0,1,.26-.65h0a.5.5,0,0,1,.66.27h0a.5.5,0,0,1-.27.65h0a.43.43,0,0,1-.19,0h0A.48.48,0,0,1,42.68,63.74ZM18,63.34a.5.5,0,0,1-.26-.66h0a.51.51,0,0,1,.65-.27h0a.5.5,0,0,1,.27.66h0a.5.5,0,0,1-.46.3h0A.71.71,0,0,1,18,63.34Zm27.4-.75a.51.51,0,0,1,.27-.65h0a.49.49,0,0,1,.65.26h0a.5.5,0,0,1-.26.66h0a.47.47,0,0,1-.2,0h0A.51.51,0,0,1,45.44,62.59Zm-30.16-.42a.49.49,0,0,1-.27-.65h0a.52.52,0,0,1,.66-.27h0a.5.5,0,0,1,.26.66h0a.49.49,0,0,1-.46.3h0A.44.44,0,0,1,15.28,62.17Zm32.93-.74a.49.49,0,0,1,.27-.65h0a.49.49,0,0,1,.65.27h0a.49.49,0,0,1-.27.65h0a.4.4,0,0,1-.19,0h0A.51.51,0,0,1,48.21,61.43ZM12.51,61a.52.52,0,0,1-.27-.66h0a.52.52,0,0,1,.66-.27h0a.52.52,0,0,1,.27.66h0a.5.5,0,0,1-.47.3h0ZM51,60.27a.49.49,0,0,1,.26-.65h0a.5.5,0,0,1,.66.26h0a.51.51,0,0,1-.27.66h0a.43.43,0,0,1-.19,0h0A.5.5,0,0,1,51,60.27ZM9.74,59.86a.5.5,0,0,1-.26-.66h0a.51.51,0,0,1,.65-.27h0a.5.5,0,0,1,.27.66h0a.51.51,0,0,1-.46.31h0A.69.69,0,0,1,9.74,59.86Zm44-.75a.51.51,0,0,1,.27-.65h0a.51.51,0,0,1,.66.26h0a.52.52,0,0,1-.27.66h0a.48.48,0,0,1-.19,0h0A.51.51,0,0,1,53.74,59.11ZM7,58.7A.5.5,0,0,1,6.71,58h0a.51.51,0,0,1,.65-.27h0a.5.5,0,0,1,.27.66h0a.49.49,0,0,1-.46.3h0A.61.61,0,0,1,7,58.7Zm49.53-.75a.49.49,0,0,1,.27-.65h0a.49.49,0,0,1,.65.27h0a.49.49,0,0,1-.27.65h0a.42.42,0,0,1-.19,0h0A.5.5,0,0,1,56.51,57.95Zm-52.3-.41a.52.52,0,0,1-.27-.66h0a.51.51,0,0,1,.66-.27h0a.52.52,0,0,1,.27.66h0a.49.49,0,0,1-.47.3h0A.61.61,0,0,1,4.21,57.53Zm55.07-.75a.49.49,0,0,1,.26-.65h0a.5.5,0,0,1,.66.26h0a.5.5,0,0,1-.27.66h0a.43.43,0,0,1-.19,0h0A.5.5,0,0,1,59.28,56.78ZM1.44,56.36a.49.49,0,0,1-.26-.65h0a.51.51,0,0,1,.65-.27h0a.5.5,0,0,1,.27.66h0a.5.5,0,0,1-.46.3h0A.47.47,0,0,1,1.44,56.36ZM62,55.63a.51.51,0,0,1,.27-.65h0a.51.51,0,0,1,.66.26h0a.52.52,0,0,1-.27.66h0a.46.46,0,0,1-.19,0h0A.51.51,0,0,1,62,55.63Zm0-1.37a.5.5,0,0,1,.5-.5h0a.5.5,0,0,1,.5.5h0a.5.5,0,0,1-.5.5h0A.51.51,0,0,1,62,54.26ZM0,53.67a.5.5,0,0,1,.5-.5h0a.5.5,0,0,1,.5.5H1a.5.5,0,0,1-.5.5h0A.51.51,0,0,1,0,53.67Zm62-2.41a.5.5,0,0,1,.5-.5h0a.5.5,0,0,1,.5.5h0a.5.5,0,0,1-.5.5h0A.51.51,0,0,1,62,51.26ZM0,50.67a.5.5,0,0,1,.5-.5h0a.5.5,0,0,1,.5.5H1a.5.5,0,0,1-.5.5h0A.5.5,0,0,1,0,50.67Zm62-2.41a.51.51,0,0,1,.5-.51h0a.5.5,0,0,1,.5.51h0a.5.5,0,0,1-.5.5h0A.51.51,0,0,1,62,48.26ZM0,47.67a.5.5,0,0,1,.5-.5h0a.5.5,0,0,1,.5.5H1a.5.5,0,0,1-.5.5h0A.51.51,0,0,1,0,47.67Zm62-2.42a.5.5,0,0,1,.5-.49h0a.49.49,0,0,1,.5.49h0a.5.5,0,0,1-.5.51h0A.51.51,0,0,1,62,45.24ZM0,44.67a.5.5,0,0,1,.5-.5h0a.5.5,0,0,1,.5.5H1a.5.5,0,0,1-.5.5h0A.5.5,0,0,1,0,44.67Zm62-2.41a.5.5,0,0,1,.5-.5h0a.5.5,0,0,1,.5.5h0a.49.49,0,0,1-.5.49h0A.5.5,0,0,1,62,42.26ZM0,41.67a.5.5,0,0,1,.5-.5h0a.5.5,0,0,1,.5.5H1a.5.5,0,0,1-.5.5h0A.5.5,0,0,1,0,41.67Zm62-2.41a.5.5,0,0,1,.5-.5h0a.5.5,0,0,1,.5.5h0a.5.5,0,0,1-.5.5h0A.51.51,0,0,1,62,39.26ZM0,38.67a.5.5,0,0,1,.5-.5h0a.5.5,0,0,1,.5.5H1a.5.5,0,0,1-.5.5h0A.51.51,0,0,1,0,38.67Zm62-2.41a.5.5,0,0,1,.5-.5h0a.5.5,0,0,1,.5.5h0a.5.5,0,0,1-.5.5h0A.51.51,0,0,1,62,36.26ZM0,35.67a.5.5,0,0,1,.5-.5h0a.5.5,0,0,1,.5.5H1a.5.5,0,0,1-.5.5h0A.5.5,0,0,1,0,35.67Zm62-2.41a.5.5,0,0,1,.5-.5h0a.5.5,0,0,1,.5.5h0a.5.5,0,0,1-.5.5h0A.51.51,0,0,1,62,33.26ZM0,32.67a.5.5,0,0,1,.5-.5h0a.5.5,0,0,1,.5.5H1a.5.5,0,0,1-.5.5h0A.51.51,0,0,1,0,32.67Zm62-2.41a.5.5,0,0,1,.5-.5h0a.5.5,0,0,1,.5.5h0a.5.5,0,0,1-.5.5h0A.51.51,0,0,1,62,30.26ZM0,29.67a.5.5,0,0,1,.5-.5h0a.5.5,0,0,1,.5.5H1a.5.5,0,0,1-.5.5h0A.51.51,0,0,1,0,29.67Zm62-2.41a.5.5,0,0,1,.5-.5h0a.5.5,0,0,1,.5.5h0a.5.5,0,0,1-.5.5h0A.51.51,0,0,1,62,27.26ZM0,26.67a.5.5,0,0,1,.5-.5h0a.5.5,0,0,1,.5.5H1a.5.5,0,0,1-.5.5h0A.5.5,0,0,1,0,26.67Zm62-2.41a.51.51,0,0,1,.5-.51h0a.5.5,0,0,1,.5.51h0a.5.5,0,0,1-.5.5h0A.51.51,0,0,1,62,24.26ZM0,23.67a.5.5,0,0,1,.5-.5h0a.5.5,0,0,1,.5.5H1a.5.5,0,0,1-.5.5h0A.51.51,0,0,1,0,23.67Zm62-2.41a.5.5,0,0,1,.5-.5h0a.5.5,0,0,1,.5.5h0a.5.5,0,0,1-.5.5h0A.51.51,0,0,1,62,21.26ZM0,20.67a.5.5,0,0,1,.5-.5h0a.5.5,0,0,1,.5.5H1a.5.5,0,0,1-.5.5h0A.5.5,0,0,1,0,20.67Zm62-2.41a.5.5,0,0,1,.5-.5h0a.5.5,0,0,1,.5.5h0a.5.5,0,0,1-.5.5h0A.51.51,0,0,1,62,18.26ZM0,17.67a.5.5,0,0,1,.5-.5h0a.5.5,0,0,1,.5.5H1a.5.5,0,0,1-.5.5h0A.5.5,0,0,1,0,17.67Zm62-2.41a.5.5,0,0,1,.5-.5h0a.5.5,0,0,1,.5.5h0a.5.5,0,0,1-.5.5h0A.51.51,0,0,1,62,15.26ZM0,14.67a.5.5,0,0,1,.5-.5h0a.5.5,0,0,1,.5.5H1a.5.5,0,0,1-.5.5h0A.51.51,0,0,1,0,14.67ZM31.34,13.2a.5.5,0,0,1,.27-.65h0a.5.5,0,0,1,.65.28h0a.49.49,0,0,1-.27.65h0a.63.63,0,0,1-.19,0h0A.49.49,0,0,1,31.34,13.2Zm30.66-1a.5.5,0,0,1,.5-.49h0a.49.49,0,0,1,.5.49h0a.5.5,0,0,1-.5.51h0A.51.51,0,0,1,62,12.24Zm-33.17.2a.49.49,0,0,1-.27-.65h0a.49.49,0,0,1,.65-.27h0a.49.49,0,0,1,.27.65h0a.49.49,0,0,1-.46.31h0A.43.43,0,0,1,28.83,12.45Zm5.29-.37a.5.5,0,0,1,.27-.66h0a.5.5,0,0,1,.65.28h0a.51.51,0,0,1-.27.65h0a.46.46,0,0,1-.19,0h0A.49.49,0,0,1,34.12,12.07ZM0,11.67a.5.5,0,0,1,.5-.5h0a.5.5,0,0,1,.5.5H1a.5.5,0,0,1-.5.5h0A.5.5,0,0,1,0,11.67Zm26-.34a.5.5,0,0,1-.27-.65h0a.5.5,0,0,1,.65-.28h0a.5.5,0,0,1,.27.65h0a.48.48,0,0,1-.46.31h0A.61.61,0,0,1,26,11.32Zm10.84-.39a.5.5,0,0,1,.27-.65h0a.51.51,0,0,1,.66.27h0a.5.5,0,0,1-.28.65h0a.4.4,0,0,1-.19,0h0A.51.51,0,0,1,36.89,10.94ZM23.27,10.2A.49.49,0,0,1,23,9.55h0a.5.5,0,0,1,.65-.28h0a.51.51,0,0,1,.27.66h0a.5.5,0,0,1-.46.31h0A.43.43,0,0,1,23.27,10.2Zm16.4-.4a.49.49,0,0,1,.27-.65h0a.51.51,0,0,1,.65.27h0a.49.49,0,0,1-.27.65h0a.43.43,0,0,1-.19,0h0A.5.5,0,0,1,39.67,9.8ZM62,9.26a.5.5,0,0,1,.5-.5h0a.5.5,0,0,1,.5.5h0a.49.49,0,0,1-.5.49h0A.5.5,0,0,1,62,9.26ZM0,8.67a.5.5,0,0,1,.5-.5h0a.5.5,0,0,1,.5.5H1a.5.5,0,0,1-.5.5h0A.51.51,0,0,1,0,8.67Zm20.49.41a.51.51,0,0,1-.27-.66h0a.49.49,0,0,1,.65-.27h0a.49.49,0,0,1,.27.65h0a.5.5,0,0,1-.46.31h0A.61.61,0,0,1,20.49,9.07Zm22-.42A.5.5,0,0,1,42.72,8h0a.51.51,0,0,1,.65.27h0a.5.5,0,0,1-.28.65h0a.42.42,0,0,1-.19,0h0A.49.49,0,0,1,42.44,8.65ZM17.71,7.95a.5.5,0,0,1-.27-.65h0A.5.5,0,0,1,18.09,7h0a.51.51,0,0,1,.27.65h0A.49.49,0,0,1,17.9,8h0A.63.63,0,0,1,17.71,7.95Zm27.51-.42a.5.5,0,0,1,.27-.66h0a.5.5,0,0,1,.65.28h0a.49.49,0,0,1-.27.65h0a.66.66,0,0,1-.19,0h0A.5.5,0,0,1,45.22,7.53ZM14.93,6.82a.5.5,0,0,1-.27-.65h0a.5.5,0,0,1,.65-.28h0a.51.51,0,0,1,.27.66h0a.5.5,0,0,1-.46.31h0A.43.43,0,0,1,14.93,6.82ZM62,6.26a.5.5,0,0,1,.5-.5h0a.5.5,0,0,1,.5.5h0a.5.5,0,0,1-.5.5h0A.51.51,0,0,1,62,6.26ZM48,6.39a.5.5,0,0,1,.28-.65h0a.49.49,0,0,1,.65.27h0a.5.5,0,0,1-.27.65h0a.7.7,0,0,1-.19,0h0A.51.51,0,0,1,48,6.39ZM0,5.67a.5.5,0,0,1,.5-.5h0a.5.5,0,0,1,.5.5H1a.5.5,0,0,1-.5.5h0A.51.51,0,0,1,0,5.67Zm12.15,0A.51.51,0,0,1,11.87,5h0a.5.5,0,0,1,.65-.27h0a.49.49,0,0,1,.28.65h0a.48.48,0,0,1-.46.31h0A.61.61,0,0,1,12.15,5.7Zm38.62-.45A.49.49,0,0,1,51,4.6h0a.49.49,0,0,1,.65.27h0a.49.49,0,0,1-.27.65h0a.43.43,0,0,1-.19,0h0A.5.5,0,0,1,50.77,5.24ZM9.37,4.57a.5.5,0,0,1-.28-.65h0a.5.5,0,0,1,.65-.28h0a.5.5,0,0,1,.28.65h0a.49.49,0,0,1-.46.32h0A.57.57,0,0,1,9.37,4.57Zm44.17-.46a.5.5,0,0,1,.28-.65h0a.5.5,0,0,1,.65.27h0a.5.5,0,0,1-.27.65h0a.44.44,0,0,1-.19,0h0A.52.52,0,0,1,53.54,4.11ZM62,3.26a.5.5,0,0,1,.5-.5h0a.5.5,0,0,1,.5.5h0a.5.5,0,0,1-.5.5h0A.51.51,0,0,1,62,3.26ZM6.59,3.44a.5.5,0,0,1-.28-.65h0A.5.5,0,0,1,7,2.52H7a.5.5,0,0,1,.28.65h0a.51.51,0,0,1-.46.31h0A.4.4,0,0,1,6.59,3.44ZM56.32,3a.51.51,0,0,1,.27-.65h0a.52.52,0,0,1,.66.27h0a.5.5,0,0,1-.28.65h0a.4.4,0,0,1-.19,0h0A.49.49,0,0,1,56.32,3ZM0,2.67a.5.5,0,0,1,.5-.5h0a.5.5,0,0,1,.5.5H1a.5.5,0,0,1-.5.5h0A.5.5,0,0,1,0,2.67Zm3.81-.35a.5.5,0,0,1-.28-.65h0a.5.5,0,0,1,.65-.28h0A.5.5,0,0,1,4.46,2h0A.49.49,0,0,1,4,2.35H4A.57.57,0,0,1,3.81,2.32ZM59.1,1.82a.49.49,0,0,1,.27-.65h0a.5.5,0,0,1,.65.27h0a.51.51,0,0,1-.27.66h0a.63.63,0,0,1-.19,0h0A.48.48,0,0,1,59.1,1.82ZM1,1.19A.5.5,0,0,1,.75.53h0A.5.5,0,0,1,1.4.26h0A.5.5,0,0,1,1.68.9h0a.5.5,0,0,1-.46.32h0A.6.6,0,0,1,1,1.19ZM61.87.7A.51.51,0,0,1,62.15,0h0a.51.51,0,0,1,.65.28h0a.5.5,0,0,1-.28.65h0a.6.6,0,0,1-.19,0h0A.51.51,0,0,1,61.87.7Z"/><path class="cls-1" d="M42,18.64a.5.5,0,0,1,.25-.66h0a.49.49,0,0,1,.66.26h0a.5.5,0,0,1-.26.66h0a.63.63,0,0,1-.2,0h0A.49.49,0,0,1,42,18.64Zm2.75-1.2a.48.48,0,0,1,.26-.65h0a.49.49,0,0,1,.66.26h0a.49.49,0,0,1-.26.65h0a.51.51,0,0,1-.2,0h0A.49.49,0,0,1,44.72,17.44Zm2.75-1.19a.51.51,0,0,1,.26-.66h0a.51.51,0,0,1,.66.26h0a.5.5,0,0,1-.26.66h0a.49.49,0,0,1-.2,0h0A.5.5,0,0,1,47.47,16.24Zm2.75-1.19a.51.51,0,0,1,.26-.66h0a.5.5,0,0,1,.66.26h0a.51.51,0,0,1-.26.66h0a.44.44,0,0,1-.2,0h0A.51.51,0,0,1,50.22,15.06ZM53,13.86a.5.5,0,0,1,.27-.66h0a.5.5,0,0,1,.65.26h0a.48.48,0,0,1-.26.65h0a.45.45,0,0,1-.2.05h0A.53.53,0,0,1,53,13.86Z"/><path class="cls-1" d="M42,54.64a.5.5,0,0,1,.26-.66h0a.49.49,0,0,1,.65.26h0a.5.5,0,0,1-.26.66h0a.43.43,0,0,1-.19,0h0A.49.49,0,0,1,42,54.64Zm2.75-1.2a.5.5,0,0,1,.26-.65h0a.49.49,0,0,1,.65.26h0a.48.48,0,0,1-.25.65h0a.53.53,0,0,1-.2,0h0A.5.5,0,0,1,44.72,53.44Zm2.75-1.19a.51.51,0,0,1,.26-.66h0a.51.51,0,0,1,.66.26h0a.5.5,0,0,1-.26.66h0a.49.49,0,0,1-.2,0h0A.5.5,0,0,1,47.47,52.24Zm2.75-1.19a.51.51,0,0,1,.26-.66h0a.5.5,0,0,1,.66.26h0a.5.5,0,0,1-.26.66h0a.44.44,0,0,1-.2,0h0A.51.51,0,0,1,50.22,51.06ZM53,49.86a.5.5,0,0,1,.25-.66h0a.49.49,0,0,1,.66.26h0a.5.5,0,0,1-.26.66h0a.66.66,0,0,1-.19,0h0A.5.5,0,0,1,53,49.86Z"/><path class="cls-1" d="M21,19.86a.51.51,0,0,1-.26-.66h0a.5.5,0,0,1,.66-.26h0a.5.5,0,0,1,.26.65h0a.51.51,0,0,1-.46.31h0A.69.69,0,0,1,21,19.86Zm-2.75-1.2A.49.49,0,0,1,18,18h0a.5.5,0,0,1,.65-.26h0a.5.5,0,0,1,.27.66h0a.51.51,0,0,1-.46.3h0A.44.44,0,0,1,18.3,18.65Zm-2.75-1.19a.5.5,0,0,1-.26-.66h0a.5.5,0,0,1,.65-.26h0a.49.49,0,0,1,.26.66h0a.49.49,0,0,1-.45.3h0A.46.46,0,0,1,15.55,17.47Zm-2.76-1.19a.51.51,0,0,1-.26-.66h0a.5.5,0,0,1,.66-.26h0a.5.5,0,0,1,.26.65h0a.51.51,0,0,1-.46.31h0A.7.7,0,0,1,12.79,16.28ZM10,15.07a.49.49,0,0,1-.26-.65h0a.5.5,0,0,1,.66-.27h0a.51.51,0,0,1,.26.66h0a.5.5,0,0,1-.46.3h0A.47.47,0,0,1,10,15.07Z"/><path class="cls-1" d="M42,27.64a.5.5,0,0,1,.26-.66h0a.49.49,0,0,1,.65.26h0a.5.5,0,0,1-.26.66h0a.63.63,0,0,1-.2,0h0A.49.49,0,0,1,42,27.64Zm2.75-1.2a.5.5,0,0,1,.26-.65h0a.49.49,0,0,1,.65.25h0a.49.49,0,0,1-.25.66h0a.51.51,0,0,1-.2,0h0A.49.49,0,0,1,44.72,26.44Zm2.75-1.19a.51.51,0,0,1,.26-.66h0a.51.51,0,0,1,.66.26h0a.5.5,0,0,1-.26.66h0a.49.49,0,0,1-.2,0h0A.5.5,0,0,1,47.47,25.24Zm2.75-1.19a.5.5,0,0,1,.26-.66h0a.5.5,0,0,1,.66.26h0a.51.51,0,0,1-.26.66h0a.44.44,0,0,1-.2,0h0A.5.5,0,0,1,50.22,24.06ZM53,22.86a.5.5,0,0,1,.26-.66h0a.5.5,0,0,1,.65.26h0a.48.48,0,0,1-.26.65h0a.45.45,0,0,1-.2.05h0A.5.5,0,0,1,53,22.86Z"/><path class="cls-1" d="M21,28.85a.5.5,0,0,1-.26-.65h0a.5.5,0,0,1,.66-.26h0a.5.5,0,0,1,.26.65h0a.51.51,0,0,1-.46.31h0A.49.49,0,0,1,21,28.85ZM18.3,27.65A.49.49,0,0,1,18,27h0a.5.5,0,0,1,.66-.26h0a.5.5,0,0,1,.25.66h0a.48.48,0,0,1-.45.3h0A.44.44,0,0,1,18.3,27.65Zm-2.75-1.19a.5.5,0,0,1-.26-.66h0a.5.5,0,0,1,.65-.26h0a.49.49,0,0,1,.26.66h0a.49.49,0,0,1-.46.3h0A.44.44,0,0,1,15.55,26.47Zm-2.76-1.19a.51.51,0,0,1-.26-.66h0a.5.5,0,0,1,.66-.26h0a.5.5,0,0,1,.26.66h0a.52.52,0,0,1-.46.3h0A.7.7,0,0,1,12.79,25.28ZM10,24.07a.49.49,0,0,1-.26-.65h0a.5.5,0,0,1,.66-.27h0a.51.51,0,0,1,.26.66h0a.5.5,0,0,1-.46.3h0A.47.47,0,0,1,10,24.07Z"/><path class="cls-1" d="M42,36.64a.5.5,0,0,1,.26-.66h0a.5.5,0,0,1,.66.26h0a.5.5,0,0,1-.26.66h0a.63.63,0,0,1-.2,0h0A.51.51,0,0,1,42,36.64Zm2.76-1.2a.49.49,0,0,1,.26-.65h0a.5.5,0,0,1,.66.26h0a.5.5,0,0,1-.27.65h0a.43.43,0,0,1-.19,0h0A.49.49,0,0,1,44.72,35.44Zm2.75-1.19a.51.51,0,0,1,.26-.66h0a.51.51,0,0,1,.66.26h0a.5.5,0,0,1-.26.66h0a.49.49,0,0,1-.2,0h0A.5.5,0,0,1,47.47,34.24Zm2.75-1.19a.51.51,0,0,1,.26-.66h0a.5.5,0,0,1,.66.26h0a.51.51,0,0,1-.26.66h0a.44.44,0,0,1-.2,0h0A.51.51,0,0,1,50.22,33.06ZM53,31.86a.5.5,0,0,1,.26-.66h0a.49.49,0,0,1,.65.26h0a.48.48,0,0,1-.26.65h0a.45.45,0,0,1-.2.05h0A.5.5,0,0,1,53,31.86Z"/><path class="cls-1" d="M21,37.86a.51.51,0,0,1-.26-.66h0a.5.5,0,0,1,.66-.26h0a.5.5,0,0,1,.26.65h0a.51.51,0,0,1-.46.31h0A.63.63,0,0,1,21,37.86Zm-2.75-1.2A.49.49,0,0,1,18,36h0a.5.5,0,0,1,.65-.26h0a.5.5,0,0,1,.26.66h0a.48.48,0,0,1-.45.3h0A.44.44,0,0,1,18.3,36.65Zm-2.76-1.19a.49.49,0,0,1-.25-.66h0a.5.5,0,0,1,.65-.26h0a.5.5,0,0,1,.26.66h0a.49.49,0,0,1-.46.3h0A.52.52,0,0,1,15.54,35.47Zm-2.75-1.2a.49.49,0,0,1-.26-.65h0a.5.5,0,0,1,.66-.26h0a.5.5,0,0,1,.26.65h0a.5.5,0,0,1-.46.31h0A.53.53,0,0,1,12.79,34.27ZM10,33.07a.49.49,0,0,1-.26-.65h0a.49.49,0,0,1,.66-.26h0a.49.49,0,0,1,.26.65h0a.5.5,0,0,1-.46.3h0A.45.45,0,0,1,10,33.07Z"/><path class="cls-1" d="M21,55.85a.5.5,0,0,1-.26-.65h0a.5.5,0,0,1,.66-.26h0a.49.49,0,0,1,.26.65h0a.51.51,0,0,1-.46.31h0A.45.45,0,0,1,21,55.85ZM18.3,54.65A.49.49,0,0,1,18,54h0a.5.5,0,0,1,.65-.26h0a.5.5,0,0,1,.27.66h0a.51.51,0,0,1-.46.3h0A.44.44,0,0,1,18.3,54.65Zm-2.75-1.19a.5.5,0,0,1-.26-.66h0a.5.5,0,0,1,.65-.26h0a.5.5,0,0,1,.26.66h0a.49.49,0,0,1-.45.3h0A.46.46,0,0,1,15.55,53.47Zm-2.76-1.2a.49.49,0,0,1-.26-.65h0a.5.5,0,0,1,.66-.26h0a.5.5,0,0,1,.26.65h0a.5.5,0,0,1-.46.31h0A.53.53,0,0,1,12.79,52.27ZM10,51.07a.5.5,0,0,1-.26-.66h0a.5.5,0,0,1,.66-.26h0a.51.51,0,0,1,.26.66h0a.5.5,0,0,1-.46.3h0A.47.47,0,0,1,10,51.07Z"/><path class="cls-1" d="M42,45.64a.5.5,0,0,1,.26-.66h0a.49.49,0,0,1,.65.26h0a.5.5,0,0,1-.26.66h0a.43.43,0,0,1-.19,0h0A.49.49,0,0,1,42,45.64Zm2.75-1.2a.49.49,0,0,1,.26-.65h0a.5.5,0,0,1,.66.26h0a.49.49,0,0,1-.26.65h0a.51.51,0,0,1-.2,0h0A.49.49,0,0,1,44.72,44.44Zm2.75-1.19a.49.49,0,0,1,.26-.65h0a.49.49,0,0,1,.66.26h0a.5.5,0,0,1-.26.65h0a.49.49,0,0,1-.2,0h0A.5.5,0,0,1,47.47,43.24Zm2.75-1.19a.5.5,0,0,1,.26-.66h0a.5.5,0,0,1,.66.26h0a.51.51,0,0,1-.26.66h0a.44.44,0,0,1-.2,0h0A.5.5,0,0,1,50.22,42.06ZM53,40.86a.5.5,0,0,1,.26-.66h0a.49.49,0,0,1,.65.26h0a.49.49,0,0,1-.26.65h0a.45.45,0,0,1-.2.05h0A.5.5,0,0,1,53,40.86Z"/><path class="cls-1" d="M21,46.86a.51.51,0,0,1-.26-.66h0a.5.5,0,0,1,.66-.26h0a.5.5,0,0,1,.26.66h0a.52.52,0,0,1-.46.3h0A.63.63,0,0,1,21,46.86Zm-2.75-1.2A.49.49,0,0,1,18,45h0a.5.5,0,0,1,.65-.26h0a.5.5,0,0,1,.26.66h0a.48.48,0,0,1-.45.3h0A.44.44,0,0,1,18.3,45.65Zm-2.76-1.19a.52.52,0,0,1-.26-.66h0a.51.51,0,0,1,.66-.26h0a.5.5,0,0,1,.26.66h0a.49.49,0,0,1-.46.3h0A.52.52,0,0,1,15.54,44.47Zm-2.75-1.19a.51.51,0,0,1-.26-.66h0a.5.5,0,0,1,.66-.26h0a.5.5,0,0,1,.26.66h0a.52.52,0,0,1-.46.3h0A.7.7,0,0,1,12.79,43.28ZM10,42.07a.5.5,0,0,1-.26-.66h0a.52.52,0,0,1,.66-.26h0a.51.51,0,0,1,.26.66h0a.5.5,0,0,1-.46.3h0A.47.47,0,0,1,10,42.07Z"/><path class="cls-1" d="M31,64.44a.5.5,0,0,1,.5-.5h0a.5.5,0,0,1,.5.5h0a.5.5,0,0,1-.5.5h0A.51.51,0,0,1,31,64.44Zm0-3a.5.5,0,0,1,.5-.5h0a.5.5,0,0,1,.5.5h0a.5.5,0,0,1-.5.5h0A.51.51,0,0,1,31,61.44Zm0-3a.5.5,0,0,1,.5-.5h0a.5.5,0,0,1,.5.5h0a.5.5,0,0,1-.5.5h0A.51.51,0,0,1,31,58.44Zm0-3a.5.5,0,0,1,.5-.5h0a.5.5,0,0,1,.5.5h0a.5.5,0,0,1-.5.5h0A.51.51,0,0,1,31,55.44Zm0-3a.5.5,0,0,1,.5-.5h0a.5.5,0,0,1,.5.5h0a.5.5,0,0,1-.5.5h0A.51.51,0,0,1,31,52.44Zm0-3a.5.5,0,0,1,.5-.5h0a.5.5,0,0,1,.5.5h0a.5.5,0,0,1-.5.5h0A.51.51,0,0,1,31,49.44Zm0-3a.5.5,0,0,1,.5-.5h0a.5.5,0,0,1,.5.5h0a.5.5,0,0,1-.5.5h0A.51.51,0,0,1,31,46.44Zm0-3a.5.5,0,0,1,.5-.5h0a.5.5,0,0,1,.5.5h0a.5.5,0,0,1-.5.5h0A.51.51,0,0,1,31,43.44Zm0-3a.5.5,0,0,1,.5-.5h0a.5.5,0,0,1,.5.5h0a.5.5,0,0,1-.5.5h0A.51.51,0,0,1,31,40.44Zm0-3a.5.5,0,0,1,.5-.5h0a.5.5,0,0,1,.5.5h0a.5.5,0,0,1-.5.5h0A.51.51,0,0,1,31,37.44Zm0-3a.5.5,0,0,1,.5-.5h0a.5.5,0,0,1,.5.5h0a.5.5,0,0,1-.5.5h0A.51.51,0,0,1,31,34.44Zm0-3a.5.5,0,0,1,.5-.5h0a.5.5,0,0,1,.5.5h0a.5.5,0,0,1-.5.5h0A.51.51,0,0,1,31,31.44Zm0-3a.5.5,0,0,1,.5-.5h0a.5.5,0,0,1,.5.5h0a.5.5,0,0,1-.5.5h0A.51.51,0,0,1,31,28.44Zm0-3a.5.5,0,0,1,.5-.5h0a.5.5,0,0,1,.5.5h0a.5.5,0,0,1-.5.5h0A.51.51,0,0,1,31,25.44Zm0-3a.5.5,0,0,1,.5-.5h0a.5.5,0,0,1,.5.5h0a.5.5,0,0,1-.5.5h0A.51.51,0,0,1,31,22.44Zm0-3a.5.5,0,0,1,.5-.5h0a.5.5,0,0,1,.5.5h0a.5.5,0,0,1-.5.5h0A.51.51,0,0,1,31,19.44Zm0-3a.5.5,0,0,1,.5-.5h0a.5.5,0,0,1,.5.5h0a.5.5,0,0,1-.5.5h0A.51.51,0,0,1,31,16.44Z"/></g></g></svg>