<svg id="Design" xmlns="http://www.w3.org/2000/svg" viewBox="0 0 179.65 179.65"><title>read</title><circle cx="89.83" cy="89.83" r="65.48" style="fill:#005fb5"/><circle cx="89.83" cy="89.83" r="57.44" style="fill:#fff"/><polygon points="119.66 113.28 88.66 126.28 57.66 113.28 57.66 58.28 89.66 71.28 119.66 58.28 119.66 113.28" style="fill:#fff"/><line x1="119.66" y1="113.28" x2="119.66" y2="113.28" style="fill:none;stroke:#4d4f53;stroke-linecap:round;stroke-miterlimit:10"/><line x1="116.84" y1="114.46" x2="90.07" y2="125.69" style="fill:none;stroke:#4d4f53;stroke-linecap:round;stroke-miterlimit:10;stroke-dasharray:0.001,3.0559520721435547"/><line x1="88.66" y1="126.28" x2="88.66" y2="126.28" style="fill:none;stroke:#4d4f53;stroke-linecap:round;stroke-miterlimit:10"/><line x1="85.84" y1="125.1" x2="59.07" y2="113.87" style="fill:none;stroke:#4d4f53;stroke-linecap:round;stroke-miterlimit:10;stroke-dasharray:0.001,3.0559520721435547"/><line x1="57.66" y1="113.28" x2="57.66" y2="113.28" style="fill:none;stroke:#4d4f53;stroke-linecap:round;stroke-miterlimit:10"/><line x1="57.66" y1="110.23" x2="57.66" y2="59.81" style="fill:none;stroke:#4d4f53;stroke-linecap:round;stroke-miterlimit:10;stroke-dasharray:0.001,3.055555582046509"/><line x1="57.66" y1="58.28" x2="57.66" y2="58.28" style="fill:none;stroke:#4d4f53;stroke-linecap:round;stroke-miterlimit:10"/><line x1="60.33" y1="59.37" x2="88.33" y2="70.74" style="fill:none;stroke:#4d4f53;stroke-linecap:round;stroke-miterlimit:10;stroke-dasharray:0.001,2.8783464431762695"/><line x1="89.66" y1="71.28" x2="89.66" y2="71.28" style="fill:none;stroke:#4d4f53;stroke-linecap:round;stroke-miterlimit:10"/><line x1="92.39" y1="70.1" x2="118.3" y2="58.87" style="fill:none;stroke:#4d4f53;stroke-linecap:round;stroke-miterlimit:10;stroke-dasharray:0.001,2.972295045852661"/><line x1="119.66" y1="58.28" x2="119.66" y2="58.28" style="fill:none;stroke:#4d4f53;stroke-linecap:round;stroke-miterlimit:10"/><line x1="119.66" y1="61.34" x2="119.66" y2="111.75" style="fill:none;stroke:#4d4f53;stroke-linecap:round;stroke-miterlimit:10;stroke-dasharray:0.001,3.055555582046509"/><line x1="101.66" y1="76.28" x2="115.31" y2="70.37" style="fill:#fff;stroke:#4d4f53;stroke-linecap:round;stroke-miterlimit:10;stroke-dasharray:0.001,3"/><line x1="101.66" y1="112.28" x2="115.31" y2="106.37" style="fill:#fff;stroke:#4d4f53;stroke-linecap:round;stroke-miterlimit:10;stroke-dasharray:0.001,3"/><line x1="77.49" y1="77.24" x2="63.84" y2="71.32" style="fill:#fff;stroke:#4d4f53;stroke-linecap:round;stroke-miterlimit:10;stroke-dasharray:0.001,3"/><line x1="77.49" y1="113.24" x2="63.84" y2="107.32" style="fill:#fff;stroke:#4d4f53;stroke-linecap:round;stroke-miterlimit:10;stroke-dasharray:0.001,3"/><line x1="101.66" y1="103.95" x2="115.31" y2="98.03" style="fill:#fff;stroke:#4d4f53;stroke-linecap:round;stroke-miterlimit:10;stroke-dasharray:0.001,3"/><line x1="77.49" y1="104.91" x2="63.84" y2="98.99" style="fill:#fff;stroke:#4d4f53;stroke-linecap:round;stroke-miterlimit:10;stroke-dasharray:0.001,3"/><line x1="88.82" y1="73.28" x2="88.82" y2="123.62" style="fill:#fff;stroke:#4d4f53;stroke-linecap:round;stroke-miterlimit:10;stroke-dasharray:0.001,3"/><rect x="60.94" y="82.4" width="55.84" height="16.94" style="fill:#fff"/><text transform="translate(67.82 97.31)" style="font-size:18px;fill:#4d4f53;font-family:Helvetica Neue">Read</text></svg>