<svg xmlns="http://www.w3.org/2000/svg" viewBox="0 0 94.01 125.91"><defs><style>.cls-1{fill:#4d4f53;}</style></defs><title>subscribe-icon</title><g id="Layer_2" data-name="Layer 2"><g id="Design"><path class="cls-1" d="M48,108.91a.4.4,0,0,1-.19,0,.35.35,0,0,1-.16-.11.35.35,0,0,1-.11-.16.4.4,0,0,1,0-.19.43.43,0,0,1,0-.19.42.42,0,0,1,.11-.16.35.35,0,0,1,.16-.11.5.5,0,0,1,.38,0,.35.35,0,0,1,.16.11.42.42,0,0,1,.11.16.43.43,0,0,1,0,.19.41.41,0,0,1,0,.19.35.35,0,0,1-.11.16A.45.45,0,0,1,48,108.91Z"/><path class="cls-1" d="M47.47,122.58a.49.49,0,0,1,.5-.5h0a.5.5,0,0,1,.5.5h0a.51.51,0,0,1-.5.5h0A.5.5,0,0,1,47.47,122.58Zm0-2.84a.5.5,0,0,1,.5-.5h0a.51.51,0,0,1,.5.5h0a.5.5,0,0,1-.5.5h0A.49.49,0,0,1,47.47,119.74Zm0-2.83a.49.49,0,0,1,.5-.5h0a.5.5,0,0,1,.5.5h0a.5.5,0,0,1-.5.5h0A.49.49,0,0,1,47.47,116.91Zm0-2.83a.49.49,0,0,1,.5-.5h0a.5.5,0,0,1,.5.5h0a.51.51,0,0,1-.5.5h0A.5.5,0,0,1,47.47,114.08Zm0-2.84a.5.5,0,0,1,.5-.5h0a.51.51,0,0,1,.5.5h0a.5.5,0,0,1-.5.5h0A.49.49,0,0,1,47.47,111.24Z"/><path class="cls-1" d="M48,125.91a.47.47,0,0,1-.35-.15.45.45,0,0,1-.15-.35.47.47,0,0,1,.15-.35.45.45,0,0,1,.16-.11.5.5,0,0,1,.38,0,.45.45,0,0,1,.16.11.47.47,0,0,1,.15.35.51.51,0,0,1-.5.5Z"/><path class="cls-1" d="M39.47,117.41a.47.47,0,0,1-.35-.15.45.45,0,0,1-.15-.35.43.43,0,0,1,0-.19.53.53,0,0,1,.27-.27.5.5,0,0,1,.38,0,.35.35,0,0,1,.16.11.47.47,0,0,1,.15.35.41.41,0,0,1,0,.19.35.35,0,0,1-.11.16A.47.47,0,0,1,39.47,117.41Z"/><path class="cls-1" d="M53.14,116.91a.5.5,0,0,1,.5-.5h0a.51.51,0,0,1,.5.5h0a.5.5,0,0,1-.5.5h0A.5.5,0,0,1,53.14,116.91Zm-2.84,0a.51.51,0,0,1,.5-.5h0a.5.5,0,0,1,.5.5h0a.5.5,0,0,1-.5.5h0A.5.5,0,0,1,50.3,116.91Zm-2.83,0a.5.5,0,0,1,.5-.5h0a.5.5,0,0,1,.5.5h0a.5.5,0,0,1-.5.5h0A.49.49,0,0,1,47.47,116.91Zm-2.83,0a.5.5,0,0,1,.5-.5h0a.51.51,0,0,1,.5.5h0a.5.5,0,0,1-.5.5h0A.5.5,0,0,1,44.64,116.91Zm-2.84,0a.51.51,0,0,1,.5-.5h0a.5.5,0,0,1,.5.5h0a.5.5,0,0,1-.5.5h0A.5.5,0,0,1,41.8,116.91Z"/><path class="cls-1" d="M56.47,117.41a.5.5,0,0,1-.36-.15.43.43,0,0,1-.1-.16.4.4,0,0,1,0-.19.5.5,0,0,1,.14-.35.45.45,0,0,1,.17-.11.5.5,0,0,1,.38,0,.53.53,0,0,1,.27.27.43.43,0,0,1,0,.19.45.45,0,0,1-.15.35A.47.47,0,0,1,56.47,117.41Z"/><path class="cls-1" d="M93.51,40.26a.52.52,0,0,1-.36-.14A.62.62,0,0,1,93,40a.58.58,0,0,1,0-.19.5.5,0,0,1,.14-.35.51.51,0,0,1,.55-.11.43.43,0,0,1,.16.11.5.5,0,0,1,.14.35A.58.58,0,0,1,94,40a1,1,0,0,1-.11.17A.52.52,0,0,1,93.51,40.26Z"/><path class="cls-1" d="M49.33,76.35a.5.5,0,0,1,.07-.7h0a.49.49,0,0,1,.7.06h0a.5.5,0,0,1-.06.71h0a.5.5,0,0,1-.32.11h0A.5.5,0,0,1,49.33,76.35Zm2.31-1.91a.49.49,0,0,1,.06-.7h0a.51.51,0,0,1,.71.06h0a.52.52,0,0,1-.07.71h0a.46.46,0,0,1-.32.11h0A.49.49,0,0,1,51.64,74.44Zm2.3-1.91a.49.49,0,0,1,.07-.7h0a.49.49,0,0,1,.7.07h0a.49.49,0,0,1-.06.7h0a.5.5,0,0,1-.32.11h0A.5.5,0,0,1,53.94,72.53Zm2.31-1.9a.51.51,0,0,1,.06-.71h0A.51.51,0,0,1,57,70h0a.5.5,0,0,1-.07.7h0a.49.49,0,0,1-.32.12h0A.53.53,0,0,1,56.25,70.63Zm2.3-1.91a.51.51,0,0,1,.07-.71h0a.49.49,0,0,1,.7.07h0a.49.49,0,0,1-.06.7h0a.51.51,0,0,1-.32.12h0A.5.5,0,0,1,58.55,68.72Zm2.3-1.91a.52.52,0,0,1,.07-.71h0a.52.52,0,0,1,.71.07h0a.5.5,0,0,1-.07.7h0a.49.49,0,0,1-.32.12h0A.55.55,0,0,1,60.85,66.81Zm2.31-1.91a.5.5,0,0,1,.07-.71h0a.5.5,0,0,1,.7.07h0a.49.49,0,0,1-.07.7h0a.47.47,0,0,1-.32.12h0A.49.49,0,0,1,63.16,64.9ZM65.47,63a.51.51,0,0,1,.06-.71h0a.5.5,0,0,1,.7.07h0a.49.49,0,0,1-.06.7h0a.51.51,0,0,1-.32.12h0A.48.48,0,0,1,65.47,63Zm2.3-1.91a.51.51,0,0,1,.06-.71h0a.52.52,0,0,1,.71.07h0a.51.51,0,0,1-.07.71h0a.51.51,0,0,1-.32.11h0A.49.49,0,0,1,67.77,61.08Zm2.3-1.91a.5.5,0,0,1,.07-.7h0a.49.49,0,0,1,.7.06h0a.51.51,0,0,1-.06.71h0a.56.56,0,0,1-.32.11h0A.51.51,0,0,1,70.07,59.17Zm2.31-1.91a.49.49,0,0,1,.06-.7h0a.51.51,0,0,1,.71.06h0a.51.51,0,0,1-.07.71h0a.51.51,0,0,1-.32.11h0A.49.49,0,0,1,72.38,57.26Zm2.3-1.91a.5.5,0,0,1,.07-.7h0a.49.49,0,0,1,.7.06h0a.5.5,0,0,1-.06.71h0a.5.5,0,0,1-.32.11h0A.5.5,0,0,1,74.68,55.35ZM77,53.44a.49.49,0,0,1,.06-.7h0a.51.51,0,0,1,.71.06h0a.52.52,0,0,1-.07.71h0a.49.49,0,0,1-.32.12h0A.5.5,0,0,1,77,53.44Zm2.3-1.91a.5.5,0,0,1,.07-.7h0a.49.49,0,0,1,.7.07h0a.49.49,0,0,1-.06.7h0a.5.5,0,0,1-.32.11h0A.5.5,0,0,1,79.29,51.53Zm2.31-1.91a.49.49,0,0,1,.06-.7h0a.51.51,0,0,1,.71.07h0a.5.5,0,0,1-.07.7h0a.49.49,0,0,1-.32.12h0A.49.49,0,0,1,81.6,49.62Zm2.3-1.9A.5.5,0,0,1,84,47h0a.5.5,0,0,1,.7.07h0a.49.49,0,0,1-.07.7h0a.46.46,0,0,1-.31.12h0A.5.5,0,0,1,83.9,47.72Zm2.31-1.91a.51.51,0,0,1,.06-.71h0a.52.52,0,0,1,.71.07h0a.5.5,0,0,1-.07.7h0a.49.49,0,0,1-.32.12h0A.49.49,0,0,1,86.21,45.81Zm2.3-1.91a.5.5,0,0,1,.07-.71h0a.5.5,0,0,1,.7.07h0a.49.49,0,0,1-.06.7h0a.51.51,0,0,1-.32.12h0A.5.5,0,0,1,88.51,43.9ZM90.81,42a.5.5,0,0,1,.07-.7h0a.49.49,0,0,1,.7.06h0a.49.49,0,0,1-.06.7h0a.49.49,0,0,1-.32.12h0A.51.51,0,0,1,90.81,42Z"/><path class="cls-1" d="M47.41,78.44a.52.52,0,0,1-.35-.14.49.49,0,0,1-.11-.17.58.58,0,0,1,0-.19.65.65,0,0,1,0-.19.59.59,0,0,1,.11-.16.5.5,0,0,1,.54-.11.49.49,0,0,1,.17.11.55.55,0,0,1,.1.16.43.43,0,0,1,0,.19.4.4,0,0,1,0,.19.47.47,0,0,1-.1.17A.54.54,0,0,1,47.41,78.44Z"/><path class="cls-1" d="M44.75,76.42a.5.5,0,0,1-.07-.7h0a.49.49,0,0,1,.7-.07h0a.49.49,0,0,1,.08.7h0a.51.51,0,0,1-.39.18h0A.48.48,0,0,1,44.75,76.42Zm-2.34-1.91a.49.49,0,0,1-.08-.7h0a.5.5,0,0,1,.71-.07h0a.5.5,0,0,1,.07.7h0a.5.5,0,0,1-.39.18h0A.45.45,0,0,1,42.41,74.51ZM40.06,72.6a.49.49,0,0,1-.07-.7h0a.49.49,0,0,1,.7-.07h0a.49.49,0,0,1,.07.7h0a.49.49,0,0,1-.38.19h0A.49.49,0,0,1,40.06,72.6Zm-2.34-1.9a.51.51,0,0,1-.08-.71h0a.51.51,0,0,1,.71-.07h0a.5.5,0,0,1,.07.7h0a.5.5,0,0,1-.39.18h0A.5.5,0,0,1,37.72,70.7Zm-2.35-1.92a.49.49,0,0,1-.07-.7h0A.49.49,0,0,1,36,68h0a.49.49,0,0,1,.07.7h0a.5.5,0,0,1-.38.19h0A.47.47,0,0,1,35.37,68.78ZM33,66.88a.52.52,0,0,1-.07-.71h0a.51.51,0,0,1,.71-.07h0a.5.5,0,0,1,.07.7h0a.51.51,0,0,1-.39.19h0A.56.56,0,0,1,33,66.88ZM30.68,65a.5.5,0,0,1-.07-.71h0a.5.5,0,0,1,.7-.07h0a.49.49,0,0,1,.07.7h0a.51.51,0,0,1-.39.19h0A.51.51,0,0,1,30.68,65Zm-2.35-1.91a.52.52,0,0,1-.07-.71h0a.52.52,0,0,1,.71-.07h0A.52.52,0,0,1,29,63h0a.51.51,0,0,1-.39.18h0A.57.57,0,0,1,28.33,63.06ZM26,61.15a.5.5,0,0,1-.07-.71h0a.5.5,0,0,1,.7-.07h0a.51.51,0,0,1,.07.71h0a.5.5,0,0,1-.39.18h0A.51.51,0,0,1,26,61.15Zm-2.35-1.91a.52.52,0,0,1-.07-.71h0a.5.5,0,0,1,.7-.07h0a.51.51,0,0,1,.08.71h0a.51.51,0,0,1-.39.18h0A.56.56,0,0,1,23.64,59.24ZM21.3,57.33a.49.49,0,0,1-.07-.7h0a.5.5,0,0,1,.7-.08h0a.52.52,0,0,1,.07.71h0a.5.5,0,0,1-.39.18h0A.51.51,0,0,1,21.3,57.33ZM19,55.42a.5.5,0,0,1-.07-.7h0a.49.49,0,0,1,.7-.08h0a.51.51,0,0,1,.08.71h0a.51.51,0,0,1-.39.18h0A.5.5,0,0,1,19,55.42Zm-2.34-1.91a.49.49,0,0,1-.08-.7h0a.51.51,0,0,1,.71-.08h0a.51.51,0,0,1,.07.71h0a.5.5,0,0,1-.39.18h0A.45.45,0,0,1,16.61,53.51ZM14.26,51.6a.49.49,0,0,1-.07-.7h0a.49.49,0,0,1,.7-.07h0a.49.49,0,0,1,.07.7h0a.48.48,0,0,1-.38.18h0A.48.48,0,0,1,14.26,51.6Zm-2.34-1.91a.5.5,0,0,1-.08-.7h0a.51.51,0,0,1,.71-.07h0a.5.5,0,0,1,.07.7h0a.51.51,0,0,1-.39.19h0A.47.47,0,0,1,11.92,49.69ZM9.57,47.78a.49.49,0,0,1-.07-.7h0a.5.5,0,0,1,.7-.07h0a.5.5,0,0,1,.08.7h0a.54.54,0,0,1-.39.19h0A.49.49,0,0,1,9.57,47.78Zm-2.35-1.9a.52.52,0,0,1-.07-.71h0a.51.51,0,0,1,.71-.07h0a.5.5,0,0,1,.07.7h0a.51.51,0,0,1-.39.19h0A.56.56,0,0,1,7.22,45.88ZM4.88,44a.5.5,0,0,1-.07-.71h0a.5.5,0,0,1,.7-.07h0a.49.49,0,0,1,.07.7h0a.48.48,0,0,1-.39.19h0A.51.51,0,0,1,4.88,44ZM2.53,42.06a.52.52,0,0,1-.07-.71h0a.52.52,0,0,1,.71-.07h0a.5.5,0,0,1,.07.7h0a.49.49,0,0,1-.39.19h0A.57.57,0,0,1,2.53,42.06Z"/><path class="cls-1" d="M.5,40.26a.52.52,0,0,1-.35-.14A.62.62,0,0,1,0,40a.58.58,0,0,1,0-.19.51.51,0,0,1,.15-.35.51.51,0,0,1,.71,0,.51.51,0,0,1,.15.35A.58.58,0,0,1,1,40a.63.63,0,0,1-.11.17A.53.53,0,0,1,.5,40.26Z"/><path class="cls-1" d="M0,90.5a.5.5,0,0,1,.5-.5h0a.5.5,0,0,1,.49.5H1a.49.49,0,0,1-.49.5h0A.49.49,0,0,1,0,90.5Zm0-3a.49.49,0,0,1,.5-.5h0a.49.49,0,0,1,.49.5H1a.5.5,0,0,1-.49.5h0A.5.5,0,0,1,0,87.52Zm0-3a.5.5,0,0,1,.5-.5h0a.5.5,0,0,1,.49.5H1a.49.49,0,0,1-.49.5h0A.49.49,0,0,1,0,84.53Zm0-3a.5.5,0,0,1,.5-.5h0a.49.49,0,0,1,.49.5H1a.5.5,0,0,1-.49.5h0A.5.5,0,0,1,0,81.55Zm0-3a.5.5,0,0,1,.5-.5h0a.5.5,0,0,1,.49.5H1a.49.49,0,0,1-.49.5h0A.5.5,0,0,1,0,78.56Zm0-3a.49.49,0,0,1,.5-.5h0a.49.49,0,0,1,.49.5H1a.5.5,0,0,1-.49.5h0A.5.5,0,0,1,0,75.58Zm0-3a.5.5,0,0,1,.5-.5h0a.5.5,0,0,1,.49.5H1a.49.49,0,0,1-.49.5h0A.49.49,0,0,1,0,72.59Zm0-3a.49.49,0,0,1,.5-.5h0a.49.49,0,0,1,.49.5H1a.5.5,0,0,1-.49.5h0A.5.5,0,0,1,0,69.61Zm0-3a.49.49,0,0,1,.5-.49h0a.49.49,0,0,1,.49.49H1a.49.49,0,0,1-.49.5h0A.49.49,0,0,1,0,66.62Zm0-3a.49.49,0,0,1,.5-.5h0a.49.49,0,0,1,.49.5H1a.5.5,0,0,1-.49.5h0A.5.5,0,0,1,0,63.64Zm0-3a.5.5,0,0,1,.5-.5h0a.5.5,0,0,1,.49.5H1a.49.49,0,0,1-.49.5h0A.49.49,0,0,1,0,60.65Zm0-3a.5.5,0,0,1,.5-.5h0a.49.49,0,0,1,.49.5H1a.5.5,0,0,1-.49.5h0A.5.5,0,0,1,0,57.67Zm0-3a.5.5,0,0,1,.5-.5h0a.5.5,0,0,1,.49.5H1a.49.49,0,0,1-.49.5h0A.5.5,0,0,1,0,54.68Zm0-3a.49.49,0,0,1,.5-.5h0a.49.49,0,0,1,.49.5H1a.49.49,0,0,1-.49.5h0A.49.49,0,0,1,0,51.7Zm0-3a.5.5,0,0,1,.5-.5h0a.5.5,0,0,1,.49.5H1a.49.49,0,0,1-.49.5h0A.49.49,0,0,1,0,48.71Zm0-3a.49.49,0,0,1,.5-.5h0a.49.49,0,0,1,.49.5H1a.49.49,0,0,1-.49.5h0A.5.5,0,0,1,0,45.73Zm0-3a.5.5,0,0,1,.5-.51h0a.5.5,0,0,1,.49.51H1a.5.5,0,0,1-.49.5h0A.5.5,0,0,1,0,42.75Z"/><path class="cls-1" d="M.5,94a.48.48,0,0,1-.35-.15A.5.5,0,0,1,0,93.49a.59.59,0,0,1,0-.19.46.46,0,0,1,.11-.16A.4.4,0,0,1,.31,93,.53.53,0,0,1,.7,93a.41.41,0,0,1,.16.11.51.51,0,0,1,.15.35.53.53,0,0,1-.15.35A.41.41,0,0,1,.7,94,.44.44,0,0,1,.5,94Z"/><path class="cls-1" d="M90,93.49a.5.5,0,0,1,.51-.5h0a.49.49,0,0,1,.49.5h0a.5.5,0,0,1-.49.5h0A.51.51,0,0,1,90,93.49Zm-3,0a.5.5,0,0,1,.5-.5h0a.49.49,0,0,1,.5.5h0a.5.5,0,0,1-.5.5h0A.51.51,0,0,1,87,93.49Zm-3,0a.5.5,0,0,1,.5-.5h0a.5.5,0,0,1,.51.5h0a.51.51,0,0,1-.51.5h0A.51.51,0,0,1,84,93.49Zm-3,0a.49.49,0,0,1,.5-.5h0a.49.49,0,0,1,.49.5h0a.5.5,0,0,1-.49.5h0A.5.5,0,0,1,81,93.49Zm-3,0a.5.5,0,0,1,.5-.5h0a.49.49,0,0,1,.5.5h0a.5.5,0,0,1-.5.5h0A.51.51,0,0,1,78,93.49Zm-3,0a.5.5,0,0,1,.51-.5h0a.5.5,0,0,1,.5.5h0a.51.51,0,0,1-.5.5h0A.51.51,0,0,1,75,93.49Zm-3,0a.49.49,0,0,1,.49-.5h0a.49.49,0,0,1,.5.5h0a.5.5,0,0,1-.5.5h0A.5.5,0,0,1,72,93.49Zm-3,0a.5.5,0,0,1,.5-.5h0a.5.5,0,0,1,.51.5h0a.51.51,0,0,1-.51.5h0A.51.51,0,0,1,69,93.49Zm-3,0a.5.5,0,0,1,.51-.5h0a.49.49,0,0,1,.49.5h0a.5.5,0,0,1-.49.5h0A.51.51,0,0,1,66,93.49Zm-3,0a.49.49,0,0,1,.49-.5h0a.49.49,0,0,1,.5.5h0a.5.5,0,0,1-.5.5h0A.5.5,0,0,1,63,93.49Zm-3,0a.5.5,0,0,1,.5-.5h0a.5.5,0,0,1,.51.5h0a.51.51,0,0,1-.51.5h0A.51.51,0,0,1,60,93.49Zm-3,0a.5.5,0,0,1,.51-.5h0a.49.49,0,0,1,.49.5h0a.5.5,0,0,1-.49.5h0A.51.51,0,0,1,57,93.49Zm-3,0a.49.49,0,0,1,.49-.5h0a.49.49,0,0,1,.5.5h0a.5.5,0,0,1-.5.5h0A.5.5,0,0,1,54,93.49Zm-3,0a.5.5,0,0,1,.5-.5h0a.5.5,0,0,1,.51.5h0a.51.51,0,0,1-.51.5h0A.51.51,0,0,1,51,93.49Zm-3,0a.5.5,0,0,1,.51-.5h0a.49.49,0,0,1,.49.5h0a.5.5,0,0,1-.49.5h0A.51.51,0,0,1,48,93.49Zm-3,0a.5.5,0,0,1,.5-.5h0a.49.49,0,0,1,.5.5h0a.5.5,0,0,1-.5.5h0A.51.51,0,0,1,45,93.49Zm-3,0a.5.5,0,0,1,.5-.5h0a.5.5,0,0,1,.51.5h0a.51.51,0,0,1-.51.5h0A.51.51,0,0,1,42,93.49Zm-3,0a.49.49,0,0,1,.49-.5h0a.49.49,0,0,1,.5.5h0a.5.5,0,0,1-.5.5h0A.5.5,0,0,1,39,93.49Zm-3,0a.5.5,0,0,1,.5-.5h0a.49.49,0,0,1,.5.5h0a.5.5,0,0,1-.5.5h0A.51.51,0,0,1,36,93.49Zm-3,0a.5.5,0,0,1,.51-.5h0a.49.49,0,0,1,.49.5h0a.5.5,0,0,1-.49.5h0A.51.51,0,0,1,33,93.49Zm-3,0a.49.49,0,0,1,.49-.5h0a.49.49,0,0,1,.5.5h0a.5.5,0,0,1-.5.5h0A.5.5,0,0,1,30,93.49Zm-3,0a.5.5,0,0,1,.5-.5h0a.5.5,0,0,1,.51.5h0a.51.51,0,0,1-.51.5h0A.51.51,0,0,1,27,93.49Zm-3,0a.5.5,0,0,1,.51-.5h0a.49.49,0,0,1,.49.5h0a.5.5,0,0,1-.49.5h0A.51.51,0,0,1,24,93.49Zm-3,0a.49.49,0,0,1,.49-.5h0a.49.49,0,0,1,.5.5h0a.5.5,0,0,1-.5.5h0A.5.5,0,0,1,21,93.49Zm-3,0a.5.5,0,0,1,.5-.5h0a.5.5,0,0,1,.51.5h0a.51.51,0,0,1-.51.5h0A.51.51,0,0,1,18,93.49Zm-3,0a.5.5,0,0,1,.51-.5h0a.49.49,0,0,1,.49.5h0a.5.5,0,0,1-.49.5h0A.51.51,0,0,1,15,93.49Zm-3,0a.49.49,0,0,1,.49-.5h0a.49.49,0,0,1,.5.5h0a.5.5,0,0,1-.5.5h0A.5.5,0,0,1,12,93.49Zm-3,0a.5.5,0,0,1,.5-.5h0a.5.5,0,0,1,.51.5h0a.51.51,0,0,1-.51.5h0A.51.51,0,0,1,9,93.49Zm-3,0a.5.5,0,0,1,.51-.5h0a.49.49,0,0,1,.49.5H7a.5.5,0,0,1-.49.5h0A.51.51,0,0,1,6,93.49Zm-3,0A.49.49,0,0,1,3.5,93h0a.49.49,0,0,1,.5.5H4a.5.5,0,0,1-.5.5h0A.5.5,0,0,1,3,93.49Z"/><path class="cls-1" d="M93.5,94a.48.48,0,0,1-.35-.15.5.5,0,0,1-.14-.35.59.59,0,0,1,0-.19.46.46,0,0,1,.11-.16.4.4,0,0,1,.16-.11.53.53,0,0,1,.39,0,.41.41,0,0,1,.16.11.51.51,0,0,1,.15.35.65.65,0,0,1,0,.19.58.58,0,0,1-.11.16A.49.49,0,0,1,93.5,94Z"/><path class="cls-1" d="M93,90.5a.51.51,0,0,1,.5-.5h0a.51.51,0,0,1,.51.5h0a.5.5,0,0,1-.51.5h0A.5.5,0,0,1,93,90.5Zm0-3a.5.5,0,0,1,.5-.5h0a.5.5,0,0,1,.51.5h0a.51.51,0,0,1-.51.5h0A.51.51,0,0,1,93,87.52Zm0-3a.51.51,0,0,1,.5-.5h0a.51.51,0,0,1,.51.5h0a.5.5,0,0,1-.51.5h0A.5.5,0,0,1,93,84.53Zm0-3a.5.5,0,0,1,.5-.5h0a.5.5,0,0,1,.51.5h0a.51.51,0,0,1-.51.5h0A.51.51,0,0,1,93,81.55Zm0-3a.51.51,0,0,1,.5-.5h0a.51.51,0,0,1,.51.5h0a.5.5,0,0,1-.51.5h0A.5.5,0,0,1,93,78.56Zm0-3a.5.5,0,0,1,.5-.5h0a.5.5,0,0,1,.51.5h0a.51.51,0,0,1-.51.5h0A.51.51,0,0,1,93,75.58Zm0-3a.51.51,0,0,1,.5-.51h0a.51.51,0,0,1,.51.51h0a.5.5,0,0,1-.51.49h0A.5.5,0,0,1,93,72.6Zm0-3a.5.5,0,0,1,.5-.5h0a.5.5,0,0,1,.51.5h0a.51.51,0,0,1-.51.5h0A.51.51,0,0,1,93,69.61Zm0-3a.5.5,0,0,1,.5-.49h0a.5.5,0,0,1,.51.49h0a.5.5,0,0,1-.51.5h0A.5.5,0,0,1,93,66.62Zm0-3a.5.5,0,0,1,.5-.5h0a.5.5,0,0,1,.51.5h0a.5.5,0,0,1-.51.5h0A.5.5,0,0,1,93,63.64Zm0-3a.5.5,0,0,1,.5-.49h0a.5.5,0,0,1,.51.49h0a.5.5,0,0,1-.51.5h0A.5.5,0,0,1,93,60.65Zm0-3a.5.5,0,0,1,.5-.5h0a.5.5,0,0,1,.51.5h0a.5.5,0,0,1-.51.5h0A.5.5,0,0,1,93,57.67Zm0-3a.51.51,0,0,1,.5-.5h0a.51.51,0,0,1,.51.5h0a.51.51,0,0,1-.51.51h0A.51.51,0,0,1,93,54.68Zm0-3a.5.5,0,0,1,.5-.5h0a.5.5,0,0,1,.51.5h0a.5.5,0,0,1-.51.5h0A.5.5,0,0,1,93,51.7Zm0-3a.51.51,0,0,1,.5-.5h0a.51.51,0,0,1,.51.5h0a.51.51,0,0,1-.51.51h0A.51.51,0,0,1,93,48.71Zm0-3a.5.5,0,0,1,.5-.5h0a.5.5,0,0,1,.51.5h0a.5.5,0,0,1-.51.5h0A.5.5,0,0,1,93,45.73Zm0-3a.5.5,0,0,1,.5-.5h0a.5.5,0,0,1,.51.5h0a.51.51,0,0,1-.51.5h0A.51.51,0,0,1,93,42.75Z"/><path class="cls-1" d="M.51,39.17a.44.44,0,0,1-.2,0A.41.41,0,0,1,.15,39,.46.46,0,0,1,0,38.86a.59.59,0,0,1,0-.19.5.5,0,0,1,.14-.35.51.51,0,0,1,.55-.11.43.43,0,0,1,.16.11.5.5,0,0,1,.14.35.59.59,0,0,1,0,.19A.66.66,0,0,1,.86,39,.49.49,0,0,1,.51,39.17Z"/><path class="cls-1" d="M2.42,37.08a.5.5,0,0,1,.07-.7h0a.49.49,0,0,1,.7.06h0a.51.51,0,0,1-.06.71h0a.56.56,0,0,1-.32.11h0A.51.51,0,0,1,2.42,37.08Zm2.31-1.91a.51.51,0,0,1,.06-.71h0a.52.52,0,0,1,.71.07h0a.51.51,0,0,1-.07.71h0a.52.52,0,0,1-.32.11h0A.49.49,0,0,1,4.73,35.17ZM7,33.26a.5.5,0,0,1,.07-.7h0a.49.49,0,0,1,.7.06h0a.51.51,0,0,1-.06.71h0a.5.5,0,0,1-.32.11h0A.5.5,0,0,1,7,33.26Zm2.31-1.91a.49.49,0,0,1,.06-.7h0a.51.51,0,0,1,.71.06h0a.52.52,0,0,1-.07.71h0a.48.48,0,0,1-.32.11h0A.49.49,0,0,1,9.34,31.35Zm2.3-1.91a.49.49,0,0,1,.07-.7h0a.49.49,0,0,1,.7.06h0a.5.5,0,0,1-.06.71h0a.5.5,0,0,1-.32.11h0A.5.5,0,0,1,11.64,29.44ZM14,27.53a.49.49,0,0,1,.06-.7h0a.5.5,0,0,1,.71.07h0a.5.5,0,0,1-.07.7h0a.49.49,0,0,1-.32.12h0A.49.49,0,0,1,14,27.53Zm2.3-1.9a.5.5,0,0,1,.07-.71h0A.49.49,0,0,1,17,25h0a.49.49,0,0,1-.07.7h0a.47.47,0,0,1-.31.12h0A.53.53,0,0,1,16.25,25.63Zm2.31-1.92a.49.49,0,0,1,.06-.7h0a.52.52,0,0,1,.71.07h0a.5.5,0,0,1-.07.7h0a.49.49,0,0,1-.32.12h0A.46.46,0,0,1,18.56,23.71Zm2.3-1.9a.5.5,0,0,1,.06-.71h0a.52.52,0,0,1,.71.07h0a.49.49,0,0,1-.07.7h0a.46.46,0,0,1-.31.12h0A.5.5,0,0,1,20.86,21.81Zm2.3-1.91a.52.52,0,0,1,.07-.71h0a.5.5,0,0,1,.7.07h0a.49.49,0,0,1-.06.7h0a.51.51,0,0,1-.32.12h0A.51.51,0,0,1,23.16,19.9ZM25.47,18a.49.49,0,0,1,.06-.7h0a.51.51,0,0,1,.71.06h0a.49.49,0,0,1-.07.7h0a.47.47,0,0,1-.32.12h0A.49.49,0,0,1,25.47,18Zm2.3-1.91a.52.52,0,0,1,.07-.71h0a.52.52,0,0,1,.71.07h0a.52.52,0,0,1-.07.71h0a.56.56,0,0,1-.32.11h0A.5.5,0,0,1,27.77,16.08Zm2.31-1.91a.49.49,0,0,1,.06-.7h0a.5.5,0,0,1,.71.06h0a.5.5,0,0,1-.07.7h0a.47.47,0,0,1-.32.12h0A.49.49,0,0,1,30.08,14.17Zm2.3-1.91a.5.5,0,0,1,.07-.7h0a.49.49,0,0,1,.7.06h0a.51.51,0,0,1-.06.71h0a.56.56,0,0,1-.32.11h0A.5.5,0,0,1,32.38,12.26Zm2.31-1.91a.49.49,0,0,1,.06-.7h0a.51.51,0,0,1,.71.06h0a.52.52,0,0,1-.07.71h0a.46.46,0,0,1-.32.11h0A.49.49,0,0,1,34.69,10.35ZM37,8.44a.5.5,0,0,1,.07-.7h0a.49.49,0,0,1,.7.07h0a.49.49,0,0,1-.07.7h0a.46.46,0,0,1-.31.12h0A.51.51,0,0,1,37,8.44ZM39.3,6.53a.49.49,0,0,1,.06-.7h0a.5.5,0,0,1,.71.07h0a.5.5,0,0,1-.07.7h0a.48.48,0,0,1-.32.11h0A.48.48,0,0,1,39.3,6.53Zm2.3-1.91a.5.5,0,0,1,.07-.7h0a.5.5,0,0,1,.7.07h0a.49.49,0,0,1-.07.7h0a.47.47,0,0,1-.31.12h0A.51.51,0,0,1,41.6,4.62Zm2.3-1.91A.5.5,0,0,1,44,2h0a.5.5,0,0,1,.71.07h0a.5.5,0,0,1-.07.7h0a.49.49,0,0,1-.32.12h0A.52.52,0,0,1,43.9,2.71Z"/><path class="cls-1" d="M46.6,1a.49.49,0,0,1-.36-.15.45.45,0,0,1-.11-.16.59.59,0,0,1,0-.19.5.5,0,0,1,.14-.35.51.51,0,0,1,.71,0,.51.51,0,0,1,.15.35.59.59,0,0,1,0,.19A.46.46,0,0,1,47,.84a.56.56,0,0,1-.16.11A.63.63,0,0,1,46.6,1Z"/><path class="cls-1" d="M90.84,37.15a.52.52,0,0,1-.07-.71h0a.5.5,0,0,1,.7-.07h0a.51.51,0,0,1,.08.71h0a.51.51,0,0,1-.39.18h0A.56.56,0,0,1,90.84,37.15ZM88.5,35.24a.5.5,0,0,1-.07-.71h0a.5.5,0,0,1,.7-.07h0a.51.51,0,0,1,.07.71h0a.5.5,0,0,1-.39.18h0A.51.51,0,0,1,88.5,35.24Zm-2.35-1.91a.5.5,0,0,1-.07-.7h0a.5.5,0,0,1,.7-.08h0a.5.5,0,0,1,.07.71h0a.48.48,0,0,1-.38.18h0A.5.5,0,0,1,86.15,33.33Zm-2.34-1.91a.49.49,0,0,1-.08-.7h0a.51.51,0,0,1,.71-.08h0a.51.51,0,0,1,.07.71h0a.5.5,0,0,1-.39.18h0A.46.46,0,0,1,83.81,31.42Zm-2.35-1.91a.5.5,0,0,1-.07-.7h0a.49.49,0,0,1,.7-.07h0a.49.49,0,0,1,.08.7h0a.51.51,0,0,1-.39.18h0A.48.48,0,0,1,81.46,29.51ZM79.11,27.6a.5.5,0,0,1-.07-.7h0a.5.5,0,0,1,.71-.07h0a.5.5,0,0,1,.07.7h0a.5.5,0,0,1-.39.18h0A.5.5,0,0,1,79.11,27.6Zm-2.34-1.91a.49.49,0,0,1-.07-.7h0a.49.49,0,0,1,.7-.07h0a.49.49,0,0,1,.07.7h0a.49.49,0,0,1-.38.18h0A.46.46,0,0,1,76.77,25.69Zm-2.34-1.9a.51.51,0,0,1-.08-.71h0a.51.51,0,0,1,.71-.07h0a.5.5,0,0,1,.07.7h0a.51.51,0,0,1-.39.19h0A.51.51,0,0,1,74.43,23.79Zm-2.35-1.91a.51.51,0,0,1-.07-.71h0a.5.5,0,0,1,.7-.07h0a.49.49,0,0,1,.07.7h0a.51.51,0,0,1-.39.19h0A.51.51,0,0,1,72.08,21.88ZM69.74,20a.51.51,0,0,1-.08-.71h0a.5.5,0,0,1,.7-.07h0a.5.5,0,0,1,.08.7h0a.52.52,0,0,1-.39.19h0A.51.51,0,0,1,69.74,20Zm-2.35-1.91a.5.5,0,0,1-.07-.71h0a.5.5,0,0,1,.7-.07h0a.5.5,0,0,1,.07.71h0a.5.5,0,0,1-.39.18h0A.51.51,0,0,1,67.39,18.06ZM65,16.15a.5.5,0,0,1-.07-.7h0a.51.51,0,0,1,.71-.08h0a.5.5,0,0,1,.07.7h0a.49.49,0,0,1-.39.19h0A.56.56,0,0,1,65,16.15ZM62.7,14.24a.5.5,0,0,1-.07-.71h0a.5.5,0,0,1,.7-.07h0a.51.51,0,0,1,.07.71h0a.5.5,0,0,1-.39.18h0A.51.51,0,0,1,62.7,14.24Zm-2.35-1.91a.5.5,0,0,1-.07-.7h0a.5.5,0,0,1,.7-.08h0a.51.51,0,0,1,.08.71h0a.51.51,0,0,1-.39.18h0A.56.56,0,0,1,60.35,12.33ZM58,10.42a.48.48,0,0,1-.07-.7h0a.49.49,0,0,1,.7-.08h0a.52.52,0,0,1,.07.71h0a.5.5,0,0,1-.39.18h0A.45.45,0,0,1,58,10.42ZM55.66,8.51a.49.49,0,0,1-.07-.7h0a.49.49,0,0,1,.7-.08h0a.5.5,0,0,1,.07.71h0a.48.48,0,0,1-.38.18h0A.48.48,0,0,1,55.66,8.51ZM53.32,6.6a.5.5,0,0,1-.08-.7h0A.5.5,0,0,1,54,5.83h0a.5.5,0,0,1,.07.7h0a.5.5,0,0,1-.39.18h0A.45.45,0,0,1,53.32,6.6ZM51,4.69A.5.5,0,0,1,50.9,4h0a.49.49,0,0,1,.7-.07h0a.49.49,0,0,1,.07.7h0a.49.49,0,0,1-.38.19h0A.49.49,0,0,1,51,4.69ZM48.63,2.78a.49.49,0,0,1-.08-.7h0A.51.51,0,0,1,49.26,2h0a.5.5,0,0,1,.07.7h0a.51.51,0,0,1-.39.19h0A.46.46,0,0,1,48.63,2.78Z"/><path class="cls-1" d="M93.5,39.17a.43.43,0,0,1-.19,0,.41.41,0,0,1-.16-.11.46.46,0,0,1-.11-.16.59.59,0,0,1,0-.19.58.58,0,0,1,0-.19.64.64,0,0,1,.11-.16.42.42,0,0,1,.16-.11.51.51,0,0,1,.55.11.5.5,0,0,1,.14.35.59.59,0,0,1,0,.19.47.47,0,0,1-.11.16.42.42,0,0,1-.16.11A.47.47,0,0,1,93.5,39.17Z"/><path class="cls-1" d="M4.05,90.44a.4.4,0,0,1-.19,0,.6.6,0,0,1-.17-.1.52.52,0,0,1-.14-.36.43.43,0,0,1,0-.19.56.56,0,0,1,.1-.16.51.51,0,0,1,.55-.11.45.45,0,0,1,.16.11.47.47,0,0,1,.15.35.49.49,0,0,1-.15.36A.5.5,0,0,1,4.05,90.44Z"/><path class="cls-1" d="M5.87,88.13a.49.49,0,0,1,0-.71h0a.48.48,0,0,1,.7,0h0a.5.5,0,0,1,0,.71h0a.5.5,0,0,1-.35.14h0A.5.5,0,0,1,5.87,88.13ZM8,86a.51.51,0,0,1,0-.71H8a.49.49,0,0,1,.71,0h0a.5.5,0,0,1,0,.71h0a.52.52,0,0,1-.35.14h0A.54.54,0,0,1,8,86Zm2.17-2.17a.51.51,0,0,1,0-.71h0a.49.49,0,0,1,.71,0h0a.49.49,0,0,1,0,.71h0a.52.52,0,0,1-.35.14h0A.54.54,0,0,1,10.2,83.79Zm2.17-2.17a.51.51,0,0,1,0-.71h0a.51.51,0,0,1,.71,0h0a.49.49,0,0,1,0,.71h0a.52.52,0,0,1-.35.14h0A.54.54,0,0,1,12.37,81.62Zm2.17-2.17a.51.51,0,0,1,0-.71h0a.51.51,0,0,1,.71,0h0a.49.49,0,0,1,0,.71h0a.47.47,0,0,1-.35.14h0A.5.5,0,0,1,14.54,79.45Zm2.17-2.17a.51.51,0,0,1,0-.71h0a.51.51,0,0,1,.71,0h0a.51.51,0,0,1,0,.71h0a.49.49,0,0,1-.35.14h0A.5.5,0,0,1,16.71,77.28Zm2.17-2.17a.51.51,0,0,1,0-.71h0a.51.51,0,0,1,.71,0h0a.5.5,0,0,1,0,.71h0a.5.5,0,0,1-.35.15h0A.51.51,0,0,1,18.88,75.11Zm2.17-2.17a.51.51,0,0,1,0-.71h0a.51.51,0,0,1,.71,0h0a.51.51,0,0,1,0,.71h0a.5.5,0,0,1-.35.15h0A.51.51,0,0,1,21.05,72.94Zm2.17-2.17a.51.51,0,0,1,0-.71h0a.51.51,0,0,1,.71,0h0a.51.51,0,0,1,0,.71h0a.51.51,0,0,1-.36.15h0A.5.5,0,0,1,23.22,70.77Zm2.17-2.17a.51.51,0,0,1,0-.71h0a.51.51,0,0,1,.71,0h0a.51.51,0,0,1,0,.71h0a.51.51,0,0,1-.36.15h0A.5.5,0,0,1,25.39,68.6Z"/><path class="cls-1" d="M27.91,66.58a.49.49,0,0,1-.35-.15.48.48,0,0,1,0-.7.43.43,0,0,1,.16-.11.51.51,0,0,1,.55.11.51.51,0,0,1,0,.7A.51.51,0,0,1,27.91,66.58Z"/><path class="cls-1" d="M90.1,90.44a.48.48,0,0,1-.5-.5.63.63,0,0,1,0-.19.94.94,0,0,1,.11-.16.56.56,0,0,1,.16-.11.53.53,0,0,1,.39,0,.56.56,0,0,1,.16.11.59.59,0,0,1,.11.16.63.63,0,0,1,0,.19.52.52,0,0,1-.14.36A.52.52,0,0,1,90.1,90.44Z"/><path class="cls-1" d="M87.57,88.13a.51.51,0,0,1,0-.71h0a.5.5,0,0,1,.71,0h0a.51.51,0,0,1,0,.71h0a.53.53,0,0,1-.35.14h0A.54.54,0,0,1,87.57,88.13ZM85.4,86a.51.51,0,0,1,0-.71h0a.49.49,0,0,1,.71,0h0a.51.51,0,0,1,0,.71h0a.54.54,0,0,1-.35.14h0A.54.54,0,0,1,85.4,86Zm-2.17-2.17a.51.51,0,0,1,0-.71h0a.49.49,0,0,1,.71,0h0a.49.49,0,0,1,0,.71h0a.52.52,0,0,1-.35.14h0A.54.54,0,0,1,83.23,83.79Zm-2.17-2.17a.51.51,0,0,1,0-.71h0a.51.51,0,0,1,.71,0h0a.49.49,0,0,1,0,.71h0a.52.52,0,0,1-.35.14h0A.54.54,0,0,1,81.06,81.62Zm-2.17-2.17a.51.51,0,0,1,0-.71h0a.51.51,0,0,1,.71,0h0a.49.49,0,0,1,0,.71h0a.46.46,0,0,1-.35.14h0A.5.5,0,0,1,78.89,79.45Zm-2.16-2.17a.5.5,0,0,1,0-.71h0a.5.5,0,0,1,.7,0h0a.49.49,0,0,1,0,.71h0a.46.46,0,0,1-.35.14h0A.46.46,0,0,1,76.73,77.28Zm-2.18-2.17a.51.51,0,0,1,0-.71h0a.51.51,0,0,1,.71,0h0a.5.5,0,0,1,0,.71h0a.47.47,0,0,1-.35.15h0A.51.51,0,0,1,74.55,75.11Zm-2.16-2.17a.49.49,0,0,1,0-.71h0a.5.5,0,0,1,.7,0h0a.5.5,0,0,1,0,.71h0a.47.47,0,0,1-.35.15h0A.47.47,0,0,1,72.39,72.94Zm-2.17-2.17a.49.49,0,0,1,0-.71h0a.5.5,0,0,1,.7,0h0a.49.49,0,0,1,0,.71h0a.47.47,0,0,1-.35.15h0A.47.47,0,0,1,70.22,70.77ZM68.05,68.6a.49.49,0,0,1,0-.71h0a.5.5,0,0,1,.7,0h0a.49.49,0,0,1,0,.71h0a.47.47,0,0,1-.35.15h0A.49.49,0,0,1,68.05,68.6Z"/><path class="cls-1" d="M66.23,66.58a.48.48,0,0,1-.35-.15.48.48,0,0,1,0-.7.49.49,0,0,1,.54-.11.46.46,0,0,1,.17.11.51.51,0,0,1,0,.7A.51.51,0,0,1,66.23,66.58Z"/></g></g></svg>