<svg id="Design" xmlns="http://www.w3.org/2000/svg" viewBox="0 0 179.65 179.65"><title>subscribe</title><circle cx="89.83" cy="89.83" r="89.83" style="fill:#005fb5"/><circle cx="89.83" cy="89.68" r="80.85" style="fill:#fff"/><line x1="135.65" y1="66.55" x2="135.65" y2="66.55" style="fill:none;stroke:#4d4f53;stroke-linecap:round;stroke-miterlimit:10"/><line x1="133.34" y1="68.46" x2="90.71" y2="103.78" style="fill:none;stroke:#4d4f53;stroke-linecap:round;stroke-miterlimit:10;stroke-dasharray:0.001,2.992598295211792"/><line x1="89.56" y1="104.74" x2="89.56" y2="104.74" style="fill:none;stroke:#4d4f53;stroke-linecap:round;stroke-miterlimit:10"/><line x1="87.21" y1="102.83" x2="43.82" y2="67.51" style="fill:none;stroke:#4d4f53;stroke-linecap:round;stroke-miterlimit:10;stroke-dasharray:0.001,3.0241854190826416"/><line x1="42.65" y1="66.55" x2="42.65" y2="66.55" style="fill:none;stroke:#4d4f53;stroke-linecap:round;stroke-miterlimit:10"/><line x1="42.65" y1="69.54" x2="42.65" y2="118.79" style="fill:none;stroke:#4d4f53;stroke-linecap:round;stroke-miterlimit:10;stroke-dasharray:0.001,2.9848484992980957"/><line x1="42.65" y1="120.28" x2="42.65" y2="120.28" style="fill:none;stroke:#4d4f53;stroke-linecap:round;stroke-miterlimit:10"/><line x1="45.65" y1="120.28" x2="134.15" y2="120.28" style="fill:none;stroke:#4d4f53;stroke-linecap:round;stroke-miterlimit:10;stroke-dasharray:0.001,3"/><line x1="135.65" y1="120.28" x2="135.65" y2="120.28" style="fill:none;stroke:#4d4f53;stroke-linecap:round;stroke-miterlimit:10"/><line x1="135.65" y1="117.3" x2="135.65" y2="68.05" style="fill:none;stroke:#4d4f53;stroke-linecap:round;stroke-miterlimit:10;stroke-dasharray:0.001,2.9848484992980957"/><line x1="42.65" y1="65.46" x2="42.65" y2="65.46" style="fill:none;stroke:#4d4f53;stroke-linecap:round;stroke-miterlimit:10"/><line x1="44.95" y1="63.55" x2="87.59" y2="28.24" style="fill:none;stroke:#4d4f53;stroke-linecap:round;stroke-miterlimit:10;stroke-dasharray:0.001,2.992598295211792"/><line x1="88.74" y1="27.28" x2="88.74" y2="27.28" style="fill:none;stroke:#4d4f53;stroke-linecap:round;stroke-miterlimit:10"/><line x1="91.09" y1="29.19" x2="134.48" y2="64.51" style="fill:none;stroke:#4d4f53;stroke-linecap:round;stroke-miterlimit:10;stroke-dasharray:0.001,3.0241854190826416"/><line x1="135.65" y1="65.46" x2="135.65" y2="65.46" style="fill:none;stroke:#4d4f53;stroke-linecap:round;stroke-miterlimit:10"/><line x1="46.19" y1="116.74" x2="46.19" y2="116.74" style="fill:none;stroke:#4d4f53;stroke-linecap:round;stroke-miterlimit:10"/><line x1="48.36" y1="114.57" x2="68.97" y2="93.96" style="fill:none;stroke:#4d4f53;stroke-linecap:round;stroke-miterlimit:10;stroke-dasharray:0.001,3.0680253505706787"/><line x1="70.06" y1="92.87" x2="70.06" y2="92.87" style="fill:none;stroke:#4d4f53;stroke-linecap:round;stroke-miterlimit:10"/><line x1="132.24" y1="116.74" x2="132.24" y2="116.74" style="fill:none;stroke:#4d4f53;stroke-linecap:round;stroke-miterlimit:10"/><line x1="130.07" y1="114.57" x2="109.46" y2="93.96" style="fill:none;stroke:#4d4f53;stroke-linecap:round;stroke-miterlimit:10;stroke-dasharray:0.001,3.0680253505706787"/><line x1="108.38" y1="92.87" x2="108.38" y2="92.87" style="fill:none;stroke:#4d4f53;stroke-linecap:round;stroke-miterlimit:10"/><rect x="27.27" y="74.31" width="123.72" height="29.99" style="fill:#fff"/><text transform="translate(30.82 98.02)" style="font-size:26px;fill:#4d4f53;font-family:Helvetica Neue">Subscribe</text><polyline points="52.27 70.28 52.27 43.28 125.27 43.28 125.27 70.28" style="fill:#fff"/><line x1="52.27" y1="70.28" x2="52.27" y2="70.28" style="fill:none;stroke:#4d4f53;stroke-linecap:round;stroke-miterlimit:10"/><line x1="52.27" y1="67.28" x2="52.27" y2="44.78" style="fill:none;stroke:#4d4f53;stroke-linecap:round;stroke-miterlimit:10;stroke-dasharray:0.001,3"/><line x1="52.27" y1="43.28" x2="52.27" y2="43.28" style="fill:none;stroke:#4d4f53;stroke-linecap:round;stroke-miterlimit:10"/><line x1="55.32" y1="43.28" x2="123.75" y2="43.28" style="fill:none;stroke:#4d4f53;stroke-linecap:round;stroke-miterlimit:10;stroke-dasharray:0.001,3.0416667461395264"/><line x1="125.27" y1="43.28" x2="125.27" y2="43.28" style="fill:none;stroke:#4d4f53;stroke-linecap:round;stroke-miterlimit:10"/><line x1="125.27" y1="46.28" x2="125.27" y2="68.78" style="fill:none;stroke:#4d4f53;stroke-linecap:round;stroke-miterlimit:10;stroke-dasharray:0.001,3"/><line x1="125.27" y1="70.28" x2="125.27" y2="70.28" style="fill:none;stroke:#4d4f53;stroke-linecap:round;stroke-miterlimit:10"/><line x1="90.11" y1="134.6" x2="90.11" y2="151.6" style="fill:none;stroke:#4d4f53;stroke-linecap:round;stroke-linejoin:round"/><line x1="81.61" y1="143.1" x2="98.61" y2="143.1" style="fill:none;stroke:#4d4f53;stroke-linecap:round;stroke-linejoin:round"/></svg>