<svg xmlns="http://www.w3.org/2000/svg" viewBox="0 0 26.66 26.66"><defs><style>.cls-1{fill:none;stroke:#807a24;stroke-miterlimit:10;}.cls-2{fill:#807a24;fill-rule:evenodd;}</style></defs><title>impact-products-check</title><g id="Layer_2" data-name="Layer 2"><g id="design"><circle class="cls-1" cx="13.33" cy="13.33" r="12.83"/><path class="cls-2" d="M11.06,14.63l6.77-6.77a.49.49,0,0,1,.68,0l1.89,1.89a.49.49,0,0,1,0,.69l-9,9,0,0,0,0h0l0,0h0l0,0h0l-.08,0h-.24l0,0h0l-.09-.07L5.28,14a.49.49,0,0,1,0-.68l1.89-1.89a.49.49,0,0,1,.69,0l3.21,3.22Z"/></g></g></svg>