<svg xmlns="http://www.w3.org/2000/svg" viewBox="0 0 16.45 17.46"><defs><style>.cls-1{fill:#807a24;}</style></defs><title>impact-products-video</title><g id="Layer_2" data-name="Layer 2"><g id="design"><path class="cls-1" d="M5.24,15.13A1.16,1.16,0,0,0,4.12,16H1.46a.29.29,0,0,0,0,.58H4.12a1.15,1.15,0,0,0,2.24,0H15A.29.29,0,1,0,15,16H6.36A1.16,1.16,0,0,0,5.24,15.13ZM6.47,3.71l5,3-5,3Zm-.33-.8a.3.3,0,0,0-.24.29v7a.22.22,0,0,0,0,.05.3.3,0,0,0,.43.19l5.81-3.49a.32.32,0,0,0,0-.5L6.33,2.95a.28.28,0,0,0-.19,0ZM.58.58H15.86V12.8H.58ZM0,0V13.39H16.45V0H0Z"/></g></g></svg>