<svg xmlns="http://www.w3.org/2000/svg" viewBox="0 0 15.56 15.47"><defs><style>.cls-1{fill:#807a24;}</style></defs><title>impact-products-read</title><g id="Layer_2" data-name="Layer 2"><g id="design"><path class="cls-1" d="M7.82,15.47,0,12.2V0L7.82,3.26,15.56,0V12.2ZM.57,11.82l7.25,3,7.17-3V.86l-7.17,3L.57.86Z"/><polygon class="cls-1" points="9.38 5.85 9.37 5.22 13.82 3.4 13.81 4.01 9.38 5.85"/><polygon class="cls-1" points="9.38 8.03 9.37 7.39 13.82 5.57 13.81 6.18 9.38 8.03"/><polygon class="cls-1" points="9.38 12.38 9.37 11.75 13.82 9.92 13.81 10.54 9.38 12.38"/><polygon class="cls-1" points="9.38 10.2 9.37 9.57 13.82 7.75 13.81 8.36 9.38 10.2"/><polygon class="cls-1" points="6.19 5.85 1.73 4.01 1.72 3.37 6.17 5.22 6.19 5.85"/><polygon class="cls-1" points="6.19 8.03 1.73 6.18 1.72 5.55 6.17 7.39 6.19 8.03"/><polygon class="cls-1" points="6.19 12.38 1.73 10.54 1.72 9.9 6.17 11.75 6.19 12.38"/><polygon class="cls-1" points="6.19 10.2 1.73 8.36 1.72 7.73 6.17 9.57 6.19 10.2"/><rect class="cls-1" x="7.53" y="3.49" width="0.57" height="11.6"/></g></g></svg>