<svg xmlns="http://www.w3.org/2000/svg" viewBox="0 0 70 70"><defs><style>.cls-1{fill:#807a24;}.cls-2{fill:#fff;}</style></defs><title>impact-products-icon</title><g id="Layer_2" data-name="Layer 2"><g id="design"><circle class="cls-1" cx="35" cy="35" r="35"/><path class="cls-2" d="M35.5,25.35a2.58,2.58,0,1,1,2.58-2.58A2.59,2.59,0,0,1,35.5,25.35Zm0-6.46a3.88,3.88,0,1,0,3.88,3.88A3.89,3.89,0,0,0,35.5,18.89ZM51,48.48H49.07V30.26H51Zm3.23,3.23H16.77V49.77H54.24ZM20,30.26h1.94V48.48H20Zm3.23,18.22V30.26h10V48.48Zm11.3,0V30.26h1.94V48.48Zm3.23,0V30.26h10V48.48Zm-21-20.15V27.1a.67.67,0,0,1,.26-.52L35.11,14.43a.9.9,0,0,1,.39-.13,1,1,0,0,1,.39.13L54,26.58a.59.59,0,0,1,.26.52v1.23a.61.61,0,0,1-.65.65H17.42A.65.65,0,0,1,16.77,28.32Zm36.82,1.94a1.94,1.94,0,0,0,1.94-1.94V27.1a2,2,0,0,0-.84-1.61L36.6,13.34a1.85,1.85,0,0,0-2.13,0L16.38,25.48a2,2,0,0,0-.84,1.61v1.23a1.9,1.9,0,0,0,1.94,1.94h1.29V48.48H16.19a.61.61,0,0,0-.65.65v3.23a.61.61,0,0,0,.65.65H54.95a.61.61,0,0,0,.65-.65V49.12a.61.61,0,0,0-.65-.65H52.36V30.26Z"/></g></g></svg>