<?xml version="1.0" encoding="utf-8"?>
<!-- Generator: Adobe Illustrator 16.0.4, SVG Export Plug-In . SVG Version: 6.00 Build 0)  -->
<!DOCTYPE svg PUBLIC "-//W3C//DTD SVG 1.1//EN" "http://www.w3.org/Graphics/SVG/1.1/DTD/svg11.dtd">
<svg version="1.1" id="Layer_1" xmlns="http://www.w3.org/2000/svg" xmlns:xlink="http://www.w3.org/1999/xlink" x="0px" y="0px"
	 width="316.578px" height="53.488px" viewBox="0 0 316.578 53.488" enable-background="new 0 0 316.578 53.488"
	 xml:space="preserve">
<g>
	<g>
		<path fill="#FFFFFF" d="M179.886,16.929c2.231,0,4.207,0.986,5.569,2.566l-2.073,1.758c-0.869-0.968-2.114-1.56-3.496-1.56
			c-2.449,0-4.365,1.855-4.365,4.345c0,2.487,1.916,4.324,4.365,4.324c1.382,0,2.646-0.592,3.515-1.58l2.073,1.758
			c-1.362,1.599-3.356,2.586-5.588,2.586c-4.088,0-7.405-2.981-7.405-7.089S175.798,16.929,179.886,16.929z"/>
		<path fill="#FFFFFF" d="M194.088,16.929c4.088,0,7.347,3.14,7.347,7.129c0,4.009-3.259,7.129-7.347,7.129
			c-4.069,0-7.346-3.12-7.346-7.129C186.742,20.068,190.019,16.929,194.088,16.929z M194.088,28.422
			c2.408,0,4.305-1.935,4.305-4.364c0-2.389-1.876-4.364-4.305-4.364c-2.43,0-4.306,1.955-4.306,4.364
			C189.782,26.525,191.658,28.422,194.088,28.422z"/>
		<path fill="#FFFFFF" d="M204.043,17.146h3.041v11h5.372v2.765h-8.413V17.146z"/>
		<path fill="#FFFFFF" d="M214.452,17.146h3.042v7.879c0,2.41,1.125,3.338,2.823,3.338c1.68,0,2.805-0.928,2.805-3.338v-7.879h3.041
			v8.195c0,3.891-2.646,5.786-5.846,5.786c-3.218,0-5.865-1.896-5.865-5.786V17.146z"/>
		<path fill="#FFFFFF" d="M229.898,17.146h2.547l4.721,7.051l4.721-7.051h2.547V30.91h-2.863v-8.393l-4.404,6.517l-4.424-6.517
			v8.393h-2.844V17.146z"/>
		<path fill="#FFFFFF" d="M248.298,17.146h2.706l6.596,8.552v-8.552h2.942V30.91h-2.488l-6.812-8.788v8.788h-2.943V17.146z"/>
		<path fill="#FFFFFF" d="M273.186,17.146h9.065v2.765h-6.024v2.824h5.49v2.706h-5.49v5.47h-3.041V17.146z"/>
		<path fill="#FFFFFF" d="M285.174,17.146h3.042V30.91h-3.042V17.146z"/>
		<path fill="#FFFFFF" d="M290.646,17.146h3.238l3.753,9.321l3.732-9.321h3.238L298.98,30.91h-2.686L290.646,17.146z"/>
		<path fill="#FFFFFF" d="M307.04,17.146h9.4v2.765h-6.359v2.587h5.944v2.706h-5.944v2.942h6.497v2.765h-9.538V17.146z"/>
	</g>
	<g>
		<path fill="#FFFFFF" d="M3.88,20.285c1.169,0,2.204,0.518,2.918,1.346l-1.087,0.921c-0.455-0.507-1.106-0.817-1.831-0.817
			c-1.283,0-2.287,0.972-2.287,2.276c0,1.304,1.004,2.266,2.287,2.266c0.725,0,1.387-0.31,1.842-0.827l1.087,0.92
			c-0.715,0.839-1.76,1.355-2.929,1.355c-2.142,0-3.88-1.561-3.88-3.714C0,21.858,1.738,20.285,3.88,20.285z"/>
		<path fill="#FFFFFF" d="M9.207,20.399h3.022c1.345,0,2.452,1.035,2.452,2.381c0,0.941-0.517,1.718-1.283,2.048l1.759,2.783h-1.8
			l-1.501-2.4h-0.021h-1.045v2.4H9.207V20.399z M12.053,23.804c0.621,0,1.035-0.394,1.035-1.004c0-0.558-0.393-0.951-0.9-0.951
			h-1.396v1.955H12.053z"/>
		<path fill="#FFFFFF" d="M17.598,20.399h4.927v1.45h-3.333v1.355h3.115v1.417h-3.115v1.543h3.405v1.448h-4.999V20.399z"/>
		<path fill="#FFFFFF" d="M27.449,20.399h1.418l2.979,7.212H30.15L29.663,26.4h-3.011l-0.487,1.211h-1.696L27.449,20.399z
			 M29.208,25.129l-1.045-2.619l-1.057,2.619H29.208z"/>
		<path fill="#FFFFFF" d="M34.815,21.849h-1.956v-1.45h5.474v1.45h-1.925v5.763h-1.593V21.849z"/>
		<path fill="#FFFFFF" d="M41.343,20.399h4.926v1.45h-3.332v1.355h3.115v1.417h-3.115v1.543h3.404v1.448h-4.998V20.399z"/>
		<path fill="#FFFFFF" d="M49.692,20.399h2.731c2.515,0,3.829,1.532,3.829,3.623c0,2.121-1.304,3.59-3.818,3.59h-2.742V20.399z
			 M52.331,26.164c1.821,0,2.318-0.953,2.318-2.142c0-1.222-0.497-2.173-2.329-2.173h-1.035v4.315H52.331z"/>
		<path fill="#FFFFFF" d="M64.509,20.399h2.865c1.148,0,2.06,0.777,2.06,1.843c0,0.692-0.342,1.242-0.92,1.448
			c0.951,0.166,1.447,0.89,1.447,1.791c0,1.221-0.932,2.131-2.193,2.131h-3.259V20.399z M67.115,23.276
			c0.456,0,0.777-0.321,0.777-0.766c0-0.424-0.321-0.744-0.767-0.744H66.07v1.51H67.115z M67.447,26.235
			c0.538,0,0.932-0.382,0.932-0.88c0-0.486-0.383-0.848-0.942-0.848H66.07v1.728H67.447z"/>
		<path fill="#FFFFFF" d="M74.138,24.922l-2.649-4.523h1.729l1.717,3.002l1.718-3.002h1.729l-2.649,4.523v2.689h-1.594V24.922z"/>
	</g>
	<g>
		<path fill="#FFFFFF" d="M140.383,53.488c-1.985,0-3.789-1.23-5.078-3.467l-14.999-25.973L134.195,0l2.369,1.369l-13.101,22.68
			l14.208,24.605c0.77,1.334,1.76,2.099,2.711,2.099c0.953,0,1.94-0.765,2.71-2.099l14.603-25.288l2.368,1.366l-14.601,25.289
			C144.17,52.258,142.368,53.488,140.383,53.488z"/>
		<path fill="#FFFFFF" d="M134.049,53.488c-1.982,0-3.79-1.23-5.079-3.469l-14.996-25.971L127.863,0l2.367,1.369l-13.101,22.68
			l14.21,24.604c0.768,1.333,1.758,2.1,2.709,2.1V53.488z"/>
		<polygon fill="#FFFFFF" points="140.375,47.874 153.736,24.732 151.369,23.366 138.795,45.139 		"/>
		<polygon fill="#FFFFFF" points="137.209,42.395 147.407,24.732 145.04,23.366 135.63,39.66 		"/>
		<polygon fill="#FFFFFF" points="134.045,36.916 141.08,24.732 138.713,23.366 132.467,34.183 		"/>
		<polygon fill="#FFFFFF" points="130.881,31.436 134.753,24.732 132.384,23.366 129.303,28.703 		"/>
		<path fill="#FFFFFF" d="M127.727,53.488c-1.986,0-3.79-1.23-5.078-3.469L107.65,24.049L121.538,0l2.368,1.369l-13.1,22.68
			l14.208,24.604c0.771,1.333,1.759,2.1,2.712,2.1V53.488z"/>
		<path fill="#FFFFFF" d="M121.398,53.488c-1.986,0-3.789-1.23-5.079-3.469l-14.998-25.971L115.211,0l2.369,1.369l-13.1,22.68
			l14.207,24.604c0.769,1.333,1.759,2.1,2.711,2.1V53.488z"/>
		<path fill="#FFFFFF" d="M115.074,53.488c-1.987,0-3.791-1.23-5.08-3.469L94.997,24.049L108.886,0l2.369,1.369l-13.102,22.68
			l14.209,24.604c0.769,1.333,1.757,2.1,2.712,2.1V53.488z"/>
	</g>
</g>
<g>
</g>
<g>
</g>
<g>
</g>
<g>
</g>
<g>
</g>
<g>
</g>
<g>
</g>
<g>
</g>
<g>
</g>
<g>
</g>
<g>
</g>
<g>
</g>
<g>
</g>
<g>
</g>
<g>
</g>
</svg>
