<?xml version="1.0" encoding="utf-8"?>
<!-- Generator: Adobe Illustrator 16.0.4, SVG Export Plug-In . SVG Version: 6.00 Build 0)  -->
<!DOCTYPE svg PUBLIC "-//W3C//DTD SVG 1.1//EN" "http://www.w3.org/Graphics/SVG/1.1/DTD/svg11.dtd">
<svg version="1.1" id="Layer_1" xmlns="http://www.w3.org/2000/svg" xmlns:xlink="http://www.w3.org/1999/xlink" x="0px" y="0px"
	 width="314.329px" height="31.158px" viewBox="0 0 314.329 31.158" enable-background="new 0 0 314.329 31.158"
	 xml:space="preserve">
<g>
	<path fill="#FFFFFF" d="M54.727,14.596c0-2.91-1.238-5.643-3.413-8.019L27.418,31.158C42.504,31.144,54.727,23.734,54.727,14.596"
		/>
	<path fill="#FFFFFF" d="M0,14.596c0,9.139,12.223,16.548,27.308,16.562L3.414,6.577C1.239,8.953,0,11.686,0,14.596"/>
	<path fill="#FFFFFF" d="M35.838,8.716c0,4.815-3.795,8.718-8.473,8.718c-4.683,0-8.474-3.903-8.474-8.718
		C18.892,3.9,22.683,0,27.365,0C32.043,0,35.838,3.9,35.838,8.716"/>
	<path fill="#FFFFFF" d="M88.231,8.463c-0.664,0.273-0.996,0.479-1.461,2.595L84.048,23.58h-1.946l-3.165-9.971
		c-0.221-0.707-0.42-1.503-0.442-1.959h-0.045c-0.044,0.365-0.266,1.208-0.531,1.959l-3.474,9.971h-1.971l-2.81-12.772
		c-0.421-1.936-0.774-2.072-1.438-2.345l-0.509-0.205V7.872h6.418v0.386l-0.909,0.228c-0.773,0.205-0.93,0.432-0.552,2.322
		l1.438,7.33c0.133,0.707,0.266,1.549,0.287,2.05h0.067c0.065-0.455,0.287-1.229,0.554-2.026l3.496-10.335h1.394l3.165,10.267
		c0.242,0.774,0.443,1.549,0.508,2.049h0.045c0.021-0.477,0.176-1.411,0.31-2.094l1.284-6.466c0.465-2.39,0.288-2.868-0.553-3.096
		l-0.865-0.228V7.872h4.937v0.386L88.231,8.463z"/>
	<path fill="#FFFFFF" d="M94.25,23.58c-3.408,0-5.466-2.254-5.466-5.691c0-3.302,2.102-6.17,5.798-6.17
		c3.54,0,5.467,2.367,5.467,5.691C100.049,20.916,97.748,23.58,94.25,23.58 M94.029,12.583c-1.858,0-2.435,1.936-2.435,4.03
		c0,1.958,0.73,6.102,3.098,6.102c1.948,0,2.567-1.98,2.567-4.053C97.26,16.749,96.463,12.583,94.029,12.583"/>
	<path fill="#FFFFFF" d="M114.965,23.239v-0.342l0.642-0.183c0.773-0.228,0.906-0.341,0.906-1.98v-4.918
		c0-1.457-0.863-2.344-2.234-2.344c-1.239,0-2.015,0.751-2.015,1.456v5.807c0,1.64,0.11,1.753,0.885,1.98l0.642,0.183v0.342h-5.643
		v-0.342l0.643-0.183c0.774-0.228,0.906-0.341,0.906-1.98v-4.918c0-1.457-0.862-2.344-2.234-2.344c-1.239,0-2.014,0.751-2.014,1.456
		v5.807c0,1.64,0.11,1.753,0.884,1.98l0.643,0.183v0.342h-5.687v-0.342l0.685-0.183c0.774-0.228,0.908-0.341,0.908-1.98v-5.829
		c0-1.639-0.156-1.776-0.952-1.958l-0.774-0.16v-0.342l4.007-0.545l0.154,0.091v1.685h0.021c1.02-1.071,2.036-1.89,3.562-1.89
		c1.549,0,2.657,0.729,3.121,2.003h0.022c1.019-1.116,2.103-2.003,3.674-2.003c2.08,0,3.362,1.321,3.362,3.483v5.464
		c0,1.64,0.133,1.753,0.908,1.98l0.687,0.183v0.342H114.965z"/>
	<path fill="#FFFFFF" d="M126.56,23.512c-2.833,0-4.913-2.231-4.913-5.623c0-3.051,1.859-6.17,5.224-6.17
		c2.566,0,4.182,1.981,4.182,4.189c0,0.159,0,0.319-0.021,0.456h-7.326c-0.021,2.777,1.506,5.055,4.404,5.055
		c1.151,0,2.125-0.41,2.722-0.865l0.268,0.341C129.88,22.328,128.618,23.512,126.56,23.512 M126.338,12.698
		c-1.683,0-2.501,1.479-2.634,2.823h2.988c1.173,0,1.814-0.137,1.814-0.956C128.507,13.63,127.577,12.698,126.338,12.698"/>
	<path fill="#FFFFFF" d="M139.483,23.239v-0.342l0.686-0.183c0.774-0.205,0.907-0.341,0.907-1.98v-4.918
		c0-1.457-0.907-2.344-2.368-2.344c-1.306,0-2.146,0.751-2.146,1.456v5.807c0,1.64,0.133,1.775,0.907,1.98l0.687,0.183v0.342h-5.754
		v-0.342l0.687-0.183c0.774-0.205,0.907-0.341,0.907-1.98v-5.829c0-1.639-0.155-1.797-0.951-1.958l-0.775-0.16v-0.342l4.006-0.545
		l0.156,0.091v1.685h0.021c1.062-1.071,2.146-1.89,3.718-1.89c2.147,0,3.475,1.321,3.475,3.483v5.464c0,1.64,0.133,1.775,0.908,1.98
		l0.686,0.183v0.342H139.483z"/>
	<path fill="#FFFFFF" d="M145.856,13.563l-0.332-0.592c1.019-0.523,2.08-1.389,2.08-2.618c0-1.047-0.885-1.913-1.969-1.822
		l-0.133-0.067c-0.066-0.183-0.09-0.411-0.09-0.591c0-0.707,0.465-1.322,1.263-1.322c1.35,0,2.302,1.322,2.302,2.642
		C148.978,11.376,147.582,12.72,145.856,13.563"/>
	<path fill="#FFFFFF" d="M152.805,23.443c-0.886,0-1.969-0.204-2.655-0.569l-0.223-2.868l0.466-0.091l0.288,0.955
		c0.288,0.889,0.975,1.617,2.235,1.617c0.974,0,1.992-0.568,1.992-1.685c0-1.298-1.241-1.821-2.501-2.481
		c-1.307-0.684-2.391-1.525-2.391-3.165c0-2.231,1.971-3.301,3.83-3.301c0.641,0,1.592,0.091,2.388,0.477v2.664h-0.442l-0.199-0.842
		c-0.199-0.773-0.817-1.389-2.013-1.389c-0.997,0-1.682,0.592-1.682,1.389c0,1.025,1.128,1.503,2.367,2.142
		c1.505,0.772,2.567,1.639,2.567,3.482C156.833,21.94,155.106,23.443,152.805,23.443"/>
	<path fill="#FFFFFF" d="M183.543,8.463c-0.663,0.273-0.995,0.479-1.461,2.595L179.36,23.58h-1.946l-3.165-9.971
		c-0.222-0.707-0.422-1.503-0.443-1.959h-0.045c-0.044,0.365-0.265,1.208-0.531,1.959l-3.473,9.971h-1.971l-2.811-12.772
		c-0.42-1.936-0.774-2.072-1.438-2.345l-0.509-0.205V7.872h6.417v0.386l-0.907,0.228c-0.774,0.205-0.931,0.432-0.554,2.322
		l1.438,7.33c0.133,0.707,0.266,1.549,0.288,2.05h0.066c0.066-0.455,0.287-1.229,0.554-2.026l3.495-10.335h1.396l3.165,10.267
		c0.243,0.774,0.443,1.549,0.508,2.049h0.045c0.021-0.477,0.178-1.411,0.31-2.094l1.284-6.466c0.463-2.39,0.287-2.868-0.554-3.096
		l-0.862-0.228V7.872h4.936v0.386L183.543,8.463z"/>
	<path fill="#FFFFFF" d="M189.562,23.58c-3.408,0-5.466-2.254-5.466-5.691c0-3.302,2.102-6.17,5.797-6.17
		c3.542,0,5.467,2.367,5.467,5.691C195.36,20.916,193.06,23.58,189.562,23.58 M189.342,12.583c-1.859,0-2.435,1.936-2.435,4.03
		c0,1.958,0.729,6.102,3.098,6.102c1.947,0,2.566-1.98,2.566-4.053C192.571,16.749,191.775,12.583,189.342,12.583"/>
	<path fill="#FFFFFF" d="M203.858,14.815l-0.11-0.046c-0.2-0.524-0.753-0.979-1.396-0.979c-1.039,0-1.504,0.797-1.504,1.344v5.6
		c0,1.641,0.176,1.777,0.951,1.937l1.129,0.227v0.343h-6.24v-0.343l0.685-0.182c0.775-0.204,0.909-0.341,0.909-1.981v-5.828
		c0-1.638-0.244-1.798-1.041-1.957l-0.774-0.16v-0.342l4.072-0.545l0.153,0.091v1.912h0.023c1.129-1.435,1.969-2.118,3.009-2.118
		c0.886,0,1.573,0.683,1.573,1.594S204.521,14.861,203.858,14.815"/>
	<path fill="#FFFFFF" d="M206.183,23.239v-0.342l0.686-0.183c0.774-0.228,0.906-0.341,0.906-1.98V9.261
		c0-1.641-0.153-1.776-0.951-1.959l-0.775-0.16V6.8l4.141-0.545l0.154,0.091v14.389c0,1.64,0.133,1.753,0.908,1.98l0.685,0.183
		v0.342H206.183z"/>
	<path fill="#FFFFFF" d="M220.72,23.466l-0.153-0.113v-1.64h-0.022c-0.93,1.002-2.058,1.867-3.519,1.867
		c-2.699,0-3.939-2.868-3.939-5.169c0-3.414,1.86-6.396,5.489-6.396c0.596,0,1.217,0.045,1.858,0.229V9.26
		c0-1.64-0.133-1.778-0.931-1.958l-0.773-0.16V6.8l4.138-0.545l0.134,0.091v14.411c0,1.64,0.155,1.775,0.951,1.958l0.752,0.182
		v0.343L220.72,23.466z M220.434,14.701c0-1.048-0.995-1.776-2.124-1.776c-2.06,0-2.701,2.141-2.701,3.961
		c0,1.912,0.73,4.941,3.098,4.941c0.953,0,1.728-0.639,1.728-1.366V14.701z"/>
	<path fill="#FFFFFF" d="M238.403,23.239h-7.06v-0.388l0.798-0.229c0.884-0.249,1.061-0.432,1.061-2.321v-9.493
		c0-1.89-0.177-2.073-1.061-2.323l-0.798-0.228V7.871h6.927c2.146,0,5.333,0.25,5.333,3.301c0,2.071-2.19,3.21-3.297,3.461v0.091
		c2.08,0.023,4.027,1.389,4.027,3.824C244.334,21.303,241.986,23.239,238.403,23.239 M237.164,8.713h-0.997v5.851h1.151
		c1.217,0,3.208-0.5,3.208-2.959C240.526,9.237,238.955,8.713,237.164,8.713 M237.386,15.475h-1.219v4.508
		c0,2.141,0.288,2.346,1.219,2.346h0.176c1.682,0,3.453-0.819,3.453-3.438C241.015,16.09,239.266,15.475,237.386,15.475"/>
	<path fill="#FFFFFF" d="M252.499,23.466l-0.132-0.113v-1.64h-0.044c-0.841,0.843-1.861,1.8-3.319,1.8
		c-1.396,0-2.788-1.002-2.788-2.619c0-2.777,2.765-3.369,5.975-4.03v-1.479c0-1.434-0.819-2.414-2.147-2.414
		c-1.173,0-1.504,0.66-1.504,1.412v0.615l-0.067,0.135c-0.287,0.159-0.665,0.273-0.997,0.273c-0.419,0-0.663-0.25-0.663-0.683
		c0-0.797,0.773-1.548,1.373-1.958c0.774-0.546,1.813-0.956,2.876-0.956c2.546,0,3.653,1.503,3.653,3.847v4.941
		c0,1.64,0.154,1.913,0.951,2.095l0.84,0.205v0.342L252.499,23.466z M252.19,17.638c-2.48,0.409-3.364,1.161-3.364,2.481
		c0,1.003,0.774,1.686,1.726,1.686c1.02,0,1.639-0.638,1.639-1.298V17.638z"/>
	<path fill="#FFFFFF" d="M264.229,23.239v-0.342l0.687-0.183c0.773-0.205,0.906-0.341,0.906-1.98v-4.918
		c0-1.457-0.906-2.344-2.368-2.344c-1.305,0-2.146,0.751-2.146,1.456v5.807c0,1.64,0.133,1.775,0.906,1.98l0.687,0.183v0.342h-5.755
		v-0.342l0.688-0.183c0.773-0.205,0.907-0.341,0.907-1.98v-5.829c0-1.639-0.155-1.797-0.952-1.958l-0.774-0.16v-0.342l4.005-0.545
		l0.154,0.091v1.685h0.023c1.062-1.071,2.146-1.89,3.719-1.89c2.146,0,3.474,1.321,3.474,3.483v5.464c0,1.64,0.132,1.775,0.908,1.98
		l0.687,0.183v0.342H264.229z"/>
	<path fill="#FFFFFF" d="M270.801,23.239v-0.342l0.687-0.183c0.773-0.228,0.906-0.341,0.906-1.98V9.261
		c0-1.641-0.154-1.776-0.951-1.959l-0.776-0.16V6.8l4.14-0.545l0.154,0.091v14.389c0,1.64,0.135,1.753,0.909,1.98l0.685,0.183v0.342
		H270.801z M278.79,23.239l-3.607-6.17l2.434-2.346c1.395-1.344,0.974-1.799,0.289-1.981l-0.708-0.204v-0.319h5.133v0.319
		l-0.708,0.204c-0.796,0.206-1.283,0.729-2.589,1.981l-1.615,1.548l2.854,4.462c0.884,1.389,1.195,1.775,1.88,2.003l0.532,0.16
		v0.342H278.79z"/>
	<path fill="#FFFFFF" d="M283.458,23.239v-0.343l0.688-0.182c0.773-0.228,0.906-0.341,0.906-1.98v-5.829
		c0-1.639-0.154-1.776-0.951-1.958l-0.774-0.16v-0.342l4.138-0.545l0.156,0.091v8.742c0,1.64,0.131,1.753,0.906,1.98l0.687,0.182
		v0.343H283.458z M286.292,9.351c-1.108,0-1.506-0.752-1.506-1.457c0-0.661,0.397-1.458,1.549-1.458c1.04,0,1.549,0.569,1.549,1.435
		C287.884,8.826,287.244,9.351,286.292,9.351"/>
	<path fill="#FFFFFF" d="M297.289,23.239v-0.342l0.686-0.183c0.775-0.205,0.908-0.341,0.908-1.98v-4.918
		c0-1.457-0.908-2.344-2.367-2.344c-1.307,0-2.147,0.751-2.147,1.456v5.807c0,1.64,0.133,1.775,0.906,1.98l0.688,0.183v0.342h-5.754
		v-0.342l0.688-0.183c0.773-0.205,0.906-0.341,0.906-1.98v-5.829c0-1.639-0.156-1.797-0.952-1.958l-0.774-0.16v-0.342l4.007-0.545
		l0.153,0.091v1.685h0.022c1.062-1.071,2.146-1.89,3.717-1.89c2.148,0,3.475,1.321,3.475,3.483v5.464c0,1.64,0.135,1.775,0.908,1.98
		l0.687,0.183v0.342H297.289z"/>
	<path fill="#FFFFFF" d="M314.241,13.449h-1.617c0.268,0.386,0.443,1.001,0.443,1.662c0,2.253-1.926,3.62-4.315,3.62
		c-0.729,0-1.438-0.137-2.059-0.388l-0.484,0.434c-0.333,0.296-0.644,0.614-0.644,1.024c0,0.706,0.754,1.207,1.86,1.207l3.097-0.022
		c1.771-0.023,3.432,0.842,3.432,3.094c0,2.597-2.391,4.555-5.601,4.555c-1.726,0-4.557-0.729-4.557-2.96
		c0-1.388,1.217-2.253,2.19-2.55v-0.021c-1.152-0.184-2.103-0.957-2.103-2.117c0-0.935,0.707-1.686,1.351-2.232l0.839-0.705
		c-0.839-0.523-1.415-1.412-1.415-2.709c0-2.141,1.793-3.62,4.338-3.62c1.061,0,1.991,0.272,2.61,0.705l2.722-0.114v1.047
		L314.241,13.449z M309.595,23.262h-2.369c-0.906,0-1.616,0.751-1.616,1.845c0,1.865,1.838,2.617,3.388,2.617
		c1.482,0,3.186-0.797,3.186-2.413C312.183,23.785,310.877,23.262,309.595,23.262 M308.708,12.447c-1.172,0-1.637,1.138-1.637,2.322
		c0,1.252,0.553,3.256,1.969,3.256c1.174,0,1.617-1.117,1.617-2.3C310.657,14.519,310.125,12.447,308.708,12.447"/>
</g>
<g>
</g>
<g>
</g>
<g>
</g>
<g>
</g>
<g>
</g>
<g>
</g>
<g>
</g>
<g>
</g>
<g>
</g>
<g>
</g>
<g>
</g>
<g>
</g>
<g>
</g>
<g>
</g>
<g>
</g>
</svg>
