<?xml version="1.0" encoding="utf-8"?>
<!-- Generator: Adobe Illustrator 16.0.4, SVG Export Plug-In . SVG Version: 6.00 Build 0)  -->
<!DOCTYPE svg PUBLIC "-//W3C//DTD SVG 1.1//EN" "http://www.w3.org/Graphics/SVG/1.1/DTD/svg11.dtd">
<svg version="1.1" id="Layer_1" xmlns="http://www.w3.org/2000/svg" xmlns:xlink="http://www.w3.org/1999/xlink" x="0px" y="0px"
	 width="46.25px" height="68.267px" viewBox="0 0 46.25 68.267" enable-background="new 0 0 46.25 68.267" xml:space="preserve">
<g>
	<path fill="#FFFFFF" d="M43.857,11.37c0-2.267-0.993-4.396-2.735-6.246l-19.15,19.149C34.063,24.26,43.857,18.489,43.857,11.37"/>
	<path fill="#FFFFFF" d="M0,11.37c0,7.119,9.794,12.89,21.885,12.903L2.735,5.125C0.991,6.975,0,9.104,0,11.37"/>
	<path fill="#FFFFFF" d="M28.72,6.79c0,3.751-3.041,6.792-6.792,6.792c-3.751,0-6.79-3.041-6.79-6.792c0-3.75,3.039-6.79,6.79-6.79
		C25.679,0,28.72,3.04,28.72,6.79"/>
	<path fill="#FFFFFF" d="M10.694,33.672c-0.344,0.138-0.517,0.24-0.758,1.308L8.526,41.29h-1.01l-1.641-5.025
		c-0.114-0.355-0.218-0.758-0.229-0.986H5.622c-0.021,0.184-0.138,0.608-0.274,0.986L3.546,41.29H2.525l-1.458-6.437
		c-0.219-0.975-0.403-1.044-0.747-1.182l-0.264-0.104v-0.194h3.328v0.194l-0.471,0.114c-0.402,0.104-0.482,0.219-0.287,1.171
		l0.745,3.694c0.07,0.356,0.138,0.78,0.15,1.033h0.034c0.036-0.229,0.15-0.619,0.287-1.021l1.813-5.208h0.724l1.639,5.174
		c0.128,0.39,0.23,0.78,0.265,1.033h0.021c0.013-0.242,0.093-0.713,0.162-1.057l0.665-3.259c0.241-1.204,0.15-1.445-0.287-1.561
		l-0.447-0.114v-0.194h2.559v0.194L10.694,33.672z"/>
	<path fill="#FFFFFF" d="M13.698,35.748c-0.964,0-1.263,0.977-1.263,2.031c0,0.987,0.379,3.075,1.607,3.075
		c1.008,0,1.331-0.998,1.331-2.042C15.373,37.849,14.959,35.748,13.698,35.748 M13.812,41.29c-1.767,0-2.834-1.135-2.834-2.867
		c0-1.664,1.09-3.109,3.007-3.109c1.835,0,2.833,1.191,2.833,2.868C16.817,39.947,15.625,41.29,13.812,41.29"/>
	<path fill="#FFFFFF" d="M24.549,41.118v-0.172l0.334-0.092c0.4-0.113,0.471-0.172,0.471-0.999v-2.479
		c0-0.733-0.447-1.181-1.158-1.181c-0.644,0-1.046,0.377-1.046,0.734v2.925c0,0.827,0.059,0.886,0.459,0.999l0.333,0.092v0.172
		h-2.927v-0.172l0.333-0.092c0.403-0.113,0.47-0.172,0.47-0.999v-2.479c0-0.733-0.447-1.181-1.158-1.181
		c-0.643,0-1.044,0.377-1.044,0.734v2.925c0,0.827,0.057,0.886,0.46,0.999l0.331,0.092v0.172h-2.948v-0.172l0.356-0.092
		c0.4-0.113,0.47-0.172,0.47-0.999v-2.937c0-0.826-0.082-0.896-0.493-0.986l-0.402-0.08v-0.174l2.077-0.273l0.08,0.045v0.85h0.012
		c0.528-0.539,1.055-0.953,1.846-0.953c0.804,0,1.377,0.368,1.619,1.01h0.011c0.527-0.562,1.09-1.01,1.905-1.01
		c1.078,0,1.744,0.666,1.744,1.756v2.753c0,0.827,0.068,0.886,0.471,0.999l0.355,0.092v0.172H24.549z"/>
	<path fill="#FFFFFF" d="M30.446,35.807c-0.873,0-1.297,0.745-1.367,1.422h1.551c0.607,0,0.939-0.068,0.939-0.481
		C31.569,36.276,31.086,35.807,30.446,35.807 M30.559,41.257c-1.469,0-2.547-1.124-2.547-2.835c0-1.537,0.963-3.108,2.707-3.108
		c1.332,0,2.168,0.997,2.168,2.111c0,0.08,0,0.16-0.01,0.228h-3.799c-0.012,1.4,0.781,2.548,2.284,2.548
		c0.597,0,1.101-0.207,1.411-0.437l0.137,0.173C32.28,40.659,31.626,41.257,30.559,41.257"/>
	<path fill="#FFFFFF" d="M37.258,41.118v-0.172l0.355-0.092c0.402-0.103,0.471-0.172,0.471-0.999v-2.479
		c0-0.733-0.471-1.181-1.227-1.181c-0.678,0-1.114,0.377-1.114,0.734v2.925c0,0.827,0.069,0.896,0.47,0.999l0.357,0.092v0.172
		h-2.984v-0.172l0.355-0.092c0.402-0.103,0.471-0.172,0.471-0.999v-2.937c0-0.826-0.08-0.906-0.494-0.986l-0.402-0.08v-0.174
		l2.078-0.273l0.08,0.045v0.85h0.012c0.551-0.539,1.112-0.953,1.928-0.953c1.112,0,1.802,0.666,1.802,1.756v2.753
		c0,0.827,0.067,0.896,0.47,0.999l0.357,0.092v0.172H37.258z"/>
	<path fill="#FFFFFF" d="M40.561,36.242l-0.174-0.298c0.529-0.266,1.08-0.7,1.08-1.32c0-0.528-0.459-0.964-1.021-0.917l-0.068-0.036
		c-0.034-0.091-0.047-0.205-0.047-0.297c0-0.356,0.24-0.667,0.654-0.667c0.699,0,1.193,0.667,1.193,1.331
		C42.178,35.141,41.456,35.818,40.561,36.242"/>
	<path fill="#FFFFFF" d="M44.163,41.222c-0.459,0-1.021-0.104-1.377-0.287l-0.114-1.446l0.241-0.045l0.148,0.481
		c0.15,0.447,0.505,0.815,1.158,0.815c0.506,0,1.033-0.286,1.033-0.85c0-0.653-0.643-0.917-1.297-1.251
		c-0.676-0.344-1.238-0.768-1.238-1.594c0-1.126,1.021-1.664,1.985-1.664c0.333,0,0.825,0.046,1.238,0.24v1.344h-0.228L45.61,36.54
		c-0.104-0.391-0.426-0.7-1.047-0.7c-0.514,0-0.871,0.299-0.871,0.7c0,0.517,0.585,0.757,1.229,1.079
		c0.779,0.39,1.33,0.827,1.33,1.755C46.25,40.464,45.356,41.222,44.163,41.222"/>
	<path fill="#FFFFFF" d="M10.694,45.886c-0.344,0.138-0.517,0.24-0.758,1.308l-1.411,6.312h-1.01l-1.641-5.026
		c-0.114-0.354-0.218-0.757-0.229-0.985H5.622c-0.021,0.184-0.138,0.607-0.274,0.985l-1.802,5.026H2.525l-1.458-6.438
		c-0.219-0.975-0.403-1.044-0.747-1.182l-0.264-0.104v-0.193h3.328v0.193l-0.471,0.115C2.513,46,2.433,46.116,2.628,47.067
		l0.745,3.695c0.07,0.355,0.138,0.779,0.15,1.033h0.034c0.036-0.23,0.15-0.62,0.287-1.022l1.813-5.208h0.724l1.639,5.174
		c0.128,0.39,0.23,0.78,0.265,1.033h0.021c0.013-0.24,0.093-0.713,0.162-1.057l0.665-3.258c0.241-1.205,0.15-1.445-0.287-1.561
		l-0.447-0.115v-0.193h2.559v0.193L10.694,45.886z"/>
	<path fill="#FFFFFF" d="M13.698,47.962c-0.964,0-1.263,0.977-1.263,2.031c0,0.987,0.379,3.075,1.607,3.075
		c1.008,0,1.331-0.998,1.331-2.042C15.373,50.062,14.959,47.962,13.698,47.962 M13.812,53.505c-1.767,0-2.834-1.135-2.834-2.868
		c0-1.664,1.09-3.109,3.007-3.109c1.835,0,2.833,1.192,2.833,2.868C16.817,52.161,15.625,53.505,13.812,53.505"/>
	<path fill="#FFFFFF" d="M21.223,49.088l-0.058-0.023c-0.103-0.264-0.39-0.493-0.723-0.493c-0.539,0-0.78,0.4-0.78,0.677v2.822
		c0,0.826,0.092,0.896,0.494,0.976l0.586,0.114v0.173h-3.237V53.16l0.356-0.091c0.401-0.104,0.471-0.173,0.471-0.999v-2.937
		c0-0.826-0.127-0.906-0.539-0.986l-0.403-0.081v-0.173l2.111-0.274l0.08,0.045v0.964h0.011c0.586-0.722,1.021-1.067,1.561-1.067
		c0.459,0,0.816,0.346,0.816,0.804C21.969,48.824,21.566,49.11,21.223,49.088"/>
	<path fill="#FFFFFF" d="M22.425,53.333V53.16l0.356-0.091c0.401-0.114,0.471-0.173,0.471-0.998v-5.783
		c0-0.826-0.08-0.896-0.494-0.986l-0.402-0.081v-0.173l2.146-0.274l0.08,0.045v7.253c0,0.825,0.068,0.884,0.471,0.998l0.355,0.091
		v0.173H22.425z"/>
	<path fill="#FFFFFF" d="M29.813,49.029c0-0.528-0.516-0.895-1.102-0.895c-1.066,0-1.4,1.079-1.4,1.997
		c0,0.964,0.381,2.489,1.607,2.489c0.494,0,0.895-0.321,0.895-0.688V49.029z M29.963,53.447l-0.08-0.057v-0.827H29.87
		c-0.48,0.506-1.066,0.941-1.824,0.941c-1.398,0-2.041-1.445-2.041-2.604c0-1.723,0.963-3.227,2.846-3.227
		c0.309,0,0.631,0.025,0.963,0.116v-1.504c0-0.825-0.068-0.895-0.48-0.987l-0.402-0.078v-0.173l2.146-0.276l0.068,0.047v7.264
		c0,0.824,0.08,0.895,0.492,0.986l0.391,0.091v0.173L29.963,53.447z"/>
	<path fill="#FFFFFF" d="M3.512,61.635H2.88v2.271c0,1.078,0.149,1.181,0.632,1.181h0.091c0.873,0,1.791-0.413,1.791-1.731
		C5.394,61.944,4.486,61.635,3.512,61.635 M3.396,58.227H2.88v2.948h0.597c0.632,0,1.664-0.251,1.664-1.491
		C5.141,58.49,4.326,58.227,3.396,58.227 M4.039,65.547H0.378v-0.194l0.413-0.115c0.46-0.127,0.553-0.218,0.553-1.171v-4.784
		c0-0.953-0.093-1.045-0.553-1.17l-0.413-0.116v-0.194H3.97c1.113,0,2.766,0.127,2.766,1.664c0,1.045-1.135,1.618-1.709,1.744v0.045
		c1.078,0.013,2.088,0.7,2.088,1.928C7.114,64.571,5.897,65.547,4.039,65.547"/>
	<path fill="#FFFFFF" d="M11.186,62.724c-1.286,0.207-1.744,0.586-1.744,1.251c0,0.506,0.401,0.85,0.895,0.85
		c0.529,0,0.85-0.32,0.85-0.653V62.724z M11.346,65.661l-0.069-0.057v-0.826h-0.023c-0.435,0.424-0.964,0.906-1.721,0.906
		c-0.723,0-1.445-0.504-1.445-1.32c0-1.398,1.434-1.697,3.098-2.03v-0.745c0-0.723-0.426-1.217-1.113-1.217
		c-0.608,0-0.78,0.333-0.78,0.711v0.31l-0.034,0.069C9.108,61.542,8.912,61.6,8.741,61.6c-0.218,0-0.344-0.126-0.344-0.344
		c0-0.401,0.401-0.78,0.711-0.987c0.401-0.274,0.94-0.48,1.491-0.48c1.32,0,1.894,0.757,1.894,1.938v2.491
		c0,0.825,0.08,0.964,0.494,1.055l0.435,0.104v0.173L11.346,65.661z"/>
	<path fill="#FFFFFF" d="M17.426,65.547v-0.173l0.356-0.091c0.401-0.103,0.47-0.173,0.47-0.998v-2.479
		c0-0.734-0.47-1.182-1.228-1.182c-0.677,0-1.113,0.378-1.113,0.734v2.927c0,0.825,0.068,0.896,0.471,0.998l0.356,0.091v0.173
		h-2.984v-0.173l0.356-0.091c0.401-0.103,0.47-0.173,0.47-0.998v-2.938c0-0.827-0.08-0.907-0.493-0.987l-0.402-0.08v-0.173
		l2.077-0.274l0.08,0.045v0.85h0.012c0.551-0.538,1.112-0.953,1.928-0.953c1.112,0,1.801,0.666,1.801,1.757v2.754
		c0,0.825,0.068,0.896,0.471,0.998l0.356,0.091v0.173H17.426z"/>
	<path fill="#FFFFFF" d="M24.973,65.547l-1.871-3.108l1.263-1.184c0.723-0.677,0.504-0.906,0.148-0.998l-0.367-0.103v-0.161h2.662
		v0.161l-0.367,0.103c-0.414,0.104-0.665,0.367-1.342,0.998l-0.84,0.78l1.482,2.25c0.459,0.699,0.619,0.896,0.975,1.009l0.275,0.08
		v0.173H24.973z M20.831,65.547v-0.173l0.356-0.091c0.401-0.114,0.47-0.173,0.47-0.998v-5.782c0-0.827-0.08-0.896-0.494-0.988
		l-0.402-0.079v-0.173l2.146-0.274l0.081,0.044v7.253c0,0.825,0.068,0.884,0.47,0.998l0.356,0.091v0.173H20.831z"/>
	<path fill="#FFFFFF" d="M28.86,58.548c-0.573,0-0.779-0.379-0.779-0.735c0-0.333,0.206-0.733,0.803-0.733
		c0.539,0,0.803,0.287,0.803,0.723C29.686,58.283,29.356,58.548,28.86,58.548 M27.392,65.547v-0.173l0.356-0.091
		c0.4-0.114,0.471-0.173,0.471-0.998v-2.938c0-0.827-0.08-0.896-0.494-0.987l-0.402-0.08v-0.173l2.146-0.274l0.08,0.045v4.407
		c0,0.825,0.068,0.884,0.471,0.998l0.355,0.091v0.173H27.392z"/>
	<path fill="#FFFFFF" d="M34.563,65.547v-0.173l0.355-0.091c0.401-0.103,0.471-0.173,0.471-0.998v-2.479
		c0-0.734-0.471-1.182-1.228-1.182c-0.677,0-1.114,0.378-1.114,0.734v2.927c0,0.825,0.068,0.896,0.471,0.998l0.357,0.091v0.173
		h-2.984v-0.173l0.355-0.091c0.401-0.103,0.471-0.173,0.471-0.998v-2.938c0-0.827-0.08-0.907-0.494-0.987l-0.402-0.08v-0.173
		l2.078-0.274l0.08,0.045v0.85h0.012c0.551-0.538,1.112-0.953,1.928-0.953c1.112,0,1.801,0.666,1.801,1.757v2.754
		c0,0.825,0.068,0.896,0.471,0.998l0.357,0.091v0.173H34.563z"/>
	<path fill="#FFFFFF" d="M40.481,60.108c-0.609,0-0.85,0.574-0.85,1.171c0,0.631,0.287,1.64,1.021,1.64
		c0.609,0,0.839-0.562,0.839-1.158C41.492,61.153,41.215,60.108,40.481,60.108 M40.941,65.559h-1.229
		c-0.47,0-0.838,0.378-0.838,0.929c0,0.941,0.953,1.32,1.756,1.32c0.77,0,1.653-0.401,1.653-1.217
		C42.283,65.822,41.606,65.559,40.941,65.559 M43.35,60.612h-0.838c0.137,0.195,0.229,0.507,0.229,0.838
		c0,1.137-0.998,1.824-2.236,1.824c-0.379,0-0.746-0.067-1.066-0.193l-0.254,0.217c-0.172,0.149-0.332,0.311-0.332,0.517
		c0,0.356,0.39,0.607,0.963,0.607l1.607-0.011C42.34,64.4,43.2,64.835,43.2,65.972c0,1.308-1.238,2.295-2.902,2.295
		c-0.895,0-2.363-0.367-2.363-1.492c0-0.699,0.631-1.136,1.137-1.285v-0.011c-0.598-0.093-1.091-0.483-1.091-1.067
		c0-0.471,0.367-0.85,0.7-1.124l0.437-0.356c-0.437-0.264-0.735-0.711-0.735-1.364c0-1.08,0.93-1.825,2.248-1.825
		c0.553,0,1.033,0.138,1.355,0.355l1.411-0.058v0.527L43.35,60.612z"/>
</g>
<g>
</g>
<g>
</g>
<g>
</g>
<g>
</g>
<g>
</g>
<g>
</g>
<g>
</g>
<g>
</g>
<g>
</g>
<g>
</g>
<g>
</g>
<g>
</g>
<g>
</g>
<g>
</g>
<g>
</g>
</svg>
