<svg xmlns="http://www.w3.org/2000/svg" width="46.25" height="68.267" viewBox="0 0 46.25 68.267">
    <g fill="#FFF">
        <path d="M43.857 11.37c0-2.267-.993-4.396-2.735-6.246l-19.15 19.149c12.091-.013 21.885-5.784 21.885-12.903M0 11.37c0 7.119 9.794 12.89 21.885 12.903L2.735 5.125C.991 6.975 0 9.104 0 11.37M28.72 6.79a6.792 6.792 0 1 1-13.584 0 6.792 6.792 0 0 1 13.584 0M10.694 33.672c-.344.138-.517.24-.758 1.308l-1.41 6.31h-1.01l-1.641-5.025c-.114-.355-.218-.758-.229-.986h-.024c-.021.184-.138.608-.274.986L3.546 41.29H2.525l-1.458-6.437c-.219-.975-.403-1.044-.747-1.182l-.264-.104v-.194h3.328v.194l-.471.114c-.402.104-.482.219-.287 1.171l.745 3.694c.07.356.138.78.15 1.033h.034c.036-.229.15-.619.287-1.021l1.813-5.208h.724l1.639 5.174c.128.39.23.78.265 1.033h.021c.013-.242.093-.713.162-1.057l.665-3.259c.241-1.204.15-1.445-.287-1.561l-.447-.114v-.194h2.559v.194l-.262.106zM13.698 35.748c-.964 0-1.263.977-1.263 2.031 0 .987.379 3.075 1.607 3.075 1.008 0 1.331-.998 1.331-2.042 0-.963-.414-3.064-1.675-3.064m.114 5.542c-1.767 0-2.834-1.135-2.834-2.867 0-1.664 1.09-3.109 3.007-3.109 1.835 0 2.833 1.191 2.833 2.868-.001 1.765-1.193 3.108-3.006 3.108M24.549 41.118v-.172l.334-.092c.4-.113.471-.172.471-.999v-2.479c0-.733-.447-1.181-1.158-1.181-.644 0-1.046.377-1.046.734v2.925c0 .827.059.886.459.999l.333.092v.172h-2.927v-.172l.333-.092c.403-.113.47-.172.47-.999v-2.479c0-.733-.447-1.181-1.158-1.181-.643 0-1.044.377-1.044.734v2.925c0 .827.057.886.46.999l.331.092v.172h-2.948v-.172l.356-.092c.4-.113.47-.172.47-.999v-2.937c0-.826-.082-.896-.493-.986l-.402-.08v-.174l2.077-.273.08.045v.85h.012c.528-.539 1.055-.953 1.846-.953.804 0 1.377.368 1.619 1.01h.011c.527-.562 1.09-1.01 1.905-1.01 1.078 0 1.744.666 1.744 1.756v2.753c0 .827.068.886.471.999l.355.092v.172h-2.961zM30.446 35.807c-.873 0-1.297.745-1.367 1.422h1.551c.607 0 .939-.068.939-.481 0-.472-.483-.941-1.123-.941m.113 5.45c-1.469 0-2.547-1.124-2.547-2.835 0-1.537.963-3.108 2.707-3.108 1.332 0 2.168.997 2.168 2.111 0 .08 0 .16-.01.228h-3.799c-.012 1.4.781 2.548 2.284 2.548.597 0 1.101-.207 1.411-.437l.137.173c-.63.722-1.284 1.32-2.351 1.32M37.258 41.118v-.172l.355-.092c.402-.103.471-.172.471-.999v-2.479c0-.733-.471-1.181-1.227-1.181-.678 0-1.114.377-1.114.734v2.925c0 .827.069.896.47.999l.357.092v.172h-2.984v-.172l.355-.092c.402-.103.471-.172.471-.999v-2.937c0-.826-.08-.906-.494-.986l-.402-.08v-.174l2.078-.273.08.045v.85h.012c.551-.539 1.112-.953 1.928-.953 1.112 0 1.802.666 1.802 1.756v2.753c0 .827.067.896.47.999l.357.092v.172h-2.985zM40.561 36.242l-.174-.298c.529-.266 1.08-.7 1.08-1.32a.932.932 0 0 0-1.021-.917l-.068-.036a.9.9 0 0 1-.047-.297c0-.356.24-.667.654-.667.699 0 1.193.667 1.193 1.331 0 1.103-.722 1.78-1.617 2.204M44.163 41.222c-.459 0-1.021-.104-1.377-.287l-.114-1.446.241-.045.148.481c.15.447.505.815 1.158.815.506 0 1.033-.286 1.033-.85 0-.653-.643-.917-1.297-1.251-.676-.344-1.238-.768-1.238-1.594 0-1.126 1.021-1.664 1.985-1.664.333 0 .825.046 1.238.24v1.344h-.228l-.102-.425c-.104-.391-.426-.7-1.047-.7-.514 0-.871.299-.871.7 0 .517.585.757 1.229 1.079.779.39 1.33.827 1.33 1.755-.001 1.09-.895 1.848-2.088 1.848M10.694 45.886c-.344.138-.517.24-.758 1.308l-1.411 6.312h-1.01L5.874 48.48c-.114-.354-.218-.757-.229-.985h-.023c-.021.184-.138.607-.274.985l-1.802 5.026H2.525l-1.458-6.438c-.219-.975-.403-1.044-.747-1.182l-.264-.104v-.193h3.328v.193l-.471.115c-.4.103-.48.219-.285 1.17l.745 3.695c.07.355.138.779.15 1.033h.034c.036-.23.15-.62.287-1.022l1.813-5.208h.724l1.639 5.174c.128.39.23.78.265 1.033h.021c.013-.24.093-.713.162-1.057l.665-3.258c.241-1.205.15-1.445-.287-1.561l-.447-.115v-.193h2.559v.193l-.264.105zM13.698 47.962c-.964 0-1.263.977-1.263 2.031 0 .987.379 3.075 1.607 3.075 1.008 0 1.331-.998 1.331-2.042 0-.964-.414-3.064-1.675-3.064m.114 5.543c-1.767 0-2.834-1.135-2.834-2.868 0-1.664 1.09-3.109 3.007-3.109 1.835 0 2.833 1.192 2.833 2.868-.001 1.765-1.193 3.109-3.006 3.109M21.223 49.088l-.058-.023a.799.799 0 0 0-.723-.493c-.539 0-.78.4-.78.677v2.822c0 .826.092.896.494.976l.586.114v.173h-3.237v-.174l.356-.091c.401-.104.471-.173.471-.999v-2.937c0-.826-.127-.906-.539-.986l-.403-.081v-.173l2.111-.274.08.045v.964h.011c.586-.722 1.021-1.067 1.561-1.067.459 0 .816.346.816.804a.724.724 0 0 1-.746.723M22.425 53.333v-.173l.356-.091c.401-.114.471-.173.471-.998v-5.783c0-.826-.08-.896-.494-.986l-.402-.081v-.173l2.146-.274.08.045v7.253c0 .825.068.884.471.998l.355.091v.173h-2.983zM29.813 49.029c0-.528-.516-.895-1.102-.895-1.066 0-1.4 1.079-1.4 1.997 0 .964.381 2.489 1.607 2.489.494 0 .895-.321.895-.688v-2.903zm.15 4.418l-.08-.057v-.827h-.013c-.48.506-1.066.941-1.824.941-1.398 0-2.041-1.445-2.041-2.604 0-1.723.963-3.227 2.846-3.227.309 0 .631.025.963.116v-1.504c0-.825-.068-.895-.48-.987l-.402-.078v-.173l2.146-.276.068.047v7.264c0 .824.08.895.492.986l.391.091v.173l-2.066.115zM3.512 61.635H2.88v2.271c0 1.078.149 1.181.632 1.181h.091c.873 0 1.791-.413 1.791-1.731 0-1.412-.908-1.721-1.882-1.721m-.116-3.408H2.88v2.948h.597c.632 0 1.664-.251 1.664-1.491 0-1.194-.815-1.457-1.745-1.457m.643 7.32H.378v-.194l.413-.115c.46-.127.553-.218.553-1.171v-4.784c0-.953-.093-1.045-.553-1.17l-.413-.116v-.194H3.97c1.113 0 2.766.127 2.766 1.664 0 1.045-1.135 1.618-1.709 1.744v.045c1.078.013 2.088.7 2.088 1.928-.001 1.387-1.218 2.363-3.076 2.363M11.186 62.724c-1.286.207-1.744.586-1.744 1.251 0 .506.401.85.895.85.529 0 .85-.32.85-.653v-1.448zm.16 2.937l-.069-.057v-.826h-.023c-.435.424-.964.906-1.721.906-.723 0-1.445-.504-1.445-1.32 0-1.398 1.434-1.697 3.098-2.03v-.745c0-.723-.426-1.217-1.113-1.217-.608 0-.78.333-.78.711v.31l-.034.069c-.151.08-.347.138-.518.138-.218 0-.344-.126-.344-.344 0-.401.401-.78.711-.987.401-.274.94-.48 1.491-.48 1.32 0 1.894.757 1.894 1.938v2.491c0 .825.08.964.494 1.055l.435.104v.173l-2.076.111zM17.426 65.547v-.173l.356-.091c.401-.103.47-.173.47-.998v-2.479c0-.734-.47-1.182-1.228-1.182-.677 0-1.113.378-1.113.734v2.927c0 .825.068.896.471.998l.356.091v.173h-2.984v-.173l.356-.091c.401-.103.47-.173.47-.998v-2.938c0-.827-.08-.907-.493-.987l-.402-.08v-.173l2.077-.274.08.045v.85h.012c.551-.538 1.112-.953 1.928-.953 1.112 0 1.801.666 1.801 1.757v2.754c0 .825.068.896.471.998l.356.091v.173h-2.984zM24.973 65.547l-1.871-3.108 1.263-1.184c.723-.677.504-.906.148-.998l-.367-.103v-.161h2.662v.161l-.367.103c-.414.104-.665.367-1.342.998l-.84.78 1.482 2.25c.459.699.619.896.975 1.009l.275.08v.173h-2.018zm-4.142 0v-.173l.356-.091c.401-.114.47-.173.47-.998v-5.782c0-.827-.08-.896-.494-.988l-.402-.079v-.173l2.146-.274.081.044v7.253c0 .825.068.884.47.998l.356.091v.173h-2.983zM28.86 58.548c-.573 0-.779-.379-.779-.735 0-.333.206-.733.803-.733.539 0 .803.287.803.723-.001.48-.331.745-.827.745m-1.468 6.999v-.173l.356-.091c.4-.114.471-.173.471-.998v-2.938c0-.827-.08-.896-.494-.987l-.402-.08v-.173l2.146-.274.08.045v4.407c0 .825.068.884.471.998l.355.091v.173h-2.983zM34.563 65.547v-.173l.355-.091c.401-.103.471-.173.471-.998v-2.479c0-.734-.471-1.182-1.228-1.182-.677 0-1.114.378-1.114.734v2.927c0 .825.068.896.471.998l.357.091v.173h-2.984v-.173l.355-.091c.401-.103.471-.173.471-.998v-2.938c0-.827-.08-.907-.494-.987l-.402-.08v-.173l2.078-.274.08.045v.85h.012c.551-.538 1.112-.953 1.928-.953 1.112 0 1.801.666 1.801 1.757v2.754c0 .825.068.896.471.998l.357.091v.173h-2.985zM40.481 60.108c-.609 0-.85.574-.85 1.171 0 .631.287 1.64 1.021 1.64.609 0 .839-.562.839-1.158.001-.608-.276-1.653-1.01-1.653m.46 5.451h-1.229c-.47 0-.838.378-.838.929 0 .941.953 1.32 1.756 1.32.77 0 1.653-.401 1.653-1.217 0-.769-.677-1.032-1.342-1.032m2.409-4.947h-.838c.137.195.229.507.229.838 0 1.137-.998 1.824-2.236 1.824-.379 0-.746-.067-1.066-.193l-.254.217c-.172.149-.332.311-.332.517 0 .356.39.607.963.607l1.607-.011c.917-.011 1.777.424 1.777 1.561 0 1.308-1.238 2.295-2.902 2.295-.895 0-2.363-.367-2.363-1.492 0-.699.631-1.136 1.137-1.285v-.011c-.598-.093-1.091-.483-1.091-1.067 0-.471.367-.85.7-1.124l.437-.356c-.437-.264-.735-.711-.735-1.364 0-1.08.93-1.825 2.248-1.825.553 0 1.033.138 1.355.355l1.411-.058v.527l-.047.045z"/>
    </g>
</svg>
