<svg xmlns="http://www.w3.org/2000/svg" width="314.329" height="31.158" viewBox="0 0 314.329 31.158">
    <g fill="#FFF">
        <path d="M54.727 14.596c0-2.91-1.238-5.643-3.413-8.019L27.418 31.158c15.086-.014 27.309-7.424 27.309-16.562M0 14.596c0 9.139 12.223 16.548 27.308 16.562L3.414 6.577C1.239 8.953 0 11.686 0 14.596M35.838 8.716c0 4.815-3.795 8.718-8.473 8.718-4.683 0-8.474-3.903-8.474-8.718C18.892 3.9 22.683 0 27.365 0c4.678 0 8.473 3.9 8.473 8.716M88.231 8.463c-.664.273-.996.479-1.461 2.595L84.048 23.58h-1.946l-3.165-9.971c-.221-.707-.42-1.503-.442-1.959h-.045c-.044.365-.266 1.208-.531 1.959l-3.474 9.971h-1.971l-2.81-12.772c-.421-1.936-.774-2.072-1.438-2.345l-.509-.205v-.386h6.418v.386l-.909.228c-.773.205-.93.432-.552 2.322l1.438 7.33c.133.707.266 1.549.287 2.05h.067c.065-.455.287-1.229.554-2.026l3.496-10.335h1.394l3.165 10.267c.242.774.443 1.549.508 2.049h.045c.021-.477.176-1.411.31-2.094l1.284-6.466c.465-2.39.288-2.868-.553-3.096l-.865-.228v-.387h4.937v.386l-.51.205zM94.25 23.58c-3.408 0-5.466-2.254-5.466-5.691 0-3.302 2.102-6.17 5.798-6.17 3.54 0 5.467 2.367 5.467 5.691 0 3.506-2.301 6.17-5.799 6.17m-.221-10.997c-1.858 0-2.435 1.936-2.435 4.03 0 1.958.73 6.102 3.098 6.102 1.948 0 2.567-1.98 2.567-4.053.001-1.913-.796-6.079-3.23-6.079M114.965 23.239v-.342l.642-.183c.773-.228.906-.341.906-1.98v-4.918c0-1.457-.863-2.344-2.234-2.344-1.239 0-2.015.751-2.015 1.456v5.807c0 1.64.11 1.753.885 1.98l.642.183v.342h-5.643v-.342l.643-.183c.774-.228.906-.341.906-1.98v-4.918c0-1.457-.862-2.344-2.234-2.344-1.239 0-2.014.751-2.014 1.456v5.807c0 1.64.11 1.753.884 1.98l.643.183v.342h-5.687v-.342l.685-.183c.774-.228.908-.341.908-1.98v-5.829c0-1.639-.156-1.776-.952-1.958l-.774-.16v-.342l4.007-.545.154.091v1.685h.021c1.02-1.071 2.036-1.89 3.562-1.89 1.549 0 2.657.729 3.121 2.003h.022c1.019-1.116 2.103-2.003 3.674-2.003 2.08 0 3.362 1.321 3.362 3.483v5.464c0 1.64.133 1.753.908 1.98l.687.183v.342h-5.709zM126.56 23.512c-2.833 0-4.913-2.231-4.913-5.623 0-3.051 1.859-6.17 5.224-6.17 2.566 0 4.182 1.981 4.182 4.189 0 .159 0 .319-.021.456h-7.326c-.021 2.777 1.506 5.055 4.404 5.055 1.151 0 2.125-.41 2.722-.865l.268.341c-1.22 1.433-2.482 2.617-4.54 2.617m-.222-10.814c-1.683 0-2.501 1.479-2.634 2.823h2.988c1.173 0 1.814-.137 1.814-.956.001-.935-.929-1.867-2.168-1.867M139.483 23.239v-.342l.686-.183c.774-.205.907-.341.907-1.98v-4.918c0-1.457-.907-2.344-2.368-2.344-1.306 0-2.146.751-2.146 1.456v5.807c0 1.64.133 1.775.907 1.98l.687.183v.342h-5.754v-.342l.687-.183c.774-.205.907-.341.907-1.98v-5.829c0-1.639-.155-1.797-.951-1.958l-.775-.16v-.342l4.006-.545.156.091v1.685h.021c1.062-1.071 2.146-1.89 3.718-1.89 2.147 0 3.475 1.321 3.475 3.483v5.464c0 1.64.133 1.775.908 1.98l.686.183v.342h-5.757zM145.856 13.563l-.332-.592c1.019-.523 2.08-1.389 2.08-2.618a1.821 1.821 0 0 0-1.969-1.822l-.133-.067a1.85 1.85 0 0 1-.09-.591c0-.707.465-1.322 1.263-1.322 1.35 0 2.302 1.322 2.302 2.642.001 2.183-1.395 3.527-3.121 4.37M152.805 23.443c-.886 0-1.969-.204-2.655-.569l-.223-2.868.466-.091.288.955c.288.889.975 1.617 2.235 1.617.974 0 1.992-.568 1.992-1.685 0-1.298-1.241-1.821-2.501-2.481-1.307-.684-2.391-1.525-2.391-3.165 0-2.231 1.971-3.301 3.83-3.301.641 0 1.592.091 2.388.477v2.664h-.442l-.199-.842c-.199-.773-.817-1.389-2.013-1.389-.997 0-1.682.592-1.682 1.389 0 1.025 1.128 1.503 2.367 2.142 1.505.772 2.567 1.639 2.567 3.482.001 2.162-1.726 3.665-4.027 3.665M183.543 8.463c-.663.273-.995.479-1.461 2.595L179.36 23.58h-1.946l-3.165-9.971c-.222-.707-.422-1.503-.443-1.959h-.045c-.044.365-.265 1.208-.531 1.959l-3.473 9.971h-1.971l-2.811-12.772c-.42-1.936-.774-2.072-1.438-2.345l-.509-.205v-.386h6.417v.386l-.907.228c-.774.205-.931.432-.554 2.322l1.438 7.33c.133.707.266 1.549.288 2.05h.066c.066-.455.287-1.229.554-2.026l3.495-10.335h1.396l3.165 10.267c.243.774.443 1.549.508 2.049h.045c.021-.477.178-1.411.31-2.094l1.284-6.466c.463-2.39.287-2.868-.554-3.096l-.862-.228v-.387h4.936v.386l-.51.205zM189.562 23.58c-3.408 0-5.466-2.254-5.466-5.691 0-3.302 2.102-6.17 5.797-6.17 3.542 0 5.467 2.367 5.467 5.691 0 3.506-2.3 6.17-5.798 6.17m-.22-10.997c-1.859 0-2.435 1.936-2.435 4.03 0 1.958.729 6.102 3.098 6.102 1.947 0 2.566-1.98 2.566-4.053 0-1.913-.796-6.079-3.229-6.079M203.858 14.815l-.11-.046c-.2-.524-.753-.979-1.396-.979-1.039 0-1.504.797-1.504 1.344v5.6c0 1.641.176 1.777.951 1.937l1.129.227v.343h-6.24v-.343l.685-.182c.775-.204.909-.341.909-1.981v-5.828c0-1.638-.244-1.798-1.041-1.957l-.774-.16v-.342l4.072-.545.153.091v1.912h.023c1.129-1.435 1.969-2.118 3.009-2.118.886 0 1.573.683 1.573 1.594s-.776 1.479-1.439 1.433M206.183 23.239v-.342l.686-.183c.774-.228.906-.341.906-1.98V9.261c0-1.641-.153-1.776-.951-1.959l-.775-.16V6.8l4.141-.545.154.091v14.389c0 1.64.133 1.753.908 1.98l.685.183v.342h-5.754zM220.72 23.466l-.153-.113v-1.64h-.022c-.93 1.002-2.058 1.867-3.519 1.867-2.699 0-3.939-2.868-3.939-5.169 0-3.414 1.86-6.396 5.489-6.396.596 0 1.217.045 1.858.229V9.26c0-1.64-.133-1.778-.931-1.958l-.773-.16V6.8l4.138-.545.134.091v14.411c0 1.64.155 1.775.951 1.958l.752.182v.343l-3.985.226zm-.286-8.765c0-1.048-.995-1.776-2.124-1.776-2.06 0-2.701 2.141-2.701 3.961 0 1.912.73 4.941 3.098 4.941.953 0 1.728-.639 1.728-1.366v-5.76zM238.403 23.239h-7.06v-.388l.798-.229c.884-.249 1.061-.432 1.061-2.321v-9.493c0-1.89-.177-2.073-1.061-2.323l-.798-.228v-.386h6.927c2.146 0 5.333.25 5.333 3.301 0 2.071-2.19 3.21-3.297 3.461v.091c2.08.023 4.027 1.389 4.027 3.824.001 2.755-2.347 4.691-5.93 4.691m-1.239-14.526h-.997v5.851h1.151c1.217 0 3.208-.5 3.208-2.959 0-2.368-1.571-2.892-3.362-2.892m.222 6.762h-1.219v4.508c0 2.141.288 2.346 1.219 2.346h.176c1.682 0 3.453-.819 3.453-3.438 0-2.801-1.749-3.416-3.629-3.416M252.499 23.466l-.132-.113v-1.64h-.044c-.841.843-1.861 1.8-3.319 1.8-1.396 0-2.788-1.002-2.788-2.619 0-2.777 2.765-3.369 5.975-4.03v-1.479c0-1.434-.819-2.414-2.147-2.414-1.173 0-1.504.66-1.504 1.412v.615l-.067.135a2.187 2.187 0 0 1-.997.273c-.419 0-.663-.25-.663-.683 0-.797.773-1.548 1.373-1.958.774-.546 1.813-.956 2.876-.956 2.546 0 3.653 1.503 3.653 3.847v4.941c0 1.64.154 1.913.951 2.095l.84.205v.342l-4.007.227zm-.309-5.828c-2.48.409-3.364 1.161-3.364 2.481 0 1.003.774 1.686 1.726 1.686 1.02 0 1.639-.638 1.639-1.298v-2.869zM264.229 23.239v-.342l.687-.183c.773-.205.906-.341.906-1.98v-4.918c0-1.457-.906-2.344-2.368-2.344-1.305 0-2.146.751-2.146 1.456v5.807c0 1.64.133 1.775.906 1.98l.687.183v.342h-5.755v-.342l.688-.183c.773-.205.907-.341.907-1.98v-5.829c0-1.639-.155-1.797-.952-1.958l-.774-.16v-.342l4.005-.545.154.091v1.685h.023c1.062-1.071 2.146-1.89 3.719-1.89 2.146 0 3.474 1.321 3.474 3.483v5.464c0 1.64.132 1.775.908 1.98l.687.183v.342h-5.756zM270.801 23.239v-.342l.687-.183c.773-.228.906-.341.906-1.98V9.261c0-1.641-.154-1.776-.951-1.959l-.776-.16V6.8l4.14-.545.154.091v14.389c0 1.64.135 1.753.909 1.98l.685.183v.342h-5.754zm7.989 0l-3.607-6.17 2.434-2.346c1.395-1.344.974-1.799.289-1.981l-.708-.204v-.319h5.133v.319l-.708.204c-.796.206-1.283.729-2.589 1.981l-1.615 1.548 2.854 4.462c.884 1.389 1.195 1.775 1.88 2.003l.532.16v.342h-3.895zM283.458 23.239v-.343l.688-.182c.773-.228.906-.341.906-1.98v-5.829c0-1.639-.154-1.776-.951-1.958l-.774-.16v-.342l4.138-.545.156.091v8.742c0 1.64.131 1.753.906 1.98l.687.182v.343h-5.756zm2.834-13.888c-1.108 0-1.506-.752-1.506-1.457 0-.661.397-1.458 1.549-1.458 1.04 0 1.549.569 1.549 1.435 0 .955-.64 1.48-1.592 1.48M297.289 23.239v-.342l.686-.183c.775-.205.908-.341.908-1.98v-4.918c0-1.457-.908-2.344-2.367-2.344-1.307 0-2.147.751-2.147 1.456v5.807c0 1.64.133 1.775.906 1.98l.688.183v.342h-5.754v-.342l.688-.183c.773-.205.906-.341.906-1.98v-5.829c0-1.639-.156-1.797-.952-1.958l-.774-.16v-.342l4.007-.545.153.091v1.685h.022c1.062-1.071 2.146-1.89 3.717-1.89 2.148 0 3.475 1.321 3.475 3.483v5.464c0 1.64.135 1.775.908 1.98l.687.183v.342h-5.757zM314.241 13.449h-1.617c.268.386.443 1.001.443 1.662 0 2.253-1.926 3.62-4.315 3.62a5.535 5.535 0 0 1-2.059-.388l-.484.434c-.333.296-.644.614-.644 1.024 0 .706.754 1.207 1.86 1.207l3.097-.022c1.771-.023 3.432.842 3.432 3.094 0 2.597-2.391 4.555-5.601 4.555-1.726 0-4.557-.729-4.557-2.96 0-1.388 1.217-2.253 2.19-2.55v-.021c-1.152-.184-2.103-.957-2.103-2.117 0-.935.707-1.686 1.351-2.232l.839-.705c-.839-.523-1.415-1.412-1.415-2.709 0-2.141 1.793-3.62 4.338-3.62 1.061 0 1.991.272 2.61.705l2.722-.114v1.047l-.087.09zm-4.646 9.813h-2.369c-.906 0-1.616.751-1.616 1.845 0 1.865 1.838 2.617 3.388 2.617 1.482 0 3.186-.797 3.186-2.413-.001-1.526-1.307-2.049-2.589-2.049m-.887-10.815c-1.172 0-1.637 1.138-1.637 2.322 0 1.252.553 3.256 1.969 3.256 1.174 0 1.617-1.117 1.617-2.3 0-1.206-.532-3.278-1.949-3.278"/>
    </g>
</svg>
