<svg xmlns="http://www.w3.org/2000/svg" viewBox="0 0 64.2 64.2"><defs><style>.cls-1{fill:#93509e;}.cls-2{fill:#fff;}.cls-3{fill:none;stroke:#fff;stroke-linecap:round;stroke-linejoin:round;stroke-width:1.5px;}</style></defs><title>impact-women-icon</title><g id="Layer_2" data-name="Layer 2"><g id="Design"><circle class="cls-1" cx="32.1" cy="32.1" r="32.1"/><path class="cls-2" d="M45.45,30a.73.73,0,1,0-1.36-.52,12.84,12.84,0,0,1-24.76-3.28l2.28,2a.73.73,0,0,0,1-1.09L19,24a.73.73,0,0,0-.53-.18A.72.72,0,0,0,18,24l-3.11,3.56a.73.73,0,0,0,.07,1l.09.07a.73.73,0,0,0,.94-.13l1.92-2.2A14.29,14.29,0,0,0,45.45,30ZM20.11,20.24a12.84,12.84,0,0,1,24.76,3.29l-2.29-2a.73.73,0,1,0-1,1.09l3.56,3.11.09.06a.73.73,0,0,0,.94-.13l3.11-3.56a.73.73,0,0,0-1.09-1l-1.92,2.19a14.29,14.29,0,0,0-27.56-3.62.73.73,0,0,0,.28.87l.13.07a.72.72,0,0,0,.94-.42Z"/><line class="cls-3" x1="32.1" y1="39.01" x2="32.1" y2="53.65"/><line class="cls-3" x1="26.47" y1="46.47" x2="37.72" y2="46.47"/></g></g></svg>