<svg id="Layer_2" data-name="Layer 2" xmlns="http://www.w3.org/2000/svg" viewBox="0 0 179.6 179.6"><defs><style>.cls-1{fill:#fff;}.cls-2{fill:#bb650e;}</style></defs><title>Artboard 1</title><circle class="cls-1" cx="89.6" cy="90.3" r="65.5"/><circle class="cls-2" cx="89.6" cy="90.3" r="57.4"/><path class="cls-1" d="M88.6,126a.47.47,0,0,1,.5-.5h0a.47.47,0,0,1,.5.5h0a.47.47,0,0,1-.5.5h0C88.8,126.4,88.6,126.2,88.6,126Zm-7-.8a.47.47,0,0,1,.5-.5h0a.47.47,0,0,1,.5.5h0a.47.47,0,0,1-.5.5h0A.54.54,0,0,1,81.6,125.2Zm13.8,0a.47.47,0,0,1,.5-.5h0a.47.47,0,0,1,.5.5h0a.47.47,0,0,1-.5.5h0A.47.47,0,0,1,95.4,125.2Zm-16.3-.4h0a.49.49,0,0,1-.1-.7h0a.48.48,0,0,1,.7-.1h0a.48.48,0,0,1,.1.7h0c-.1.2-.2.2-.4.2h0C79.2,124.8,79.2,124.8,79.1,124.8Zm19.2-.3a.49.49,0,0,1,.1-.7h0a.49.49,0,0,1,.7.1h0a.62.62,0,0,1-.1.7h0a.37.37,0,0,1-.3.1h0C98.5,124.7,98.3,124.7,98.3,124.5ZM88.6,123a.47.47,0,0,1,.5-.5h0a.47.47,0,0,1,.5.5h0a.47.47,0,0,1-.5.5h0C88.8,123.4,88.6,123.2,88.6,123Zm-11.8-.4a.49.49,0,0,1,.1-.7h0a.49.49,0,0,1,.7.1h0a.49.49,0,0,1-.1.7h0a.37.37,0,0,1-.3.1h0A.52.52,0,0,1,76.8,122.6Zm23.7,0a.62.62,0,0,1-.1-.7h0a.49.49,0,0,1,.7-.1h0a.49.49,0,0,1,.1.7h0a.52.52,0,0,1-.4.2h0C100.7,122.7,100.6,122.6,100.5,122.6ZM88.6,120a.47.47,0,0,1,.5-.5h0a.47.47,0,0,1,.5.5h0a.47.47,0,0,1-.5.5h0C88.8,120.4,88.6,120.2,88.6,120Zm-13.5,0a.53.53,0,0,1,.2-.7h0a.66.66,0,0,1,.7.2h0a.66.66,0,0,1-.2.7h0a.35.35,0,0,0-.2.1h0A.46.46,0,0,1,75.1,120Zm27.1.1a.57.57,0,0,1-.2-.7h0a.57.57,0,0,1,.7-.2h0a.57.57,0,0,1,.2.7h0a.54.54,0,0,1-.4.3h0C102.4,120.2,102.3,120.1,102.2,120.1Zm-28.4-2.8h0c-.1-.3,0-.5.3-.7h0a.59.59,0,0,1,.7.3h0c.1.3,0,.5-.3.7h-.2C74,117.6,73.8,117.5,73.8,117.3Zm14.7-.3a.47.47,0,0,1,.5-.5h0a.47.47,0,0,1,.5.5h0a.47.47,0,0,1-.5.5h0C88.8,117.4,88.5,117.2,88.5,117Zm15,.4a.45.45,0,0,1-.3-.6h0a.61.61,0,0,1,.7-.3h0a.61.61,0,0,1,.3.7h0a.55.55,0,0,1-.5.3h0C103.6,117.4,103.6,117.4,103.5,117.4Zm-30.8-3a.42.42,0,0,1,.3-.6h0a.42.42,0,0,1,.6.3h0a.49.49,0,0,1-.3.6h-.2C73,114.8,72.8,114.6,72.7,114.4Zm31.9.2a.45.45,0,0,1-.3-.6h0a.45.45,0,0,1,.6-.3h0a.45.45,0,0,1,.3.6h0a.66.66,0,0,1-.5.4h0A.1.1,0,0,0,104.6,114.6ZM88.5,114a.47.47,0,0,1,.5-.5h0a.47.47,0,0,1,.5.5h0a.47.47,0,0,1-.5.5h0C88.7,114.4,88.5,114.2,88.5,114Zm-16.7-2.5c-.1-.3.1-.5.4-.6h0c.3-.1.5.1.6.4h0c.1.3-.1.5-.4.6h-.1A.66.66,0,0,1,71.8,111.5Zm33.6.2a.55.55,0,0,1-.4-.6h0a.55.55,0,0,1,.6-.4h0a.55.55,0,0,1,.4.6h0a.66.66,0,0,1-.5.4h-.1ZM88.5,111a.47.47,0,0,1,.5-.5h0a.47.47,0,0,1,.5.5h0a.47.47,0,0,1-.5.5h0C88.7,111.4,88.5,111.2,88.5,111Zm-.9.4a.47.47,0,0,1-.5-.5h0a.47.47,0,0,1,.5-.5h0a.47.47,0,0,1,.5.5h0a.54.54,0,0,1-.5.5Zm2.5-.5a.47.47,0,0,1,.5-.5h0a.47.47,0,0,1,.5.5h0a.47.47,0,0,1-.5.5h0A.47.47,0,0,1,90.1,110.9Zm-5.6.5a.47.47,0,0,1-.5-.5h0a.47.47,0,0,1,.5-.5h0a.47.47,0,0,1,.5.5h0a.47.47,0,0,1-.5.5Zm8.6-.6a.47.47,0,0,1,.5-.5h0a.47.47,0,0,1,.5.5h0a.47.47,0,0,1-.5.5h0A.47.47,0,0,1,93.1,110.8Zm-11.6.4a.54.54,0,0,1-.5-.5h0a.54.54,0,0,1,.5-.5h0a.54.54,0,0,1,.5.5h0a.47.47,0,0,1-.5.5Zm14.6-.5a.47.47,0,0,1,.5-.5h0a.47.47,0,0,1,.5.5h0a.47.47,0,0,1-.5.5h0C96.3,111.1,96.1,110.9,96.1,110.7Zm-17.6.2a.44.44,0,0,1-.4-.6h0c0-.3.3-.5.5-.4h0a.44.44,0,0,1,.4.6h0a.46.46,0,0,1-.5.4Zm20.5-.5a.68.68,0,0,1,.4-.6h0a.68.68,0,0,1,.6.4h0a.46.46,0,0,1-.4.5h-.1C99.3,110.8,99.1,110.6,99,110.4Zm-23.5.1a.44.44,0,0,1-.4-.6h0a.44.44,0,0,1,.6-.4h0a.44.44,0,0,1,.4.6h0c0,.2-.3.4-.6.4Zm26.5-.6a.55.55,0,0,1,.4-.6h0c.3-.1.5.1.6.4h0a.55.55,0,0,1-.4.6h-.1C102.3,110.4,102.1,110.2,102,109.9Zm-29.5.1c-.3,0-.4-.3-.4-.6h0c.1-.3.3-.5.6-.4h0c.3,0,.4.3.4.6h0a.46.46,0,0,1-.5.4h-.1Zm32.5-.6c-.1-.3.1-.5.4-.6h0c.3-.1.5.1.6.4h0c.1.3-.1.5-.4.6h-.1C105.2,109.8,105,109.7,105,109.4Zm-35.4-.1a.55.55,0,0,1-.4-.6h0a.55.55,0,0,1,.6-.4h0a.55.55,0,0,1,.4.6h0a.66.66,0,0,1-.5.4h-.1Zm38.3-.6c-.1-.3.1-.5.4-.6h0c.3-.1.5.1.6.4h0c.1.3-.1.5-.4.6h-.1C108.2,109.1,107.9,109,107.9,108.7Zm-36.8-.1h0c-.1-.3.1-.5.4-.6h0c.3-.1.5.1.6.4h0c.1.3-.1.5-.4.6h-.1A.66.66,0,0,1,71.1,108.6Zm35,.2a.55.55,0,0,1-.4-.6h0c0-.3.3-.4.6-.4h0a.55.55,0,0,1,.4.6h0a.66.66,0,0,1-.5.4h-.1Zm-39.4-.3a.45.45,0,0,1-.3-.6h0a.45.45,0,0,1,.6-.3h0a.45.45,0,0,1,.3.6h0a.55.55,0,0,1-.5.3h-.1Zm21.8-.5a.47.47,0,0,1,.5-.5h0a.47.47,0,0,1,.5.5h0a.47.47,0,0,1-.5.5h0C88.7,108.4,88.5,108.2,88.5,108Zm22.3-.1a.49.49,0,0,1,.3-.6h0a.49.49,0,0,1,.6.3h0a.49.49,0,0,1-.3.6h-.1A.35.35,0,0,1,110.8,107.9Zm-47-.5h0a.52.52,0,0,1-.3-.7h0a.52.52,0,0,1,.7-.3h0c.2.1.4.4.3.6h0a.55.55,0,0,1-.5.3h0C64,107.5,63.9,107.5,63.8,107.4Zm49.8-.5a.52.52,0,0,1,.3-.7h0a.52.52,0,0,1,.7.3h0c.1.3,0,.5-.3.7h-.2A.55.55,0,0,1,113.6,106.9Zm-52.5-.8h0a.57.57,0,0,1-.2-.7h0a.57.57,0,0,1,.7-.2h0a.57.57,0,0,1,.2.7h0a.54.54,0,0,1-.4.3h0C61.2,106.2,61.1,106.2,61.1,106.1Zm9.5-.5a.55.55,0,0,1,.4-.6h0a.55.55,0,0,1,.6.4h0a.55.55,0,0,1-.4.6h-.1A.46.46,0,0,1,70.6,105.6Zm45.7.1a.62.62,0,0,1,.2-.7h0a.66.66,0,0,1,.7.2h0a.66.66,0,0,1-.2.7h0a.35.35,0,0,0-.2.1h0A2.19,2.19,0,0,1,116.3,105.7Zm-9.6.2a.44.44,0,0,1-.4-.6h0a.44.44,0,0,1,.6-.4h0a.44.44,0,0,1,.4.6h0a.68.68,0,0,1-.6.4ZM88.5,105a.47.47,0,0,1,.5-.5h0a.47.47,0,0,1,.5.5h0a.47.47,0,0,1-.5.5h0C88.7,105.4,88.5,105.2,88.5,105Zm-30-.5a.49.49,0,0,1-.1-.7h0a.49.49,0,0,1,.7-.1h0a.49.49,0,0,1,.1.7h0a.52.52,0,0,1-.4.2h0C58.7,104.6,58.6,104.5,58.5,104.5Zm60.4-.4a.49.49,0,0,1,.1-.7h0a.49.49,0,0,1,.7.1h0a.49.49,0,0,1-.1.7h0a.37.37,0,0,1-.3.1h0A.52.52,0,0,1,118.9,104.1Zm-48.7-1.5h0a.68.68,0,0,1,.4-.6h0a.68.68,0,0,1,.6.4h0a.68.68,0,0,1-.4.6h-.1C70.4,103,70.2,102.9,70.2,102.6Zm36.9.3a.44.44,0,0,1-.4-.6h0c0-.3.3-.5.5-.4h0a.44.44,0,0,1,.4.6h0a.46.46,0,0,1-.5.4ZM88.5,102a.47.47,0,0,1,.5-.5h0a.47.47,0,0,1,.5.5h0a.47.47,0,0,1-.5.5h0C88.7,102.4,88.5,102.2,88.5,102Zm-32.2.2a.62.62,0,0,1,.1-.7h0a.48.48,0,0,1,.7.1h0a.62.62,0,0,1-.1.7h0c-.1,0-.2.1-.3.1h0A.52.52,0,0,1,56.3,102.2ZM121,102a.48.48,0,0,1-.1-.7h0a.48.48,0,0,1,.7-.1h0a.62.62,0,0,1,.2.7h0a.4.4,0,0,1-.4.2h0C121.2,102.1,121.1,102.1,121,102ZM69.8,99.6a.47.47,0,0,1,.5-.5h0a.47.47,0,0,1,.5.5h0a.47.47,0,0,1-.5.5h0C70.1,100.1,69.9,99.9,69.8,99.6Zm37.6.3c-.3,0-.5-.3-.4-.5h0a.54.54,0,0,1,.5-.5h0a.54.54,0,0,1,.5.5h0a.63.63,0,0,1-.6.5Zm-52.1-.8a.47.47,0,0,1,.5-.5h0a.47.47,0,0,1,.5.5h0a.47.47,0,0,1-.5.5h0A.47.47,0,0,1,55.3,99.1ZM88.5,99a.47.47,0,0,1,.5-.5h0a.47.47,0,0,1,.5.5h0a.47.47,0,0,1-.5.5h0C88.7,99.4,88.5,99.2,88.5,99ZM69.6,96.6h0a.47.47,0,0,1,.5-.5h0a.47.47,0,0,1,.5.5h0a.47.47,0,0,1-.5.5h0A.54.54,0,0,1,69.6,96.6Zm38,.3a.47.47,0,0,1-.5-.5h0a.47.47,0,0,1,.5-.5h0a.47.47,0,0,1,.5.5h0a.47.47,0,0,1-.5.5ZM88.4,96a.47.47,0,0,1,.5-.5h0a.47.47,0,0,1,.5.5h0a.47.47,0,0,1-.5.5h0C88.7,96.4,88.4,96.2,88.4,96ZM69.5,93.6a.47.47,0,0,1,.5-.5h0a.47.47,0,0,1,.5.5h0a.47.47,0,0,1-.5.5h0A.47.47,0,0,1,69.5,93.6Zm38.2.3a.47.47,0,0,1-.5-.5h0a.47.47,0,0,1,.5-.5h0a.47.47,0,0,1,.5.5h0a.47.47,0,0,1-.5.5ZM88.4,93a.47.47,0,0,1,.5-.5h0a.47.47,0,0,1,.5.5h0a.47.47,0,0,1-.5.5h0A.64.64,0,0,1,88.4,93Zm-33.9-.7a.47.47,0,0,1,.5-.5h0a.47.47,0,0,1,.5.5h0a.47.47,0,0,1-.5.5h0A.47.47,0,0,1,54.5,92.3Zm3,0a.47.47,0,0,1,.5-.5h0a.47.47,0,0,1,.5.5h0a.47.47,0,0,1-.5.5h0A.47.47,0,0,1,57.5,92.3Zm3,0a.47.47,0,0,1,.5-.5h0a.47.47,0,0,1,.5.5h0a.47.47,0,0,1-.5.5h0A.47.47,0,0,1,60.5,92.3Zm3,0a.47.47,0,0,1,.5-.5h0a.47.47,0,0,1,.5.5h0a.47.47,0,0,1-.5.5h0A.47.47,0,0,1,63.5,92.3Zm3,0a.47.47,0,0,1,.5-.5h0a.47.47,0,0,1,.5.5h0a.47.47,0,0,1-.5.5h0A.47.47,0,0,1,66.5,92.3Zm3,0a.47.47,0,0,1,.5-.5h0a.47.47,0,0,1,.5.5h0a.47.47,0,0,1-.5.5h0A.54.54,0,0,1,69.5,92.3Zm3,0a.47.47,0,0,1,.5-.5h0a.47.47,0,0,1,.5.5h0a.47.47,0,0,1-.5.5h0A.54.54,0,0,1,72.5,92.3Zm3-.1a.47.47,0,0,1,.5-.5h0a.47.47,0,0,1,.5.5h0a.47.47,0,0,1-.5.5h0A.47.47,0,0,1,75.5,92.2Zm3,0a.47.47,0,0,1,.5-.5h0a.47.47,0,0,1,.5.5h0a.47.47,0,0,1-.5.5h0A.47.47,0,0,1,78.5,92.2Zm3,0a.47.47,0,0,1,.5-.5h0a.47.47,0,0,1,.5.5h0a.47.47,0,0,1-.5.5h0A.47.47,0,0,1,81.5,92.2Zm3,0a.47.47,0,0,1,.5-.5h0a.47.47,0,0,1,.5.5h0a.47.47,0,0,1-.5.5h0A.47.47,0,0,1,84.5,92.2Zm3,0a.47.47,0,0,1,.5-.5h0a.47.47,0,0,1,.5.5h0a.47.47,0,0,1-.5.5h0A.47.47,0,0,1,87.5,92.2Zm3,0a.47.47,0,0,1,.5-.5h0a.47.47,0,0,1,.5.5h0a.47.47,0,0,1-.5.5h0A.54.54,0,0,1,90.5,92.2Zm3,0a.47.47,0,0,1,.5-.5h0a.47.47,0,0,1,.5.5h0a.47.47,0,0,1-.5.5h0A.54.54,0,0,1,93.5,92.2Zm3-.1a.47.47,0,0,1,.5-.5h0a.47.47,0,0,1,.5.5h0a.47.47,0,0,1-.5.5h0A.47.47,0,0,1,96.5,92.1Zm3,0a.47.47,0,0,1,.5-.5h0a.47.47,0,0,1,.5.5h0a.47.47,0,0,1-.5.5h0A.47.47,0,0,1,99.5,92.1Zm3,0a.47.47,0,0,1,.5-.5h0a.47.47,0,0,1,.5.5h0a.47.47,0,0,1-.5.5h0A.47.47,0,0,1,102.5,92.1Zm3,0a.47.47,0,0,1,.5-.5h0a.47.47,0,0,1,.5.5h0a.47.47,0,0,1-.5.5h0A.47.47,0,0,1,105.5,92.1Zm3,0a.47.47,0,0,1,.5-.5h0a.47.47,0,0,1,.5.5h0a.47.47,0,0,1-.5.5h0A.47.47,0,0,1,108.5,92.1Zm3,0a.47.47,0,0,1,.5-.5h0a.47.47,0,0,1,.5.5h0a.47.47,0,0,1-.5.5h0A.54.54,0,0,1,111.5,92.1Zm3,0a.47.47,0,0,1,.5-.5h0a.47.47,0,0,1,.5.5h0a.47.47,0,0,1-.5.5h0A.54.54,0,0,1,114.5,92.1Zm3-.1a.47.47,0,0,1,.5-.5h0a.47.47,0,0,1,.5.5h0a.47.47,0,0,1-.5.5h0A.47.47,0,0,1,117.5,92Zm3,0a.47.47,0,0,1,.5-.5h0a.47.47,0,0,1,.5.5h0a.47.47,0,0,1-.5.5h0A.47.47,0,0,1,120.5,92ZM70,91.1a.47.47,0,0,1-.5-.5h0a.47.47,0,0,1,.5-.5h0a.47.47,0,0,1,.5.5h0a.47.47,0,0,1-.5.5Zm37.2-.7a.47.47,0,0,1,.5-.5h0a.47.47,0,0,1,.5.5h0a.47.47,0,0,1-.5.5h0A.47.47,0,0,1,107.2,90.4ZM88.4,90a.47.47,0,0,1,.5-.5h0a.47.47,0,0,1,.5.5h0a.47.47,0,0,1-.5.5h0C88.6,90.4,88.4,90.2,88.4,90ZM70.1,88.1a.47.47,0,0,1-.5-.5h0a.47.47,0,0,1,.5-.5h0a.47.47,0,0,1,.5.5h0a.47.47,0,0,1-.5.5Zm37-.7a.47.47,0,0,1,.5-.5h0a.47.47,0,0,1,.5.5h0a.47.47,0,0,1-.5.5h0A.47.47,0,0,1,107.1,87.4ZM88.4,87a.47.47,0,0,1,.5-.5h0a.47.47,0,0,1,.5.5h0a.47.47,0,0,1-.5.5h0C88.6,87.4,88.4,87.2,88.4,87ZM55.2,85.4a.47.47,0,0,1,.5-.5h0a.47.47,0,0,1,.5.5h0a.47.47,0,0,1-.5.5h0A.47.47,0,0,1,55.2,85.4Zm15-.3a.54.54,0,0,1-.5-.5h0a.54.54,0,0,1,.5-.5h0a.54.54,0,0,1,.5.5h0c.1.3-.2.5-.5.5Zm36.7-.6a.47.47,0,0,1,.5-.5h0a.46.46,0,0,1,.5.4h0a.47.47,0,0,1-.5.5h0A.46.46,0,0,1,106.9,84.5ZM88.4,84a.47.47,0,0,1,.5-.5h0a.47.47,0,0,1,.5.5h0a.47.47,0,0,1-.5.5h0C88.6,84.4,88.4,84.2,88.4,84Zm-32-1a.49.49,0,0,1-.1-.7h0a.49.49,0,0,1,.7-.1h0a.48.48,0,0,1,.1.7h0a.4.4,0,0,1-.4.2h0C56.5,83.1,56.4,83.1,56.4,83Zm64.4-.4a.62.62,0,0,1,.1-.7h0a.49.49,0,0,1,.7.1h0a.49.49,0,0,1-.1.7h0a.37.37,0,0,1-.3.1h0A.76.76,0,0,1,120.8,82.6Zm-50.3-.5a.44.44,0,0,1-.4-.6h0a.44.44,0,0,1,.6-.4h0a.44.44,0,0,1,.4.6h0a.68.68,0,0,1-.6.4Zm36-.6a.68.68,0,0,1,.4-.6h0a.68.68,0,0,1,.6.4h0a.68.68,0,0,1-.4.6H107A.66.66,0,0,1,106.5,81.5ZM88.4,81a.47.47,0,0,1,.5-.5h0a.47.47,0,0,1,.5.5h0a.47.47,0,0,1-.5.5h0C88.6,81.4,88.4,81.2,88.4,81Zm-30.1-.3a.49.49,0,0,1,.1-.7h0a.49.49,0,0,1,.7.1h0a.49.49,0,0,1-.1.7h0a.37.37,0,0,1-.3.1h0C58.5,80.9,58.4,80.9,58.3,80.7Zm60.6-.2a.49.49,0,0,1-.1-.7h0a.49.49,0,0,1,.7-.1h0a.49.49,0,0,1,.1.7h0a.52.52,0,0,1-.4.2h0A.19.19,0,0,1,118.9,80.5ZM60.7,79a.66.66,0,0,1,.2-.7h0a.53.53,0,0,1,.7.2h0a.66.66,0,0,1-.2.7h0a.31.31,0,0,1-.2.1h0A.55.55,0,0,1,60.7,79Zm10.2.1a.44.44,0,0,1-.4-.6h0a.44.44,0,0,1,.6-.4h0a.44.44,0,0,1,.4.6h0a.68.68,0,0,1-.6.4Zm45.5-.1h0a.57.57,0,0,1-.2-.7h0a.57.57,0,0,1,.7-.2h0a.57.57,0,0,1,.2.7h0a.54.54,0,0,1-.4.3h0A.37.37,0,0,0,116.4,79Zm-10.3-.5a.55.55,0,0,1,.4-.6h0a.55.55,0,0,1,.6.4h0a.55.55,0,0,1-.4.6h-.1C106.4,79,106.2,78.8,106.1,78.5ZM88.4,78a.47.47,0,0,1,.5-.5h0a.47.47,0,0,1,.5.5h0a.47.47,0,0,1-.5.5h0C88.6,78.4,88.4,78.2,88.4,78Zm-25-.3a.59.59,0,0,1,.3-.7h0c.3-.1.5,0,.7.3h0a.59.59,0,0,1-.3.7h-.2A.55.55,0,0,1,63.4,77.7Zm50.3,0a.52.52,0,0,1-.3-.7h0a.45.45,0,0,1,.6-.3h0a.52.52,0,0,1,.3.7h0a.55.55,0,0,1-.5.3h0C113.9,77.8,113.8,77.7,113.7,77.7ZM66.2,76.6a.49.49,0,0,1,.3-.6h0c.3-.1.6.1.6.3h0a.49.49,0,0,1-.3.6h-.2A.54.54,0,0,1,66.2,76.6Zm44.8.1a.45.45,0,0,1-.3-.6h0a.45.45,0,0,1,.6-.3h0a.45.45,0,0,1,.3.6h0a.55.55,0,0,1-.5.3H111Zm-39.6-.5a.55.55,0,0,1-.4-.6h0c.1-.3.3-.5.6-.4h0c.3,0,.4.3.4.6h0a.46.46,0,0,1-.5.4h-.1Zm-2.3-.5c-.1-.3.1-.5.4-.6h0c.3-.1.5.1.6.4h0c.1.3-.1.5-.4.6h-.1A.46.46,0,0,1,69.1,75.7Zm36.5-.1c-.1-.3.1-.5.4-.6h0c.3-.1.5.1.6.4h0c.1.3-.1.5-.4.6h-.1A.46.46,0,0,1,105.6,75.6Zm2.5.3a.55.55,0,0,1-.4-.6h0a.55.55,0,0,1,.6-.4h0a.55.55,0,0,1,.4.6h0a.66.66,0,0,1-.5.4h-.1ZM88.3,75a.47.47,0,0,1,.5-.5h0a.47.47,0,0,1,.5.5h0a.47.47,0,0,1-.5.5h0C88.6,75.4,88.3,75.2,88.3,75ZM72,75c-.1-.3.1-.5.4-.6h0c.3-.1.5.1.6.4h0a.55.55,0,0,1-.4.6h-.1A.66.66,0,0,1,72,75Zm33.2.2c-.3,0-.4-.3-.4-.6h0c.1-.3.3-.5.6-.4h0c.3,0,.4.3.4.6h0a.46.46,0,0,1-.5.4h-.1Zm-30.3-.8a.55.55,0,0,1,.4-.6h0a.55.55,0,0,1,.6.4h0a.55.55,0,0,1-.4.6h-.1A.51.51,0,0,1,74.9,74.4Zm27.4.3a.44.44,0,0,1-.4-.6h0a.44.44,0,0,1,.6-.4h0a.44.44,0,0,1,.4.6h0a.68.68,0,0,1-.6.4ZM77.9,74a.68.68,0,0,1,.4-.6h0a.68.68,0,0,1,.6.4h0a.46.46,0,0,1-.4.5h-.1A.38.38,0,0,1,77.9,74Zm21.4.3h0a.44.44,0,0,1-.4-.6h0c0-.3.3-.5.5-.4h0a.44.44,0,0,1,.4.6h0a.46.46,0,0,1-.5.4Zm-18.4-.7a.47.47,0,0,1,.5-.5h0a.47.47,0,0,1,.5.5h0a.47.47,0,0,1-.5.5h0A.47.47,0,0,1,80.9,73.6Zm15.4.4h0a.54.54,0,0,1-.5-.5h0a.54.54,0,0,1,.5-.5h0a.54.54,0,0,1,.5.5h0c.1.3-.2.5-.5.5Zm-12.4-.6a.47.47,0,0,1,.5-.5h0a.47.47,0,0,1,.5.5h0a.47.47,0,0,1-.5.5h0A.47.47,0,0,1,83.9,73.4Zm9.5.4a.47.47,0,0,1-.5-.5h0a.47.47,0,0,1,.5-.5h0a.47.47,0,0,1,.5.5h0a.47.47,0,0,1-.5.5Zm-6.5-.5a.47.47,0,0,1,.5-.5h0a.47.47,0,0,1,.5.5h0a.47.47,0,0,1-.5.5h0A.47.47,0,0,1,86.9,73.3Zm3.5.5a.47.47,0,0,1-.5-.5h0a.47.47,0,0,1,.5-.5h0a.47.47,0,0,1,.5.5h0a.54.54,0,0,1-.5.5ZM72,73.2a.55.55,0,0,1-.4-.6h0a.55.55,0,0,1,.6-.4h0a.55.55,0,0,1,.4.6h0a.66.66,0,0,1-.5.4H72Zm32.9-.5h0c-.1-.3.1-.5.4-.6h0a.49.49,0,0,1,.6.3h0a.49.49,0,0,1-.3.6h-.1C105.1,73.1,104.9,72.9,104.9,72.7ZM88.3,72a.47.47,0,0,1,.5-.5h0a.47.47,0,0,1,.5.5h0a.47.47,0,0,1-.5.5h0A.64.64,0,0,1,88.3,72ZM72.8,70.3a.45.45,0,0,1-.3-.6h0a.45.45,0,0,1,.6-.3h0a.45.45,0,0,1,.3.6h0a.55.55,0,0,1-.5.3h0C72.9,70.4,72.9,70.3,72.8,70.3Zm31.2-.4a.49.49,0,0,1,.3-.6h0a.49.49,0,0,1,.6.3h0a.49.49,0,0,1-.3.6h-.2A.54.54,0,0,1,104,69.9ZM88.3,69a.47.47,0,0,1,.5-.5h0a.47.47,0,0,1,.5.5h0a.47.47,0,0,1-.5.5h0C88.5,69.4,88.3,69.2,88.3,69ZM73.8,67.5c-.2-.1-.4-.4-.3-.6h0a.52.52,0,0,1,.7-.3h0a.52.52,0,0,1,.3.7h0a.55.55,0,0,1-.5.3h0C73.9,67.5,73.9,67.5,73.8,67.5Zm29.2-.4c-.1-.3,0-.5.3-.7h0a.45.45,0,0,1,.6.3h0a.55.55,0,0,1-.3.7h-.2A.54.54,0,0,1,103,67.1ZM88.3,66a.47.47,0,0,1,.5-.5h0a.47.47,0,0,1,.5.5h0a.47.47,0,0,1-.5.5h0C88.5,66.4,88.3,66.2,88.3,66ZM75,64.8a.57.57,0,0,1-.2-.7h0a.57.57,0,0,1,.7-.2h0a.57.57,0,0,1,.2.7h0a.55.55,0,0,1-.5.3h0C75.2,64.8,75.1,64.8,75,64.8Zm26.7-.4a.66.66,0,0,1,.2-.7h0a.62.62,0,0,1,.7.2h0a.62.62,0,0,1-.2.7h0c-.1,0-.1.1-.2.1h0A.55.55,0,0,1,101.7,64.4ZM88.3,63a.47.47,0,0,1,.5-.5h0a.47.47,0,0,1,.5.5h0a.47.47,0,0,1-.5.5h0C88.5,63.4,88.3,63.2,88.3,63Zm-11.7-.8a.49.49,0,0,1-.1-.7h0a.49.49,0,0,1,.7-.1h0a.49.49,0,0,1,.1.7h0a.52.52,0,0,1-.4.2h0A.37.37,0,0,1,76.6,62.2Zm23.5-.2h0a.49.49,0,0,1,.1-.7h0a.49.49,0,0,1,.7.1h0a.49.49,0,0,1-.1.7h0a.37.37,0,0,1-.3.1h0A.76.76,0,0,1,100.1,62ZM88.3,60a.47.47,0,0,1,.5-.5h0a.47.47,0,0,1,.5.5h0a.47.47,0,0,1-.5.5h0C88.5,60.4,88.3,60.2,88.3,60Zm-9.7,0a.49.49,0,0,1,.1-.7h0a.49.49,0,0,1,.7.1h0a.62.62,0,0,1-.1.7h0a.37.37,0,0,1-.3.1h0A.4.4,0,0,1,78.6,60Zm19.5.1h0a.48.48,0,0,1-.1-.7h0a.62.62,0,0,1,.7-.2h0a.49.49,0,0,1,.1.7h0a.76.76,0,0,1-.4.2h0C98.2,60.2,98.2,60.1,98.1,60.1Z"/><path class="cls-1" d="M88.6,126.7h0a.47.47,0,0,1-.5-.5h0a.47.47,0,0,1,.5-.5h0a.47.47,0,0,1,.5.5h0a.54.54,0,0,1-.5.5Zm2.5-.6a.47.47,0,0,1,.5-.5h0a.47.47,0,0,1,.5.5h0a.47.47,0,0,1-.5.5h0A.47.47,0,0,1,91.1,126.1Zm-5.5.4a.44.44,0,0,1-.4-.6h0c0-.3.3-.5.5-.4h0c.3,0,.5.3.4.5h0a.47.47,0,0,1-.5.5Zm8.5-.7a.55.55,0,0,1,.4-.6h0a.55.55,0,0,1,.6.4h0a.55.55,0,0,1-.4.6h-.1A.46.46,0,0,1,94.1,125.8Zm-11.6.3a.44.44,0,0,1-.4-.6h0a.44.44,0,0,1,.6-.4h0c.3,0,.4.3.4.6h0c0,.2-.2.4-.6.4Zm14.5-.9c-.1-.3.1-.5.4-.6h0c.3-.1.5.1.6.4h0c.1.3-.1.5-.4.6h-.1A.51.51,0,0,1,97,125.2Zm-17.4.2h0a.55.55,0,0,1-.4-.6h0a.45.45,0,0,1,.6-.3h0a.45.45,0,0,1,.3.6h0a.66.66,0,0,1-.5.4h0C79.7,125.4,79.6,125.4,79.6,125.4Zm20.3-1a.42.42,0,0,1,.3-.6h0a.42.42,0,0,1,.6.3h0a.42.42,0,0,1-.3.6h-.2A.54.54,0,0,1,99.9,124.4Zm-23.2,0a.45.45,0,0,1-.3-.6h0a.45.45,0,0,1,.6-.3h0a.45.45,0,0,1,.3.6h0a.55.55,0,0,1-.5.3h-.1Zm26-1.1a.66.66,0,0,1,.2-.7h0a.66.66,0,0,1,.7.2h0a.66.66,0,0,1-.2.7h-.2A.37.37,0,0,1,102.7,123.3Zm-28.8-.1h0a.48.48,0,0,1-.2-.7h0a.57.57,0,0,1,.7-.2h0a.48.48,0,0,1,.2.7h0a.54.54,0,0,1-.4.3h0C74,123.2,74,123.2,73.9,123.2Zm31.5-1.2a.53.53,0,0,1,.2-.7h0a.66.66,0,0,1,.7.2h0a.53.53,0,0,1-.2.7h0a.35.35,0,0,0-.2.1h0A1.07,1.07,0,0,1,105.4,122Zm-34.2-.3a.62.62,0,0,1-.2-.7h0a.62.62,0,0,1,.7-.2h0a.62.62,0,0,1,.2.7h0a.4.4,0,0,1-.4.2h0A.19.19,0,0,1,71.2,121.7Zm36.7-1.3a.49.49,0,0,1,.1-.7h0a.49.49,0,0,1,.7.1h0a.49.49,0,0,1-.1.7h0a.37.37,0,0,1-.3.1h0A.4.4,0,0,1,107.9,120.4Zm-39.2-.3a.49.49,0,0,1-.1-.7h0a.49.49,0,0,1,.7-.1h0a.49.49,0,0,1,.1.7h0a.52.52,0,0,1-.4.2h0C68.9,120.2,68.8,120.1,68.7,120.1Zm41.7-1.5a.49.49,0,0,1,.1-.7h0a.49.49,0,0,1,.7.1h0a.49.49,0,0,1-.1.7h0a.37.37,0,0,1-.3.1h0C110.6,118.8,110.5,118.8,110.4,118.6Zm-44.1-.4a.62.62,0,0,1-.1-.7h0a.48.48,0,0,1,.7,0h0a.48.48,0,0,1,0,.7h0a.52.52,0,0,1-.4.2h0A.22.22,0,0,0,66.3,118.2Zm46.3-1.5a.48.48,0,0,1,0-.7h0a.48.48,0,0,1,.7,0h0a.48.48,0,0,1,0,.7h0a.37.37,0,0,1-.3.1h0C112.8,116.8,112.7,116.8,112.6,116.7Zm-48.5-.6a.48.48,0,0,1,0-.7h0a.48.48,0,0,1,.7,0h0a.48.48,0,0,1,0,.7h0a.37.37,0,0,1-.3.1h0C64.3,116.2,64.2,116.2,64.1,116.1Zm50.6-1.6a.62.62,0,0,1-.1-.7h0a.62.62,0,0,1,.7-.1h0a.62.62,0,0,1,.1.7h0a.52.52,0,0,1-.4.2h0A.37.37,0,0,1,114.7,114.5Zm-52.6-.7a.49.49,0,0,1,.1-.7h0a.49.49,0,0,1,.7.1h0a.49.49,0,0,1-.1.7h0a.37.37,0,0,1-.3.1h0A.76.76,0,0,1,62.1,113.8Zm54.4-1.7a.49.49,0,0,1-.1-.7h0a.49.49,0,0,1,.7-.1h0a.49.49,0,0,1,.1.7h0a.76.76,0,0,1-.4.2h0A.37.37,0,0,1,116.5,112.1Zm-56.2-.8h0a.62.62,0,0,1,.1-.7h0a.49.49,0,0,1,.7.1h0a.62.62,0,0,1-.1.7h0a.37.37,0,0,1-.3.1h0A.4.4,0,0,1,60.3,111.3Zm57.9-1.7a.57.57,0,0,1-.2-.7h0a.62.62,0,0,1,.7-.2h0a.57.57,0,0,1,.2.7h0a.4.4,0,0,1-.4.2h0A.19.19,0,0,1,118.2,109.6Zm-59.5-.9a.66.66,0,0,1,.2-.7h0a.66.66,0,0,1,.7.2h0a.66.66,0,0,1-.2.7h0c-.1,0-.1.1-.2.1h0A.55.55,0,0,1,58.7,108.7Zm60.9-1.7a.48.48,0,0,1-.2-.7h0a.48.48,0,0,1,.7-.2h0a.48.48,0,0,1,.2.7h0a.55.55,0,0,1-.5.3h0C119.8,107,119.7,107,119.6,107Zm-62.2-1a.66.66,0,0,1,.2-.7h0c.3-.1.5,0,.7.3h0a.59.59,0,0,1-.3.7h-.2A.54.54,0,0,1,57.4,106Zm63.4-1.8a.45.45,0,0,1-.3-.6h0a.45.45,0,0,1,.6-.3h0a.45.45,0,0,1,.3.6h0a.55.55,0,0,1-.5.3h0C120.9,104.3,120.9,104.3,120.8,104.2Zm-64.5-1.1a.49.49,0,0,1,.3-.6h0a.42.42,0,0,1,.6.3h0a.49.49,0,0,1-.3.6h-.2C56.6,103.5,56.4,103.4,56.3,103.1Zm65.4-1.7a.55.55,0,0,1-.4-.6h0a.42.42,0,0,1,.6-.3h0a.55.55,0,0,1,.4.6h0a.66.66,0,0,1-.5.4h0C121.8,101.4,121.8,101.4,121.7,101.4Zm-66.2-1.2c-.1-.3.1-.5.4-.6h0c.3-.1.5.1.6.4h0c.1.3-.1.5-.4.6H56C55.7,100.6,55.5,100.5,55.5,100.2Zm66.9-1.7a.44.44,0,0,1-.4-.6h0a.44.44,0,0,1,.6-.4h0c.3.1.5.3.4.6h0c0,.2-.2.4-.6.4ZM54.9,97.2a.55.55,0,0,1,.4-.6h0a.55.55,0,0,1,.6.4h0a.55.55,0,0,1-.4.6h-.1C55.1,97.7,54.9,97.5,54.9,97.2Zm68-1.7a.54.54,0,0,1-.5-.5h0a.54.54,0,0,1,.5-.5h0a.54.54,0,0,1,.5.5h0a.54.54,0,0,1-.5.5ZM54.6,94.2h0a.47.47,0,0,1,.5-.5h0a.47.47,0,0,1,.5.5h0a.47.47,0,0,1-.5.5h0A.47.47,0,0,1,54.6,94.2ZM122.5,92c0-.1.1-.2.1-.3h0a.37.37,0,0,1-.1-.3h0a.47.47,0,0,1,.5-.5h0a.47.47,0,0,1,.5.5h0c0,.1-.1.3-.1.4h0a.37.37,0,0,1,.1.3h0a.47.47,0,0,1-.5.5h0A.63.63,0,0,1,122.5,92ZM55,91.7a.47.47,0,0,1-.5-.5h0a.47.47,0,0,1,.5-.5h0a.47.47,0,0,1,.5.5h0a.47.47,0,0,1-.5.5Zm67.3-3.3a.46.46,0,0,1,.4-.5h0a.46.46,0,0,1,.5.4h0a.46.46,0,0,1-.4.5h-.1A.43.43,0,0,1,122.3,88.4Zm-67.1.3c-.3,0-.5-.3-.4-.5h0a.44.44,0,0,1,.6-.4h0a.44.44,0,0,1,.4.6h0a.85.85,0,0,1-.6.3Zm66.6-3.2c-.1-.3.1-.5.4-.6h0c.3-.1.5.1.6.4h0c.1.3-.1.5-.4.6h-.1A.66.66,0,0,1,121.8,85.5Zm-66.2.2c-.3-.1-.5-.3-.4-.6h0c0-.3.3-.4.6-.4h0a.55.55,0,0,1,.4.6h0c0,.2-.3.4-.5.4h-.1Zm65.5-3.1a.49.49,0,0,1,.3-.6h0a.49.49,0,0,1,.6.3h0a.49.49,0,0,1-.3.6h-.2C121.4,83,121.2,82.8,121.1,82.6Zm-64.8.2a.45.45,0,0,1-.3-.6h0a.45.45,0,0,1,.6-.3h0a.45.45,0,0,1,.3.6h0a.55.55,0,0,1-.5.3h-.1Zm63.9-3a.42.42,0,0,1,.3-.6h0a.45.45,0,0,1,.6.3h0a.59.59,0,0,1-.3.7h-.2C120.4,80.1,120.2,80,120.2,79.8ZM57.3,80a.52.52,0,0,1-.3-.7h0a.45.45,0,0,1,.6-.3h0a.61.61,0,0,1,.3.7h0a.55.55,0,0,1-.5.3h-.1Zm61.6-2.9a.66.66,0,0,1,.2-.7h0a.66.66,0,0,1,.7.2h0a.66.66,0,0,1-.2.7h0c-.1,0-.1.1-.2.1h0A.55.55,0,0,1,118.9,77.1Zm-60.4.1a.48.48,0,0,1-.2-.7h0a.48.48,0,0,1,.7-.2h0a.57.57,0,0,1,.2.7h0a.55.55,0,0,1-.5.3h0A.35.35,0,0,1,58.5,77.2Zm59-2.7c-.1-.2-.1-.6.2-.7h0c.2-.2.5-.1.7.2h0c.2.2.1.5-.2.7h0a.37.37,0,0,1-.3.1h0A.54.54,0,0,1,117.5,74.5Zm-57.6.1a.66.66,0,0,1-.2-.7h0a.62.62,0,0,1,.7-.2h0a.62.62,0,0,1,.2.7h0a.76.76,0,0,1-.4.2h0C60.1,74.7,60,74.6,59.9,74.6Zm55.9-2.5a.49.49,0,0,1,.1-.7h0a.49.49,0,0,1,.7.1h0a.49.49,0,0,1-.1.7h0a.37.37,0,0,1-.3.1h0A.76.76,0,0,1,115.8,72.1Zm-54.2,0a.49.49,0,0,1-.1-.7h0a.49.49,0,0,1,.7-.1h0a.49.49,0,0,1,.1.7h0a.52.52,0,0,1-.4.2h0A.37.37,0,0,1,61.6,72.1ZM114,69.8a.48.48,0,0,1,0-.7h0a.48.48,0,0,1,.7,0h0a.48.48,0,0,1,0,.7h0a.37.37,0,0,1-.3.1h0C114.2,70,114.1,69.9,114,69.8Zm-50.5-.1a.48.48,0,0,1,0-.7h0a.48.48,0,0,1,.7,0h0a.48.48,0,0,1,0,.7h0a.52.52,0,0,1-.4.2h0C63.7,69.9,63.6,69.8,63.5,69.7Zm48.4-2a.48.48,0,0,1,0-.7h0a.48.48,0,0,1,.7,0h0a.48.48,0,0,1,0,.7h0a.52.52,0,0,1-.4.2h0C112.1,67.8,112,67.8,111.9,67.7Zm-46.4-.1a.48.48,0,0,1,0-.7h0a.48.48,0,0,1,.7,0h0a.48.48,0,0,1,0,.7h0a.37.37,0,0,1-.3.1h0A.6.6,0,0,1,65.5,67.6Zm44.1-1.8h0a.62.62,0,0,1-.1-.7h0a.49.49,0,0,1,.7-.1h0a.62.62,0,0,1,.1.7h0a.52.52,0,0,1-.4.2h0A.37.37,0,0,1,109.6,65.8Zm-41.8-.2a.49.49,0,0,1,.1-.7h0a.49.49,0,0,1,.7.1h0a.49.49,0,0,1-.1.7h0a.37.37,0,0,1-.3.1h0A.52.52,0,0,1,67.8,65.6Zm39.4-1.5a.62.62,0,0,1-.2-.7h0a.66.66,0,0,1,.7-.2h0a.66.66,0,0,1,.2.7h0a.76.76,0,0,1-.4.2h-.3Zm-37-.3a.62.62,0,0,1,.1-.7h0a.49.49,0,0,1,.7.1h0a.62.62,0,0,1-.1.7h0a.37.37,0,0,1-.3.1h0C70.5,64.1,70.3,64,70.2,63.8Zm34.5-1.2a.57.57,0,0,1-.2-.7h0a.57.57,0,0,1,.7-.2h0a.57.57,0,0,1,.2.7h0a.55.55,0,0,1-.5.3h0C104.8,62.6,104.8,62.6,104.7,62.6Zm-31.9-.3a.62.62,0,0,1,.2-.7h0a.66.66,0,0,1,.7.2h0a.62.62,0,0,1-.2.7h0a.35.35,0,0,0-.2.1h0A.46.46,0,0,1,72.8,62.3Zm29.2-1a.61.61,0,0,1-.3-.7h0a.52.52,0,0,1,.7-.3h0a.61.61,0,0,1,.3.7h0a.55.55,0,0,1-.5.3H102ZM75.5,61a.59.59,0,0,1,.3-.7h0c.3-.1.5,0,.7.3h0a.45.45,0,0,1-.3.6H76C75.7,61.3,75.6,61.2,75.5,61Zm23.8-.7a.45.45,0,0,1-.3-.6h0a.45.45,0,0,1,.6-.3h0a.45.45,0,0,1,.3.6h0a.66.66,0,0,1-.5.4h0A.1.1,0,0,0,99.3,60.3Zm-21-.4a.49.49,0,0,1,.3-.6h0c.3-.1.6.1.6.3h0a.49.49,0,0,1-.3.6h-.1A.35.35,0,0,1,78.3,59.9Zm18.1-.4a.55.55,0,0,1-.4-.6h0a.55.55,0,0,1,.6-.4h0a.55.55,0,0,1,.4.6h0c0,.2-.3.4-.5.4h-.1Zm-15.2-.4c-.1-.3.1-.5.4-.6h0c.3-.1.5.1.6.4h0c.1.3-.1.5-.4.6h-.1A.46.46,0,0,1,81.2,59.1ZM93.5,59a.44.44,0,0,1-.4-.6h0a.44.44,0,0,1,.6-.4h0a.44.44,0,0,1,.4.6h0a.68.68,0,0,1-.6.4Zm-9.4-.5a.55.55,0,0,1,.4-.6h0a.68.68,0,0,1,.6.4h0a.68.68,0,0,1-.4.6h-.1C84.3,59,84.1,58.8,84.1,58.5Zm6.5.2a.47.47,0,0,1-.5-.5h0a.47.47,0,0,1,.5-.5h0a.47.47,0,0,1,.5.5h0a.54.54,0,0,1-.5.5Zm-3.5-.5a.47.47,0,0,1,.5-.5h0a.47.47,0,0,1,.5.5h0a.47.47,0,0,1-.5.5h0A.47.47,0,0,1,87.1,58.2Z"/><rect class="cls-2" x="56.2" y="80.3" width="66" height="19"/><path class="cls-1" d="M67,83a6.53,6.53,0,0,1,4.6,1.5c1.1,1,1.6,2.5,1.6,4.6a8.85,8.85,0,0,1-.4,2.9,6,6,0,0,1-1.1,2.1,4.31,4.31,0,0,1-1.9,1.3,7.78,7.78,0,0,1-2.8.5H62.6V83Zm.2,11.4h.7a2.92,2.92,0,0,0,.9-.2,9.25,9.25,0,0,0,1-.5,3.82,3.82,0,0,0,.9-.9,3,3,0,0,0,.6-1.4,11.24,11.24,0,0,0,.2-2,12.48,12.48,0,0,0-.2-2.1,3.48,3.48,0,0,0-.7-1.5,3.25,3.25,0,0,0-1.3-1,5.62,5.62,0,0,0-2-.3H64.4v10h2.8Z"/><path class="cls-1" d="M74.8,89.3a3.77,3.77,0,0,1,.9-1.5,4.51,4.51,0,0,1,1.4-1,4.06,4.06,0,0,1,1.9-.4,4.48,4.48,0,0,1,2,.4,5,5,0,0,1,1.4,1,4.62,4.62,0,0,1,.9,1.5,6.17,6.17,0,0,1,0,3.8,3.77,3.77,0,0,1-.9,1.5,4.51,4.51,0,0,1-1.4,1,5.92,5.92,0,0,1-2,.4,3.81,3.81,0,0,1-1.9-.4,3.59,3.59,0,0,1-1.4-1,4.62,4.62,0,0,1-.9-1.5,6.17,6.17,0,0,1,0-3.8Zm1.6,3.4a3.88,3.88,0,0,0,.6,1.1,5.5,5.5,0,0,0,.9.7,2.15,2.15,0,0,0,1.1.2,3.59,3.59,0,0,0,1.1-.2,2.18,2.18,0,0,0,.9-.7,2.38,2.38,0,0,0,.6-1.1,5.73,5.73,0,0,0,0-3,3.88,3.88,0,0,0-.6-1.1,5.5,5.5,0,0,0-.9-.7,2.15,2.15,0,0,0-1.1-.2,3.59,3.59,0,0,0-1.1.2,2.18,2.18,0,0,0-.9.7,2.38,2.38,0,0,0-.6,1.1,3.42,3.42,0,0,0-.2,1.5A3.64,3.64,0,0,0,76.4,92.7Z"/><path class="cls-1" d="M86.8,86.5V88h0a3.18,3.18,0,0,1,3-1.7,3.34,3.34,0,0,1,1.5.3,3.59,3.59,0,0,1,1,.7,2.22,2.22,0,0,1,.5,1.1,5.9,5.9,0,0,1,.2,1.4v6.1H91.5V89.6a2.17,2.17,0,0,0-.5-1.4,1.62,1.62,0,0,0-1.4-.5,3.73,3.73,0,0,0-1.2.2,2.36,2.36,0,0,0-.9.6,4.05,4.05,0,0,0-.5.9,4.3,4.3,0,0,0-.2,1.2v5.3H85.3V86.6h1.5Z"/><path class="cls-1" d="M102.5,96a1.22,1.22,0,0,1-.9-.3,1.6,1.6,0,0,1-.4-1.1,3.27,3.27,0,0,1-1.5,1.1A4.67,4.67,0,0,1,98,96a4.87,4.87,0,0,1-1.2-.1,1.91,1.91,0,0,1-1-.5,2.7,2.7,0,0,1-.7-.8,2.17,2.17,0,0,1-.2-1.2,2.5,2.5,0,0,1,.3-1.3,2.7,2.7,0,0,1,.7-.8,3.13,3.13,0,0,1,1-.5l1.2-.3c.4-.1.8-.1,1.2-.2s.7-.1,1-.2a4.87,4.87,0,0,0,.7-.3.91.91,0,0,0,.3-.7,1.88,1.88,0,0,0-.2-.8,1.21,1.21,0,0,0-.5-.5,1.45,1.45,0,0,0-.7-.2c-.2,0-.5-.1-.7-.1a2.73,2.73,0,0,0-1.6.4,1.49,1.49,0,0,0-.7,1.4H95.4a2.41,2.41,0,0,1,.4-1.5,2.84,2.84,0,0,1,.9-1,6.12,6.12,0,0,1,1.2-.5,7.72,7.72,0,0,1,1.5-.2,6.15,6.15,0,0,1,1.3.1,3.58,3.58,0,0,1,1.1.4,2,2,0,0,1,.8.8,2.77,2.77,0,0,1,.3,1.3v4.8a1.72,1.72,0,0,0,.1.8c.1.2.2.3.4.3a1.09,1.09,0,0,0,.5-.1v1.2A3.53,3.53,0,0,1,102.5,96Zm-2.1-4.7c-.3.1-.6.1-1,.2s-.7.1-1,.1-.7.1-.9.3a1.79,1.79,0,0,0-.7.5,1.22,1.22,0,0,0-.3.9.85.85,0,0,0,.2.6c.1.1.2.3.4.4a1.42,1.42,0,0,0,.6.2c.2,0,.4.1.7.1a5.07,5.07,0,0,0,1.3-.2,1.93,1.93,0,0,0,.9-.5,1.79,1.79,0,0,0,.5-.7,2.54,2.54,0,0,0,.2-.7V91A1.9,1.9,0,0,1,100.4,91.3Z"/><path class="cls-1" d="M109,86.5v1.3h-1.9V94c0,.1.1.2.2.3s.2.1.4.1H109v1.4h-1.2a3.08,3.08,0,0,1-1-.1,4.87,4.87,0,0,1-.7-.3.92.92,0,0,1-.4-.6,3.08,3.08,0,0,1-.1-1V87.9H104V86.6h1.6V83.8h1.5v2.8H109Z"/><path class="cls-1" d="M117.3,95.2a4.46,4.46,0,0,1-2.6.8,3.81,3.81,0,0,1-1.9-.4,7.1,7.1,0,0,1-1.4-1,2.75,2.75,0,0,1-.8-1.5,6.45,6.45,0,0,1-.3-2,5.41,5.41,0,0,1,.3-1.9,3.77,3.77,0,0,1,.9-1.5,4.51,4.51,0,0,1,1.4-1,4.78,4.78,0,0,1,1.8-.4,4.65,4.65,0,0,1,2.1.5,3.25,3.25,0,0,1,1.3,1.3,5.09,5.09,0,0,1,.7,1.7,11,11,0,0,1,.2,1.8h-7a4.87,4.87,0,0,0,.1,1.2,3.13,3.13,0,0,0,.5,1,2.18,2.18,0,0,0,.9.7,2.77,2.77,0,0,0,1.3.3,2.73,2.73,0,0,0,1.6-.4,2.19,2.19,0,0,0,.8-1.4h1.5A4.2,4.2,0,0,1,117.3,95.2Zm-.4-5.9a1.56,1.56,0,0,0-.6-.8,5.55,5.55,0,0,0-.8-.6,3.13,3.13,0,0,0-2.2,0,1.56,1.56,0,0,0-.8.6,2.18,2.18,0,0,0-.5.8,3.55,3.55,0,0,0-.2,1h5.3A1.16,1.16,0,0,0,116.9,89.3Z"/></svg>