<svg id="Design" xmlns="http://www.w3.org/2000/svg" viewBox="0 0 179.65 179.65"><defs><style>.cls-1{fill:#005fb5;}.cls-2{fill:#fff;}.cls-3,.cls-4{fill:#4d4f53;}.cls-4{isolation:isolate;font-size:18px;font-family:HelveticaNeue, Helvetica Neue;}</style></defs><title>read-01</title><circle class="cls-1" cx="89.82" cy="89.82" r="65.5"/><circle class="cls-2" cx="89.82" cy="89.82" r="57.4"/><path class="cls-3" d="M88.82,127.32a.59.59,0,0,1,.3-.7h0a.45.45,0,0,1,.6.3h0a.52.52,0,0,1-.3.7h-.2A.54.54,0,0,1,88.82,127.32Zm-2.5-.4a.61.61,0,0,1-.3-.7h0a.61.61,0,0,1,.7-.3h0a.61.61,0,0,1,.3.7h0a.55.55,0,0,1-.5.3h0C86.42,127,86.42,126.92,86.32,126.92Zm5.3-.7a.59.59,0,0,1,.3-.7h0a.52.52,0,0,1,.7.3h0a.45.45,0,0,1-.3.6h-.2C91.82,126.52,91.72,126.42,91.62,126.22Zm-8-.4a.61.61,0,0,1-.3-.7h0a.61.61,0,0,1,.7-.3h0a.52.52,0,0,1,.3.7h0a.55.55,0,0,1-.5.3h-.2Zm10.7-.8a.45.45,0,0,1,.3-.6h0c.3-.1.6,0,.6.3h0a.59.59,0,0,1-.3.7h-.2C94.62,125.32,94.42,125.22,94.32,125Zm-13.5-.4a.52.52,0,0,1-.3-.7h0a.61.61,0,0,1,.7-.3h0a.61.61,0,0,1,.3.7h0a.55.55,0,0,1-.5.3h-.2Zm16.3-.7a.45.45,0,0,1,.3-.6h0a.45.45,0,0,1,.6.3h0a.59.59,0,0,1-.3.7h-.2Zm-19.1-.5a.61.61,0,0,1-.3-.7h0a.61.61,0,0,1,.7-.3h0a.61.61,0,0,1,.3.7h0a.55.55,0,0,1-.5.3h0C78.22,123.52,78.12,123.52,78,123.42Zm21.9-.7a.45.45,0,0,1,.3-.6h0c.3-.1.5,0,.7.3h0a.59.59,0,0,1-.3.7h-.2A1,1,0,0,1,99.92,122.72Zm-24.7-.4a.61.61,0,0,1-.3-.7h0c.1-.2.4-.4.6-.3h0a.52.52,0,0,1,.3.7h0a.55.55,0,0,1-.5.3h-.1Zm27.5-.8a.55.55,0,0,1,.3-.7h0a.45.45,0,0,1,.6.3h0c.1.3,0,.5-.3.7h-.2C102.92,121.82,102.72,121.72,102.72,121.52Zm-30.2-.4a.52.52,0,0,1-.3-.7h0a.61.61,0,0,1,.7-.3h0a.61.61,0,0,1,.3.7h0a.55.55,0,0,1-.5.3h0C72.62,121.22,72.62,121.12,72.52,121.12Zm32.9-.7a.59.59,0,0,1,.3-.7h0a.45.45,0,0,1,.6.3h0a.45.45,0,0,1-.3.6h-.2C105.72,120.72,105.52,120.62,105.42,120.42Zm-35.7-.4a.61.61,0,0,1-.3-.7h0a.61.61,0,0,1,.7-.3h0a.61.61,0,0,1,.3.7h0a.55.55,0,0,1-.5.3h-.2Zm38.5-.8a.59.59,0,0,1,.3-.7h0c.3-.1.5,0,.7.3h0c.1.3,0,.5-.3.7h-.2A.46.46,0,0,1,108.22,119.22Zm-41.3-.4a.61.61,0,0,1-.3-.7h0c.1-.2.4-.4.6-.3h0a.52.52,0,0,1,.3.7h0a.55.55,0,0,1-.5.3h-.1Zm44-.7a.59.59,0,0,1,.3-.7h0a.59.59,0,0,1,.7.3h0c.1.3,0,.5-.3.7h-.2A.85.85,0,0,1,110.92,118.12Zm-46.7-.5a.52.52,0,0,1-.3-.7h0c.1-.2.4-.4.6-.3h0a.52.52,0,0,1,.3.7h0a.55.55,0,0,1-.5.3h0C64.32,117.72,64.22,117.72,64.22,117.62Zm49.5-.7a.45.45,0,0,1,.3-.6h0a.45.45,0,0,1,.6.3h0a.59.59,0,0,1-.3.7h-.2C114,117.22,113.82,117.12,113.72,116.92Zm-52.3-.4a.61.61,0,0,1-.3-.7h0a.52.52,0,0,1,.7-.3h0a.61.61,0,0,1,.3.7h0a.55.55,0,0,1-.5.3h-.2Zm55.1-.8a.45.45,0,0,1,.3-.6h0a.52.52,0,0,1,.7.3h0c.1.3,0,.5-.3.7H117A.7.7,0,0,1,116.52,115.72Zm-57.8-.4c-.2-.1-.4-.4-.3-.6h0c.1-.2.4-.4.6-.3h0a.52.52,0,0,1,.3.7h0a.55.55,0,0,1-.5.3h0Zm60.5-.7a.59.59,0,0,1,.3-.7h0a.55.55,0,0,1,.7.3h0c.1.3,0,.5-.3.7h-.2A.55.55,0,0,1,119.22,114.62Zm0-1.4a.47.47,0,0,1,.5-.5h0a.47.47,0,0,1,.5.5h0a.47.47,0,0,1-.5.5h0A.47.47,0,0,1,119.22,113.22Zm-62-.6a.47.47,0,0,1,.5-.5h0a.47.47,0,0,1,.5.5h0a.47.47,0,0,1-.5.5h0A.47.47,0,0,1,57.22,112.62Zm62-2.4a.47.47,0,0,1,.5-.5h0a.47.47,0,0,1,.5.5h0a.47.47,0,0,1-.5.5h0A.47.47,0,0,1,119.22,110.22Zm-62-.6a.47.47,0,0,1,.5-.5h0a.47.47,0,0,1,.5.5h0a.47.47,0,0,1-.5.5h0A.47.47,0,0,1,57.22,109.62Zm62-2.4a.47.47,0,0,1,.5-.5h0a.47.47,0,0,1,.5.5h0a.47.47,0,0,1-.5.5h0A.47.47,0,0,1,119.22,107.22Zm-62-.6a.47.47,0,0,1,.5-.5h0a.47.47,0,0,1,.5.5h0a.47.47,0,0,1-.5.5h0A.47.47,0,0,1,57.22,106.62Zm62-2.4a.47.47,0,0,1,.5-.5h0a.47.47,0,0,1,.5.5h0a.47.47,0,0,1-.5.5h0A.47.47,0,0,1,119.22,104.22Zm-62-.6a.47.47,0,0,1,.5-.5h0a.47.47,0,0,1,.5.5h0a.47.47,0,0,1-.5.5h0A.47.47,0,0,1,57.22,103.62Zm62-2.4a.47.47,0,0,1,.5-.5h0a.47.47,0,0,1,.5.5h0a.47.47,0,0,1-.5.5h0A.47.47,0,0,1,119.22,101.22Zm-62-.6a.47.47,0,0,1,.5-.5h0a.47.47,0,0,1,.5.5h0a.47.47,0,0,1-.5.5h0A.47.47,0,0,1,57.22,100.62Zm62-2.4a.47.47,0,0,1,.5-.5h0a.47.47,0,0,1,.5.5h0a.47.47,0,0,1-.5.5h0A.47.47,0,0,1,119.22,98.22Zm-62-.6a.47.47,0,0,1,.5-.5h0a.47.47,0,0,1,.5.5h0a.47.47,0,0,1-.5.5h0A.47.47,0,0,1,57.22,97.62Zm62-2.4a.47.47,0,0,1,.5-.5h0a.47.47,0,0,1,.5.5h0a.47.47,0,0,1-.5.5h0A.47.47,0,0,1,119.22,95.22Zm-62-.6a.47.47,0,0,1,.5-.5h0a.47.47,0,0,1,.5.5h0a.47.47,0,0,1-.5.5h0A.47.47,0,0,1,57.22,94.62Zm62-2.4a.47.47,0,0,1,.5-.5h0a.47.47,0,0,1,.5.5h0a.47.47,0,0,1-.5.5h0A.47.47,0,0,1,119.22,92.22Zm-62-.6a.47.47,0,0,1,.5-.5h0a.47.47,0,0,1,.5.5h0a.47.47,0,0,1-.5.5h0A.47.47,0,0,1,57.22,91.62Zm62-2.4a.47.47,0,0,1,.5-.5h0a.47.47,0,0,1,.5.5h0a.47.47,0,0,1-.5.5h0A.47.47,0,0,1,119.22,89.22Zm-62-.6a.47.47,0,0,1,.5-.5h0a.47.47,0,0,1,.5.5h0a.47.47,0,0,1-.5.5h0A.47.47,0,0,1,57.22,88.62Zm62-2.4a.47.47,0,0,1,.5-.5h0a.47.47,0,0,1,.5.5h0a.47.47,0,0,1-.5.5h0A.47.47,0,0,1,119.22,86.22Zm-62-.6a.47.47,0,0,1,.5-.5h0a.47.47,0,0,1,.5.5h0a.47.47,0,0,1-.5.5h0A.47.47,0,0,1,57.22,85.62Zm62-2.4a.47.47,0,0,1,.5-.5h0a.47.47,0,0,1,.5.5h0a.47.47,0,0,1-.5.5h0A.47.47,0,0,1,119.22,83.22Zm-62-.6a.47.47,0,0,1,.5-.5h0a.47.47,0,0,1,.5.5h0a.47.47,0,0,1-.5.5h0A.47.47,0,0,1,57.22,82.62Zm62-2.4a.47.47,0,0,1,.5-.5h0a.47.47,0,0,1,.5.5h0a.47.47,0,0,1-.5.5h0A.47.47,0,0,1,119.22,80.22Zm-62-.6a.47.47,0,0,1,.5-.5h0a.47.47,0,0,1,.5.5h0a.47.47,0,0,1-.5.5h0A.47.47,0,0,1,57.22,79.62Zm62-2.4a.47.47,0,0,1,.5-.5h0a.47.47,0,0,1,.5.5h0a.47.47,0,0,1-.5.5h0A.47.47,0,0,1,119.22,77.22Zm-62-.6a.47.47,0,0,1,.5-.5h0a.47.47,0,0,1,.5.5h0a.47.47,0,0,1-.5.5h0A.47.47,0,0,1,57.22,76.62Zm62-2.4a.47.47,0,0,1,.5-.5h0a.47.47,0,0,1,.5.5h0a.47.47,0,0,1-.5.5h0A.47.47,0,0,1,119.22,74.22Zm-62-.6a.47.47,0,0,1,.5-.5h0a.47.47,0,0,1,.5.5h0a.47.47,0,0,1-.5.5h0A.47.47,0,0,1,57.22,73.62Zm31.4-1.4a.45.45,0,0,1,.3-.6h0a.42.42,0,0,1,.6.3h0a.45.45,0,0,1-.3.6H89C88.82,72.52,88.62,72.42,88.62,72.22Zm30.6-1a.47.47,0,0,1,.5-.5h0a.47.47,0,0,1,.5.5h0a.47.47,0,0,1-.5.5h0A.47.47,0,0,1,119.22,71.22Zm-33.2.2c-.2-.1-.4-.4-.3-.6h0a.61.61,0,0,1,.7-.3h0a.61.61,0,0,1,.3.7h0a.55.55,0,0,1-.5.3h0C86.22,71.42,86.12,71.42,86,71.42Zm5.3-.4c-.1-.3,0-.5.3-.7h0c.2-.1.6,0,.6.3h0a.59.59,0,0,1-.3.7h-.2A.54.54,0,0,1,91.32,71Zm-34.1-.4a.47.47,0,0,1,.5-.5h0a.47.47,0,0,1,.5.5h0a.47.47,0,0,1-.5.5h0A.47.47,0,0,1,57.22,70.62Zm26.1-.3c-.2-.1-.4-.4-.3-.6h0a.45.45,0,0,1,.6-.3h0a.61.61,0,0,1,.3.7h0a.55.55,0,0,1-.5.3h0A.1.1,0,0,0,83.32,70.32Zm10.8-.4c-.1-.3,0-.5.3-.7h0a.52.52,0,0,1,.7.3h0a.42.42,0,0,1-.3.6h-.2A.37.37,0,0,1,94.12,69.92Zm-13.6-.8c-.2-.1-.4-.4-.3-.6h0a.45.45,0,0,1,.6-.3h0a.61.61,0,0,1,.3.7h0a.55.55,0,0,1-.5.3h0A.1.1,0,0,1,80.52,69.12Zm16.4-.4a.55.55,0,0,1,.3-.7h0a.45.45,0,0,1,.6.3h0a.42.42,0,0,1-.3.6h-.2C97.12,69.12,97,68.92,96.92,68.72Zm22.3-.5a.47.47,0,0,1,.5-.5h0a.47.47,0,0,1,.5.5h0a.47.47,0,0,1-.5.5h0A.47.47,0,0,1,119.22,68.22Zm-62-.6a.47.47,0,0,1,.5-.5h0a.47.47,0,0,1,.5.5h0a.47.47,0,0,1-.5.5h0A.47.47,0,0,1,57.22,67.62Zm20.5.4a.61.61,0,0,1-.3-.7h0c.1-.2.4-.4.6-.3h0a.61.61,0,0,1,.3.7h0a.55.55,0,0,1-.5.3h0C77.82,68.12,77.82,68,77.72,68Zm22-.4a.45.45,0,0,1,.3-.6h0a.45.45,0,0,1,.6.3h0c.1.3,0,.5-.3.7h-.2C99.92,67.92,99.72,67.82,99.72,67.62Zm-24.8-.7c-.2-.1-.4-.4-.3-.6h0a.45.45,0,0,1,.6-.3h0a.61.61,0,0,1,.3.7h0a.55.55,0,0,1-.5.3h0C75.12,66.92,75,66.92,74.92,66.92Zm27.5-.4c-.1-.3,0-.5.3-.7h0a.42.42,0,0,1,.6.3h0a.59.59,0,0,1-.3.7h-.2A.54.54,0,0,1,102.42,66.52Zm-30.3-.7c-.2-.1-.4-.4-.3-.6h0a.45.45,0,0,1,.6-.3h0a.61.61,0,0,1,.3.7h0a.55.55,0,0,1-.5.3h0C72.32,65.82,72.22,65.82,72.12,65.82Zm47.1-.6a.47.47,0,0,1,.5-.5h0a.47.47,0,0,1,.5.5h0a.47.47,0,0,1-.5.5h0A.47.47,0,0,1,119.22,65.22Zm-14,.1c-.1-.3,0-.5.3-.7h0a.45.45,0,0,1,.6.3h0a.45.45,0,0,1-.3.6h-.2C105.52,65.62,105.32,65.52,105.22,65.32Zm-48-.7a.47.47,0,0,1,.5-.5h0a.47.47,0,0,1,.5.5h0a.47.47,0,0,1-.5.5h0A.47.47,0,0,1,57.22,64.62Zm12.2,0a.52.52,0,0,1-.3-.7h0a.61.61,0,0,1,.7-.3h0a.52.52,0,0,1,.3.7h0a.55.55,0,0,1-.5.3h0C69.52,64.72,69.42,64.72,69.42,64.62Zm38.6-.4a.42.42,0,0,1,.3-.6h0a.52.52,0,0,1,.7.3h0a.52.52,0,0,1-.3.7h-.2A.7.7,0,0,1,108,64.22Zm-41.4-.7a.45.45,0,0,1-.3-.6h0a.45.45,0,0,1,.6-.3h0a.45.45,0,0,1,.3.6h0a.55.55,0,0,1-.5.3h0C66.72,63.62,66.62,63.52,66.62,63.52Zm44.1-.4c-.1-.3,0-.5.3-.7h0a.45.45,0,0,1,.6.3h0c.1.3,0,.5-.3.7h-.2C111,63.42,110.82,63.22,110.72,63.12Zm8.5-.9a.47.47,0,0,1,.5-.5h0a.47.47,0,0,1,.5.5h0a.47.47,0,0,1-.5.5h0A.47.47,0,0,1,119.22,62.22Zm-55.4.2a.52.52,0,0,1-.3-.7h0a.61.61,0,0,1,.7-.3h0a.52.52,0,0,1,.3.7h0a.55.55,0,0,1-.5.3h-.2Zm49.7-.5a.59.59,0,0,1,.3-.7h0c.3-.1.5,0,.7.3h0a.42.42,0,0,1-.3.6H114A.37.37,0,0,1,113.52,61.92Zm-56.3-.3a.47.47,0,0,1,.5-.5h0a.47.47,0,0,1,.5.5h0a.47.47,0,0,1-.5.5h0A.47.47,0,0,1,57.22,61.62Zm3.8-.3a.45.45,0,0,1-.3-.6h0a.45.45,0,0,1,.6-.3h0a.45.45,0,0,1,.3.6h0a.55.55,0,0,1-.5.3H61Zm55.3-.5a.45.45,0,0,1,.3-.6h0a.52.52,0,0,1,.7.3h0c.1.3,0,.5-.3.7h-.2A1,1,0,0,1,116.32,60.82Zm-58.1-.7a.48.48,0,0,1-.2-.6h0a.45.45,0,0,1,.6-.3h0a.45.45,0,0,1,.3.6h0a.55.55,0,0,1-.5.3h0C58.42,60.22,58.32,60.22,58.22,60.12Zm60.9-.5c-.1-.3,0-.5.3-.7h0a.45.45,0,0,1,.6.3h0a.59.59,0,0,1-.3.7h-.2C119.32,60,119.22,59.82,119.12,59.62Z"/><path class="cls-3" d="M99.22,77.62a.66.66,0,0,1,.2-.7h0a.52.52,0,0,1,.7.3h0a.59.59,0,0,1-.3.7h-.2C99.42,77.92,99.32,77.82,99.22,77.62Zm2.7-1.2a.59.59,0,0,1,.3-.7h0a.59.59,0,0,1,.7.3h0a.45.45,0,0,1-.3.6h-.2A.37.37,0,0,1,101.92,76.42Zm2.8-1.2a.59.59,0,0,1,.3-.7h0a.59.59,0,0,1,.7.3h0c.1.3,0,.5-.3.7h-.2A.46.46,0,0,1,104.72,75.22Zm2.7-1.2a.59.59,0,0,1,.3-.7h0c.3-.1.5,0,.7.3h0a.59.59,0,0,1-.3.7h-.2A.55.55,0,0,1,107.42,74Zm2.8-1.2c-.1-.3,0-.5.3-.7h0a.45.45,0,0,1,.6.3h0a.45.45,0,0,1-.3.6h0c-.1,0-.1.1-.2.1h0C110.42,73.12,110.32,73,110.22,72.82Z"/><path class="cls-3" d="M99.22,115.52c-.1-.3,0-.5.3-.7h0a.45.45,0,0,1,.6.3h0a.59.59,0,0,1-.3.7h-.2C99.42,115.82,99.32,115.72,99.22,115.52Zm2.7-1.2a.59.59,0,0,1,.3-.7h0a.45.45,0,0,1,.6.3h0a.48.48,0,0,1-.2.6h-.2C102.22,114.72,102,114.52,101.92,114.32Zm2.8-1.1a.59.59,0,0,1,.3-.7h0a.59.59,0,0,1,.7.3h0c.1.3,0,.5-.3.7h-.2A.62.62,0,0,1,104.72,113.22Zm2.7-1.2a.59.59,0,0,1,.3-.7h0c.3-.1.5,0,.7.3h0a.59.59,0,0,1-.3.7h-.2A.55.55,0,0,1,107.42,112Zm2.8-1.2a.62.62,0,0,1,.2-.7h0c.3-.1.5,0,.7.3h0a.59.59,0,0,1-.3.7h-.2C110.42,111.12,110.32,111,110.22,110.82Z"/><path class="cls-3" d="M78.32,77.92a.61.61,0,0,1-.3-.7h0a.52.52,0,0,1,.7-.3h0a.61.61,0,0,1,.3.7h0a.55.55,0,0,1-.5.3h-.2Zm-2.8-1.2a.52.52,0,0,1-.3-.7h0a.61.61,0,0,1,.7-.3h0a.52.52,0,0,1,.3.7h0a.55.55,0,0,1-.5.3h-.2Zm-2.7-1.2a.52.52,0,0,1-.3-.7h0a.61.61,0,0,1,.7-.3h0a.52.52,0,0,1,.3.7h0a.54.54,0,0,1-.4.3h-.3ZM70,74.32a.61.61,0,0,1-.3-.7h0a.52.52,0,0,1,.7-.3h0a.61.61,0,0,1,.3.7h0a.55.55,0,0,1-.5.3H70Zm-2.8-1.2a.57.57,0,0,1-.2-.7h0a.52.52,0,0,1,.7-.3h0a.61.61,0,0,1,.3.7h0a.55.55,0,0,1-.5.3h-.3Z"/><path class="cls-3" d="M99.22,85.62a.59.59,0,0,1,.3-.7h0a.45.45,0,0,1,.6.3h0a.59.59,0,0,1-.3.7h-.2C99.42,85.92,99.32,85.82,99.22,85.62Zm2.7-1.2a.59.59,0,0,1,.3-.7h0a.48.48,0,0,1,.6.2h0a.57.57,0,0,1-.2.7h-.2A.37.37,0,0,1,101.92,84.42Zm2.8-1.2a.59.59,0,0,1,.3-.7h0a.59.59,0,0,1,.7.3h0c.1.3,0,.5-.3.7h-.2A.46.46,0,0,1,104.72,83.22Zm2.7-1.2c-.1-.3,0-.5.3-.7h0c.3-.1.5,0,.7.3h0a.59.59,0,0,1-.3.7h-.2A.55.55,0,0,1,107.42,82Zm2.8-1.2c-.1-.3,0-.5.3-.7h0a.45.45,0,0,1,.6.3h0a.45.45,0,0,1-.3.6h0c-.1,0-.1.1-.2.1h0C110.42,81.12,110.32,81,110.22,80.82Z"/><path class="cls-3" d="M78.32,85.82a.61.61,0,0,1-.3-.7h0a.52.52,0,0,1,.7-.3h0a.61.61,0,0,1,.3.7h0a.55.55,0,0,1-.5.3h0C78.42,85.92,78.32,85.92,78.32,85.82Zm-2.8-1.1a.52.52,0,0,1-.3-.7h0a.61.61,0,0,1,.7-.3h0a.48.48,0,0,1,.2.7h0a.54.54,0,0,1-.4.3h-.2Zm-2.7-1.2a.52.52,0,0,1-.3-.7h0a.61.61,0,0,1,.7-.3h0a.52.52,0,0,1,.3.7h0a.55.55,0,0,1-.5.3h-.2ZM70,82.32a.61.61,0,0,1-.3-.7h0a.52.52,0,0,1,.7-.3h0a.61.61,0,0,1,.3.7h0a.55.55,0,0,1-.5.3H70Zm-2.8-1.2a.57.57,0,0,1-.2-.7h0a.52.52,0,0,1,.7-.3h0a.61.61,0,0,1,.3.7h0a.55.55,0,0,1-.5.3h-.3Z"/><path class="cls-2" d="M99.22,95.62c-.1-.3,0-.5.3-.7h0a.52.52,0,0,1,.7.3h0a.59.59,0,0,1-.3.7h-.2A.46.46,0,0,1,99.22,95.62Zm2.7-1.2a.59.59,0,0,1,.3-.7h0a.59.59,0,0,1,.7.3h0a.45.45,0,0,1-.3.6h-.2A.37.37,0,0,1,101.92,94.42Zm2.8-1.2a.59.59,0,0,1,.3-.7h0a.59.59,0,0,1,.7.3h0c.1.3,0,.5-.3.7h-.2A.46.46,0,0,1,104.72,93.22Zm2.7-1.2a.59.59,0,0,1,.3-.7h0c.3-.1.5,0,.7.3h0a.59.59,0,0,1-.3.7h-.2A.55.55,0,0,1,107.42,92Zm2.8-1.2c-.1-.3,0-.5.3-.7h0a.45.45,0,0,1,.6.3h0a.45.45,0,0,1-.3.6h0c-.1,0-.1.1-.2.1h0C110.42,91.12,110.32,91,110.22,90.82Z"/><path class="cls-2" d="M78.32,96.82a.61.61,0,0,1-.3-.7h0a.52.52,0,0,1,.7-.3h0a.61.61,0,0,1,.3.7h0a.55.55,0,0,1-.5.3h-.2Zm-2.8-1.2a.52.52,0,0,1-.3-.7h0a.61.61,0,0,1,.7-.3h0a.52.52,0,0,1,.3.7h0a.54.54,0,0,1-.4.3h-.3Zm-2.8-1.2a.48.48,0,0,1-.2-.7h0a.61.61,0,0,1,.7-.3h0a.52.52,0,0,1,.3.7h0a.55.55,0,0,1-.5.3h0C72.92,94.52,72.82,94.42,72.72,94.42ZM70,93.22a.61.61,0,0,1-.3-.7h0a.52.52,0,0,1,.7-.3h0a.61.61,0,0,1,.3.7h0a.55.55,0,0,1-.5.3h0C70.12,93.32,70.12,93.22,70,93.22ZM67.22,92c-.2-.1-.4-.4-.3-.6h0a.52.52,0,0,1,.7-.3h0c.2.1.4.4.3.6h0a.55.55,0,0,1-.5.3h0C67.42,92.12,67.32,92.12,67.22,92Z"/><path class="cls-3" d="M78.32,115.82a.61.61,0,0,1-.3-.7h0a.52.52,0,0,1,.7-.3h0a.61.61,0,0,1,.3.7h0a.55.55,0,0,1-.5.3h-.2Zm-2.8-1.2a.52.52,0,0,1-.3-.7h0a.61.61,0,0,1,.7-.3h0a.52.52,0,0,1,.3.7h0a.55.55,0,0,1-.5.3h-.2Zm-2.7-1.2a.52.52,0,0,1-.3-.7h0a.61.61,0,0,1,.7-.3h0a.52.52,0,0,1,.3.7h0a.54.54,0,0,1-.4.3h0C72.92,113.52,72.82,113.42,72.82,113.42Zm-2.8-1.2a.61.61,0,0,1-.3-.7h0a.52.52,0,0,1,.7-.3h0a.61.61,0,0,1,.3.7h0a.55.55,0,0,1-.5.3h0C70.12,112.32,70.12,112.22,70,112.22Zm-2.8-1.2a.61.61,0,0,1-.3-.7h0a.61.61,0,0,1,.7-.3h0a.61.61,0,0,1,.3.7h0a.55.55,0,0,1-.5.3h0C67.42,111.12,67.32,111.12,67.22,111Z"/><path class="cls-3" d="M99.22,108.62c-.1-.3,0-.5.3-.7h0a.45.45,0,0,1,.6.3h0a.59.59,0,0,1-.3.7h-.2C99.42,108.92,99.32,108.82,99.22,108.62Zm2.7-1.2a.59.59,0,0,1,.3-.7h0a.59.59,0,0,1,.7.3h0a.45.45,0,0,1-.3.6h-.2A.37.37,0,0,1,101.92,107.42Zm2.8-1.2a.45.45,0,0,1,.3-.6h0a.59.59,0,0,1,.7.3h0a.59.59,0,0,1-.3.7h-.2A.7.7,0,0,1,104.72,106.22Zm2.7-1.2c-.1-.3,0-.5.3-.7h0c.3-.1.5,0,.7.3h0a.59.59,0,0,1-.3.7h-.2A.55.55,0,0,1,107.42,105Zm2.8-1.2c-.1-.3,0-.5.3-.7h0a.45.45,0,0,1,.6.3h0a.45.45,0,0,1-.3.6h0c-.1,0-.1.1-.2.1h0C110.42,104.12,110.32,104,110.22,103.82Z"/><path class="cls-3" d="M78.32,108.92a.61.61,0,0,1-.3-.7h0a.52.52,0,0,1,.7-.3h0a.61.61,0,0,1,.3.7h0a.55.55,0,0,1-.5.3h-.2Zm-2.8-1.2a.52.52,0,0,1-.3-.7h0a.61.61,0,0,1,.7-.3h0a.52.52,0,0,1,.3.7h0a.54.54,0,0,1-.4.3h-.3Zm-2.8-1.2a.61.61,0,0,1-.3-.7h0a.61.61,0,0,1,.7-.3h0a.52.52,0,0,1,.3.7h0a.55.55,0,0,1-.5.3h-.2Zm-2.7-1.2a.61.61,0,0,1-.3-.7h0a.52.52,0,0,1,.7-.3h0a.61.61,0,0,1,.3.7h0a.55.55,0,0,1-.5.3H70Zm-2.8-1.2a.61.61,0,0,1-.3-.7h0a.61.61,0,0,1,.7-.3h0a.61.61,0,0,1,.3.7h0a.55.55,0,0,1-.5.3h-.2Z"/><path class="cls-3" d="M88.22,123.42a.47.47,0,0,1,.5-.5h0a.47.47,0,0,1,.5.5h0a.47.47,0,0,1-.5.5h0A.47.47,0,0,1,88.22,123.42Zm0-3a.47.47,0,0,1,.5-.5h0a.47.47,0,0,1,.5.5h0a.47.47,0,0,1-.5.5h0A.47.47,0,0,1,88.22,120.42Zm0-3a.47.47,0,0,1,.5-.5h0a.47.47,0,0,1,.5.5h0a.47.47,0,0,1-.5.5h0A.47.47,0,0,1,88.22,117.42Zm0-3a.47.47,0,0,1,.5-.5h0a.47.47,0,0,1,.5.5h0a.47.47,0,0,1-.5.5h0A.47.47,0,0,1,88.22,114.42Zm0-3a.47.47,0,0,1,.5-.5h0a.47.47,0,0,1,.5.5h0a.47.47,0,0,1-.5.5h0A.47.47,0,0,1,88.22,111.42Zm0-3a.47.47,0,0,1,.5-.5h0a.47.47,0,0,1,.5.5h0a.47.47,0,0,1-.5.5h0A.47.47,0,0,1,88.22,108.42Zm0-3a.47.47,0,0,1,.5-.5h0a.47.47,0,0,1,.5.5h0a.47.47,0,0,1-.5.5h0A.47.47,0,0,1,88.22,105.42Zm0-3a.47.47,0,0,1,.5-.5h0a.47.47,0,0,1,.5.5h0a.47.47,0,0,1-.5.5h0A.47.47,0,0,1,88.22,102.42Zm0-3a.47.47,0,0,1,.5-.5h0a.47.47,0,0,1,.5.5h0a.47.47,0,0,1-.5.5h0A.47.47,0,0,1,88.22,99.42Zm0-3a.47.47,0,0,1,.5-.5h0a.47.47,0,0,1,.5.5h0a.47.47,0,0,1-.5.5h0A.47.47,0,0,1,88.22,96.42Zm0-3a.47.47,0,0,1,.5-.5h0a.47.47,0,0,1,.5.5h0a.47.47,0,0,1-.5.5h0A.47.47,0,0,1,88.22,93.42Zm0-3a.47.47,0,0,1,.5-.5h0a.47.47,0,0,1,.5.5h0a.47.47,0,0,1-.5.5h0A.47.47,0,0,1,88.22,90.42Zm0-3a.47.47,0,0,1,.5-.5h0a.47.47,0,0,1,.5.5h0a.47.47,0,0,1-.5.5h0A.47.47,0,0,1,88.22,87.42Zm0-3a.47.47,0,0,1,.5-.5h0a.47.47,0,0,1,.5.5h0a.47.47,0,0,1-.5.5h0A.47.47,0,0,1,88.22,84.42Zm0-3a.47.47,0,0,1,.5-.5h0a.47.47,0,0,1,.5.5h0a.47.47,0,0,1-.5.5h0A.47.47,0,0,1,88.22,81.42Zm0-3a.47.47,0,0,1,.5-.5h0a.47.47,0,0,1,.5.5h0a.47.47,0,0,1-.5.5h0A.47.47,0,0,1,88.22,78.42Zm0-3a.47.47,0,0,1,.5-.5h0a.47.47,0,0,1,.5.5h0a.47.47,0,0,1-.5.5h0A.47.47,0,0,1,88.22,75.42Z"/><rect class="cls-2" x="65.22" y="88.42" width="51.6" height="12.5"/><text class="cls-4" transform="translate(67.98 100.31)">Read</text></svg>