<svg id="Layer_2" data-name="Layer 2" xmlns="http://www.w3.org/2000/svg" viewBox="0 0 179.6 179.6"><defs><style>.cls-1{fill:#fff;}.cls-2{fill:#93509e;}</style></defs><title>read-hover-01</title><circle class="cls-1" cx="89.8" cy="89.8" r="65.5"/><circle class="cls-2" cx="89.8" cy="89.8" r="57.4"/><path class="cls-1" d="M88.8,127.3a.59.59,0,0,1,.3-.7h0a.45.45,0,0,1,.6.3h0a.52.52,0,0,1-.3.7h-.2A.54.54,0,0,1,88.8,127.3Zm-2.5-.4a.61.61,0,0,1-.3-.7h0a.61.61,0,0,1,.7-.3h0a.61.61,0,0,1,.3.7h0a.55.55,0,0,1-.5.3h0C86.4,127,86.4,126.9,86.3,126.9Zm5.3-.7a.59.59,0,0,1,.3-.7h0a.52.52,0,0,1,.7.3h0a.45.45,0,0,1-.3.6h-.2C91.8,126.5,91.7,126.4,91.6,126.2Zm-8-.4a.61.61,0,0,1-.3-.7h0a.61.61,0,0,1,.7-.3h0a.52.52,0,0,1,.3.7h0a.55.55,0,0,1-.5.3h-.2Zm10.7-.8a.45.45,0,0,1,.3-.6h0c.3-.1.6,0,.6.3h0a.59.59,0,0,1-.3.7h-.2C94.6,125.3,94.4,125.2,94.3,125Zm-13.5-.4a.52.52,0,0,1-.3-.7h0a.61.61,0,0,1,.7-.3h0a.61.61,0,0,1,.3.7h0a.55.55,0,0,1-.5.3h-.2Zm16.3-.7a.45.45,0,0,1,.3-.6h0a.45.45,0,0,1,.6.3h0a.59.59,0,0,1-.3.7h-.2ZM78,123.4a.61.61,0,0,1-.3-.7h0a.61.61,0,0,1,.7-.3h0a.61.61,0,0,1,.3.7h0a.55.55,0,0,1-.5.3h0C78.2,123.5,78.1,123.5,78,123.4Zm21.9-.7a.45.45,0,0,1,.3-.6h0c.3-.1.5,0,.7.3h0a.59.59,0,0,1-.3.7h-.2A1,1,0,0,1,99.9,122.7Zm-24.7-.4a.61.61,0,0,1-.3-.7h0c.1-.2.4-.4.6-.3h0a.52.52,0,0,1,.3.7h0a.55.55,0,0,1-.5.3h-.1Zm27.5-.8a.55.55,0,0,1,.3-.7h0a.45.45,0,0,1,.6.3h0c.1.3,0,.5-.3.7h-.2C102.9,121.8,102.7,121.7,102.7,121.5Zm-30.2-.4a.52.52,0,0,1-.3-.7h0a.61.61,0,0,1,.7-.3h0a.61.61,0,0,1,.3.7h0a.55.55,0,0,1-.5.3h0C72.6,121.2,72.6,121.1,72.5,121.1Zm32.9-.7a.59.59,0,0,1,.3-.7h0a.45.45,0,0,1,.6.3h0a.45.45,0,0,1-.3.6h-.2C105.7,120.7,105.5,120.6,105.4,120.4ZM69.7,120a.61.61,0,0,1-.3-.7h0a.61.61,0,0,1,.7-.3h0a.61.61,0,0,1,.3.7h0a.55.55,0,0,1-.5.3h-.2Zm38.5-.8a.59.59,0,0,1,.3-.7h0c.3-.1.5,0,.7.3h0c.1.3,0,.5-.3.7h-.2A.46.46,0,0,1,108.2,119.2Zm-41.3-.4a.61.61,0,0,1-.3-.7h0c.1-.2.4-.4.6-.3h0a.52.52,0,0,1,.3.7h0a.55.55,0,0,1-.5.3h-.1Zm44-.7a.59.59,0,0,1,.3-.7h0a.59.59,0,0,1,.7.3h0c.1.3,0,.5-.3.7h-.2A.85.85,0,0,1,110.9,118.1Zm-46.7-.5a.52.52,0,0,1-.3-.7h0c.1-.2.4-.4.6-.3h0a.52.52,0,0,1,.3.7h0a.55.55,0,0,1-.5.3h0C64.3,117.7,64.2,117.7,64.2,117.6Zm49.5-.7a.45.45,0,0,1,.3-.6h0a.45.45,0,0,1,.6.3h0a.59.59,0,0,1-.3.7h-.2C114,117.2,113.8,117.1,113.7,116.9Zm-52.3-.4a.61.61,0,0,1-.3-.7h0a.52.52,0,0,1,.7-.3h0a.61.61,0,0,1,.3.7h0a.55.55,0,0,1-.5.3h-.2Zm55.1-.8a.45.45,0,0,1,.3-.6h0a.52.52,0,0,1,.7.3h0c.1.3,0,.5-.3.7H117A.7.7,0,0,1,116.5,115.7Zm-57.8-.4c-.2-.1-.4-.4-.3-.6h0c.1-.2.4-.4.6-.3h0a.52.52,0,0,1,.3.7h0a.55.55,0,0,1-.5.3h0Zm60.5-.7a.59.59,0,0,1,.3-.7h0a.55.55,0,0,1,.7.3h0c.1.3,0,.5-.3.7h-.2A.55.55,0,0,1,119.2,114.6Zm0-1.4a.47.47,0,0,1,.5-.5h0a.47.47,0,0,1,.5.5h0a.47.47,0,0,1-.5.5h0A.47.47,0,0,1,119.2,113.2Zm-62-.6a.47.47,0,0,1,.5-.5h0a.47.47,0,0,1,.5.5h0a.47.47,0,0,1-.5.5h0A.47.47,0,0,1,57.2,112.6Zm62-2.4a.47.47,0,0,1,.5-.5h0a.47.47,0,0,1,.5.5h0a.47.47,0,0,1-.5.5h0A.47.47,0,0,1,119.2,110.2Zm-62-.6a.47.47,0,0,1,.5-.5h0a.47.47,0,0,1,.5.5h0a.47.47,0,0,1-.5.5h0A.47.47,0,0,1,57.2,109.6Zm62-2.4a.47.47,0,0,1,.5-.5h0a.47.47,0,0,1,.5.5h0a.47.47,0,0,1-.5.5h0A.47.47,0,0,1,119.2,107.2Zm-62-.6a.47.47,0,0,1,.5-.5h0a.47.47,0,0,1,.5.5h0a.47.47,0,0,1-.5.5h0A.47.47,0,0,1,57.2,106.6Zm62-2.4a.47.47,0,0,1,.5-.5h0a.47.47,0,0,1,.5.5h0a.47.47,0,0,1-.5.5h0A.47.47,0,0,1,119.2,104.2Zm-62-.6a.47.47,0,0,1,.5-.5h0a.47.47,0,0,1,.5.5h0a.47.47,0,0,1-.5.5h0A.47.47,0,0,1,57.2,103.6Zm62-2.4a.47.47,0,0,1,.5-.5h0a.47.47,0,0,1,.5.5h0a.47.47,0,0,1-.5.5h0A.47.47,0,0,1,119.2,101.2Zm-62-.6a.47.47,0,0,1,.5-.5h0a.47.47,0,0,1,.5.5h0a.47.47,0,0,1-.5.5h0A.47.47,0,0,1,57.2,100.6Zm62-2.4a.47.47,0,0,1,.5-.5h0a.47.47,0,0,1,.5.5h0a.47.47,0,0,1-.5.5h0A.47.47,0,0,1,119.2,98.2Zm-62-.6a.47.47,0,0,1,.5-.5h0a.47.47,0,0,1,.5.5h0a.47.47,0,0,1-.5.5h0A.47.47,0,0,1,57.2,97.6Zm62-2.4a.47.47,0,0,1,.5-.5h0a.47.47,0,0,1,.5.5h0a.47.47,0,0,1-.5.5h0A.47.47,0,0,1,119.2,95.2Zm-62-.6a.47.47,0,0,1,.5-.5h0a.47.47,0,0,1,.5.5h0a.47.47,0,0,1-.5.5h0A.47.47,0,0,1,57.2,94.6Zm62-2.4a.47.47,0,0,1,.5-.5h0a.47.47,0,0,1,.5.5h0a.47.47,0,0,1-.5.5h0A.47.47,0,0,1,119.2,92.2Zm-62-.6a.47.47,0,0,1,.5-.5h0a.47.47,0,0,1,.5.5h0a.47.47,0,0,1-.5.5h0A.47.47,0,0,1,57.2,91.6Zm62-2.4a.47.47,0,0,1,.5-.5h0a.47.47,0,0,1,.5.5h0a.47.47,0,0,1-.5.5h0A.47.47,0,0,1,119.2,89.2Zm-62-.6a.47.47,0,0,1,.5-.5h0a.47.47,0,0,1,.5.5h0a.47.47,0,0,1-.5.5h0A.47.47,0,0,1,57.2,88.6Zm62-2.4a.47.47,0,0,1,.5-.5h0a.47.47,0,0,1,.5.5h0a.47.47,0,0,1-.5.5h0A.47.47,0,0,1,119.2,86.2Zm-62-.6a.47.47,0,0,1,.5-.5h0a.47.47,0,0,1,.5.5h0a.47.47,0,0,1-.5.5h0A.47.47,0,0,1,57.2,85.6Zm62-2.4a.47.47,0,0,1,.5-.5h0a.47.47,0,0,1,.5.5h0a.47.47,0,0,1-.5.5h0A.47.47,0,0,1,119.2,83.2Zm-62-.6a.47.47,0,0,1,.5-.5h0a.47.47,0,0,1,.5.5h0a.47.47,0,0,1-.5.5h0A.47.47,0,0,1,57.2,82.6Zm62-2.4a.47.47,0,0,1,.5-.5h0a.47.47,0,0,1,.5.5h0a.47.47,0,0,1-.5.5h0A.47.47,0,0,1,119.2,80.2Zm-62-.6a.47.47,0,0,1,.5-.5h0a.47.47,0,0,1,.5.5h0a.47.47,0,0,1-.5.5h0A.47.47,0,0,1,57.2,79.6Zm62-2.4a.47.47,0,0,1,.5-.5h0a.47.47,0,0,1,.5.5h0a.47.47,0,0,1-.5.5h0A.47.47,0,0,1,119.2,77.2Zm-62-.6a.47.47,0,0,1,.5-.5h0a.47.47,0,0,1,.5.5h0a.47.47,0,0,1-.5.5h0A.47.47,0,0,1,57.2,76.6Zm62-2.4a.47.47,0,0,1,.5-.5h0a.47.47,0,0,1,.5.5h0a.47.47,0,0,1-.5.5h0A.47.47,0,0,1,119.2,74.2Zm-62-.6a.47.47,0,0,1,.5-.5h0a.47.47,0,0,1,.5.5h0a.47.47,0,0,1-.5.5h0A.47.47,0,0,1,57.2,73.6Zm31.4-1.4a.45.45,0,0,1,.3-.6h0a.42.42,0,0,1,.6.3h0a.45.45,0,0,1-.3.6H89C88.8,72.5,88.6,72.4,88.6,72.2Zm30.6-1a.47.47,0,0,1,.5-.5h0a.47.47,0,0,1,.5.5h0a.47.47,0,0,1-.5.5h0A.47.47,0,0,1,119.2,71.2ZM86,71.4c-.2-.1-.4-.4-.3-.6h0a.61.61,0,0,1,.7-.3h0a.61.61,0,0,1,.3.7h0a.55.55,0,0,1-.5.3h0C86.2,71.4,86.1,71.4,86,71.4Zm5.3-.4c-.1-.3,0-.5.3-.7h0c.2-.1.6,0,.6.3h0a.59.59,0,0,1-.3.7h-.2A.54.54,0,0,1,91.3,71Zm-34.1-.4a.47.47,0,0,1,.5-.5h0a.47.47,0,0,1,.5.5h0a.47.47,0,0,1-.5.5h0A.47.47,0,0,1,57.2,70.6Zm26.1-.3c-.2-.1-.4-.4-.3-.6h0a.45.45,0,0,1,.6-.3h0a.61.61,0,0,1,.3.7h0a.55.55,0,0,1-.5.3h0A.1.1,0,0,0,83.3,70.3Zm10.8-.4c-.1-.3,0-.5.3-.7h0a.52.52,0,0,1,.7.3h0a.42.42,0,0,1-.3.6h-.2A.37.37,0,0,1,94.1,69.9Zm-13.6-.8c-.2-.1-.4-.4-.3-.6h0a.45.45,0,0,1,.6-.3h0a.61.61,0,0,1,.3.7h0a.55.55,0,0,1-.5.3h0A.1.1,0,0,1,80.5,69.1Zm16.4-.4a.55.55,0,0,1,.3-.7h0a.45.45,0,0,1,.6.3h0a.42.42,0,0,1-.3.6h-.2C97.1,69.1,97,68.9,96.9,68.7Zm22.3-.5a.47.47,0,0,1,.5-.5h0a.47.47,0,0,1,.5.5h0a.47.47,0,0,1-.5.5h0A.47.47,0,0,1,119.2,68.2Zm-62-.6a.47.47,0,0,1,.5-.5h0a.47.47,0,0,1,.5.5h0a.47.47,0,0,1-.5.5h0A.47.47,0,0,1,57.2,67.6Zm20.5.4a.61.61,0,0,1-.3-.7h0c.1-.2.4-.4.6-.3h0a.61.61,0,0,1,.3.7h0a.55.55,0,0,1-.5.3h0C77.8,68.1,77.8,68,77.7,68Zm22-.4a.45.45,0,0,1,.3-.6h0a.45.45,0,0,1,.6.3h0c.1.3,0,.5-.3.7h-.2C99.9,67.9,99.7,67.8,99.7,67.6Zm-24.8-.7c-.2-.1-.4-.4-.3-.6h0a.45.45,0,0,1,.6-.3h0a.61.61,0,0,1,.3.7h0a.55.55,0,0,1-.5.3h0C75.1,66.9,75,66.9,74.9,66.9Zm27.5-.4c-.1-.3,0-.5.3-.7h0a.42.42,0,0,1,.6.3h0a.59.59,0,0,1-.3.7h-.2A.54.54,0,0,1,102.4,66.5Zm-30.3-.7c-.2-.1-.4-.4-.3-.6h0a.45.45,0,0,1,.6-.3h0a.61.61,0,0,1,.3.7h0a.55.55,0,0,1-.5.3h0C72.3,65.8,72.2,65.8,72.1,65.8Zm47.1-.6a.47.47,0,0,1,.5-.5h0a.47.47,0,0,1,.5.5h0a.47.47,0,0,1-.5.5h0A.47.47,0,0,1,119.2,65.2Zm-14,.1c-.1-.3,0-.5.3-.7h0a.45.45,0,0,1,.6.3h0a.45.45,0,0,1-.3.6h-.2C105.5,65.6,105.3,65.5,105.2,65.3Zm-48-.7a.47.47,0,0,1,.5-.5h0a.47.47,0,0,1,.5.5h0a.47.47,0,0,1-.5.5h0A.47.47,0,0,1,57.2,64.6Zm12.2,0a.52.52,0,0,1-.3-.7h0a.61.61,0,0,1,.7-.3h0a.52.52,0,0,1,.3.7h0a.55.55,0,0,1-.5.3h0C69.5,64.7,69.4,64.7,69.4,64.6Zm38.6-.4a.42.42,0,0,1,.3-.6h0a.52.52,0,0,1,.7.3h0a.52.52,0,0,1-.3.7h-.2A.7.7,0,0,1,108,64.2Zm-41.4-.7a.45.45,0,0,1-.3-.6h0a.45.45,0,0,1,.6-.3h0a.45.45,0,0,1,.3.6h0a.55.55,0,0,1-.5.3h0C66.7,63.6,66.6,63.5,66.6,63.5Zm44.1-.4c-.1-.3,0-.5.3-.7h0a.45.45,0,0,1,.6.3h0c.1.3,0,.5-.3.7h-.2C111,63.4,110.8,63.2,110.7,63.1Zm8.5-.9a.47.47,0,0,1,.5-.5h0a.47.47,0,0,1,.5.5h0a.47.47,0,0,1-.5.5h0A.47.47,0,0,1,119.2,62.2Zm-55.4.2a.52.52,0,0,1-.3-.7h0a.61.61,0,0,1,.7-.3h0a.52.52,0,0,1,.3.7h0a.55.55,0,0,1-.5.3h-.2Zm49.7-.5a.59.59,0,0,1,.3-.7h0c.3-.1.5,0,.7.3h0a.42.42,0,0,1-.3.6H114A.37.37,0,0,1,113.5,61.9Zm-56.3-.3a.47.47,0,0,1,.5-.5h0a.47.47,0,0,1,.5.5h0a.47.47,0,0,1-.5.5h0A.47.47,0,0,1,57.2,61.6Zm3.8-.3a.45.45,0,0,1-.3-.6h0a.45.45,0,0,1,.6-.3h0a.45.45,0,0,1,.3.6h0a.55.55,0,0,1-.5.3H61Zm55.3-.5a.45.45,0,0,1,.3-.6h0a.52.52,0,0,1,.7.3h0c.1.3,0,.5-.3.7h-.2A1,1,0,0,1,116.3,60.8Zm-58.1-.7a.48.48,0,0,1-.2-.6h0a.45.45,0,0,1,.6-.3h0a.45.45,0,0,1,.3.6h0a.55.55,0,0,1-.5.3h0C58.4,60.2,58.3,60.2,58.2,60.1Zm60.9-.5c-.1-.3,0-.5.3-.7h0a.45.45,0,0,1,.6.3h0a.59.59,0,0,1-.3.7h-.2C119.3,60,119.2,59.8,119.1,59.6Z"/><path class="cls-1" d="M99.2,77.6a.66.66,0,0,1,.2-.7h0a.52.52,0,0,1,.7.3h0a.59.59,0,0,1-.3.7h-.2C99.4,77.9,99.3,77.8,99.2,77.6Zm2.7-1.2a.59.59,0,0,1,.3-.7h0a.59.59,0,0,1,.7.3h0a.45.45,0,0,1-.3.6h-.2A.37.37,0,0,1,101.9,76.4Zm2.8-1.2a.59.59,0,0,1,.3-.7h0a.59.59,0,0,1,.7.3h0c.1.3,0,.5-.3.7h-.2A.46.46,0,0,1,104.7,75.2Zm2.7-1.2a.59.59,0,0,1,.3-.7h0c.3-.1.5,0,.7.3h0a.59.59,0,0,1-.3.7h-.2A.55.55,0,0,1,107.4,74Zm2.8-1.2c-.1-.3,0-.5.3-.7h0a.45.45,0,0,1,.6.3h0a.45.45,0,0,1-.3.6h0c-.1,0-.1.1-.2.1h0C110.4,73.1,110.3,73,110.2,72.8Z"/><path class="cls-1" d="M99.2,115.5c-.1-.3,0-.5.3-.7h0a.45.45,0,0,1,.6.3h0a.59.59,0,0,1-.3.7h-.2C99.4,115.8,99.3,115.7,99.2,115.5Zm2.7-1.2a.59.59,0,0,1,.3-.7h0a.45.45,0,0,1,.6.3h0a.48.48,0,0,1-.2.6h-.2C102.2,114.7,102,114.5,101.9,114.3Zm2.8-1.1a.59.59,0,0,1,.3-.7h0a.59.59,0,0,1,.7.3h0c.1.3,0,.5-.3.7h-.2A.62.62,0,0,1,104.7,113.2Zm2.7-1.2a.59.59,0,0,1,.3-.7h0c.3-.1.5,0,.7.3h0a.59.59,0,0,1-.3.7h-.2A.55.55,0,0,1,107.4,112Zm2.8-1.2a.62.62,0,0,1,.2-.7h0c.3-.1.5,0,.7.3h0a.59.59,0,0,1-.3.7h-.2C110.4,111.1,110.3,111,110.2,110.8Z"/><path class="cls-1" d="M78.3,77.9a.61.61,0,0,1-.3-.7h0a.52.52,0,0,1,.7-.3h0a.61.61,0,0,1,.3.7h0a.55.55,0,0,1-.5.3h-.2Zm-2.8-1.2a.52.52,0,0,1-.3-.7h0a.61.61,0,0,1,.7-.3h0a.52.52,0,0,1,.3.7h0a.55.55,0,0,1-.5.3h-.2Zm-2.7-1.2a.52.52,0,0,1-.3-.7h0a.61.61,0,0,1,.7-.3h0a.52.52,0,0,1,.3.7h0a.54.54,0,0,1-.4.3h-.3ZM70,74.3a.61.61,0,0,1-.3-.7h0a.52.52,0,0,1,.7-.3h0a.61.61,0,0,1,.3.7h0a.55.55,0,0,1-.5.3H70Zm-2.8-1.2a.57.57,0,0,1-.2-.7h0a.52.52,0,0,1,.7-.3h0a.61.61,0,0,1,.3.7h0a.55.55,0,0,1-.5.3h-.3Z"/><path class="cls-1" d="M99.2,85.6a.59.59,0,0,1,.3-.7h0a.45.45,0,0,1,.6.3h0a.59.59,0,0,1-.3.7h-.2C99.4,85.9,99.3,85.8,99.2,85.6Zm2.7-1.2a.59.59,0,0,1,.3-.7h0a.48.48,0,0,1,.6.2h0a.57.57,0,0,1-.2.7h-.2A.37.37,0,0,1,101.9,84.4Zm2.8-1.2a.59.59,0,0,1,.3-.7h0a.59.59,0,0,1,.7.3h0c.1.3,0,.5-.3.7h-.2A.46.46,0,0,1,104.7,83.2Zm2.7-1.2c-.1-.3,0-.5.3-.7h0c.3-.1.5,0,.7.3h0a.59.59,0,0,1-.3.7h-.2A.55.55,0,0,1,107.4,82Zm2.8-1.2c-.1-.3,0-.5.3-.7h0a.45.45,0,0,1,.6.3h0a.45.45,0,0,1-.3.6h0c-.1,0-.1.1-.2.1h0C110.4,81.1,110.3,81,110.2,80.8Z"/><path class="cls-1" d="M78.3,85.8a.61.61,0,0,1-.3-.7h0a.52.52,0,0,1,.7-.3h0a.61.61,0,0,1,.3.7h0a.55.55,0,0,1-.5.3h0C78.4,85.9,78.3,85.9,78.3,85.8Zm-2.8-1.1a.52.52,0,0,1-.3-.7h0a.61.61,0,0,1,.7-.3h0a.48.48,0,0,1,.2.7h0a.54.54,0,0,1-.4.3h-.2Zm-2.7-1.2a.52.52,0,0,1-.3-.7h0a.61.61,0,0,1,.7-.3h0a.52.52,0,0,1,.3.7h0a.55.55,0,0,1-.5.3h-.2ZM70,82.3a.61.61,0,0,1-.3-.7h0a.52.52,0,0,1,.7-.3h0a.61.61,0,0,1,.3.7h0a.55.55,0,0,1-.5.3H70Zm-2.8-1.2a.57.57,0,0,1-.2-.7h0a.52.52,0,0,1,.7-.3h0a.61.61,0,0,1,.3.7h0a.55.55,0,0,1-.5.3h-.3Z"/><path class="cls-1" d="M99.2,95.6c-.1-.3,0-.5.3-.7h0a.52.52,0,0,1,.7.3h0a.59.59,0,0,1-.3.7h-.2A.46.46,0,0,1,99.2,95.6Zm2.7-1.2a.59.59,0,0,1,.3-.7h0a.59.59,0,0,1,.7.3h0a.45.45,0,0,1-.3.6h-.2A.37.37,0,0,1,101.9,94.4Zm2.8-1.2a.59.59,0,0,1,.3-.7h0a.59.59,0,0,1,.7.3h0c.1.3,0,.5-.3.7h-.2A.46.46,0,0,1,104.7,93.2Zm2.7-1.2a.59.59,0,0,1,.3-.7h0c.3-.1.5,0,.7.3h0a.59.59,0,0,1-.3.7h-.2A.55.55,0,0,1,107.4,92Zm2.8-1.2c-.1-.3,0-.5.3-.7h0a.45.45,0,0,1,.6.3h0a.45.45,0,0,1-.3.6h0c-.1,0-.1.1-.2.1h0C110.4,91.1,110.3,91,110.2,90.8Z"/><path class="cls-1" d="M78.3,96.8a.61.61,0,0,1-.3-.7h0a.52.52,0,0,1,.7-.3h0a.61.61,0,0,1,.3.7h0a.55.55,0,0,1-.5.3h-.2Zm-2.8-1.2a.52.52,0,0,1-.3-.7h0a.61.61,0,0,1,.7-.3h0a.52.52,0,0,1,.3.7h0a.54.54,0,0,1-.4.3h-.3Zm-2.8-1.2a.48.48,0,0,1-.2-.7h0a.61.61,0,0,1,.7-.3h0a.52.52,0,0,1,.3.7h0a.55.55,0,0,1-.5.3h0C72.9,94.5,72.8,94.4,72.7,94.4ZM70,93.2a.61.61,0,0,1-.3-.7h0a.52.52,0,0,1,.7-.3h0a.61.61,0,0,1,.3.7h0a.55.55,0,0,1-.5.3h0C70.1,93.3,70.1,93.2,70,93.2ZM67.2,92c-.2-.1-.4-.4-.3-.6h0a.52.52,0,0,1,.7-.3h0c.2.1.4.4.3.6h0a.55.55,0,0,1-.5.3h0C67.4,92.1,67.3,92.1,67.2,92Z"/><path class="cls-1" d="M78.3,115.8a.61.61,0,0,1-.3-.7h0a.52.52,0,0,1,.7-.3h0a.61.61,0,0,1,.3.7h0a.55.55,0,0,1-.5.3h-.2Zm-2.8-1.2a.52.52,0,0,1-.3-.7h0a.61.61,0,0,1,.7-.3h0a.52.52,0,0,1,.3.7h0a.55.55,0,0,1-.5.3h-.2Zm-2.7-1.2a.52.52,0,0,1-.3-.7h0a.61.61,0,0,1,.7-.3h0a.52.52,0,0,1,.3.7h0a.54.54,0,0,1-.4.3h0C72.9,113.5,72.8,113.4,72.8,113.4ZM70,112.2a.61.61,0,0,1-.3-.7h0a.52.52,0,0,1,.7-.3h0a.61.61,0,0,1,.3.7h0a.55.55,0,0,1-.5.3h0C70.1,112.3,70.1,112.2,70,112.2ZM67.2,111a.61.61,0,0,1-.3-.7h0a.61.61,0,0,1,.7-.3h0a.61.61,0,0,1,.3.7h0a.55.55,0,0,1-.5.3h0C67.4,111.1,67.3,111.1,67.2,111Z"/><path class="cls-1" d="M99.2,108.6c-.1-.3,0-.5.3-.7h0a.45.45,0,0,1,.6.3h0a.59.59,0,0,1-.3.7h-.2C99.4,108.9,99.3,108.8,99.2,108.6Zm2.7-1.2a.59.59,0,0,1,.3-.7h0a.59.59,0,0,1,.7.3h0a.45.45,0,0,1-.3.6h-.2A.37.37,0,0,1,101.9,107.4Zm2.8-1.2a.45.45,0,0,1,.3-.6h0a.59.59,0,0,1,.7.3h0a.59.59,0,0,1-.3.7h-.2A.7.7,0,0,1,104.7,106.2Zm2.7-1.2c-.1-.3,0-.5.3-.7h0c.3-.1.5,0,.7.3h0a.59.59,0,0,1-.3.7h-.2A.55.55,0,0,1,107.4,105Zm2.8-1.2c-.1-.3,0-.5.3-.7h0a.45.45,0,0,1,.6.3h0a.45.45,0,0,1-.3.6h0c-.1,0-.1.1-.2.1h0C110.4,104.1,110.3,104,110.2,103.8Z"/><path class="cls-1" d="M78.3,108.9a.61.61,0,0,1-.3-.7h0a.52.52,0,0,1,.7-.3h0a.61.61,0,0,1,.3.7h0a.55.55,0,0,1-.5.3h-.2Zm-2.8-1.2a.52.52,0,0,1-.3-.7h0a.61.61,0,0,1,.7-.3h0a.52.52,0,0,1,.3.7h0a.54.54,0,0,1-.4.3h-.3Zm-2.8-1.2a.61.61,0,0,1-.3-.7h0a.61.61,0,0,1,.7-.3h0a.52.52,0,0,1,.3.7h0a.55.55,0,0,1-.5.3h-.2ZM70,105.3a.61.61,0,0,1-.3-.7h0a.52.52,0,0,1,.7-.3h0a.61.61,0,0,1,.3.7h0a.55.55,0,0,1-.5.3H70Zm-2.8-1.2a.61.61,0,0,1-.3-.7h0a.61.61,0,0,1,.7-.3h0a.61.61,0,0,1,.3.7h0a.55.55,0,0,1-.5.3h-.2Z"/><path class="cls-1" d="M88.2,123.4a.47.47,0,0,1,.5-.5h0a.47.47,0,0,1,.5.5h0a.47.47,0,0,1-.5.5h0A.47.47,0,0,1,88.2,123.4Zm0-3a.47.47,0,0,1,.5-.5h0a.47.47,0,0,1,.5.5h0a.47.47,0,0,1-.5.5h0A.47.47,0,0,1,88.2,120.4Zm0-3a.47.47,0,0,1,.5-.5h0a.47.47,0,0,1,.5.5h0a.47.47,0,0,1-.5.5h0A.47.47,0,0,1,88.2,117.4Zm0-3a.47.47,0,0,1,.5-.5h0a.47.47,0,0,1,.5.5h0a.47.47,0,0,1-.5.5h0A.47.47,0,0,1,88.2,114.4Zm0-3a.47.47,0,0,1,.5-.5h0a.47.47,0,0,1,.5.5h0a.47.47,0,0,1-.5.5h0A.47.47,0,0,1,88.2,111.4Zm0-3a.47.47,0,0,1,.5-.5h0a.47.47,0,0,1,.5.5h0a.47.47,0,0,1-.5.5h0A.47.47,0,0,1,88.2,108.4Zm0-3a.47.47,0,0,1,.5-.5h0a.47.47,0,0,1,.5.5h0a.47.47,0,0,1-.5.5h0A.47.47,0,0,1,88.2,105.4Zm0-3a.47.47,0,0,1,.5-.5h0a.47.47,0,0,1,.5.5h0a.47.47,0,0,1-.5.5h0A.47.47,0,0,1,88.2,102.4Zm0-3a.47.47,0,0,1,.5-.5h0a.47.47,0,0,1,.5.5h0a.47.47,0,0,1-.5.5h0A.47.47,0,0,1,88.2,99.4Zm0-3a.47.47,0,0,1,.5-.5h0a.47.47,0,0,1,.5.5h0a.47.47,0,0,1-.5.5h0A.47.47,0,0,1,88.2,96.4Zm0-3a.47.47,0,0,1,.5-.5h0a.47.47,0,0,1,.5.5h0a.47.47,0,0,1-.5.5h0A.47.47,0,0,1,88.2,93.4Zm0-3a.47.47,0,0,1,.5-.5h0a.47.47,0,0,1,.5.5h0a.47.47,0,0,1-.5.5h0A.47.47,0,0,1,88.2,90.4Zm0-3a.47.47,0,0,1,.5-.5h0a.47.47,0,0,1,.5.5h0a.47.47,0,0,1-.5.5h0A.47.47,0,0,1,88.2,87.4Zm0-3a.47.47,0,0,1,.5-.5h0a.47.47,0,0,1,.5.5h0a.47.47,0,0,1-.5.5h0A.47.47,0,0,1,88.2,84.4Zm0-3a.47.47,0,0,1,.5-.5h0a.47.47,0,0,1,.5.5h0a.47.47,0,0,1-.5.5h0A.47.47,0,0,1,88.2,81.4Zm0-3a.47.47,0,0,1,.5-.5h0a.47.47,0,0,1,.5.5h0a.47.47,0,0,1-.5.5h0A.47.47,0,0,1,88.2,78.4Zm0-3a.47.47,0,0,1,.5-.5h0a.47.47,0,0,1,.5.5h0a.47.47,0,0,1-.5.5h0A.47.47,0,0,1,88.2,75.4Z"/><rect class="cls-2" x="65.2" y="88.4" width="51.6" height="12.5"/><path class="cls-1" d="M75.2,87.4a4.37,4.37,0,0,1,2.9.9,3,3,0,0,1,1,2.5,4.65,4.65,0,0,1-.5,2.1,2.69,2.69,0,0,1-1.7,1.2h0a1.88,1.88,0,0,1,.9.4l.6.6c.2.2.2.5.3.8s.1.6.2.9a3.75,3.75,0,0,0,.1,1,3.75,3.75,0,0,0,.1,1,2.92,2.92,0,0,0,.2.9,1.61,1.61,0,0,0,.4.7H77.8a.76.76,0,0,1-.2-.5c0-.2-.1-.5-.1-.8v-.9a3.75,3.75,0,0,0-.1-1,2.92,2.92,0,0,0-.2-.9,4.87,4.87,0,0,0-.3-.7,2.65,2.65,0,0,0-.6-.5,3,3,0,0,0-1-.2H71.1v5.5H69.4v-13Zm.4,5.9a1.88,1.88,0,0,0,.9-.4,1.34,1.34,0,0,0,.6-.7,2,2,0,0,0,.2-1.1,2.77,2.77,0,0,0-.5-1.6,2.2,2.2,0,0,0-1.7-.6H70.9v4.5h3.6A4.1,4.1,0,0,1,75.6,93.3Z"/><path class="cls-1" d="M87.9,99.7a4.46,4.46,0,0,1-2.6.8,3.81,3.81,0,0,1-1.9-.4,7.1,7.1,0,0,1-1.4-1,2.75,2.75,0,0,1-.8-1.5,6.45,6.45,0,0,1-.3-2,5.41,5.41,0,0,1,.3-1.9,3.77,3.77,0,0,1,.9-1.5,4.51,4.51,0,0,1,1.4-1,4.78,4.78,0,0,1,1.8-.4,4.65,4.65,0,0,1,2.1.5,3.25,3.25,0,0,1,1.3,1.3,5.09,5.09,0,0,1,.7,1.7,11,11,0,0,1,.2,1.8h-7a4.87,4.87,0,0,0,.1,1.2,3.13,3.13,0,0,0,.5,1,2.18,2.18,0,0,0,.9.7,2.77,2.77,0,0,0,1.3.3,2.73,2.73,0,0,0,1.6-.4,2.19,2.19,0,0,0,.8-1.4h1.5A4.2,4.2,0,0,1,87.9,99.7Zm-.4-6a1.56,1.56,0,0,0-.6-.8,5.55,5.55,0,0,0-.8-.6,3.13,3.13,0,0,0-2.2,0,1.56,1.56,0,0,0-.8.6,2.18,2.18,0,0,0-.5.8,3.55,3.55,0,0,0-.2,1h5.3A3.55,3.55,0,0,0,87.5,93.7Z"/><path class="cls-1" d="M98.1,100.5a1.22,1.22,0,0,1-.9-.3,1.6,1.6,0,0,1-.4-1.1,3.27,3.27,0,0,1-1.5,1.1,5.66,5.66,0,0,1-1.8.3,4.87,4.87,0,0,1-1.2-.1,1.91,1.91,0,0,1-1-.5,2.7,2.7,0,0,1-.7-.8,2.17,2.17,0,0,1-.2-1.2,2.5,2.5,0,0,1,.3-1.3,2.7,2.7,0,0,1,.7-.8,3.13,3.13,0,0,1,1-.5l1.2-.3c.4-.1.8-.1,1.2-.2s.7-.1,1-.2a4.87,4.87,0,0,0,.7-.3.91.91,0,0,0,.3-.7,1.88,1.88,0,0,0-.2-.8,1.21,1.21,0,0,0-.5-.5,1.45,1.45,0,0,0-.7-.2c-.2,0-.5-.1-.7-.1a2.73,2.73,0,0,0-1.6.4,1.49,1.49,0,0,0-.7,1.4H90.9a2.41,2.41,0,0,1,.4-1.5,2.84,2.84,0,0,1,.9-1,6.12,6.12,0,0,1,1.2-.5,7.72,7.72,0,0,1,1.5-.2,6.15,6.15,0,0,1,1.3.1,3.58,3.58,0,0,1,1.1.4,2,2,0,0,1,.8.8,2.77,2.77,0,0,1,.3,1.3V98a1.72,1.72,0,0,0,.1.8c.1.2.2.3.4.3a1.09,1.09,0,0,0,.5-.1v1.2A3.08,3.08,0,0,1,98.1,100.5Zm-2.2-4.7c-.3.1-.6.1-1,.2s-.7.1-1,.1-.7.1-.9.3a1.79,1.79,0,0,0-.7.5,1.22,1.22,0,0,0-.3.9.85.85,0,0,0,.2.6c.1.1.2.3.4.4a1.42,1.42,0,0,0,.6.2c.2,0,.4.1.7.1a5.07,5.07,0,0,0,1.3-.2,1.93,1.93,0,0,0,.9-.5,1.79,1.79,0,0,0,.5-.7,2.54,2.54,0,0,0,.2-.7V95.4A2.47,2.47,0,0,1,95.9,95.8Z"/><path class="cls-1" d="M107.4,100.3V99h0a2.16,2.16,0,0,1-1.2,1.1,4.84,4.84,0,0,1-1.8.3,4.06,4.06,0,0,1-1.9-.4,3.48,3.48,0,0,1-1.3-1.1,4.35,4.35,0,0,1-.8-1.5,5.41,5.41,0,0,1-.3-1.9,5.82,5.82,0,0,1,.3-1.9,3.61,3.61,0,0,1,.8-1.5,4.12,4.12,0,0,1,1.3-1,3.81,3.81,0,0,1,1.9-.4,2.49,2.49,0,0,1,.8.1,1.88,1.88,0,0,1,.8.2c.3.1.5.3.8.4s.5.4.6.7h0V87.3h1.5v12.9h-1.5ZM101.9,97a3.7,3.7,0,0,0,.5,1.1,2.36,2.36,0,0,0,.9.8,2.77,2.77,0,0,0,1.3.3,2.5,2.5,0,0,0,1.3-.3,3.45,3.45,0,0,0,.9-.8,3.7,3.7,0,0,0,.5-1.1,4.33,4.33,0,0,0,0-2.6,3.7,3.7,0,0,0-.5-1.1,2.36,2.36,0,0,0-.9-.8,2.9,2.9,0,0,0-1.4-.3,2.5,2.5,0,0,0-1.3.3,3.45,3.45,0,0,0-.9.8,2.19,2.19,0,0,0-.5,1.2,5.7,5.7,0,0,0-.1,1.3A6,6,0,0,0,101.9,97Z"/></svg>