<svg id="Layer_2" data-name="Layer 2" xmlns="http://www.w3.org/2000/svg" viewBox="0 0 179.6 179.6"><defs><style>.cls-1{fill:none;stroke:#fff;stroke-miterlimit:10;}.cls-2{fill:#fff;}.cls-3{fill:#867a24;}</style></defs><title>subscribe-hover-01</title><polyline class="cls-1" points="54.27 66.3 54.27 39.3 127.27 39.3 127.27 66.3"/><circle class="cls-2" cx="89.78" cy="90.34" r="89.83"/><circle class="cls-3" cx="89.78" cy="90.19" r="80.85"/><path class="cls-2" d="M135.6,68.7a.52.52,0,0,1-.36-.14.62.62,0,0,1-.11-.17.58.58,0,0,1,0-.19.5.5,0,0,1,.14-.35.51.51,0,0,1,.55-.11.43.43,0,0,1,.16.11.5.5,0,0,1,.14.35.58.58,0,0,1,0,.19,1,1,0,0,1-.11.17A.52.52,0,0,1,135.6,68.7Z"/><path class="cls-2" d="M91.42,104.79a.5.5,0,0,1,.07-.7h0a.49.49,0,0,1,.7.06h0a.5.5,0,0,1-.06.71h0a.5.5,0,0,1-.32.11h0A.5.5,0,0,1,91.42,104.79Zm2.31-1.91a.49.49,0,0,1,.06-.7h0a.51.51,0,0,1,.71.06h0a.52.52,0,0,1-.07.71h0a.46.46,0,0,1-.32.11h0A.49.49,0,0,1,93.73,102.88ZM96,101a.49.49,0,0,1,.07-.7h0a.49.49,0,0,1,.7.07h0a.49.49,0,0,1-.06.7h0a.5.5,0,0,1-.32.11h0A.5.5,0,0,1,96,101Zm2.31-1.9a.51.51,0,0,1,.06-.71h0a.51.51,0,0,1,.71.07h0a.5.5,0,0,1-.07.7h0a.49.49,0,0,1-.32.12h0A.53.53,0,0,1,98.34,99.07Zm2.3-1.91a.51.51,0,0,1,.07-.71h0a.49.49,0,0,1,.7.07h0a.49.49,0,0,1-.06.7h0a.51.51,0,0,1-.32.12h0A.5.5,0,0,1,100.64,97.16Zm2.3-1.91a.52.52,0,0,1,.07-.71h0a.52.52,0,0,1,.71.07h0a.5.5,0,0,1-.07.7h0a.49.49,0,0,1-.32.12h0A.55.55,0,0,1,102.94,95.25Zm2.31-1.91a.5.5,0,0,1,.07-.71h0a.5.5,0,0,1,.7.07h0a.49.49,0,0,1-.07.7h0a.47.47,0,0,1-.32.12h0A.49.49,0,0,1,105.25,93.34Zm2.31-1.91a.51.51,0,0,1,.06-.71h0a.5.5,0,0,1,.7.07h0a.49.49,0,0,1-.06.7h0a.51.51,0,0,1-.32.12h0A.48.48,0,0,1,107.56,91.43Zm2.3-1.91a.51.51,0,0,1,.06-.71h0a.52.52,0,0,1,.71.07h0a.51.51,0,0,1-.07.71h0a.51.51,0,0,1-.32.11h0A.49.49,0,0,1,109.86,89.52Zm2.3-1.91a.5.5,0,0,1,.07-.7h0a.49.49,0,0,1,.7.06h0a.51.51,0,0,1-.06.71h0a.56.56,0,0,1-.32.11h0A.51.51,0,0,1,112.16,87.61Zm2.31-1.91a.49.49,0,0,1,.06-.7h0a.51.51,0,0,1,.71.06h0a.51.51,0,0,1-.07.71h0a.51.51,0,0,1-.32.11h0A.49.49,0,0,1,114.47,85.7Zm2.3-1.91a.5.5,0,0,1,.07-.7h0a.49.49,0,0,1,.7.06h0a.5.5,0,0,1-.06.71h0a.5.5,0,0,1-.32.11h0A.5.5,0,0,1,116.77,83.79Zm2.31-1.91a.49.49,0,0,1,.06-.7h0a.51.51,0,0,1,.71.06h0a.52.52,0,0,1-.07.71h0a.49.49,0,0,1-.32.12h0A.5.5,0,0,1,119.08,81.88Zm2.3-1.91a.5.5,0,0,1,.07-.7h0a.49.49,0,0,1,.7.07h0a.49.49,0,0,1-.06.7h0a.5.5,0,0,1-.32.11h0A.5.5,0,0,1,121.38,80Zm2.31-1.91a.49.49,0,0,1,.06-.7h0a.51.51,0,0,1,.71.07h0a.5.5,0,0,1-.07.7h0a.49.49,0,0,1-.32.12h0A.49.49,0,0,1,123.69,78.06Zm2.3-1.9a.5.5,0,0,1,.07-.71h0a.5.5,0,0,1,.7.07h0a.49.49,0,0,1-.07.7h0a.46.46,0,0,1-.31.12h0A.5.5,0,0,1,126,76.16Zm2.31-1.91a.51.51,0,0,1,.06-.71h0a.52.52,0,0,1,.71.07h0a.5.5,0,0,1-.07.7h0a.49.49,0,0,1-.32.12h0A.49.49,0,0,1,128.3,74.25Zm2.3-1.91a.5.5,0,0,1,.07-.71h0a.5.5,0,0,1,.7.07h0a.49.49,0,0,1-.06.7h0a.51.51,0,0,1-.32.12h0A.5.5,0,0,1,130.6,72.34Zm2.3-1.91a.5.5,0,0,1,.07-.7h0a.49.49,0,0,1,.7.06h0a.49.49,0,0,1-.06.7h0a.49.49,0,0,1-.32.12h0A.51.51,0,0,1,132.9,70.43Z"/><path class="cls-2" d="M89.5,106.88a.52.52,0,0,1-.35-.14.49.49,0,0,1-.11-.17.58.58,0,0,1,0-.19.65.65,0,0,1,0-.19.59.59,0,0,1,.11-.16.5.5,0,0,1,.54-.11.49.49,0,0,1,.17.11.55.55,0,0,1,.1.16.43.43,0,0,1,0,.19.4.4,0,0,1,0,.19.47.47,0,0,1-.1.17A.54.54,0,0,1,89.5,106.88Z"/><path class="cls-2" d="M86.84,104.86a.5.5,0,0,1-.07-.7h0a.49.49,0,0,1,.7-.07h0a.49.49,0,0,1,.08.7h0a.51.51,0,0,1-.39.18h0A.48.48,0,0,1,86.84,104.86ZM84.5,103a.49.49,0,0,1-.08-.7h0a.5.5,0,0,1,.71-.07h0a.5.5,0,0,1,.07.7h0a.5.5,0,0,1-.39.18h0A.45.45,0,0,1,84.5,103ZM82.15,101a.49.49,0,0,1-.07-.7h0a.49.49,0,0,1,.7-.07h0a.49.49,0,0,1,.07.7h0a.49.49,0,0,1-.38.19h0A.49.49,0,0,1,82.15,101Zm-2.34-1.9a.51.51,0,0,1-.08-.71h0a.51.51,0,0,1,.71-.07h0a.5.5,0,0,1,.07.7h0a.5.5,0,0,1-.39.18h0A.5.5,0,0,1,79.81,99.14Zm-2.35-1.92a.49.49,0,0,1-.07-.7h0a.49.49,0,0,1,.7-.07h0a.49.49,0,0,1,.07.7h0a.5.5,0,0,1-.38.19h0A.47.47,0,0,1,77.46,97.22Zm-2.35-1.9a.52.52,0,0,1-.07-.71h0a.51.51,0,0,1,.71-.07h0a.5.5,0,0,1,.07.7h0a.51.51,0,0,1-.39.19h0A.56.56,0,0,1,75.11,95.32Zm-2.34-1.91a.5.5,0,0,1-.07-.71h0a.5.5,0,0,1,.7-.07h0a.49.49,0,0,1,.07.7h0a.51.51,0,0,1-.39.19h0A.51.51,0,0,1,72.77,93.41ZM70.42,91.5a.52.52,0,0,1-.07-.71h0a.52.52,0,0,1,.71-.07h0a.52.52,0,0,1,.07.71h0a.51.51,0,0,1-.39.18h0A.57.57,0,0,1,70.42,91.5Zm-2.34-1.91a.5.5,0,0,1-.07-.71h0a.5.5,0,0,1,.7-.07h0a.51.51,0,0,1,.07.71h0a.5.5,0,0,1-.39.18h0A.51.51,0,0,1,68.08,89.59Zm-2.35-1.91a.52.52,0,0,1-.07-.71h0a.5.5,0,0,1,.7-.07h0a.51.51,0,0,1,.08.71h0a.51.51,0,0,1-.39.18h0A.56.56,0,0,1,65.73,87.68Zm-2.34-1.91a.49.49,0,0,1-.07-.7h0A.5.5,0,0,1,64,85h0a.52.52,0,0,1,.07.71h0a.5.5,0,0,1-.39.18h0A.51.51,0,0,1,63.39,85.77ZM61,83.86a.5.5,0,0,1-.07-.7h0a.49.49,0,0,1,.7-.08h0a.51.51,0,0,1,.08.71h0a.51.51,0,0,1-.39.18h0A.5.5,0,0,1,61,83.86ZM58.7,82a.49.49,0,0,1-.08-.7h0a.51.51,0,0,1,.71-.08h0a.51.51,0,0,1,.07.71h0a.5.5,0,0,1-.39.18h0A.45.45,0,0,1,58.7,82ZM56.35,80a.49.49,0,0,1-.07-.7h0a.49.49,0,0,1,.7-.07h0a.49.49,0,0,1,.07.7h0a.48.48,0,0,1-.38.18h0A.48.48,0,0,1,56.35,80ZM54,78.13a.5.5,0,0,1-.08-.7h0a.51.51,0,0,1,.71-.07h0a.5.5,0,0,1,.07.7h0a.51.51,0,0,1-.39.19h0A.47.47,0,0,1,54,78.13Zm-2.35-1.91a.49.49,0,0,1-.07-.7h0a.5.5,0,0,1,.7-.07h0a.5.5,0,0,1,.08.7h0a.54.54,0,0,1-.39.19h0A.49.49,0,0,1,51.66,76.22Zm-2.35-1.9a.52.52,0,0,1-.07-.71h0a.51.51,0,0,1,.71-.07h0a.5.5,0,0,1,.07.7h0a.51.51,0,0,1-.39.19h0A.56.56,0,0,1,49.31,74.32ZM47,72.41a.5.5,0,0,1-.07-.71h0a.5.5,0,0,1,.7-.07h0a.49.49,0,0,1,.07.7h0a.48.48,0,0,1-.39.19h0A.51.51,0,0,1,47,72.41ZM44.62,70.5a.52.52,0,0,1-.07-.71h0a.52.52,0,0,1,.71-.07h0a.5.5,0,0,1,.07.7h0a.49.49,0,0,1-.39.19h0A.57.57,0,0,1,44.62,70.5Z"/><path class="cls-2" d="M42.59,68.7a.52.52,0,0,1-.35-.14.62.62,0,0,1-.11-.17.58.58,0,0,1,0-.19.51.51,0,0,1,.15-.35.51.51,0,0,1,.71,0,.51.51,0,0,1,.15.35.58.58,0,0,1,0,.19.63.63,0,0,1-.11.17A.53.53,0,0,1,42.59,68.7Z"/><path class="cls-2" d="M42.1,118.94a.5.5,0,0,1,.5-.5h0a.5.5,0,0,1,.49.5h0a.49.49,0,0,1-.49.5h0A.49.49,0,0,1,42.1,118.94Zm0-3a.49.49,0,0,1,.5-.5h0a.49.49,0,0,1,.49.5h0a.5.5,0,0,1-.49.5h0A.5.5,0,0,1,42.1,116Zm0-3a.5.5,0,0,1,.5-.5h0a.5.5,0,0,1,.49.5h0a.49.49,0,0,1-.49.5h0A.49.49,0,0,1,42.1,113Zm0-3a.5.5,0,0,1,.5-.5h0a.49.49,0,0,1,.49.5h0a.5.5,0,0,1-.49.5h0A.5.5,0,0,1,42.1,110Zm0-3a.5.5,0,0,1,.5-.5h0a.5.5,0,0,1,.49.5h0a.49.49,0,0,1-.49.5h0A.5.5,0,0,1,42.1,107Zm0-3a.49.49,0,0,1,.5-.5h0a.49.49,0,0,1,.49.5h0a.5.5,0,0,1-.49.5h0A.5.5,0,0,1,42.1,104Zm0-3a.5.5,0,0,1,.5-.5h0a.5.5,0,0,1,.49.5h0a.49.49,0,0,1-.49.5h0A.49.49,0,0,1,42.1,101Zm0-3a.49.49,0,0,1,.5-.5h0a.49.49,0,0,1,.49.5h0a.5.5,0,0,1-.49.5h0A.5.5,0,0,1,42.1,98.05Zm0-3a.49.49,0,0,1,.5-.49h0a.49.49,0,0,1,.49.49h0a.49.49,0,0,1-.49.5h0A.49.49,0,0,1,42.1,95.06Zm0-3a.49.49,0,0,1,.5-.5h0a.49.49,0,0,1,.49.5h0a.5.5,0,0,1-.49.5h0A.5.5,0,0,1,42.1,92.08Zm0-3a.5.5,0,0,1,.5-.5h0a.5.5,0,0,1,.49.5h0a.49.49,0,0,1-.49.5h0A.49.49,0,0,1,42.1,89.09Zm0-3a.5.5,0,0,1,.5-.5h0a.49.49,0,0,1,.49.5h0a.5.5,0,0,1-.49.5h0A.5.5,0,0,1,42.1,86.11Zm0-3a.5.5,0,0,1,.5-.5h0a.5.5,0,0,1,.49.5h0a.49.49,0,0,1-.49.5h0A.5.5,0,0,1,42.1,83.12Zm0-3a.49.49,0,0,1,.5-.5h0a.49.49,0,0,1,.49.5h0a.49.49,0,0,1-.49.5h0A.49.49,0,0,1,42.1,80.14Zm0-3a.5.5,0,0,1,.5-.5h0a.5.5,0,0,1,.49.5h0a.49.49,0,0,1-.49.5h0A.49.49,0,0,1,42.1,77.15Zm0-3a.49.49,0,0,1,.5-.5h0a.49.49,0,0,1,.49.5h0a.49.49,0,0,1-.49.5h0A.5.5,0,0,1,42.1,74.17Zm0-3a.5.5,0,0,1,.5-.51h0a.5.5,0,0,1,.49.51h0a.5.5,0,0,1-.49.5h0A.5.5,0,0,1,42.1,71.19Z"/><path class="cls-2" d="M42.59,122.43a.48.48,0,0,1-.35-.15.5.5,0,0,1-.14-.35.59.59,0,0,1,0-.19.46.46,0,0,1,.11-.16.4.4,0,0,1,.16-.11.53.53,0,0,1,.39,0,.41.41,0,0,1,.16.11.51.51,0,0,1,.15.35.53.53,0,0,1-.15.35.41.41,0,0,1-.16.11A.44.44,0,0,1,42.59,122.43Z"/><path class="cls-2" d="M132.09,121.93a.5.5,0,0,1,.51-.5h0a.49.49,0,0,1,.49.5h0a.5.5,0,0,1-.49.5h0A.51.51,0,0,1,132.09,121.93Zm-3,0a.5.5,0,0,1,.5-.5h0a.49.49,0,0,1,.5.5h0a.5.5,0,0,1-.5.5h0A.51.51,0,0,1,129.09,121.93Zm-3,0a.5.5,0,0,1,.5-.5h0a.5.5,0,0,1,.51.5h0a.51.51,0,0,1-.51.5h0A.51.51,0,0,1,126.09,121.93Zm-3,0a.49.49,0,0,1,.5-.5h0a.49.49,0,0,1,.49.5h0a.5.5,0,0,1-.49.5h0A.5.5,0,0,1,123.1,121.93Zm-3,0a.5.5,0,0,1,.5-.5h0a.49.49,0,0,1,.5.5h0a.5.5,0,0,1-.5.5h0A.51.51,0,0,1,120.09,121.93Zm-3,0a.5.5,0,0,1,.51-.5h0a.5.5,0,0,1,.5.5h0a.51.51,0,0,1-.5.5h0A.51.51,0,0,1,117.09,121.93Zm-3,0a.49.49,0,0,1,.49-.5h0a.49.49,0,0,1,.5.5h0a.5.5,0,0,1-.5.5h0A.5.5,0,0,1,114.1,121.93Zm-3,0a.5.5,0,0,1,.5-.5h0a.5.5,0,0,1,.51.5h0a.51.51,0,0,1-.51.5h0A.51.51,0,0,1,111.09,121.93Zm-3,0a.5.5,0,0,1,.51-.5h0a.49.49,0,0,1,.49.5h0a.5.5,0,0,1-.49.5h0A.51.51,0,0,1,108.09,121.93Zm-3,0a.49.49,0,0,1,.49-.5h0a.49.49,0,0,1,.5.5h0a.5.5,0,0,1-.5.5h0A.5.5,0,0,1,105.1,121.93Zm-3,0a.5.5,0,0,1,.5-.5h0a.5.5,0,0,1,.51.5h0a.51.51,0,0,1-.51.5h0A.51.51,0,0,1,102.09,121.93Zm-3,0a.5.5,0,0,1,.51-.5h0a.49.49,0,0,1,.49.5h0a.5.5,0,0,1-.49.5h0A.51.51,0,0,1,99.09,121.93Zm-3,0a.49.49,0,0,1,.49-.5h0a.49.49,0,0,1,.5.5h0a.5.5,0,0,1-.5.5h0A.5.5,0,0,1,96.1,121.93Zm-3,0a.5.5,0,0,1,.5-.5h0a.5.5,0,0,1,.51.5h0a.51.51,0,0,1-.51.5h0A.51.51,0,0,1,93.09,121.93Zm-3,0a.5.5,0,0,1,.51-.5h0a.49.49,0,0,1,.49.5h0a.5.5,0,0,1-.49.5h0A.51.51,0,0,1,90.09,121.93Zm-3,0a.5.5,0,0,1,.5-.5h0a.49.49,0,0,1,.5.5h0a.5.5,0,0,1-.5.5h0A.51.51,0,0,1,87.09,121.93Zm-3,0a.5.5,0,0,1,.5-.5h0a.5.5,0,0,1,.51.5h0a.51.51,0,0,1-.51.5h0A.51.51,0,0,1,84.09,121.93Zm-3,0a.49.49,0,0,1,.49-.5h0a.49.49,0,0,1,.5.5h0a.5.5,0,0,1-.5.5h0A.5.5,0,0,1,81.1,121.93Zm-3,0a.5.5,0,0,1,.5-.5h0a.49.49,0,0,1,.5.5h0a.5.5,0,0,1-.5.5h0A.51.51,0,0,1,78.09,121.93Zm-3,0a.5.5,0,0,1,.51-.5h0a.49.49,0,0,1,.49.5h0a.5.5,0,0,1-.49.5h0A.51.51,0,0,1,75.09,121.93Zm-3,0a.49.49,0,0,1,.49-.5h0a.49.49,0,0,1,.5.5h0a.5.5,0,0,1-.5.5h0A.5.5,0,0,1,72.1,121.93Zm-3,0a.5.5,0,0,1,.5-.5h0a.5.5,0,0,1,.51.5h0a.51.51,0,0,1-.51.5h0A.51.51,0,0,1,69.09,121.93Zm-3,0a.5.5,0,0,1,.51-.5h0a.49.49,0,0,1,.49.5h0a.5.5,0,0,1-.49.5h0A.51.51,0,0,1,66.09,121.93Zm-3,0a.49.49,0,0,1,.49-.5h0a.49.49,0,0,1,.5.5h0a.5.5,0,0,1-.5.5h0A.5.5,0,0,1,63.1,121.93Zm-3,0a.5.5,0,0,1,.5-.5h0a.5.5,0,0,1,.51.5h0a.51.51,0,0,1-.51.5h0A.51.51,0,0,1,60.09,121.93Zm-3,0a.5.5,0,0,1,.51-.5h0a.49.49,0,0,1,.49.5h0a.5.5,0,0,1-.49.5h0A.51.51,0,0,1,57.09,121.93Zm-3,0a.49.49,0,0,1,.49-.5h0a.49.49,0,0,1,.5.5h0a.5.5,0,0,1-.5.5h0A.5.5,0,0,1,54.1,121.93Zm-3,0a.5.5,0,0,1,.5-.5h0a.5.5,0,0,1,.51.5h0a.51.51,0,0,1-.51.5h0A.51.51,0,0,1,51.09,121.93Zm-3,0a.5.5,0,0,1,.51-.5h0a.49.49,0,0,1,.49.5h0a.5.5,0,0,1-.49.5h0A.51.51,0,0,1,48.09,121.93Zm-3,0a.49.49,0,0,1,.49-.5h0a.49.49,0,0,1,.5.5h0a.5.5,0,0,1-.5.5h0A.5.5,0,0,1,45.1,121.93Z"/><path class="cls-2" d="M135.59,122.43a.48.48,0,0,1-.35-.15.5.5,0,0,1-.14-.35.59.59,0,0,1,0-.19.46.46,0,0,1,.11-.16.4.4,0,0,1,.16-.11.53.53,0,0,1,.39,0,.41.41,0,0,1,.16.11.51.51,0,0,1,.15.35.65.65,0,0,1,0,.19.58.58,0,0,1-.11.16A.49.49,0,0,1,135.59,122.43Z"/><path class="cls-2" d="M135.09,118.94a.51.51,0,0,1,.5-.5h0a.51.51,0,0,1,.51.5h0a.5.5,0,0,1-.51.5h0A.5.5,0,0,1,135.09,118.94Zm0-3a.5.5,0,0,1,.5-.5h0a.5.5,0,0,1,.51.5h0a.51.51,0,0,1-.51.5h0A.51.51,0,0,1,135.09,116Zm0-3a.51.51,0,0,1,.5-.5h0a.51.51,0,0,1,.51.5h0a.5.5,0,0,1-.51.5h0A.5.5,0,0,1,135.09,113Zm0-3a.5.5,0,0,1,.5-.5h0a.5.5,0,0,1,.51.5h0a.51.51,0,0,1-.51.5h0A.51.51,0,0,1,135.09,110Zm0-3a.51.51,0,0,1,.5-.5h0a.51.51,0,0,1,.51.5h0a.5.5,0,0,1-.51.5h0A.5.5,0,0,1,135.09,107Zm0-3a.5.5,0,0,1,.5-.5h0a.5.5,0,0,1,.51.5h0a.51.51,0,0,1-.51.5h0A.51.51,0,0,1,135.09,104Zm0-3a.51.51,0,0,1,.5-.51h0a.51.51,0,0,1,.51.51h0a.5.5,0,0,1-.51.49h0A.5.5,0,0,1,135.09,101Zm0-3a.5.5,0,0,1,.5-.5h0a.5.5,0,0,1,.51.5h0a.51.51,0,0,1-.51.5h0A.51.51,0,0,1,135.09,98.05Zm0-3a.5.5,0,0,1,.5-.49h0a.5.5,0,0,1,.51.49h0a.5.5,0,0,1-.51.5h0A.5.5,0,0,1,135.09,95.06Zm0-3a.5.5,0,0,1,.5-.5h0a.5.5,0,0,1,.51.5h0a.5.5,0,0,1-.51.5h0A.5.5,0,0,1,135.09,92.08Zm0-3a.5.5,0,0,1,.5-.49h0a.5.5,0,0,1,.51.49h0a.5.5,0,0,1-.51.5h0A.5.5,0,0,1,135.09,89.09Zm0-3a.5.5,0,0,1,.5-.5h0a.5.5,0,0,1,.51.5h0a.5.5,0,0,1-.51.5h0A.5.5,0,0,1,135.09,86.11Zm0-3a.51.51,0,0,1,.5-.5h0a.51.51,0,0,1,.51.5h0a.51.51,0,0,1-.51.51h0A.51.51,0,0,1,135.09,83.12Zm0-3a.5.5,0,0,1,.5-.5h0a.5.5,0,0,1,.51.5h0a.5.5,0,0,1-.51.5h0A.5.5,0,0,1,135.09,80.14Zm0-3a.51.51,0,0,1,.5-.5h0a.51.51,0,0,1,.51.5h0a.51.51,0,0,1-.51.51h0A.51.51,0,0,1,135.09,77.15Zm0-3a.5.5,0,0,1,.5-.5h0a.5.5,0,0,1,.51.5h0a.5.5,0,0,1-.51.5h0A.5.5,0,0,1,135.09,74.17Zm0-3a.5.5,0,0,1,.5-.5h0a.5.5,0,0,1,.51.5h0a.51.51,0,0,1-.51.5h0A.51.51,0,0,1,135.09,71.19Z"/><path class="cls-2" d="M42.6,67.61a.44.44,0,0,1-.2,0,.41.41,0,0,1-.16-.11.46.46,0,0,1-.11-.16.59.59,0,0,1,0-.19.5.5,0,0,1,.14-.35.51.51,0,0,1,.55-.11.43.43,0,0,1,.16.11.5.5,0,0,1,.14.35.59.59,0,0,1,0,.19.66.66,0,0,1-.11.16A.49.49,0,0,1,42.6,67.61Z"/><path class="cls-2" d="M44.51,65.52a.5.5,0,0,1,.07-.7h0a.49.49,0,0,1,.7.06h0a.51.51,0,0,1-.06.71h0a.56.56,0,0,1-.32.11h0A.51.51,0,0,1,44.51,65.52Zm2.31-1.91a.51.51,0,0,1,.06-.71h0a.52.52,0,0,1,.71.07h0a.51.51,0,0,1-.07.71h0a.52.52,0,0,1-.32.11h0A.49.49,0,0,1,46.82,63.61Zm2.3-1.91a.5.5,0,0,1,.07-.7h0a.49.49,0,0,1,.7.06h0a.51.51,0,0,1-.06.71h0a.5.5,0,0,1-.32.11h0A.5.5,0,0,1,49.12,61.7Zm2.31-1.91a.49.49,0,0,1,.06-.7h0a.51.51,0,0,1,.71.06h0a.52.52,0,0,1-.07.71h0a.48.48,0,0,1-.32.11h0A.49.49,0,0,1,51.43,59.79Zm2.3-1.91a.49.49,0,0,1,.07-.7h0a.49.49,0,0,1,.7.06h0a.5.5,0,0,1-.06.71h0a.5.5,0,0,1-.32.11h0A.5.5,0,0,1,53.73,57.88ZM56,56a.49.49,0,0,1,.06-.7h0a.5.5,0,0,1,.71.07h0a.5.5,0,0,1-.07.7h0a.49.49,0,0,1-.32.12h0A.49.49,0,0,1,56,56Zm2.3-1.9a.5.5,0,0,1,.07-.71h0a.49.49,0,0,1,.7.07h0a.49.49,0,0,1-.07.7h0a.47.47,0,0,1-.31.12h0A.53.53,0,0,1,58.34,54.07Zm2.31-1.92a.49.49,0,0,1,.06-.7h0a.52.52,0,0,1,.71.07h0a.5.5,0,0,1-.07.7h0a.49.49,0,0,1-.32.12h0A.46.46,0,0,1,60.65,52.15Zm2.3-1.9a.5.5,0,0,1,.06-.71h0a.52.52,0,0,1,.71.07h0a.49.49,0,0,1-.07.7h0a.46.46,0,0,1-.31.12h0A.5.5,0,0,1,63,50.25Zm2.3-1.91a.52.52,0,0,1,.07-.71h0a.5.5,0,0,1,.7.07h0a.49.49,0,0,1-.06.7h0a.51.51,0,0,1-.32.12h0A.51.51,0,0,1,65.25,48.34Zm2.31-1.91a.49.49,0,0,1,.06-.7h0a.51.51,0,0,1,.71.06h0a.49.49,0,0,1-.07.7h0a.47.47,0,0,1-.32.12h0A.49.49,0,0,1,67.56,46.43Zm2.3-1.91a.52.52,0,0,1,.07-.71h0a.52.52,0,0,1,.71.07h0a.52.52,0,0,1-.07.71h0a.56.56,0,0,1-.32.11h0A.5.5,0,0,1,69.86,44.52Zm2.31-1.91a.49.49,0,0,1,.06-.7h0a.5.5,0,0,1,.71.06h0a.5.5,0,0,1-.07.7h0a.47.47,0,0,1-.32.12h0A.49.49,0,0,1,72.17,42.61Zm2.3-1.91a.5.5,0,0,1,.07-.7h0a.49.49,0,0,1,.7.06h0a.51.51,0,0,1-.06.71h0a.56.56,0,0,1-.32.11h0A.5.5,0,0,1,74.47,40.7Zm2.31-1.91a.49.49,0,0,1,.06-.7h0a.51.51,0,0,1,.71.06h0a.52.52,0,0,1-.07.71h0a.46.46,0,0,1-.32.11h0A.49.49,0,0,1,76.78,38.79Zm2.3-1.91a.5.5,0,0,1,.07-.7h0a.49.49,0,0,1,.7.07h0a.49.49,0,0,1-.07.7h0a.46.46,0,0,1-.31.12h0A.51.51,0,0,1,79.08,36.88ZM81.39,35a.49.49,0,0,1,.06-.7h0a.5.5,0,0,1,.71.07h0a.5.5,0,0,1-.07.7h0a.48.48,0,0,1-.32.11h0A.48.48,0,0,1,81.39,35Zm2.3-1.91a.5.5,0,0,1,.07-.7h0a.5.5,0,0,1,.7.07h0a.49.49,0,0,1-.07.7h0a.47.47,0,0,1-.31.12h0A.51.51,0,0,1,83.69,33.06ZM86,31.15a.5.5,0,0,1,.07-.7h0a.5.5,0,0,1,.71.07h0a.5.5,0,0,1-.07.7h0a.49.49,0,0,1-.32.12h0A.52.52,0,0,1,86,31.15Z"/><path class="cls-2" d="M88.69,29.43a.49.49,0,0,1-.36-.15.45.45,0,0,1-.11-.16.59.59,0,0,1,0-.19.5.5,0,0,1,.14-.35.5.5,0,0,1,.86.35.59.59,0,0,1,0,.19.46.46,0,0,1-.11.16.56.56,0,0,1-.16.11A.63.63,0,0,1,88.69,29.43Z"/><path class="cls-2" d="M132.93,65.59a.52.52,0,0,1-.07-.71h0a.5.5,0,0,1,.7-.07h0a.51.51,0,0,1,.08.71h0a.51.51,0,0,1-.39.18h0A.56.56,0,0,1,132.93,65.59Zm-2.34-1.91a.5.5,0,0,1-.07-.71h0a.5.5,0,0,1,.7-.07h0a.51.51,0,0,1,.07.71h0a.5.5,0,0,1-.39.18h0A.51.51,0,0,1,130.59,63.68Zm-2.35-1.91a.5.5,0,0,1-.07-.7h0a.5.5,0,0,1,.7-.08h0a.5.5,0,0,1,.07.71h0a.48.48,0,0,1-.38.18h0A.5.5,0,0,1,128.24,61.77Zm-2.34-1.91a.49.49,0,0,1-.08-.7h0a.51.51,0,0,1,.71-.08h0a.51.51,0,0,1,.07.71h0a.5.5,0,0,1-.39.18h0A.46.46,0,0,1,125.9,59.86ZM123.55,58a.5.5,0,0,1-.07-.7h0a.49.49,0,0,1,.7-.07h0a.49.49,0,0,1,.08.7h0a.51.51,0,0,1-.39.18h0A.48.48,0,0,1,123.55,58ZM121.2,56a.5.5,0,0,1-.07-.7h0a.5.5,0,0,1,.71-.07h0a.5.5,0,0,1,.07.7h0a.5.5,0,0,1-.39.18h0A.5.5,0,0,1,121.2,56Zm-2.34-1.91a.49.49,0,0,1-.07-.7h0a.49.49,0,0,1,.7-.07h0a.49.49,0,0,1,.07.7h0a.49.49,0,0,1-.38.18h0A.46.46,0,0,1,118.86,54.13Zm-2.34-1.9a.51.51,0,0,1-.08-.71h0a.51.51,0,0,1,.71-.07h0a.5.5,0,0,1,.07.7h0a.51.51,0,0,1-.39.19h0A.51.51,0,0,1,116.52,52.23Zm-2.35-1.91a.51.51,0,0,1-.07-.71h0a.5.5,0,0,1,.7-.07h0a.49.49,0,0,1,.07.7h0a.51.51,0,0,1-.39.19h0A.51.51,0,0,1,114.17,50.32Zm-2.34-1.91a.51.51,0,0,1-.08-.71h0a.5.5,0,0,1,.7-.07h0a.5.5,0,0,1,.08.7h0a.52.52,0,0,1-.39.19h0A.51.51,0,0,1,111.83,48.41Zm-2.35-1.91a.5.5,0,0,1-.07-.71h0a.5.5,0,0,1,.7-.07h0a.5.5,0,0,1,.07.71h0a.5.5,0,0,1-.39.18h0A.51.51,0,0,1,109.48,46.5Zm-2.35-1.91a.5.5,0,0,1-.07-.7h0a.51.51,0,0,1,.71-.08h0a.5.5,0,0,1,.07.7h0a.49.49,0,0,1-.39.19h0A.56.56,0,0,1,107.13,44.59Zm-2.34-1.91a.5.5,0,0,1-.07-.71h0a.5.5,0,0,1,.7-.07h0a.51.51,0,0,1,.07.71h0a.5.5,0,0,1-.39.18h0A.51.51,0,0,1,104.79,42.68Zm-2.35-1.91a.5.5,0,0,1-.07-.7h0a.5.5,0,0,1,.7-.08h0a.51.51,0,0,1,.08.71h0a.51.51,0,0,1-.39.18h0A.56.56,0,0,1,102.44,40.77Zm-2.34-1.91a.48.48,0,0,1-.07-.7h0a.49.49,0,0,1,.7-.08h0a.52.52,0,0,1,.07.71h0a.5.5,0,0,1-.39.18h0A.45.45,0,0,1,100.1,38.86ZM97.75,37a.49.49,0,0,1-.07-.7h0a.49.49,0,0,1,.7-.08h0a.5.5,0,0,1,.07.71h0a.48.48,0,0,1-.38.18h0A.48.48,0,0,1,97.75,37ZM95.41,35a.5.5,0,0,1-.08-.7h0a.5.5,0,0,1,.71-.07h0a.5.5,0,0,1,.07.7h0a.5.5,0,0,1-.39.18h0A.45.45,0,0,1,95.41,35Zm-2.35-1.91a.5.5,0,0,1-.07-.7h0a.49.49,0,0,1,.7-.07h0a.49.49,0,0,1,.07.7h0a.49.49,0,0,1-.38.19h0A.49.49,0,0,1,93.06,33.13Zm-2.34-1.91a.49.49,0,0,1-.08-.7h0a.51.51,0,0,1,.71-.07h0a.5.5,0,0,1,.07.7h0a.51.51,0,0,1-.39.19h0A.46.46,0,0,1,90.72,31.22Z"/><path class="cls-2" d="M135.59,67.61a.43.43,0,0,1-.19,0,.41.41,0,0,1-.16-.11.46.46,0,0,1-.11-.16.59.59,0,0,1,0-.19.58.58,0,0,1,0-.19.64.64,0,0,1,.11-.16.42.42,0,0,1,.16-.11.51.51,0,0,1,.55.11.5.5,0,0,1,.14.35.59.59,0,0,1,0,.19.47.47,0,0,1-.11.16.42.42,0,0,1-.16.11A.47.47,0,0,1,135.59,67.61Z"/><path class="cls-2" d="M46.14,118.88a.4.4,0,0,1-.19,0,.6.6,0,0,1-.17-.1.52.52,0,0,1-.14-.36.43.43,0,0,1,0-.19.56.56,0,0,1,.1-.16.51.51,0,0,1,.55-.11.45.45,0,0,1,.16.11.47.47,0,0,1,.15.35.49.49,0,0,1-.15.36A.5.5,0,0,1,46.14,118.88Z"/><path class="cls-2" d="M48,116.57a.49.49,0,0,1,0-.71h0a.48.48,0,0,1,.7,0h0a.5.5,0,0,1,0,.71h0a.5.5,0,0,1-.35.14h0A.5.5,0,0,1,48,116.57Zm2.16-2.17a.51.51,0,0,1,0-.71h0a.49.49,0,0,1,.71,0h0a.5.5,0,0,1,0,.71h0a.52.52,0,0,1-.35.14h0A.54.54,0,0,1,50.12,114.4Zm2.17-2.17a.51.51,0,0,1,0-.71h0a.49.49,0,0,1,.71,0h0a.49.49,0,0,1,0,.71h0a.52.52,0,0,1-.35.14h0A.54.54,0,0,1,52.29,112.23Zm2.17-2.17a.51.51,0,0,1,0-.71h0a.51.51,0,0,1,.71,0h0a.49.49,0,0,1,0,.71h0a.52.52,0,0,1-.35.14h0A.54.54,0,0,1,54.46,110.06Zm2.17-2.17a.51.51,0,0,1,0-.71h0a.51.51,0,0,1,.71,0h0a.49.49,0,0,1,0,.71h0A.47.47,0,0,1,57,108h0A.5.5,0,0,1,56.63,107.89Zm2.17-2.17a.51.51,0,0,1,0-.71h0a.51.51,0,0,1,.71,0h0a.51.51,0,0,1,0,.71h0a.49.49,0,0,1-.35.14h0A.5.5,0,0,1,58.8,105.72ZM61,103.55a.51.51,0,0,1,0-.71h0a.51.51,0,0,1,.71,0h0a.5.5,0,0,1,0,.71h0a.5.5,0,0,1-.35.15h0A.51.51,0,0,1,61,103.55Zm2.17-2.17a.51.51,0,0,1,0-.71h0a.51.51,0,0,1,.71,0h0a.51.51,0,0,1,0,.71h0a.5.5,0,0,1-.35.15h0A.51.51,0,0,1,63.14,101.38Zm2.17-2.17a.51.51,0,0,1,0-.71h0a.51.51,0,0,1,.71,0h0a.51.51,0,0,1,0,.71h0a.51.51,0,0,1-.36.15h0A.5.5,0,0,1,65.31,99.21ZM67.48,97a.51.51,0,0,1,0-.71h0a.51.51,0,0,1,.71,0h0a.51.51,0,0,1,0,.71h0a.51.51,0,0,1-.36.15h0A.5.5,0,0,1,67.48,97Z"/><path class="cls-2" d="M70,95a.49.49,0,0,1-.35-.15.48.48,0,0,1,0-.7.43.43,0,0,1,.16-.11.51.51,0,0,1,.55.11.51.51,0,0,1,0,.7A.51.51,0,0,1,70,95Z"/><path class="cls-2" d="M132.19,118.88a.48.48,0,0,1-.5-.5.63.63,0,0,1,0-.19.94.94,0,0,1,.11-.16.56.56,0,0,1,.16-.11.53.53,0,0,1,.39,0,.56.56,0,0,1,.16.11.59.59,0,0,1,.11.16.63.63,0,0,1,0,.19.52.52,0,0,1-.14.36A.52.52,0,0,1,132.19,118.88Z"/><path class="cls-2" d="M129.66,116.57a.51.51,0,0,1,0-.71h0a.5.5,0,0,1,.71,0h0a.51.51,0,0,1,0,.71h0a.53.53,0,0,1-.35.14h0A.54.54,0,0,1,129.66,116.57Zm-2.17-2.17a.51.51,0,0,1,0-.71h0a.49.49,0,0,1,.71,0h0a.51.51,0,0,1,0,.71h0a.54.54,0,0,1-.35.14h0A.54.54,0,0,1,127.49,114.4Zm-2.17-2.17a.51.51,0,0,1,0-.71h0a.49.49,0,0,1,.71,0h0a.49.49,0,0,1,0,.71h0a.52.52,0,0,1-.35.14h0A.54.54,0,0,1,125.32,112.23Zm-2.17-2.17a.51.51,0,0,1,0-.71h0a.51.51,0,0,1,.71,0h0a.49.49,0,0,1,0,.71h0a.52.52,0,0,1-.35.14h0A.54.54,0,0,1,123.15,110.06ZM121,107.89a.51.51,0,0,1,0-.71h0a.51.51,0,0,1,.71,0h0a.49.49,0,0,1,0,.71h0a.46.46,0,0,1-.35.14h0A.5.5,0,0,1,121,107.89Zm-2.16-2.17a.5.5,0,0,1,0-.71h0a.5.5,0,0,1,.7,0h0a.49.49,0,0,1,0,.71h0a.46.46,0,0,1-.35.14h0A.46.46,0,0,1,118.82,105.72Zm-2.18-2.17a.51.51,0,0,1,0-.71h0a.51.51,0,0,1,.71,0h0a.5.5,0,0,1,0,.71h0a.47.47,0,0,1-.35.15h0A.51.51,0,0,1,116.64,103.55Zm-2.16-2.17a.49.49,0,0,1,0-.71h0a.5.5,0,0,1,.7,0h0a.5.5,0,0,1,0,.71h0a.47.47,0,0,1-.35.15h0A.47.47,0,0,1,114.48,101.38Zm-2.17-2.17a.49.49,0,0,1,0-.71h0a.5.5,0,0,1,.7,0h0a.49.49,0,0,1,0,.71h0a.47.47,0,0,1-.35.15h0A.47.47,0,0,1,112.31,99.21ZM110.14,97a.49.49,0,0,1,0-.71h0a.5.5,0,0,1,.7,0h0a.49.49,0,0,1,0,.71h0a.47.47,0,0,1-.35.15h0A.49.49,0,0,1,110.14,97Z"/><path class="cls-2" d="M108.32,95a.48.48,0,0,1-.35-.15.48.48,0,0,1,0-.7.49.49,0,0,1,.54-.11.46.46,0,0,1,.17.11.51.51,0,0,1,0,.7A.51.51,0,0,1,108.32,95Z"/><rect class="cls-3" x="27.22" y="74.83" width="123.72" height="29.99"/><path class="cls-2" d="M42.1,82.5a5.24,5.24,0,0,0-3.16-.9,7.59,7.59,0,0,0-1.53.16,4.07,4.07,0,0,0-1.34.52,2.74,2.74,0,0,0-.94,1,3,3,0,0,0-.35,1.52,1.94,1.94,0,0,0,.51,1.39,3.75,3.75,0,0,0,1.35.87,11.24,11.24,0,0,0,1.91.56q1.06.22,2.17.48t2.17.61a7.16,7.16,0,0,1,1.91.95,4.53,4.53,0,0,1,1.35,1.51A5.29,5.29,0,0,1,46,96a5.45,5.45,0,0,1-1.7,1.72,7.4,7.4,0,0,1-2.33,1,11.3,11.3,0,0,1-2.56.3,10.86,10.86,0,0,1-3-.39A7.27,7.27,0,0,1,34,97.38a5.61,5.61,0,0,1-1.66-2,6.53,6.53,0,0,1-.61-2.92h2.34a4.19,4.19,0,0,0,.46,2,4.14,4.14,0,0,0,1.2,1.39,5.05,5.05,0,0,0,1.73.81,8,8,0,0,0,2,.26,9.26,9.26,0,0,0,1.68-.16,5,5,0,0,0,1.52-.53,2.85,2.85,0,0,0,1.51-2.69A2.33,2.33,0,0,0,43.68,92a3.74,3.74,0,0,0-1.35-1,10,10,0,0,0-1.91-.61l-2.17-.48q-1.1-.25-2.17-.57a7.85,7.85,0,0,1-1.91-.86,4.1,4.1,0,0,1-1.35-1.38A4.06,4.06,0,0,1,32.31,85a4.91,4.91,0,0,1,.57-2.43,5,5,0,0,1,1.52-1.69,6.84,6.84,0,0,1,2.16-1A9.56,9.56,0,0,1,39,79.53a10,10,0,0,1,2.65.34,6.05,6.05,0,0,1,2.15,1.07,5.16,5.16,0,0,1,1.46,1.83,6.57,6.57,0,0,1,.58,2.64H43.54A3.87,3.87,0,0,0,42.1,82.5Z"/><path class="cls-2" d="M58.33,98.53V96.4h-.05a4.51,4.51,0,0,1-1.79,1.83,5.37,5.37,0,0,1-2.57.59,6,6,0,0,1-2.21-.35,3.52,3.52,0,0,1-1.43-1,3.76,3.76,0,0,1-.77-1.55,8.32,8.32,0,0,1-.22-2V85.09h2.21v9.1a2.67,2.67,0,0,0,.73,2,2.71,2.71,0,0,0,2,.73A4.52,4.52,0,0,0,56,96.58a3.3,3.3,0,0,0,1.23-.88A3.81,3.81,0,0,0,58,94.36a5.44,5.44,0,0,0,.25-1.68V85.09h2.21V98.53Z"/><path class="cls-2" d="M66,80v6.94h.05a3.31,3.31,0,0,1,1.72-1.62,6.41,6.41,0,0,1,2.57-.51,6.07,6.07,0,0,1,2.72.57A5.52,5.52,0,0,1,75,86.9a6.83,6.83,0,0,1,1.16,2.25,9.2,9.2,0,0,1,.39,2.7,9.49,9.49,0,0,1-.38,2.7A6.39,6.39,0,0,1,75,96.78a5.39,5.39,0,0,1-1.92,1.49,6.24,6.24,0,0,1-2.69.55,6.64,6.64,0,0,1-1.1-.1,6.19,6.19,0,0,1-1.21-.34A4.68,4.68,0,0,1,67,97.74a3.54,3.54,0,0,1-.9-1H66v1.79H63.82V80ZM74,89.86a4.94,4.94,0,0,0-.75-1.6,3.71,3.71,0,0,0-1.3-1.12,4,4,0,0,0-1.86-.42,3.65,3.65,0,0,0-3.17,1.6A4.86,4.86,0,0,0,66.17,90a7.87,7.87,0,0,0,0,3.76,4.72,4.72,0,0,0,.74,1.63,3.79,3.79,0,0,0,1.31,1.13,4.1,4.1,0,0,0,2,.43,3.78,3.78,0,0,0,1.91-.44,3.54,3.54,0,0,0,1.23-1.17A5.06,5.06,0,0,0,74,93.62a8.83,8.83,0,0,0,.21-1.92A6.85,6.85,0,0,0,74,89.86Z"/><path class="cls-2" d="M80.85,95.53a2.35,2.35,0,0,0,.82.81,3.66,3.66,0,0,0,1.14.43,6.52,6.52,0,0,0,1.31.13,8.28,8.28,0,0,0,1.09-.08,4,4,0,0,0,1.05-.29,2,2,0,0,0,.79-.61,1.63,1.63,0,0,0,.31-1,1.47,1.47,0,0,0-.65-1.3,5.53,5.53,0,0,0-1.62-.71q-1-.27-2.12-.49a10.91,10.91,0,0,1-2.12-.62,4.38,4.38,0,0,1-1.62-1.13,2.94,2.94,0,0,1-.65-2A3.22,3.22,0,0,1,79,86.86a3.73,3.73,0,0,1,1.17-1.18A5.4,5.4,0,0,1,81.82,85a7.46,7.46,0,0,1,1.78-.22,10.62,10.62,0,0,1,2.11.2,4.88,4.88,0,0,1,1.7.68A3.5,3.5,0,0,1,88.6,87a4.93,4.93,0,0,1,.52,2H86.91a2.25,2.25,0,0,0-.34-1.08,2.22,2.22,0,0,0-.73-.69,3.33,3.33,0,0,0-1-.38,5,5,0,0,0-1.08-.12,6.61,6.61,0,0,0-1,.08,3.4,3.4,0,0,0-.92.27,1.87,1.87,0,0,0-.68.52,1.31,1.31,0,0,0-.26.84,1.24,1.24,0,0,0,.4.95,3.21,3.21,0,0,0,1,.62,8.93,8.93,0,0,0,1.4.42l1.56.35q.83.18,1.63.44a5.36,5.36,0,0,1,1.4.69,3.38,3.38,0,0,1,1,1.08,3.17,3.17,0,0,1,.38,1.61,3.74,3.74,0,0,1-.51,2,4,4,0,0,1-1.33,1.3,5.54,5.54,0,0,1-1.85.69,10.93,10.93,0,0,1-2,.2,9.44,9.44,0,0,1-2.13-.23,5.23,5.23,0,0,1-1.79-.77,3.88,3.88,0,0,1-1.25-1.4,4.86,4.86,0,0,1-.52-2.12h2.21A2.5,2.5,0,0,0,80.85,95.53Z"/><path class="cls-2" d="M100.19,87.43a3.36,3.36,0,0,0-2.24-.7,4.12,4.12,0,0,0-2,.44,3.57,3.57,0,0,0-1.29,1.17A4.92,4.92,0,0,0,94,90a9.09,9.09,0,0,0-.21,2A7.47,7.47,0,0,0,94,93.8a4.89,4.89,0,0,0,.69,1.57,3.49,3.49,0,0,0,1.22,1.1,4.18,4.18,0,0,0,4.35-.44,3.87,3.87,0,0,0,1.13-2.42h2.26a6.19,6.19,0,0,1-1.86,3.85,5.84,5.84,0,0,1-4.07,1.35A7,7,0,0,1,95,98.33a5.26,5.26,0,0,1-2-1.4,6.06,6.06,0,0,1-1.2-2.17,9,9,0,0,1-.4-2.77,9.88,9.88,0,0,1,.39-2.82A6.52,6.52,0,0,1,93,86.87a5.54,5.54,0,0,1,2-1.53,6.51,6.51,0,0,1,2.78-.56,8.13,8.13,0,0,1,2.14.27,5.23,5.23,0,0,1,1.77.84,4.62,4.62,0,0,1,1.26,1.44,5.33,5.33,0,0,1,.62,2.07h-2.29A3.37,3.37,0,0,0,100.19,87.43Z"/><path class="cls-2" d="M108.12,85.09v2.83h.05a6,6,0,0,1,2-2.42,5,5,0,0,1,3-.73v2.34a6.23,6.23,0,0,0-2.26.37,3.57,3.57,0,0,0-1.51,1.07,4.43,4.43,0,0,0-.83,1.7,9.21,9.21,0,0,0-.26,2.3v6H106V85.09Z"/><path class="cls-2" d="M114.91,82.67V80h2.21v2.7Zm2.21,2.42V98.53h-2.21V85.09Z"/><path class="cls-2" d="M122.84,80v6.94h.05a3.31,3.31,0,0,1,1.72-1.62,6.41,6.41,0,0,1,2.57-.51,6.07,6.07,0,0,1,2.72.57,5.52,5.52,0,0,1,1.92,1.55A6.83,6.83,0,0,1,133,89.15a9.2,9.2,0,0,1,.39,2.7,9.49,9.49,0,0,1-.38,2.7,6.39,6.39,0,0,1-1.14,2.22,5.39,5.39,0,0,1-1.92,1.49,6.24,6.24,0,0,1-2.69.55,6.64,6.64,0,0,1-1.1-.1,6.19,6.19,0,0,1-1.21-.34,4.68,4.68,0,0,1-1.13-.64,3.54,3.54,0,0,1-.9-1h-.05v1.79h-2.21V80Zm7.94,9.89a4.94,4.94,0,0,0-.75-1.6,3.71,3.71,0,0,0-1.3-1.12,4,4,0,0,0-1.86-.42,3.65,3.65,0,0,0-3.17,1.6A4.86,4.86,0,0,0,123,90a7.87,7.87,0,0,0,0,3.76,4.72,4.72,0,0,0,.74,1.63A3.79,3.79,0,0,0,125,96.47a4.1,4.1,0,0,0,2,.43,3.78,3.78,0,0,0,1.91-.44,3.54,3.54,0,0,0,1.23-1.17,5.06,5.06,0,0,0,.68-1.66,8.83,8.83,0,0,0,.21-1.92A6.85,6.85,0,0,0,130.78,89.86Z"/><path class="cls-2" d="M145.48,97.68a6.1,6.1,0,0,1-3.8,1.14,6.9,6.9,0,0,1-2.79-.52,5.51,5.51,0,0,1-2-1.46,6.18,6.18,0,0,1-1.21-2.24,10.79,10.79,0,0,1-.46-2.83,8.07,8.07,0,0,1,.47-2.81A6.71,6.71,0,0,1,137,86.76a6,6,0,0,1,2-1.46,6.11,6.11,0,0,1,2.54-.52,5.52,5.52,0,0,1,3,.74,5.88,5.88,0,0,1,1.9,1.89,7.45,7.45,0,0,1,1,2.5,10.73,10.73,0,0,1,.22,2.57H137.58a5.32,5.32,0,0,0,.21,1.68,3.77,3.77,0,0,0,.75,1.4,3.7,3.7,0,0,0,1.33,1,4.56,4.56,0,0,0,1.9.36,3.82,3.82,0,0,0,2.3-.65,3.14,3.14,0,0,0,1.18-2h2.18A5.37,5.37,0,0,1,145.48,97.68ZM145,89a3.73,3.73,0,0,0-2-2,3.78,3.78,0,0,0-1.52-.3,3.85,3.85,0,0,0-1.55.3,3.56,3.56,0,0,0-1.18.82,3.93,3.93,0,0,0-.78,1.21,4.57,4.57,0,0,0-.34,1.47h7.72A4.57,4.57,0,0,0,145,89Z"/><path class="cls-2" d="M78.14,139.7a.4.4,0,0,1-.16.11.35.35,0,0,1-.19,0,.35.35,0,0,1-.19,0,.4.4,0,0,1-.16-.11.43.43,0,0,1-.11-.16.42.42,0,0,1,0-.19.35.35,0,0,1,0-.19.5.5,0,0,1,.27-.27.35.35,0,0,1,.19,0,.42.42,0,0,1,.19,0,.43.43,0,0,1,.16.11.41.41,0,0,1,.11.16.35.35,0,0,1,0,.19A.45.45,0,0,1,78.14,139.7Z"/><path class="cls-2" d="M87.45,149.71a.49.49,0,0,1,0-.71h0a.5.5,0,0,1,.71,0h0a.51.51,0,0,1,0,.71h0A.5.5,0,0,1,87.45,149.71Zm-2-2a.5.5,0,0,1,0-.71h0a.51.51,0,0,1,.71,0h0a.5.5,0,0,1,0,.71h0A.49.49,0,0,1,85.44,147.71Zm-2-2a.49.49,0,0,1,0-.71h0a.5.5,0,0,1,.71,0h0a.5.5,0,0,1,0,.71h0A.49.49,0,0,1,83.44,145.71Zm-2-2a.49.49,0,0,1,0-.71h0a.5.5,0,0,1,.71,0h0a.51.51,0,0,1,0,.71h0A.5.5,0,0,1,81.44,143.7Zm-2-2a.5.5,0,0,1,0-.71h0a.51.51,0,0,1,.71,0h0a.5.5,0,0,1,0,.71h0A.49.49,0,0,1,79.43,141.7Z"/><path class="cls-2" d="M90.16,151.72a.47.47,0,0,1-.35.14.45.45,0,0,1-.35-.14.47.47,0,0,1-.14-.35.45.45,0,0,1,0-.19.5.5,0,0,1,.27-.27.45.45,0,0,1,.19,0,.47.47,0,0,1,.35.14.51.51,0,0,1,0,.71Z"/><path class="cls-2" d="M90.15,151a.4.4,0,0,1,.11.16.35.35,0,0,1,0,.19.35.35,0,0,1,0,.19.4.4,0,0,1-.11.16.43.43,0,0,1-.16.11.42.42,0,0,1-.19,0,.35.35,0,0,1-.19,0,.5.5,0,0,1-.27-.27.35.35,0,0,1,0-.19.42.42,0,0,1,0-.19.43.43,0,0,1,.11-.16.41.41,0,0,1,.16-.11.35.35,0,0,1,.19,0A.45.45,0,0,1,90.15,151Z"/><path class="cls-2" d="M100.17,141.69a.49.49,0,0,1-.71,0h0a.5.5,0,0,1,0-.71h0a.51.51,0,0,1,.71,0h0A.5.5,0,0,1,100.17,141.69Zm-2,2a.5.5,0,0,1-.71,0h0a.51.51,0,0,1,0-.71h0a.5.5,0,0,1,.71,0h0A.49.49,0,0,1,98.16,143.7Zm-2,2a.49.49,0,0,1-.71,0h0a.5.5,0,0,1,0-.71h0a.5.5,0,0,1,.71,0h0A.49.49,0,0,1,96.16,145.7Zm-2,2a.49.49,0,0,1-.71,0h0a.5.5,0,0,1,0-.71h0a.51.51,0,0,1,.71,0h0A.5.5,0,0,1,94.16,147.7Zm-2,2a.5.5,0,0,1-.71,0h0a.51.51,0,0,1,0-.71h0a.5.5,0,0,1,.71,0h0A.49.49,0,0,1,92.15,149.71Z"/><path class="cls-2" d="M102.17,139a.47.47,0,0,1,.14.35.45.45,0,0,1-.14.35.47.47,0,0,1-.35.14.45.45,0,0,1-.19,0,.5.5,0,0,1-.27-.27.45.45,0,0,1,0-.19.47.47,0,0,1,.14-.35.51.51,0,0,1,.71,0Z"/><rect class="cls-3" x="82" y="102" width="14.33" height="6.33"/></svg>