<svg xmlns="http://www.w3.org/2000/svg" viewBox="0 0 26.66 26.66"><defs><style>.cls-1{fill:none;stroke:#b4650e;stroke-miterlimit:10;}.cls-2{fill:#b4650e;}</style></defs><title>question-mark</title><g id="Layer_2" data-name="Layer 2"><g id="design"><circle class="cls-1" cx="13.33" cy="13.33" r="12.83"/><path class="cls-2" d="M9,9.32a4.46,4.46,0,0,1,.93-1.48,4.2,4.2,0,0,1,1.44-1,4.88,4.88,0,0,1,1.89-.35,6,6,0,0,1,2.25.37A4.38,4.38,0,0,1,17,7.8,3.33,3.33,0,0,1,17.77,9,3.4,3.4,0,0,1,18,10.18a4,4,0,0,1-.24,1.5,3.69,3.69,0,0,1-.59,1,3.92,3.92,0,0,1-.78.71q-.43.29-.81.59a3.77,3.77,0,0,0-.67.67,1.93,1.93,0,0,0-.37.95v.72H12v-.85a3.9,3.9,0,0,1,.31-1.37,3.94,3.94,0,0,1,.6-.94,4.84,4.84,0,0,1,.72-.67q.38-.29.7-.57a2.53,2.53,0,0,0,.52-.63,1.56,1.56,0,0,0,.18-.85,1.74,1.74,0,0,0-.43-1.29,1.63,1.63,0,0,0-1.19-.42,1.83,1.83,0,0,0-.88.2,1.76,1.76,0,0,0-.61.53,2.31,2.31,0,0,0-.35.78,3.86,3.86,0,0,0-.11,1H8.66A5.43,5.43,0,0,1,9,9.32Zm5.69,8.15V20.4h-3V17.47Z"/></g></g></svg>