<svg xmlns="http://www.w3.org/2000/svg" viewBox="0 0 70 70"><defs><style>.cls-1{fill:#0073cf;}.cls-2{fill:#fff;}</style></defs><title>quote@2x</title><g id="Layer_2" data-name="Layer 2"><g id="Design"><circle class="cls-1" cx="35" cy="35" r="35"/><path class="cls-2" d="M21.87,39.85c0-5.11,3.29-11.18,10.14-15.51l1.39,2.34c-3.64,2.51-6.5,5.89-7.54,9.19h1.3c3.12,0,5.11,1.65,5.11,4.33,0,3.38-2.34,5.46-5,5.46C24.21,45.66,21.87,43.58,21.87,39.85Zm14.73,0c0-5.11,3.29-11.18,10.14-15.51l1.39,2.34c-3.64,2.51-6.5,5.89-7.54,9.19h1.3C45,35.87,47,37.51,47,40.2c0,3.38-2.34,5.46-5,5.46C38.94,45.66,36.6,43.58,36.6,39.85Z"/></g></g></svg>