<svg xmlns="http://www.w3.org/2000/svg" viewBox="0 0 542.07 471.8"><defs><style>.cls-1{fill:#fff;}</style></defs><title>hero-graphic</title><g id="Layer_2" data-name="Layer 2"><g id="design"><path class="cls-1" d="M270,341.52a1,1,0,0,1-1-1h0a1,1,0,0,1,1-1h0a1,1,0,0,1,1,1h0a1,1,0,0,1-1,1Zm4-1a1,1,0,0,1,1-1h0a1,1,0,0,1,1,1h0a1,1,0,0,1-1,1h0A1,1,0,0,1,274,340.48Zm-9.06.83a1,1,0,0,1-.93-1.06h0a1,1,0,0,1,1.06-.93h0a1,1,0,0,1,.93,1.07h0a1,1,0,0,1-1,.93H265Zm14-1.15a1,1,0,0,1,.89-1.1h0a1,1,0,0,1,1.1.89h0a1,1,0,0,1-.89,1.1H280A1,1,0,0,1,279,340.16Zm-19.08.66a1,1,0,0,1-.86-1.12h0a1,1,0,0,1,1.12-.87h0a1,1,0,0,1,.86,1.12h0a1,1,0,0,1-1,.88h-.13Zm24-1.27a1,1,0,0,1,.83-1.15h0a1,1,0,0,1,1.15.83h0a1,1,0,0,1-.83,1.15H285A1,1,0,0,1,284,339.55ZM255,340a1,1,0,0,1-.8-1.17h0a1,1,0,0,1,1.17-.8h0a1,1,0,0,1,.8,1.17h0a1,1,0,0,1-1,.81H255Zm34-1.37a1,1,0,0,1,.76-1.2h0a1,1,0,0,1,1.2.76h0a1,1,0,0,1-.75,1.19h0a.9.9,0,0,1-.23,0h0A1,1,0,0,1,288.9,338.66Zm-38.89.28a1,1,0,0,1-.73-1.21h0a1,1,0,0,1,1.22-.73h0a1,1,0,0,1,.72,1.22h0a1,1,0,0,1-1,.75h0Zm43.75-1.47a1,1,0,0,1,.68-1.24h0a1,1,0,0,1,1.24.68h0a1,1,0,0,1-.69,1.24h0a.84.84,0,0,1-.27,0h0A1,1,0,0,1,293.76,337.47Zm-48.62.1a1,1,0,0,1-.65-1.25h0a1,1,0,0,1,1.25-.66h0a1,1,0,0,1,.66,1.26h0a1,1,0,0,1-1,.7h0A1.11,1.11,0,0,1,245.14,337.57ZM298.53,336a1,1,0,0,1,.61-1.28h0a1,1,0,0,1,1.28.61h0a1,1,0,0,1-.61,1.28h0a1,1,0,0,1-.33.06h0A1,1,0,0,1,298.53,336Zm-58.17-.09a1,1,0,0,1-.58-1.29h0a1,1,0,0,1,1.29-.58h0a1,1,0,0,1,.58,1.29h0a1,1,0,0,1-.94.65h0A1.15,1.15,0,0,1,240.36,335.91Zm62.84-1.66a1,1,0,0,1,.54-1.31h0a1,1,0,0,1,1.31.54h0a1,1,0,0,1-.53,1.31h0a1,1,0,0,1-.38.08h0A1,1,0,0,1,303.2,334.25ZM235.68,334a1,1,0,0,1-.5-1.32h0a1,1,0,0,1,1.32-.5h0a1,1,0,0,1,.5,1.32h0a1,1,0,0,1-.91.59h0A1,1,0,0,1,235.68,334Zm72.09-1.73a1,1,0,0,1,.45-1.34h0a1,1,0,0,1,1.34.45h0a1,1,0,0,1-.45,1.34h0a1,1,0,0,1-.44.1h0A1,1,0,0,1,307.77,332.24Zm-76.65-.48a1,1,0,0,1-.42-1.35h0A1,1,0,0,1,232,330h0a1,1,0,0,1,.42,1.34h0a1,1,0,0,1-.88.54h0A1.12,1.12,0,0,1,231.12,331.76ZM312.21,330a1,1,0,0,1,.37-1.36h0A1,1,0,0,1,314,329h0a1,1,0,0,1-.38,1.37h0a1,1,0,0,1-.49.13h0A1,1,0,0,1,312.21,330Zm-85.5-.67h0a1,1,0,0,1-.34-1.37h0a1,1,0,0,1,1.37-.34h0a1,1,0,0,1,.34,1.37h0a1,1,0,0,1-.86.48h0A1,1,0,0,1,226.71,329.28Zm89.79-1.87a1,1,0,0,1,.3-1.38h0a1,1,0,0,1,1.38.29h0a1,1,0,0,1-.29,1.38h0a1,1,0,0,1-.54.17h0A1,1,0,0,1,316.5,327.41Zm-94-.86a1,1,0,0,1-.26-1.39h0a1,1,0,0,1,1.39-.26h0a1,1,0,0,1,.26,1.39h0a1,1,0,0,1-.83.44h0A1,1,0,0,1,222.45,326.55Zm98.2-1.93a1,1,0,0,1,.21-1.4h0a1,1,0,0,1,1.4.22h0a1,1,0,0,1-.21,1.39h0a1,1,0,0,1-.59.2h0A1,1,0,0,1,320.65,324.62Zm-102.29-1a1,1,0,0,1-.18-1.41h0a1,1,0,0,1,1.4-.18h0a1,1,0,0,1,.18,1.41h0a1,1,0,0,1-.79.39h0A1,1,0,0,1,218.36,323.58Zm106.27-2a1,1,0,0,1,.13-1.41h0a1,1,0,0,1,1.4.14h0a1,1,0,0,1-.13,1.41h0a1,1,0,0,1-.63.22h0A1,1,0,0,1,324.63,321.59Zm-110.19-1.22a1,1,0,0,1-.09-1.41h0a1,1,0,0,1,1.41-.1h0a1,1,0,0,1,.09,1.41h0a1,1,0,0,1-.75.35h0A1,1,0,0,1,214.44,320.37Zm114-2a1,1,0,0,1,0-1.42h0a1,1,0,0,1,1.41,0h0a1,1,0,0,1,0,1.42h0a1,1,0,0,1-.68.27h0A1,1,0,0,1,328.42,318.34Zm-117.69-1.4a1,1,0,0,1,0-1.41h0a1,1,0,0,1,1.41,0h0a1,1,0,0,1,0,1.42h0a1,1,0,0,1-.72.3h0A1,1,0,0,1,210.73,316.94ZM332,314.87a1,1,0,0,1,0-1.42h0a1,1,0,0,1,1.42,0h0a1,1,0,0,1,0,1.42h0a1,1,0,0,1-.73.3h0A1,1,0,0,1,332,314.87Zm-124.8-1.57a1,1,0,0,1,.07-1.41h0a1,1,0,0,1,1.41.07h0a1,1,0,0,1-.06,1.41h0a1,1,0,0,1-.68.26h0A1,1,0,0,1,207.21,313.3Zm128.19-2.11a1,1,0,0,1-.11-1.41h0a1,1,0,0,1,1.41-.11h0a1,1,0,0,1,.11,1.41h0a1,1,0,0,1-.76.35h0A1,1,0,0,1,335.4,311.19Zm-131.48-1.72a1,1,0,0,1,.15-1.41h0a1,1,0,0,1,1.41.15h0a1,1,0,0,1-.15,1.41h0a1,1,0,0,1-.63.22h0A1,1,0,0,1,203.92,309.47Zm134.65-2.14a1,1,0,0,1-.19-1.4h0a1,1,0,0,1,1.4-.2h0a1,1,0,0,1,.2,1.4h0a1,1,0,0,1-.81.4h0A1,1,0,0,1,338.57,307.33Zm-137.71-1.88a1,1,0,0,1,.23-1.4h0a1,1,0,0,1,1.4.23h0a1,1,0,0,1-.23,1.4h0a1.05,1.05,0,0,1-.59.18h0A1,1,0,0,1,200.86,305.45Zm140.65-2.17a1,1,0,0,1-.27-1.39h0a1,1,0,0,1,1.38-.28h0a1,1,0,0,1,.28,1.39h0a1,1,0,0,1-.83.45h0A1,1,0,0,1,341.51,303.28Zm-143.47-2a1,1,0,0,1,.31-1.37h0a1,1,0,0,1,1.38.31h0a1,1,0,0,1-.31,1.38h0a1,1,0,0,1-.54.15h0A1,1,0,0,1,198,301.25Zm146.17-2.18a1,1,0,0,1-.36-1.37h0a1,1,0,0,1,1.37-.36h0a1,1,0,0,1,.36,1.37h0a1,1,0,0,1-.86.49h0A1,1,0,0,1,344.21,299.07Zm-148.74-2.16h0a1,1,0,0,1,.39-1.36h0a1,1,0,0,1,1.36.39h0a1,1,0,0,1-.39,1.36h0a1.07,1.07,0,0,1-.49.12h0A1,1,0,0,1,195.47,296.91Zm151.19-2.21a1,1,0,0,1-.44-1.34h0a1,1,0,0,1,1.34-.44h0a1,1,0,0,1,.45,1.34h0a1,1,0,0,1-.9.55h0A.91.91,0,0,1,346.66,294.7Zm-153.5-2.28a1,1,0,0,1,.47-1.34h0a1,1,0,0,1,1.33.48h0a1,1,0,0,1-.47,1.33h0a1.12,1.12,0,0,1-.43.1h0A1,1,0,0,1,193.16,292.42Zm155.69-2.22a1,1,0,0,1-.52-1.31h0a1,1,0,0,1,1.32-.52h0a1,1,0,0,1,.51,1.31h0a1,1,0,0,1-.91.6h0A.93.93,0,0,1,348.85,290.2Zm-157.74-2.4a1,1,0,0,1,.55-1.3h0a1,1,0,0,1,1.3.54h0a1,1,0,0,1-.55,1.31h0a1,1,0,0,1-.38.07h0A1,1,0,0,1,191.11,287.8Zm159.66-2.22a1,1,0,0,1-.6-1.29h0a1,1,0,0,1,1.28-.59h0A1,1,0,0,1,352,285h0a1,1,0,0,1-.94.66h0A1,1,0,0,1,350.77,285.58Zm-161.43-2.52a1,1,0,0,1,.63-1.27h0a1,1,0,0,1,1.27.63h0a1,1,0,0,1-.63,1.27h0a1.13,1.13,0,0,1-.32,0h0A1,1,0,0,1,189.34,283.06Zm163.07-2.22a1,1,0,0,1-.67-1.24h0a1,1,0,0,1,1.24-.67h0a1,1,0,0,1,.67,1.25h0a1,1,0,0,1-1,.71h0A.92.92,0,0,1,352.41,280.84Zm-164.55-2.61h0a1,1,0,0,1,.69-1.23h0a1,1,0,0,1,1.23.7h0a1,1,0,0,1-.7,1.23h0a1.24,1.24,0,0,1-.27,0h0A1,1,0,0,1,187.86,278.23ZM353.76,276a1,1,0,0,1-.74-1.21h0a1,1,0,0,1,1.21-.74h0a1,1,0,0,1,.74,1.2h0a1,1,0,0,1-1,.77h0Zm-167.1-2.72a1,1,0,0,1,.77-1.19h0a1,1,0,0,1,1.18.77h0a1,1,0,0,1-.77,1.19h0l-.21,0h0A1,1,0,0,1,186.66,273.32Zm168.18-2.17A1,1,0,0,1,354,270h0a1,1,0,0,1,1.16-.81h0a1,1,0,0,1,.81,1.16h0a1,1,0,0,1-1,.83h0Zm-169.09-2.81a1,1,0,0,1,.84-1.13h0a1,1,0,0,1,1.14.83h0a1,1,0,0,1-.84,1.14h-.15A1,1,0,0,1,185.75,268.34Zm169.87-2.12a1,1,0,0,1-.88-1.11h0a1,1,0,0,1,1.11-.88h0a1,1,0,0,1,.88,1.11h0a1,1,0,0,1-1,.88h-.11Zm-170.48-2.89a1,1,0,0,1,.9-1.09h0a1,1,0,0,1,1.09.9h0a1,1,0,0,1-.91,1.09h-.09A1,1,0,0,1,185.14,263.33Zm171-2.09a1,1,0,0,1-.94-1h0a1,1,0,0,1,1-.94h0a1,1,0,0,1,.94,1.05h0a1,1,0,0,1-1,.95h0Zm-171.3-3a1,1,0,0,1,1-1h0a1,1,0,0,1,1,1h0a1,1,0,0,1-1,1h0A1,1,0,0,1,184.81,258.28Zm170.5-3a1,1,0,0,1,.13-.49h0a1.2,1.2,0,0,1-.14-.5h0a1,1,0,0,1,1-1h0a1,1,0,0,1,1,1h0a.91.91,0,0,1-.13.51h0a.94.94,0,0,1,.14.5h0a1,1,0,0,1-1,1h0A1,1,0,0,1,355.31,255.25Zm-169.55-1a1,1,0,0,1-1-1h0a1,1,0,0,1,1-1h0a1,1,0,0,1,1,1h0a1,1,0,0,1-1,1h0Zm169.34-4.92a1,1,0,0,1,.93-1.07h0a1,1,0,0,1,1.07.93h0a1,1,0,0,1-.93,1.06h-.07A1,1,0,0,1,355.1,249.33ZM186,249.25a1,1,0,0,1-.91-1.07h0a1,1,0,0,1,1.07-.92h0a1,1,0,0,1,.92,1.08h0a1,1,0,0,1-1,.92H186Zm168.66-4.84a1,1,0,0,1,.86-1.12h0a1,1,0,0,1,1.12.87h0a1,1,0,0,1-.86,1.12h-.13A1,1,0,0,1,354.62,244.41Zm-168.17-.13a1,1,0,0,1-.85-1.13h0a1,1,0,0,1,1.13-.85h0a1,1,0,0,1,.85,1.13h0a1,1,0,0,1-1,.86h-.15Zm167.4-4.75h0a1,1,0,0,1,.79-1.17h0a1,1,0,0,1,1.17.8h0a1,1,0,0,1-.79,1.17h0l-.19,0h0A1,1,0,0,1,353.85,239.53Zm-166.61-.18a1,1,0,0,1-.79-1.18h0a1,1,0,0,1,1.18-.79h0a1,1,0,0,1,.78,1.18h0a1,1,0,0,1-1,.8h-.19Zm165.55-4.64a1,1,0,0,1,.72-1.22h0a1,1,0,0,1,1.22.73h0a1,1,0,0,1-.73,1.21h0a.68.68,0,0,1-.24,0h0A1,1,0,0,1,352.79,234.71Zm-164.48-.25a1,1,0,0,1-.71-1.22h0a1,1,0,0,1,1.22-.71h0a1,1,0,0,1,.71,1.22h0a1,1,0,0,1-1,.75h0A.73.73,0,0,1,188.31,234.46ZM351.45,230a1,1,0,0,1,.65-1.26h0a1,1,0,0,1,1.25.66h0a1,1,0,0,1-.65,1.25h0a1.05,1.05,0,0,1-.3.05h0A1,1,0,0,1,351.45,230Zm-161.79-.31a1,1,0,0,1-.64-1.26h0a1,1,0,0,1,1.27-.64h0a1,1,0,0,1,.64,1.26h0a1,1,0,0,1-1,.69h0A.87.87,0,0,1,189.66,229.65Zm160.17-4.36a1,1,0,0,1,.58-1.29h0a1,1,0,0,1,1.29.58h0a1,1,0,0,1-.58,1.29h0a1.13,1.13,0,0,1-.36.06h0A1,1,0,0,1,349.83,225.29Zm-158.52-.37a1,1,0,0,1-.57-1.3h0a1,1,0,0,1,1.3-.56h0a1,1,0,0,1,.56,1.3h0a1,1,0,0,1-.93.63h0A.92.92,0,0,1,191.31,224.92Zm156.63-4.18a1,1,0,0,1,.5-1.33h0a1,1,0,0,1,1.32.51h0a1,1,0,0,1-.5,1.32h0a1,1,0,0,1-.41.09h0A1,1,0,0,1,347.94,220.74Zm-154.72-.44a1,1,0,0,1-.48-1.33h0a1,1,0,0,1,1.33-.49h0a1,1,0,0,1,.48,1.33h0a1,1,0,0,1-.91.58h0A1.06,1.06,0,0,1,193.22,220.3Zm152.57-4h0a1,1,0,0,1,.42-1.35h0a1,1,0,0,1,1.35.42h0a1,1,0,0,1-.42,1.35h0a1,1,0,0,1-.46.12h0A1,1,0,0,1,345.79,216.3Zm-150.38-.5a1,1,0,0,1-.41-1.36h0a1,1,0,0,1,1.36-.4h0a1,1,0,0,1,.4,1.35h0a1,1,0,0,1-.88.53h0A1,1,0,0,1,195.41,215.8Zm148-3.81h0a1,1,0,0,1,.34-1.37h0a1,1,0,0,1,1.37.35h0a1,1,0,0,1-.34,1.37h0a1.06,1.06,0,0,1-.51.14h0A1,1,0,0,1,343.38,212Zm-145.52-.56a1,1,0,0,1-.33-1.37h0a1,1,0,0,1,1.38-.33h0a1,1,0,0,1,.33,1.38h0a1,1,0,0,1-.85.47h0A1,1,0,0,1,197.86,211.43Zm142.86-3.59a1,1,0,0,1,.26-1.39h0a1,1,0,0,1,1.39.26h0a1,1,0,0,1-.26,1.39h0a1,1,0,0,1-.57.17h0A1,1,0,0,1,340.72,207.84Zm-140.16-.62a1,1,0,0,1-.25-1.39h0a1,1,0,0,1,1.39-.25h0A1,1,0,0,1,202,207h0a1,1,0,0,1-.82.43h0A1,1,0,0,1,200.56,207.22Zm137.26-3.38a1,1,0,0,1,.18-1.4h0a1,1,0,0,1,1.4.18h0a1,1,0,0,1-.18,1.4h0a1,1,0,0,1-.61.21h0A1,1,0,0,1,337.82,203.84Zm-134.32-.67a1,1,0,0,1-.17-1.4h0a1,1,0,0,1,1.41-.16h0a1,1,0,0,1,.16,1.4h0a1,1,0,0,1-.78.38h0A1,1,0,0,1,203.5,203.17ZM334.69,200a1,1,0,0,1,.1-1.41h0a1,1,0,0,1,1.41.1h0a1,1,0,0,1-.1,1.41h0a1,1,0,0,1-.66.24h0A1,1,0,0,1,334.69,200Zm-128-.71a1,1,0,0,1-.09-1.41h0a1,1,0,0,1,1.42-.08h0a1,1,0,0,1,.08,1.41h0a1,1,0,0,1-.75.33h0A1,1,0,0,1,206.67,199.31Zm124.68-2.92a1,1,0,0,1,0-1.42h0a1,1,0,0,1,1.42,0h0a1,1,0,0,1,0,1.41h0a1,1,0,0,1-.7.29h0A1,1,0,0,1,331.35,196.39ZM210,195.63a1,1,0,0,1,0-1.41h0a1,1,0,0,1,1.41,0h0a1,1,0,0,1,0,1.41h0a1,1,0,0,1-.71.3h0A1,1,0,0,1,210,195.63ZM327.79,193a1,1,0,0,1-.06-1.41h0a1,1,0,0,1,1.41-.07h0a1,1,0,0,1,.06,1.42h0a1,1,0,0,1-.74.32h0A1,1,0,0,1,327.79,193Zm-114.14-.79a1,1,0,0,1,.08-1.41h0a1,1,0,0,1,1.42.08h0a1,1,0,0,1-.09,1.42h0a1,1,0,0,1-.66.25h0A1,1,0,0,1,213.65,192.16ZM324,189.73a1,1,0,0,1-.15-1.41h0a1,1,0,0,1,1.4-.14h0a1,1,0,0,1,.15,1.41h0a1,1,0,0,1-.78.37h0A1,1,0,0,1,324,189.73Zm-106.61-.82a1,1,0,0,1,.17-1.41h0a1,1,0,0,1,1.4.17h0a1,1,0,0,1-.16,1.4h0a1,1,0,0,1-.62.22h0A1,1,0,0,1,217.44,188.91Zm102.68-2.18a1,1,0,0,1-.23-1.39h0a1,1,0,0,1,1.39-.23h0a1,1,0,0,1,.23,1.4h0a1,1,0,0,1-.81.41h0A1,1,0,0,1,320.12,186.73Zm-98.7-.85a1,1,0,0,1,.25-1.39h0a1,1,0,0,1,1.39.25h0a1,1,0,0,1-.25,1.39h0a1,1,0,0,1-.57.18h0A1,1,0,0,1,221.42,185.88ZM316,184a1,1,0,0,1-.31-1.38h0a1,1,0,0,1,1.38-.31h0a1,1,0,0,1,.31,1.38h0a1,1,0,0,1-.85.47h0A.94.94,0,0,1,316,184Zm-90.46-.88a1,1,0,0,1,.33-1.37h0a1,1,0,0,1,1.38.32h0a1,1,0,0,1-.33,1.38h0a1,1,0,0,1-.53.15h0A1,1,0,0,1,225.56,183.09Zm86.2-1.64a1,1,0,0,1-.39-1.36h0a1,1,0,0,1,1.36-.39h0a1,1,0,0,1,.39,1.36h0a1,1,0,0,1-.88.52h0A1,1,0,0,1,311.76,181.45Zm-81.9-.9a1,1,0,0,1,.41-1.35h0a1,1,0,0,1,1.35.41h0a1,1,0,0,1-.41,1.35h0a1,1,0,0,1-.47.12h0A1,1,0,0,1,229.86,180.55Zm77.51-1.36a1,1,0,0,1-.47-1.34h0a1,1,0,0,1,1.33-.47h0a1,1,0,0,1,.47,1.34h0a1,1,0,0,1-.9.57h0A1.08,1.08,0,0,1,307.37,179.19Zm-73.07-.92a1,1,0,0,1,.48-1.33h0a1,1,0,0,1,1.32.49h0a1,1,0,0,1-.49,1.32h0a.92.92,0,0,1-.42.1h0A1,1,0,0,1,234.3,178.27Zm68.55-1.09a1,1,0,0,1-.55-1.3h0a1,1,0,0,1,1.3-.55h0a1,1,0,0,1,.55,1.31h0a1,1,0,0,1-.93.62h0A.83.83,0,0,1,302.85,177.18Zm-64-.93a1,1,0,0,1,.57-1.3h0a1,1,0,0,1,1.29.56h0a1,1,0,0,1-.56,1.3h0a1,1,0,0,1-.37.07h0A1,1,0,0,1,238.86,176.25Zm59.35-.8a1,1,0,0,1-.63-1.27h0a1,1,0,0,1,1.27-.62h0a1,1,0,0,1,.63,1.27h0a1,1,0,0,1-1,.68h0A1,1,0,0,1,298.21,175.45Zm-54.67-1a1,1,0,0,1,.64-1.26h0a1,1,0,0,1,1.26.64h0a1,1,0,0,1-.64,1.26h0a1.06,1.06,0,0,1-.31,0h0A1,1,0,0,1,243.54,174.5Zm50-.5a1,1,0,0,1-.7-1.23h0a1,1,0,0,1,1.23-.7h0a1,1,0,0,1,.7,1.23h0a1,1,0,0,1-1,.74h0A1.25,1.25,0,0,1,293.49,174Zm-45.17-1a1,1,0,0,1,.71-1.22h0a1,1,0,0,1,1.22.71h0a1,1,0,0,1-.71,1.22h0a1.07,1.07,0,0,1-.25,0h0A1,1,0,0,1,248.32,173Zm40.37-.2h0a1,1,0,0,1-.77-1.19h0a1,1,0,0,1,1.19-.77h0a1,1,0,0,1,.77,1.19h0a1,1,0,0,1-1,.79h0Zm-35.52-1a1,1,0,0,1,.79-1.17h0a1,1,0,0,1,1.18.78h0a1,1,0,0,1-.79,1.18h0l-.2,0h0A1,1,0,0,1,253.17,171.84Zm30.66.1a1,1,0,0,1-.83-1.14h0a1,1,0,0,1,1.13-.84h0a1,1,0,0,1,.84,1.14h0a1,1,0,0,1-1,.85h-.16Zm-25.74-1a1,1,0,0,1,.85-1.13h0a1,1,0,0,1,1.13.85h0a1,1,0,0,1-.85,1.13h-.14A1,1,0,0,1,258.09,171Zm20.84.39a1,1,0,0,1-.9-1.09h0a1,1,0,0,1,1.09-.9h0a1,1,0,0,1,.9,1.09h0a1,1,0,0,1-1,.9h-.1Zm-15.88-1a1,1,0,0,1,.92-1.08h0a1,1,0,0,1,1.07.92h0a1,1,0,0,1-.91,1.07H264A1,1,0,0,1,263,170.34Zm11,.69a1,1,0,0,1-1-1h0a1,1,0,0,1,1-1h0a1,1,0,0,1,1,1h0a1,1,0,0,1-1,1h0Zm-6-1a1,1,0,0,1,1-1h0a1,1,0,0,1,1,1h0a1,1,0,0,1-1,1h0A1,1,0,0,1,268,170Z"/><path class="cls-1" d="M273.6,471.8a1,1,0,0,1-1-1h0a1,1,0,0,1,1-1h0a1,1,0,0,1,1,1h0a1,1,0,0,1-1,1Zm-5,0a1,1,0,0,1-1-1h0a1,1,0,0,1,1-1h0a1,1,0,0,1,1,1h0a1,1,0,0,1-1,1h0Zm-5-.05a1,1,0,0,1-1-1h0a1,1,0,0,1,1-1h0a1,1,0,0,1,1,1h0a1,1,0,0,1-1,1h0Zm14-1a1,1,0,0,1,1-1h0a1,1,0,0,1,1,1h0a1,1,0,0,1-1,1h0A1,1,0,0,1,277.59,470.76Zm-19,.88h0a1,1,0,0,1-1-1h0a1,1,0,0,1,1-1h0a1,1,0,0,1,1,1h0a1,1,0,0,1-1,1h0Zm24-1a1,1,0,0,1,1-1h0a1,1,0,0,1,1,1h0a1,1,0,0,1-1,1h0A1,1,0,0,1,282.59,470.66Zm-29,.82a1,1,0,0,1-1-1h0a1,1,0,0,1,1-1h0a1,1,0,0,1,1,1h0a1,1,0,0,1-1,1h0Zm34-1a1,1,0,0,1,1-1h0a1,1,0,0,1,1,1h0a1,1,0,0,1-1,1h0A1,1,0,0,1,287.59,470.51Zm-39,.75a1,1,0,0,1-1-1h0a1,1,0,0,1,1-.95h0a1,1,0,0,1,1,1h0a1,1,0,0,1-1,.95h0Zm44-.95a1,1,0,0,1,1-1.05h0a1,1,0,0,1,1,.95h0a1,1,0,0,1-1,1.05h0A1,1,0,0,1,292.59,470.31Zm-49,.69a1,1,0,0,1-.93-1.06h0a1,1,0,0,1,1-.94h0a1,1,0,0,1,.94,1.06h0a1,1,0,0,1-1,.94h-.06Zm54-.95a1,1,0,0,1,.94-1.06h0a1,1,0,0,1,1.06.94h0a1,1,0,0,1-.94,1.06h-.07A1,1,0,0,1,297.58,470.05Zm-59,.62a1,1,0,0,1-.92-1.07h0a1,1,0,0,1,1.06-.92h0a1,1,0,0,1,.93,1.06h0a1,1,0,0,1-1,.93h-.07Zm64-.93a1,1,0,0,1,.93-1.07h0a1,1,0,0,1,1.06.92h0a1,1,0,0,1-.92,1.07h-.07A1,1,0,0,1,302.57,469.74Zm-69,.55a1,1,0,0,1-.92-1.08h0a1,1,0,0,1,1.08-.91h0a1,1,0,0,1,.91,1.08h0a1,1,0,0,1-1,.92h-.08Zm74-.92a1,1,0,0,1,.91-1.08h0a1,1,0,0,1,1.08.91h0a1,1,0,0,1-.92,1.08h-.08A1,1,0,0,1,307.56,469.37Zm-79,.49a1,1,0,0,1-.9-1.09h0a1,1,0,0,1,1.09-.9h0a1,1,0,0,1,.9,1.08h0a1,1,0,0,1-1,.91h-.1Zm84-.92a1,1,0,0,1,.9-1.09h0a1,1,0,0,1,1.09.91h0a1,1,0,0,1-.9,1.09h-.1A1,1,0,0,1,312.54,468.94Zm-89,.43a1,1,0,0,1-.9-1.1h0a1,1,0,0,1,1.1-.89h0a1,1,0,0,1,.89,1.1h0a1,1,0,0,1-1,.89h-.1Zm93.93-.91a1,1,0,0,1,.9-1.09h0a1,1,0,0,1,1.1.89h0a1,1,0,0,1-.9,1.09h-.1A1,1,0,0,1,317.51,468.46Zm-98.92.36a1,1,0,0,1-.87-1.11h0a1,1,0,0,1,1.1-.88h0a1,1,0,0,1,.88,1.11h0a1,1,0,0,1-1,.89h-.12Zm103.9-.89a1,1,0,0,1,.87-1.11h0a1,1,0,0,1,1.1.88h0a1,1,0,0,1-.87,1.11h-.12A1,1,0,0,1,322.49,467.93Zm-108.87.29a1,1,0,0,1-.87-1.12h0a1,1,0,0,1,1.12-.87h0a1,1,0,0,1,.87,1.12h0a1,1,0,0,1-1,.88h-.13Zm113.83-.88a1,1,0,0,1,.87-1.12h0a1,1,0,0,1,1.12.86h0a1,1,0,0,1-.87,1.12h-.13A1,1,0,0,1,327.45,467.34Zm-118.8.22a1,1,0,0,1-.85-1.13h0a1,1,0,0,1,1.13-.85h0a1,1,0,0,1,.85,1.12h0a1,1,0,0,1-1,.87h-.14Zm123.76-.87a1,1,0,0,1,.85-1.13h0a1,1,0,0,1,1.13.85h0a1,1,0,0,1-.85,1.13h-.14A1,1,0,0,1,332.41,466.69Zm-128.72.15a1,1,0,0,1-.84-1.14h0a1,1,0,0,1,1.14-.84h0a1,1,0,0,1,.84,1.14h0a1,1,0,0,1-1,.85h-.15ZM337.36,466a1,1,0,0,1,.84-1.13h0a1,1,0,0,1,1.14.83h0a1,1,0,0,1-.84,1.14h-.15A1,1,0,0,1,337.36,466Zm-138.62.08a1,1,0,0,1-.83-1.14h0a1,1,0,0,1,1.15-.83h0a1,1,0,0,1,.82,1.15h0a1,1,0,0,1-1,.84h0Zm143.56-.84a1,1,0,0,1,.83-1.15h0a1,1,0,0,1,1.15.83h0a1,1,0,0,1-.83,1.15h-.16A1,1,0,0,1,342.3,465.22Zm-148.51,0a1,1,0,0,1-.81-1.16h0a1,1,0,0,1,1.16-.81h0a1,1,0,0,1,.81,1.16h0a1,1,0,0,1-1,.83h0Zm153.44-.83a1,1,0,0,1,.82-1.16h0a1,1,0,0,1,1.15.82h0a1,1,0,0,1-.81,1.15h0l-.17,0h0A1,1,0,0,1,347.23,464.4Zm-158.37-.06h0a1,1,0,0,1-.8-1.17h0a1,1,0,0,1,1.17-.8h0a1,1,0,0,1,.8,1.17h0a1,1,0,0,1-1,.82h0Zm163.3-.82a1,1,0,0,1,.8-1.17h0a1,1,0,0,1,1.16.8h0a1,1,0,0,1-.8,1.17h0l-.18,0h0A1,1,0,0,1,352.16,463.52Zm-168.22-.13a1,1,0,0,1-.78-1.18h0a1,1,0,0,1,1.17-.78h0a1,1,0,0,1,.79,1.17h0a1,1,0,0,1-1,.81h0Zm173.13-.81a1,1,0,0,1,.78-1.18h0a1,1,0,0,1,1.18.79h0a1,1,0,0,1-.78,1.18H358A1,1,0,0,1,357.07,462.58Zm-178-.2h0a1,1,0,0,1-.77-1.19h0a1,1,0,0,1,1.19-.77h0a1,1,0,0,1,.77,1.19h0a1,1,0,0,1-1,.79h0Zm182.94-.8a1,1,0,0,1,.77-1.18h0a1,1,0,0,1,1.18.77h0a1,1,0,0,1-.76,1.18h0a.75.75,0,0,1-.21,0h0A1,1,0,0,1,362,461.58Zm-187.83-.28a1,1,0,0,1-.76-1.19h0a1,1,0,0,1,1.19-.76h0a1,1,0,0,1,.76,1.2h0a1,1,0,0,1-1,.78h0A.78.78,0,0,1,174.14,461.3Zm192.72-.78a1,1,0,0,1,.75-1.19h0a1,1,0,0,1,1.2.75h0a1,1,0,0,1-.76,1.2h0a.81.81,0,0,1-.22,0h0A1,1,0,0,1,366.86,460.52Zm-197.61-.35a1,1,0,0,1-.74-1.2h0a1,1,0,0,1,1.21-.74h0a1,1,0,0,1,.74,1.2h0a1,1,0,0,1-1,.77h0Zm202.48-.76a1,1,0,0,1,.74-1.21h0a1,1,0,0,1,1.2.74h0a1,1,0,0,1-.74,1.2h0a.84.84,0,0,1-.23,0h0A1,1,0,0,1,371.73,459.41ZM164.38,459a1,1,0,0,1-.72-1.22h0a1,1,0,0,1,1.21-.72h0a1,1,0,0,1,.73,1.21h0a1,1,0,0,1-1,.76h0Zm212.21-.76a1,1,0,0,1,.72-1.21h0a1,1,0,0,1,1.22.72h0a1,1,0,0,1-.73,1.22h0a1,1,0,0,1-.24,0h0A1,1,0,0,1,376.59,458.22Zm-217.06-.5a1,1,0,0,1-.71-1.22h0a1,1,0,0,1,1.22-.71h0a1,1,0,0,1,.71,1.22h0a1,1,0,0,1-1,.74h0A1.16,1.16,0,0,1,159.53,457.72Zm221.9-.74a1,1,0,0,1,.71-1.22h0a1,1,0,0,1,1.22.71h0a1,1,0,0,1-.7,1.22h0l-.26,0h0A1,1,0,0,1,381.43,457Zm-226.74-.58a1,1,0,0,1-.69-1.23h0a1,1,0,0,1,1.23-.7h0a1,1,0,0,1,.7,1.24h0a1,1,0,0,1-1,.73h0A1.35,1.35,0,0,1,154.69,456.4Zm231.57-.72a1,1,0,0,1,.69-1.24h0a1,1,0,0,1,1.23.69h0a1,1,0,0,1-.69,1.24h0a1.26,1.26,0,0,1-.27,0h0A1,1,0,0,1,386.26,455.68ZM149.87,455a1,1,0,0,1-.67-1.24h0a1,1,0,0,1,1.24-.68h0a1,1,0,0,1,.68,1.25h0a1,1,0,0,1-1,.71h0A1,1,0,0,1,149.87,455Zm241.2-.7a1,1,0,0,1,.67-1.25h0a1,1,0,0,1,1.25.68h0a1,1,0,0,1-.68,1.24h0a.94.94,0,0,1-.28,0h0A1,1,0,0,1,391.07,454.31Zm-246-.75a1,1,0,0,1-.67-1.25h0a1,1,0,0,1,1.26-.66h0a1,1,0,0,1,.66,1.25h0a1,1,0,0,1-1,.71h0A.93.93,0,0,1,145.08,453.56Zm250.78-.69a1,1,0,0,1,.66-1.25h0a1,1,0,0,1,1.25.66h0a1,1,0,0,1-.66,1.25h0a1,1,0,0,1-.3,0h0A1,1,0,0,1,395.86,452.87Zm-255.57-.82a1,1,0,0,1-.64-1.26h0a1,1,0,0,1,1.26-.64h0a1,1,0,0,1,.65,1.26h0a1,1,0,0,1-1,.69h0A1.18,1.18,0,0,1,140.29,452.05Zm260.34-.68a1,1,0,0,1,.64-1.26h0a1,1,0,0,1,1.26.64h0a1,1,0,0,1-.64,1.26h0a1.17,1.17,0,0,1-.31.05h0A1,1,0,0,1,400.63,451.37Zm-265.09-.91a1,1,0,0,1-.63-1.26h0a1,1,0,0,1,1.27-.63h0a1,1,0,0,1,.63,1.27h0a1,1,0,0,1-1,.68h0A.87.87,0,0,1,135.54,450.46Zm269.83-.66a1,1,0,0,1,.63-1.27h0a1,1,0,0,1,1.27.63h0a1,1,0,0,1-.63,1.27h0a1.13,1.13,0,0,1-.32,0h0A1,1,0,0,1,405.37,449.8Zm-274.57-1a1,1,0,0,1-.6-1.27h0a1,1,0,0,1,1.27-.61h0a1,1,0,0,1,.61,1.28h0a1,1,0,0,1-.94.66h0A1,1,0,0,1,130.8,448.81Zm279.3-.64a1,1,0,0,1,.61-1.28h0a1,1,0,0,1,1.27.61h0a1,1,0,0,1-.6,1.28h0a1,1,0,0,1-.34,0h0A1,1,0,0,1,410.1,448.17Zm-284-1.07a1,1,0,0,1-.59-1.29h0a1,1,0,0,1,1.29-.59h0a1,1,0,0,1,.59,1.29h0a1,1,0,0,1-.94.65h0A1,1,0,0,1,126.09,447.1Zm288.71-.63a1,1,0,0,1,.59-1.29h0a1,1,0,0,1,1.29.59h0a1,1,0,0,1-.59,1.29h0a1.07,1.07,0,0,1-.35.06h0A1,1,0,0,1,414.8,446.47ZM121.41,445.3a1,1,0,0,1-.57-1.29h0a1,1,0,0,1,1.29-.57h0a1,1,0,0,1,.57,1.3h0a1,1,0,0,1-.93.63h0A.92.92,0,0,1,121.41,445.3Zm298.07-.6a1,1,0,0,1,.57-1.3h0a1,1,0,0,1,1.29.57h0a1,1,0,0,1-.57,1.29h0a.88.88,0,0,1-.36.07h0A1,1,0,0,1,419.48,444.7Zm-302.73-1.25a1,1,0,0,1-.55-1.31h0a1,1,0,0,1,1.3-.55h0a1,1,0,0,1,.55,1.31h0a1,1,0,0,1-.93.62h0A1,1,0,0,1,116.75,443.45Zm307.38-.6a1,1,0,0,1,.55-1.3h0a1,1,0,0,1,1.3.55h0a1,1,0,0,1-.55,1.3h0a1,1,0,0,1-.38.08h0A1,1,0,0,1,424.13,442.85Zm-312-1.34a1,1,0,0,1-.53-1.31h0a1,1,0,0,1,1.31-.53h0a1,1,0,0,1,.53,1.32h0a1,1,0,0,1-.92.6h0A.91.91,0,0,1,112.12,441.51Zm316.63-.57a1,1,0,0,1,.52-1.31h0a1,1,0,0,1,1.31.52h0a1,1,0,0,1-.52,1.32h0a1.08,1.08,0,0,1-.39.08h0A1,1,0,0,1,428.75,440.94Zm-321.23-1.43a1,1,0,0,1-.51-1.33h0a1,1,0,0,1,1.33-.5h0a1,1,0,0,1,.5,1.32h0a1,1,0,0,1-.91.59h0A1.15,1.15,0,0,1,107.52,439.51ZM433.34,439a1,1,0,0,1,.5-1.32h0a1,1,0,0,1,1.32.51h0a1,1,0,0,1-.5,1.32h0a1,1,0,0,1-.41.09h0A1,1,0,0,1,433.34,439ZM103,437.42a1,1,0,0,1-.49-1.32h0a1,1,0,0,1,1.33-.49h0a1,1,0,0,1,.48,1.33h0a1,1,0,0,1-.9.58h0A.9.9,0,0,1,103,437.42Zm334.93-.53a1,1,0,0,1,.48-1.33h0a1,1,0,0,1,1.33.49h0a1,1,0,0,1-.48,1.33h0a1.06,1.06,0,0,1-.42.09h0A1,1,0,0,1,437.89,436.89ZM98.43,435.27h0a1,1,0,0,1-.47-1.34h0a1,1,0,0,1,1.34-.46h0a1,1,0,0,1,.46,1.34h0a1,1,0,0,1-.9.56h0A1.12,1.12,0,0,1,98.43,435.27Zm344-.51a1,1,0,0,1,.46-1.34h0a1,1,0,0,1,1.34.46h0a1,1,0,0,1-.46,1.34h0a1.13,1.13,0,0,1-.44.1h0A1,1,0,0,1,442.41,434.76ZM93.94,433a1,1,0,0,1-.44-1.34h0a1,1,0,0,1,1.34-.44h0a1,1,0,0,1,.44,1.34h0a1,1,0,0,1-.89.55h0A.88.88,0,0,1,93.94,433Zm352.95-.49a1,1,0,0,1,.44-1.34h0a1,1,0,0,1,1.35.43h0a1,1,0,0,1-.44,1.35h0a1,1,0,0,1-.45.11h0A1,1,0,0,1,446.89,432.54ZM89.48,430.72a1,1,0,0,1-.41-1.36h0a1,1,0,0,1,1.35-.41h0a1,1,0,0,1,.42,1.35h0a1,1,0,0,1-.89.53h0A1,1,0,0,1,89.48,430.72Zm361.86-.47a1,1,0,0,1,.41-1.35h0a1,1,0,0,1,1.35.41h0a1,1,0,0,1-.41,1.35h0a1,1,0,0,1-.47.12h0A1,1,0,0,1,451.34,430.25ZM85.07,428.32a1,1,0,0,1-.39-1.36h0a1,1,0,0,1,1.36-.39h0a1,1,0,0,1,.39,1.36h0a1,1,0,0,1-.87.52h0A1.09,1.09,0,0,1,85.07,428.32Zm370.67-.45a1,1,0,0,1,.39-1.36h0a1,1,0,0,1,1.36.39h0a1,1,0,0,1-.39,1.36h0a.94.94,0,0,1-.49.13h0A1,1,0,0,1,455.74,427.87Zm-375-2a1,1,0,0,1-.36-1.37h0a1,1,0,0,1,1.36-.36h0a1,1,0,0,1,.37,1.37h0a1,1,0,0,1-.87.5h0A1,1,0,0,1,80.71,425.84Zm379.39-.42a1,1,0,0,1,.36-1.37h0a1,1,0,0,1,1.37.37h0a1,1,0,0,1-.37,1.36h0a1,1,0,0,1-.5.14h0A1,1,0,0,1,460.1,425.42ZM76.39,423.27a1,1,0,0,1-.33-1.37h0a1,1,0,0,1,1.37-.33h0a1,1,0,0,1,.34,1.37h0a1,1,0,0,1-.86.48h0A1,1,0,0,1,76.39,423.27Zm388-.39a1,1,0,0,1,.34-1.37h0a1,1,0,0,1,1.37.33h0a1,1,0,0,1-.33,1.38h0a1.1,1.1,0,0,1-.52.14h0A1,1,0,0,1,464.4,422.88ZM72.13,420.63h0a1,1,0,0,1-.31-1.37h0a1,1,0,0,1,1.38-.31h0a1,1,0,0,1,.31,1.38h0a1,1,0,0,1-.85.46h0A1,1,0,0,1,72.13,420.63Zm396.53-.37a1,1,0,0,1,.31-1.38h0a1,1,0,0,1,1.38.3h0a1,1,0,0,1-.31,1.38h0a1,1,0,0,1-.54.16h0A1,1,0,0,1,468.66,420.26ZM67.92,417.89a1,1,0,0,1-.28-1.39h0a1,1,0,0,1,1.39-.28h0a1,1,0,0,1,.28,1.39h0a1,1,0,0,1-.83.44h0A1,1,0,0,1,67.92,417.89Zm404.94-.35a1,1,0,0,1,.28-1.38h0a1,1,0,0,1,1.38.27h0a1,1,0,0,1-.27,1.39h0a1,1,0,0,1-.56.17h0A1,1,0,0,1,472.86,417.54ZM63.77,415.06a1,1,0,0,1-.24-1.4h0a1,1,0,0,1,1.39-.24h0a1,1,0,0,1,.24,1.39h0a1,1,0,0,1-.81.43h0A1,1,0,0,1,63.77,415.06ZM477,414.74a1,1,0,0,1,.25-1.39h0a1,1,0,0,1,1.39.25h0a1,1,0,0,1-.25,1.39h0a1,1,0,0,1-.57.18h0A1,1,0,0,1,477,414.74Zm-417.31-2.6a1,1,0,0,1-.22-1.4h0a1,1,0,0,1,1.4-.22h0a1,1,0,0,1,.22,1.4h0a1,1,0,0,1-.81.41h0A1,1,0,0,1,59.69,412.14Zm421.39-.29a1,1,0,0,1,.21-1.4h0a1,1,0,0,1,1.39.22h0a1,1,0,0,1-.21,1.4h0a1,1,0,0,1-.59.19h0A1,1,0,0,1,481.08,411.85ZM55.67,409.12a1,1,0,0,1-.18-1.4h0a1,1,0,0,1,1.4-.19h0a1,1,0,0,1,.18,1.41h0a1,1,0,0,1-.79.39h0A1,1,0,0,1,55.67,409.12Zm429.42-.25a1,1,0,0,1,.18-1.41h0a1,1,0,0,1,1.41.18h0a1,1,0,0,1-.19,1.41h0a1,1,0,0,1-.61.2h0A1,1,0,0,1,485.09,408.87ZM51.73,406a1,1,0,0,1-.15-1.4h0a1,1,0,0,1,1.41-.15h0a1,1,0,0,1,.15,1.41h0a1,1,0,0,1-.78.37h0A.94.94,0,0,1,51.73,406Zm437.3-.22a1,1,0,0,1,.15-1.4h0a1,1,0,0,1,1.4.15h0a1,1,0,0,1-.15,1.4h0a1,1,0,0,1-.63.22h0A1,1,0,0,1,489,405.78Zm-441.17-3h0a1,1,0,0,1-.11-1.41h0a1,1,0,0,1,1.41-.11h0a1,1,0,0,1,.11,1.41h0a1,1,0,0,1-.76.35h0A1,1,0,0,1,47.86,402.8Zm445-.19a1,1,0,0,1,.11-1.41h0a1,1,0,0,1,1.41.11h0a1,1,0,0,1-.11,1.41h0a1,1,0,0,1-.65.24h0A1,1,0,0,1,492.89,402.61ZM44.08,399.48a1,1,0,0,1-.07-1.41h0a1,1,0,0,1,1.41-.07h0a1,1,0,0,1,.08,1.41h0a1,1,0,0,1-.75.33h0A1,1,0,0,1,44.08,399.48Zm452.58-.15a1,1,0,0,1,.08-1.41h0a1,1,0,0,1,1.41.07h0a1,1,0,0,1-.07,1.41h0a1,1,0,0,1-.68.26h0A1,1,0,0,1,496.66,399.33ZM40.39,396.07a1,1,0,0,1,0-1.42h0a1,1,0,0,1,1.41,0h0a1,1,0,0,1,0,1.41h0a1,1,0,0,1-.73.31h0A1,1,0,0,1,40.39,396.07Zm460-.12a1,1,0,0,1,0-1.41h0a1,1,0,0,1,1.42,0h0a1,1,0,0,1,0,1.42h0a1,1,0,0,1-.69.27h0A1,1,0,0,1,500.35,396ZM36.8,392.55a1,1,0,0,1,0-1.42h0a1,1,0,0,1,1.42,0h0a1,1,0,0,1,0,1.41h0a1,1,0,0,1-.71.29h0A1,1,0,0,1,36.8,392.55Zm467.14-.08a1,1,0,0,1,0-1.41h0a1,1,0,0,1,1.41,0h0a1,1,0,0,1,0,1.41h0a1,1,0,0,1-.71.3h0A1,1,0,0,1,503.94,392.47ZM33.32,388.92a1,1,0,0,1,.05-1.41h0a1,1,0,0,1,1.41.05h0a1,1,0,0,1,0,1.41h0a1,1,0,0,1-.68.27h0A1,1,0,0,1,33.32,388.92Zm474.1,0a1,1,0,0,1,0-1.42h0a1,1,0,0,1,1.41,0h0a1,1,0,0,1,0,1.41h0a1,1,0,0,1-.73.32h0A1,1,0,0,1,507.42,388.89ZM30,385.19a1,1,0,0,1,.09-1.41h0a1,1,0,0,1,1.41.09h0a1,1,0,0,1-.09,1.41h0a1,1,0,0,1-.66.25h0A1,1,0,0,1,30,385.19Zm480.84,0a1,1,0,0,1-.09-1.42h0a1,1,0,0,1,1.41-.09h0a1,1,0,0,1,.09,1.41h0a1,1,0,0,1-.75.34h0A1,1,0,0,1,510.79,385.2ZM26.7,381.35a1,1,0,0,1,.14-1.41h0a1,1,0,0,1,1.41.14h0a1,1,0,0,1-.14,1.41h0a1,1,0,0,1-.64.22h0A1,1,0,0,1,26.7,381.35ZM514,381.4a1,1,0,0,1-.14-1.41h0a1,1,0,0,1,1.4-.14h0a1,1,0,0,1,.15,1.41h0a1,1,0,0,1-.78.36h0A1,1,0,0,1,514,381.4Zm-490.46-4a1,1,0,0,1,.19-1.41h0a1,1,0,0,1,1.4.2h0a1,1,0,0,1-.18,1.4h0a1.08,1.08,0,0,1-.61.2h0A1,1,0,0,1,23.58,377.4Zm493.58.09a1,1,0,0,1-.19-1.4h0a1,1,0,0,1,1.4-.19h0a1,1,0,0,1,.19,1.4h0a1,1,0,0,1-.8.4h0A1,1,0,0,1,517.16,377.49ZM20.61,373.33a1,1,0,0,1,.24-1.39h0a1,1,0,0,1,1.39.24h0a1,1,0,0,1-.24,1.4h0a1,1,0,0,1-.57.18h0A1,1,0,0,1,20.61,373.33Zm499.53.15a1,1,0,0,1-.25-1.39h0a1,1,0,0,1,1.4-.25h0a1,1,0,0,1,.24,1.4h0a1,1,0,0,1-.82.42h0A1,1,0,0,1,520.14,373.48ZM17.79,369.16a1,1,0,0,1,.29-1.38h0a1,1,0,0,1,1.39.29h0a1,1,0,0,1-.3,1.39h0a1,1,0,0,1-.54.16h0A1,1,0,0,1,17.79,369.16Zm505.18.2a1,1,0,0,1-.3-1.38h0a1,1,0,0,1,1.38-.3h0a1,1,0,0,1,.3,1.38h0a1,1,0,0,1-.84.46h0A1,1,0,0,1,523,369.36ZM15.13,364.89a1,1,0,0,1,.35-1.37h0a1,1,0,0,1,1.37.34h0a1,1,0,0,1-.35,1.37h0a1,1,0,0,1-.51.15h0A1,1,0,0,1,15.13,364.89Zm510.5.24a1,1,0,0,1-.35-1.37h0a1,1,0,0,1,1.37-.35h0a1,1,0,0,1,.35,1.37h0a1,1,0,0,1-.86.49h0A1,1,0,0,1,525.63,365.13Zm-513-4.63a1,1,0,0,1,.41-1.35h0a1,1,0,0,1,1.35.4h0a1,1,0,0,1-.4,1.36h0a1,1,0,0,1-.48.12h0A1,1,0,0,1,12.65,360.5Zm515.47.3a1,1,0,0,1-.4-1.35h0a1,1,0,0,1,1.35-.41h0a1,1,0,0,1,.41,1.35h0a1,1,0,0,1-.88.53h0A1,1,0,0,1,528.12,360.8ZM10.36,356a1,1,0,0,1,.47-1.33h0a1,1,0,0,1,1.33.46h0a1,1,0,0,1-.46,1.34h0a1,1,0,0,1-.44.1h0A1,1,0,0,1,10.36,356Zm520.07.36A1,1,0,0,1,530,355h0a1,1,0,0,1,1.34-.46h0a1,1,0,0,1,.46,1.33h0a1,1,0,0,1-.9.57h0A1,1,0,0,1,530.43,356.37ZM8.27,351.43a1,1,0,0,1,.52-1.32h0a1,1,0,0,1,1.32.53h0A1,1,0,0,1,9.58,352h0a.91.91,0,0,1-.39.08h0A1,1,0,0,1,8.27,351.43Zm524.27.41a1,1,0,0,1-.53-1.31h0a1,1,0,0,1,1.31-.53h0a1,1,0,0,1,.53,1.31h0a1,1,0,0,1-.92.61h0A.91.91,0,0,1,532.54,351.84ZM6.39,346.75A1,1,0,0,1,7,345.46H7a1,1,0,0,1,1.29.59h0a1,1,0,0,1-.58,1.29h0a1.13,1.13,0,0,1-.36.06h0A1,1,0,0,1,6.39,346.75Zm528.05.47a1,1,0,0,1-.59-1.29h0a1,1,0,0,1,1.29-.58h0a1,1,0,0,1,.59,1.29h0a1,1,0,0,1-.94.64h0A1,1,0,0,1,534.44,347.22ZM4.73,342a1,1,0,0,1,.65-1.26h0a1,1,0,0,1,1.26.65h0A1,1,0,0,1,6,342.64H6a1.1,1.1,0,0,1-.31,0h0A1,1,0,0,1,4.73,342Zm531.39.53a1,1,0,0,1-.65-1.26h0a1,1,0,0,1,1.26-.65h0a1,1,0,0,1,.65,1.26h0a1,1,0,0,1-1,.7h0A1,1,0,0,1,536.12,342.52ZM3.31,337.14a1,1,0,0,1,.7-1.23H4a1,1,0,0,1,1.23.71h0a1,1,0,0,1-.71,1.23h0a1.09,1.09,0,0,1-.26,0h0A1,1,0,0,1,3.31,337.14Zm534.26.6a1,1,0,0,1-.71-1.22h0a1,1,0,0,1,1.22-.71h0a1,1,0,0,1,.71,1.22h0a1,1,0,0,1-1,.74h0A1.15,1.15,0,0,1,537.57,337.74ZM2.13,332.23a1,1,0,0,1,.77-1.18h0a1,1,0,0,1,1.19.77h0A1,1,0,0,1,3.32,333h0a.75.75,0,0,1-.21,0h0A1,1,0,0,1,2.13,332.23Zm536.65.66a1,1,0,0,1-.77-1.18h0a1,1,0,0,1,1.18-.77h0a1,1,0,0,1,.78,1.18h0a1,1,0,0,1-1,.8h0A.76.76,0,0,1,538.78,332.89ZM1.21,327.29A1,1,0,0,1,2,326.14H2a1,1,0,0,1,1.14.83h0a1,1,0,0,1-.83,1.14h0l-.16,0h0A1,1,0,0,1,1.21,327.29Zm538.53.72a1,1,0,0,1-.84-1.14h0A1,1,0,0,1,540,326h0a1,1,0,0,1,.83,1.15h0a1,1,0,0,1-1,.84h-.15ZM.54,322.29a1,1,0,0,1,.89-1.11h0a1,1,0,0,1,1.1.89h0a1,1,0,0,1-.89,1.1h-.1A1,1,0,0,1,.54,322.29Zm539.9.78a1,1,0,0,1-.89-1.1h0a1,1,0,0,1,1.1-.89h0a1,1,0,0,1,.89,1.1h0a1,1,0,0,1-1,.89h-.11ZM.14,317.25a1,1,0,0,1,.94-1.05h0a1,1,0,0,1,1.06.94h0a1,1,0,0,1-1,1.06h0A1,1,0,0,1,.14,317.25Zm540.75.84a1,1,0,0,1-.95-1h0a1,1,0,0,1,1-1h0a1,1,0,0,1,1,1.05h0a1,1,0,0,1-1,.95h-.05ZM0,312.2H0a1,1,0,0,1,1-1H1a1,1,0,0,1,1,1H2a1,1,0,0,1-1,1H1A1,1,0,0,1,0,312.2Zm540.07-.1a.35.35,0,0,1,0-.1h0a.38.38,0,0,1,0-.1h0a1,1,0,0,1,1-1h0a1,1,0,0,1,1,1h0a.38.38,0,0,1,0,.11h0a.32.32,0,0,1,0,.1h0a1,1,0,0,1-1,1h0A1,1,0,0,1,540.07,312.1Zm-539-3.89a1,1,0,0,1-1-1h0a1,1,0,0,1,1.05-1h0a1,1,0,0,1,.94,1.05h0a1,1,0,0,1-1,.95h0ZM539.93,307h0a1,1,0,0,1,.94-1h0a1,1,0,0,1,1.06.94h0a1,1,0,0,1-.95,1.06h-.05A1,1,0,0,1,539.93,307ZM1.41,303.22a1,1,0,0,1-.89-1.1h0a1,1,0,0,1,1.1-.89h0a1,1,0,0,1,.89,1.1h0a1,1,0,0,1-1,.9H1.41ZM539.53,302a1,1,0,0,1,.89-1.11h0a1,1,0,0,1,1.1.89h0a1,1,0,0,1-.89,1.1h-.11A1,1,0,0,1,539.53,302ZM2,298.27a1,1,0,0,1-.83-1.15h0a1,1,0,0,1,1.14-.83h0a1,1,0,0,1,.83,1.14h0a1,1,0,0,1-1,.85H2Zm536.86-1.14a1,1,0,0,1,.83-1.15h0a1,1,0,0,1,1.15.83h0A1,1,0,0,1,540,298h-.16A1,1,0,0,1,538.87,297.13Zm-536-3.77a1,1,0,0,1-.77-1.18h0a1,1,0,0,1,1.18-.78h0A1,1,0,0,1,4,292.59H4a1,1,0,0,1-1,.79h0A.72.72,0,0,1,2.86,293.36ZM538,292.28h0a1,1,0,0,1,.77-1.18h0a1,1,0,0,1,1.19.76h0a1,1,0,0,1-.77,1.19h0a.76.76,0,0,1-.21,0h0A1,1,0,0,1,538,292.28ZM4,288.49a1,1,0,0,1-.71-1.22h0a1,1,0,0,1,1.22-.71h0a1,1,0,0,1,.72,1.22h0a1,1,0,0,1-1,.75h0A1.17,1.17,0,0,1,4,288.49Zm532.85-1a1,1,0,0,1,.7-1.23h0a1,1,0,0,1,1.23.71h0a1,1,0,0,1-.71,1.23h0a1.16,1.16,0,0,1-.26,0h0A1,1,0,0,1,536.81,287.48Zm-531.5-3.8a1,1,0,0,1-.65-1.25h0a1,1,0,0,1,1.26-.65h0A1,1,0,0,1,6.57,283h0a1,1,0,0,1-.95.7h0A1.06,1.06,0,0,1,5.31,283.68Zm530.09-1a1,1,0,0,1,.65-1.25h0a1,1,0,0,1,1.26.64h0a1,1,0,0,1-.65,1.26h0a1.06,1.06,0,0,1-.31.05h0A1,1,0,0,1,535.4,282.72ZM6.9,279a1,1,0,0,1-.59-1.29h0a1,1,0,0,1,1.28-.59h0a1,1,0,0,1,.59,1.29h0a1,1,0,0,1-.94.65h0A1,1,0,0,1,6.9,279Zm526.87-.9a1,1,0,0,1,.59-1.28h0a1,1,0,0,1,1.29.58h0a1,1,0,0,1-.59,1.29h0a1,1,0,0,1-.35.06h0A1,1,0,0,1,533.77,278.05ZM8.71,274.29A1,1,0,0,1,8.18,273h0a1,1,0,0,1,1.31-.53h0a1,1,0,0,1,.53,1.31h0a1,1,0,0,1-.92.61h0A.88.88,0,0,1,8.71,274.29Zm523.22-.83h0a1,1,0,0,1,.52-1.31h0a1,1,0,0,1,1.31.52h0a1,1,0,0,1-.52,1.32h0a1.09,1.09,0,0,1-.39.08h0A1,1,0,0,1,531.93,273.46Zm-521.2-3.74a1,1,0,0,1-.47-1.33h0a1,1,0,0,1,1.34-.47h0a1,1,0,0,1,.46,1.34h0a1,1,0,0,1-.9.56h0A1,1,0,0,1,10.73,269.72ZM529.87,269a1,1,0,0,1,.46-1.33h0a1,1,0,0,1,1.34.46h0a1,1,0,0,1-.47,1.34h0a1,1,0,0,1-.43.1h0A1,1,0,0,1,529.87,269ZM13,265.25a1,1,0,0,1-.4-1.35h0a1,1,0,0,1,1.35-.41h0a1,1,0,0,1,.41,1.35h0a1,1,0,0,1-.89.53h0A1,1,0,0,1,13,265.25Zm514.66-.69a1,1,0,0,1,.4-1.36h0a1,1,0,0,1,1.36.41h0A1,1,0,0,1,529,265h0a1.06,1.06,0,0,1-.48.12h0A1,1,0,0,1,527.61,264.56ZM15.37,260.88a1,1,0,0,1-.35-1.37h0a1,1,0,0,1,1.37-.36h0a1,1,0,0,1,.35,1.37h0a1,1,0,0,1-.86.5h0A1,1,0,0,1,15.37,260.88Zm509.8-.63h0a1,1,0,0,1,.34-1.37h0a1,1,0,0,1,1.38.34h0a1,1,0,0,1-.35,1.37h0a1,1,0,0,1-.51.14h0A1,1,0,0,1,525.17,260.25ZM18,256.6a1,1,0,0,1-.29-1.38h0a1,1,0,0,1,1.38-.29h0a1,1,0,0,1,.3,1.38h0a1,1,0,0,1-.84.46h0A1,1,0,0,1,18,256.6ZM522.55,256h0a1,1,0,0,1,.29-1.39h0a1,1,0,0,1,1.39.3h0a1,1,0,0,1-.29,1.38h0a1,1,0,0,1-.54.16h0A1,1,0,0,1,522.55,256Zm-501.83-3.6a1,1,0,0,1-.24-1.39h0a1,1,0,0,1,1.39-.25h0a1,1,0,0,1,.25,1.4h0a1,1,0,0,1-.82.43h0A1,1,0,0,1,20.72,252.44Zm499-.51a1,1,0,0,1,.24-1.39h0a1,1,0,0,1,1.39.24h0a1,1,0,0,1-.24,1.39h0a1,1,0,0,1-.58.19h0A1,1,0,0,1,519.77,251.93ZM23.64,248.38a1,1,0,0,1-.19-1.4h0a1,1,0,0,1,1.4-.19h0a1,1,0,0,1,.19,1.4h0a1,1,0,0,1-.8.39h0A1,1,0,0,1,23.64,248.38Zm493.19-.45a1,1,0,0,1,.19-1.4h0a1,1,0,0,1,1.41.19h0a1,1,0,0,1-.2,1.4h0a1,1,0,0,1-.6.21h0A1,1,0,0,1,516.83,247.93ZM26.7,244.43a1,1,0,0,1-.14-1.41h0a1,1,0,0,1,1.41-.14h0a1,1,0,0,1,.14,1.41h0a1,1,0,0,1-.78.37h0A1,1,0,0,1,26.7,244.43ZM513.76,244h0a1,1,0,0,1,.14-1.41h0a1,1,0,0,1,1.41.14h0a1,1,0,0,1-.14,1.41h0a1,1,0,0,1-.64.22h0A1,1,0,0,1,513.76,244ZM29.9,240.59a1,1,0,0,1-.1-1.41h0a1,1,0,0,1,1.41-.1h0a1,1,0,0,1,.1,1.41h0a1,1,0,0,1-.76.34h0A1,1,0,0,1,29.9,240.59Zm480.65-.34a1,1,0,0,1,.09-1.41h0a1,1,0,0,1,1.41.09h0a1,1,0,0,1-.1,1.41h0a1,1,0,0,1-.66.25h0A1,1,0,0,1,510.55,240.25Zm-477.33-3.4a1,1,0,0,1-.05-1.41h0a1,1,0,0,1,1.41-.05h0a1,1,0,0,1,0,1.41h0a1,1,0,0,1-.73.32h0A1,1,0,0,1,33.22,236.85Zm474-.29a1,1,0,0,1,0-1.41h0a1,1,0,0,1,1.41,0h0a1,1,0,0,1,0,1.41h0a1,1,0,0,1-.68.27h0A1,1,0,0,1,507.22,236.56ZM36.66,233.22a1,1,0,0,1,0-1.41h0a1,1,0,0,1,1.41,0h0a1,1,0,0,1,0,1.41h0a1,1,0,0,1-.71.3h0A1,1,0,0,1,36.66,233.22ZM503.77,233a1,1,0,0,1,0-1.42h0a1,1,0,0,1,1.42,0h0a1,1,0,0,1,0,1.41h0a1,1,0,0,1-.71.29h0A1,1,0,0,1,503.77,233ZM40.2,229.7a1,1,0,0,1,0-1.42h0a1,1,0,0,1,1.41,0h0a1,1,0,0,1,0,1.41h0a1,1,0,0,1-.69.28h0A1,1,0,0,1,40.2,229.7Zm460-.19a1,1,0,0,1,0-1.41h0a1,1,0,0,1,1.41,0h0a1,1,0,0,1,0,1.41h0a1,1,0,0,1-.73.31h0A1,1,0,0,1,500.22,229.51ZM43.85,226.28a1,1,0,0,1,.07-1.42h0a1,1,0,0,1,1.41.08h0a1,1,0,0,1-.07,1.41h0a1,1,0,0,1-.67.26h0A1,1,0,0,1,43.85,226.28Zm452.72-.15h0a1,1,0,0,1-.08-1.41h0a1,1,0,0,1,1.41-.07h0a1,1,0,0,1,.08,1.41h0a1,1,0,0,1-.75.33h0A1,1,0,0,1,496.57,226.13ZM47.58,223a1,1,0,0,1,.12-1.41h0a1,1,0,0,1,1.41.11h0a1,1,0,0,1-.11,1.41h0a1,1,0,0,1-.65.24h0A1,1,0,0,1,47.58,223Zm445.25-.1a1,1,0,0,1-.11-1.41h0a1,1,0,0,1,1.41-.11h0a1,1,0,0,1,.11,1.41h0a1,1,0,0,1-.76.35h0A1,1,0,0,1,492.83,222.86ZM51.41,219.74a1,1,0,0,1,.15-1.41h0a1,1,0,0,1,1.4.15h0a1,1,0,0,1-.14,1.41h0a1,1,0,0,1-.63.22h0A1,1,0,0,1,51.41,219.74Zm437.6-.06a1,1,0,0,1-.15-1.4h0a1,1,0,0,1,1.4-.15h0a1,1,0,0,1,.15,1.4h0a1,1,0,0,1-.78.38h0A1,1,0,0,1,489,219.68ZM55.32,216.62a1,1,0,0,1,.18-1.41h0a1,1,0,0,1,1.4.18h0a1,1,0,0,1-.18,1.41h0a1,1,0,0,1-.61.21h0A1,1,0,0,1,55.32,216.62Zm429.78,0a1,1,0,0,1-.18-1.4h0a1,1,0,0,1,1.4-.18h0a1,1,0,0,1,.18,1.4h0a1,1,0,0,1-.79.39h0A1,1,0,0,1,485.1,216.6Zm-425.8-3a1,1,0,0,1,.21-1.4h0a1,1,0,0,1,1.4.22h0a1,1,0,0,1-.21,1.4h0a1,1,0,0,1-.6.19h0A1,1,0,0,1,59.3,213.59Zm421.82,0a1,1,0,0,1-.22-1.4h0a1,1,0,0,1,1.4-.22h0a1,1,0,0,1,.21,1.4h0a1,1,0,0,1-.8.41h0A1,1,0,0,1,481.12,213.62Zm-417.77-3a1,1,0,0,1,.24-1.39h0a1,1,0,0,1,1.4.25h0a1,1,0,0,1-.25,1.39h0a1,1,0,0,1-.57.18h0A1,1,0,0,1,63.35,210.66Zm413.72.06a1,1,0,0,1-.25-1.39h0a1,1,0,0,1,1.39-.25h0a1,1,0,0,1,.25,1.4h0a1,1,0,0,1-.82.42h0A.92.92,0,0,1,477.07,210.72Zm-409.61-2.9a1,1,0,0,1,.28-1.39h0a1,1,0,0,1,1.39.28h0a1,1,0,0,1-.28,1.39h0a1,1,0,0,1-.56.17h0A1,1,0,0,1,67.46,207.82Zm405.5.1a1,1,0,0,1-.28-1.39h0a1,1,0,0,1,1.38-.27h0a1,1,0,0,1,.28,1.38h0a1,1,0,0,1-.83.45h0A1,1,0,0,1,473,207.92ZM71.64,205.07a1,1,0,0,1,.31-1.38h0a1,1,0,0,1,1.38.31h0a1,1,0,0,1-.31,1.38h0a1.06,1.06,0,0,1-.54.16h0A1,1,0,0,1,71.64,205.07Zm397.14.14a1,1,0,0,1-.31-1.38h0a1,1,0,0,1,1.38-.31h0a1,1,0,0,1,.31,1.38h0a1,1,0,0,1-.84.46h0A1,1,0,0,1,468.78,205.21Zm-392.91-2.8a1,1,0,0,1,.34-1.37h0a1,1,0,0,1,1.37.33h0a1,1,0,0,1-.33,1.38h0a1.13,1.13,0,0,1-.52.14h0A1,1,0,0,1,75.87,202.41Zm388.68.17h0a1,1,0,0,1-.33-1.37h0a1,1,0,0,1,1.37-.34h0a1,1,0,0,1,.34,1.37h0a1,1,0,0,1-.86.48h0A1,1,0,0,1,464.55,202.58ZM80.16,199.84a1,1,0,0,1,.36-1.37h0a1,1,0,0,1,1.37.36h0a1,1,0,0,1-.36,1.37h0a1,1,0,0,1-.51.13h0A1,1,0,0,1,80.16,199.84Zm380.11.2a1,1,0,0,1-.36-1.37h0a1,1,0,0,1,1.36-.36h0a1,1,0,0,1,.37,1.36h0a1,1,0,0,1-.87.5h0A1,1,0,0,1,460.27,200ZM84.49,197.35a1,1,0,0,1,.39-1.36h0a1,1,0,0,1,1.36.38h0a1,1,0,0,1-.39,1.36h0a.94.94,0,0,1-.48.13h0A1,1,0,0,1,84.49,197.35Zm371.45.23a1,1,0,0,1-.39-1.36h0a1,1,0,0,1,1.36-.39h0a1,1,0,0,1,.39,1.36h0a1,1,0,0,1-.88.51h0A1,1,0,0,1,455.94,197.58ZM88.88,194.94a1,1,0,0,1,.41-1.35h0a1,1,0,0,1,1.35.41h0a1,1,0,0,1-.41,1.35h0a1,1,0,0,1-.47.12h0A1,1,0,0,1,88.88,194.94Zm362.68.26h0a1,1,0,0,1-.42-1.35h0a1,1,0,0,1,1.36-.42h0a1,1,0,0,1,.41,1.36h0a1,1,0,0,1-.88.53h0A1,1,0,0,1,451.56,195.2ZM93.3,192.61a1,1,0,0,1,.44-1.34h0a1,1,0,0,1,1.34.43h0a1,1,0,0,1-.43,1.35h0a1.07,1.07,0,0,1-.46.11h0A1,1,0,0,1,93.3,192.61Zm353.84.29a1,1,0,0,1-.44-1.34h0a1,1,0,0,1,1.35-.44h0a1,1,0,0,1,.43,1.35h0a1,1,0,0,1-.89.54h0A.91.91,0,0,1,447.14,192.9ZM97.77,190.37a1,1,0,0,1,.46-1.34h0a1,1,0,0,1,1.34.46h0a1,1,0,0,1-.46,1.34h0a1,1,0,0,1-.44.1h0A1,1,0,0,1,97.77,190.37Zm344.91.32a1,1,0,0,1-.46-1.34h0a1,1,0,0,1,1.33-.46h0a1,1,0,0,1,.46,1.33h0a1,1,0,0,1-.9.57h0A1.13,1.13,0,0,1,442.68,190.69ZM102.27,188.2a1,1,0,0,1,.49-1.33h0a1,1,0,0,1,1.33.48h0a1,1,0,0,1-.49,1.33h0a1,1,0,0,1-.42.09h0A1,1,0,0,1,102.27,188.2Zm335.91.34h0a1,1,0,0,1-.49-1.32h0a1,1,0,0,1,1.33-.49h0a1,1,0,0,1,.49,1.33h0a1,1,0,0,1-.91.58h0A.9.9,0,0,1,438.18,188.54ZM106.82,186.1a1,1,0,0,1,.5-1.32h0a1,1,0,0,1,1.32.51h0a1,1,0,0,1-.5,1.32h0a1,1,0,0,1-.41.08h0A1,1,0,0,1,106.82,186.1Zm326.82.38a1,1,0,0,1-.5-1.32h0a1,1,0,0,1,1.32-.51h0A1,1,0,0,1,435,186h0a1,1,0,0,1-.91.59h0A1,1,0,0,1,433.64,186.48Zm-322.25-2.4a1,1,0,0,1,.53-1.31h0a1,1,0,0,1,1.31.53h0a1,1,0,0,1-.53,1.31h0a.91.91,0,0,1-.39.08h0A1,1,0,0,1,111.39,184.08Zm317.68.41h0a1,1,0,0,1-.52-1.32h0a1,1,0,0,1,1.31-.52h0a1,1,0,0,1,.53,1.31h0a1,1,0,0,1-.92.61h0A1.1,1.1,0,0,1,429.07,184.49ZM116,182.14a1,1,0,0,1,.55-1.3h0a1,1,0,0,1,1.31.54h0a1,1,0,0,1-.55,1.31h0a1,1,0,0,1-.38.07h0A1,1,0,0,1,116,182.14Zm308.47.43a1,1,0,0,1-.54-1.31h0a1,1,0,0,1,1.3-.55h0a1,1,0,0,1,.55,1.31h0a1,1,0,0,1-.93.62h0A1,1,0,0,1,424.47,182.57Zm-303.84-2.3a1,1,0,0,1,.57-1.3h0a1,1,0,0,1,1.3.57h0a1,1,0,0,1-.57,1.3h0a1.14,1.14,0,0,1-.36.06h0A1,1,0,0,1,120.63,180.27Zm299.21.45a1,1,0,0,1-.56-1.3h0a1,1,0,0,1,1.29-.56h0a1,1,0,0,1,.57,1.29h0a1,1,0,0,1-.94.64h0A.92.92,0,0,1,419.84,180.72ZM125.3,178.47a1,1,0,0,1,.59-1.29h0a1,1,0,0,1,1.28.59h0a1,1,0,0,1-.58,1.28h0a.91.91,0,0,1-.35.07h0A1,1,0,0,1,125.3,178.47Zm289.89.47a1,1,0,0,1-.59-1.29h0a1,1,0,0,1,1.29-.58h0a1,1,0,0,1,.58,1.28h0a1,1,0,0,1-.93.65h0A1,1,0,0,1,415.19,178.94ZM130,176.74a1,1,0,0,1,.61-1.28h0a1,1,0,0,1,1.27.6h0a1,1,0,0,1-.6,1.28h0a1,1,0,0,1-.34.06h0A1,1,0,0,1,130,176.74Zm280.51.49h0a1,1,0,0,1-.61-1.28h0a1,1,0,0,1,1.28-.6h0a1,1,0,0,1,.61,1.28h0a1,1,0,0,1-.94.66h0A1,1,0,0,1,410.5,177.23Zm-275.79-2.15a1,1,0,0,1,.62-1.28h0a1,1,0,0,1,1.27.63h0a1,1,0,0,1-.62,1.27h0a1.26,1.26,0,0,1-.33,0h0A1,1,0,0,1,134.71,175.08Zm271.08.51a1,1,0,0,1-.62-1.26h0a1,1,0,0,1,1.27-.63h0a1,1,0,0,1,.62,1.27h0a1,1,0,0,1-.94.68h0A1,1,0,0,1,405.79,175.59Zm-266.35-2.11a1,1,0,0,1,.65-1.26h0a1,1,0,0,1,1.26.64h0a1,1,0,0,1-.64,1.26h0a1.17,1.17,0,0,1-.31,0h0A1,1,0,0,1,139.44,173.48Zm261.62.54a1,1,0,0,1-.64-1.26h0a1,1,0,0,1,1.26-.64h0a1,1,0,0,1,.64,1.26h0a1,1,0,0,1-1,.69h0A1.12,1.12,0,0,1,401.06,174ZM144.2,172a1,1,0,0,1,.67-1.25h0a1,1,0,0,1,1.25.66h0a1,1,0,0,1-.66,1.25h0a1,1,0,0,1-.3.05h0A1,1,0,0,1,144.2,172Zm252.11.57h0a1,1,0,0,1-.66-1.26h0a1,1,0,0,1,1.25-.66h0a1,1,0,0,1,.66,1.25h0a1,1,0,0,1-1,.71h0A1,1,0,0,1,396.31,172.52Zm-247.32-2a1,1,0,0,1,.67-1.24h0a1,1,0,0,1,1.25.67h0a1,1,0,0,1-.68,1.24h0a.92.92,0,0,1-.28,0h0A1,1,0,0,1,149,170.49Zm242.54.59a1,1,0,0,1-.67-1.25h0a1,1,0,0,1,1.24-.68h0a1,1,0,0,1,.67,1.25h0a1,1,0,0,1-1,.72h0A1.44,1.44,0,0,1,391.53,171.08Zm-237.74-2a1,1,0,0,1,.69-1.23h0a1,1,0,0,1,1.23.69h0a1,1,0,0,1-.69,1.24h0a1.24,1.24,0,0,1-.27,0h0A1,1,0,0,1,153.79,169.09Zm233,.61a1,1,0,0,1-.69-1.23h0a1,1,0,0,1,1.23-.7h0A1,1,0,0,1,388,169h0a1,1,0,0,1-1,.74h0A1.25,1.25,0,0,1,386.74,169.7Zm-228.13-1.94a1,1,0,0,1,.71-1.22h0a1,1,0,0,1,1.22.71h0a1,1,0,0,1-.71,1.22h0a1.07,1.07,0,0,1-.25,0h0A1,1,0,0,1,158.61,167.76Zm223.32.63a1,1,0,0,1-.71-1.23h0a1,1,0,0,1,1.22-.71h0a1,1,0,0,1,.71,1.23h0a1,1,0,0,1-1,.74h0A1.09,1.09,0,0,1,381.93,168.39Zm-218.48-1.9a1,1,0,0,1,.72-1.21h0a1,1,0,0,1,1.21.72h0a1,1,0,0,1-.72,1.22h0a1.07,1.07,0,0,1-.25,0h0A1,1,0,0,1,163.45,166.49Zm213.65.64h0a1,1,0,0,1-.73-1.22h0a1,1,0,0,1,1.22-.72h0a1,1,0,0,1,.72,1.21h0a1,1,0,0,1-1,.76h0A.69.69,0,0,1,377.1,167.13Zm-208.8-1.85a1,1,0,0,1,.74-1.2h0a1,1,0,0,1,1.2.74h0a1,1,0,0,1-.74,1.2h0a.85.85,0,0,1-.23,0h0A1,1,0,0,1,168.3,165.28Zm204,.67h0a1,1,0,0,1-.74-1.21h0a1,1,0,0,1,1.21-.74h0a1,1,0,0,1,.74,1.21h0a1,1,0,0,1-1,.77h0A.86.86,0,0,1,372.26,166Zm-199.1-1.81a1,1,0,0,1,.76-1.2h0a1,1,0,0,1,1.2.76h0a1,1,0,0,1-.76,1.19h0a.83.83,0,0,1-.22,0h0A1,1,0,0,1,173.16,164.14Zm194.24.68a1,1,0,0,1-.76-1.19h0a1,1,0,0,1,1.2-.76h0a1,1,0,0,1,.75,1.2h0a1,1,0,0,1-1,.78h0A.77.77,0,0,1,367.4,164.82ZM178,163.05a1,1,0,0,1,.77-1.18h0a1,1,0,0,1,1.18.77h0a1,1,0,0,1-.77,1.18h0a.76.76,0,0,1-.21,0h0A1,1,0,0,1,178,163.05Zm184.47.71h0a1,1,0,0,1-.77-1.19h0a1,1,0,0,1,1.19-.77h0a1,1,0,0,1,.77,1.19h0a1,1,0,0,1-1,.79h0ZM182.94,162a1,1,0,0,1,.79-1.18h0a1,1,0,0,1,1.17.79h0a1,1,0,0,1-.78,1.17h0a.68.68,0,0,1-.2,0h0A1,1,0,0,1,182.94,162Zm174.7.72h0a1,1,0,0,1-.79-1.17h0a1,1,0,0,1,1.18-.79h0a1,1,0,0,1,.78,1.18h0a1,1,0,0,1-1,.8h0A.62.62,0,0,1,357.64,162.75Zm-169.79-1.68a1,1,0,0,1,.8-1.17h0a1,1,0,0,1,1.16.8h0a1,1,0,0,1-.8,1.16h0a.55.55,0,0,1-.18,0h0A1,1,0,0,1,187.85,161.07Zm164.89.74a1,1,0,0,1-.8-1.17h0a1,1,0,0,1,1.17-.8h0a1,1,0,0,1,.8,1.17h0a1,1,0,0,1-1,.81h-.19Zm-160-1.65a1,1,0,0,1,.82-1.15h0a1,1,0,0,1,1.16.81h0a1,1,0,0,1-.82,1.15h0l-.17,0h0A1,1,0,0,1,192.76,160.16Zm155.07.76a1,1,0,0,1-.81-1.16h0a1,1,0,0,1,1.15-.81h0a1,1,0,0,1,.82,1.16h0a1,1,0,0,1-1,.82h-.18Zm-150.14-1.6a1,1,0,0,1,.83-1.15h0a1,1,0,0,1,1.15.82h0a1,1,0,0,1-.83,1.15h0l-.16,0h0A1,1,0,0,1,197.69,159.32Zm145.22.77a1,1,0,0,1-.82-1.15h0a1,1,0,0,1,1.14-.82h0a1,1,0,0,1,.83,1.14h0a1,1,0,0,1-1,.84h-.16Zm-140.28-1.56a1,1,0,0,1,.84-1.14h0a1,1,0,0,1,1.14.84h0a1,1,0,0,1-.84,1.14h-.15A1,1,0,0,1,202.63,158.53Zm135.35.79h0a1,1,0,0,1-.84-1.14h0a1,1,0,0,1,1.14-.84h0a1,1,0,0,1,.84,1.14h0a1,1,0,0,1-1,.85H338Zm-130.4-1.52a1,1,0,0,1,.85-1.13h0a1,1,0,0,1,1.13.85h0a1,1,0,0,1-.85,1.13h-.14A1,1,0,0,1,207.58,157.8Zm125.47.81a1,1,0,0,1-.86-1.13h0a1,1,0,0,1,1.13-.85h0a1,1,0,0,1,.85,1.13h0a1,1,0,0,1-1,.86H333Zm-120.52-1.48a1,1,0,0,1,.87-1.12h0a1,1,0,0,1,1.12.86h0a1,1,0,0,1-.87,1.12h-.12A1,1,0,0,1,212.53,157.13ZM328.1,158a1,1,0,0,1-.87-1.12h0a1,1,0,0,1,1.12-.86h0a1,1,0,0,1,.87,1.12h0a1,1,0,0,1-1,.87h-.13Zm-110.61-1.44a1,1,0,0,1,.88-1.11h0a1,1,0,0,1,1.11.88h0a1,1,0,0,1-.88,1.11h-.11A1,1,0,0,1,217.49,156.51Zm105.66.84a1,1,0,0,1-.88-1.1h0a1,1,0,0,1,1.11-.88h0a1,1,0,0,1,.87,1.1h0a1,1,0,0,1-1,.89h-.11ZM222.47,156a1,1,0,0,1,.89-1.1h0a1,1,0,0,1,1.09.89h0a1,1,0,0,1-.89,1.11h-.1A1,1,0,0,1,222.47,156Zm95.72.86h0a1,1,0,0,1-.9-1.1h0a1,1,0,0,1,1.1-.89h0a1,1,0,0,1,.89,1.1h0a1,1,0,0,1-1,.9h-.1Zm-90.75-1.36a1,1,0,0,1,.9-1.09h0a1,1,0,0,1,1.09.9h0a1,1,0,0,1-.9,1.09h-.1A1,1,0,0,1,227.44,155.45Zm85.78.87a1,1,0,0,1-.9-1.08h0a1,1,0,0,1,1.08-.91h0a1,1,0,0,1,.91,1.09h0a1,1,0,0,1-1,.91h-.09ZM232.42,155a1,1,0,0,1,.91-1.07h0a1,1,0,0,1,1.08.91h0a1,1,0,0,1-.91,1.08h-.08A1,1,0,0,1,232.42,155Zm75.83.89a1,1,0,0,1-.91-1.08h0a1,1,0,0,1,1.07-.91h0a1,1,0,0,1,.92,1.08h0a1,1,0,0,1-1,.92h-.08Zm-70.85-1.28a1,1,0,0,1,.93-1.07h0a1,1,0,0,1,1.07.93h0a1,1,0,0,1-.93,1.07h-.07A1,1,0,0,1,237.4,154.61Zm65.88.91h0a1,1,0,0,1-.92-1.07h0a1,1,0,0,1,1.07-.93h0a1,1,0,0,1,.93,1.07h0a1,1,0,0,1-1,.93h-.07Zm-60.89-1.25a1,1,0,0,1,.94-1h0a1,1,0,0,1,1.06.94h0a1,1,0,0,1-.94,1h-.06A1,1,0,0,1,242.39,154.27Zm55.91.92h0a1,1,0,0,1-.94-1h0a1,1,0,0,1,1-.94h0a1,1,0,0,1,.94,1.06h0a1,1,0,0,1-1,.94h-.06ZM247.39,154a1,1,0,0,1,.95-1h0a1,1,0,0,1,1,1h0a1,1,0,0,1-.95,1h-.05A1,1,0,0,1,247.39,154Zm45.92.94a1,1,0,0,1-.95-1h0a1,1,0,0,1,1-1h0a1,1,0,0,1,1,1h0a1,1,0,0,1-1,1h-.05Zm-40.93-1.16a1,1,0,0,1,1-1h0a1,1,0,0,1,1,1h0a1,1,0,0,1-1,1h0A1,1,0,0,1,252.38,153.77Zm36,.94a1,1,0,0,1-1-1h0a1,1,0,0,1,1-1h0a1,1,0,0,1,1,1h0a1,1,0,0,1-1,1h0Zm-31-1.12a1,1,0,0,1,1-1h0a1,1,0,0,1,1,1h0a1,1,0,0,1-1,1h0A1,1,0,0,1,257.38,153.59Zm26,1a1,1,0,0,1-1-1h0a1,1,0,0,1,1-1h0a1,1,0,0,1,1,1h0a1,1,0,0,1-1,1h0Zm-21-1.09a1,1,0,0,1,1-1h0a1,1,0,0,1,1,1h0a1,1,0,0,1-1,1h0A1,1,0,0,1,262.38,153.47Zm16,1a1,1,0,0,1-1-1h0a1,1,0,0,1,1-1h0a1,1,0,0,1,1,1h0a1,1,0,0,1-1,1h0Zm-11-1a1,1,0,0,1,1-1h0a1,1,0,0,1,1,1h0a1,1,0,0,1-1,1h0A1,1,0,0,1,267.37,153.41Zm6,1h0a1,1,0,0,1-1-1h0a1,1,0,0,1,1-1h0a1,1,0,0,1,1,1h0a1,1,0,0,1-1,1h0Zm-5-2h0Z"/><path class="cls-1" d="M271.11,468a1,1,0,0,1,0-1.41h0a1,1,0,0,1,1.41,0h0a1,1,0,0,1,0,1.41h0a1,1,0,0,1-.7.3h0A1,1,0,0,1,271.11,468Zm-3.54-2a1,1,0,0,1,0-1.41h0a1,1,0,0,1,1.42,0h0a1,1,0,0,1,0,1.41h0a1,1,0,0,1-.71.29h0A1,1,0,0,1,267.57,466Zm7.07-1.56a1,1,0,0,1,0-1.42h0a1,1,0,0,1,1.42,0h0a1,1,0,0,1,0,1.42h0a1,1,0,0,1-.71.29h0A1,1,0,0,1,274.64,464.45Zm-10.6-2a1,1,0,0,1,0-1.42h0a1,1,0,0,1,1.41,0h0a1,1,0,0,1,0,1.42h0a1,1,0,0,1-.7.29h0A1,1,0,0,1,264,462.48Zm14.14-1.57a1,1,0,0,1,0-1.41h0a1,1,0,0,1,1.42,0h0a1,1,0,0,1,0,1.41h0a1,1,0,0,1-.71.29h0A1,1,0,0,1,278.18,460.91Zm-17.68-2a1,1,0,0,1,0-1.41h0a1,1,0,0,1,1.42,0h0a1,1,0,0,1,0,1.41h0a1,1,0,0,1-.71.29h0A1,1,0,0,1,260.5,458.94Zm21.22-1.56a1,1,0,0,1,0-1.42h0a1,1,0,0,1,1.41,0h0a1,1,0,0,1,0,1.42h0a1,1,0,0,1-.71.29h0A1,1,0,0,1,281.72,457.38Zm-24.75-2a1,1,0,0,1,0-1.41h0a1,1,0,0,1,1.41,0h0a1,1,0,0,1,0,1.41h0a1,1,0,0,1-.7.3h0A1,1,0,0,1,257,455.4Zm28.28-1.56a1,1,0,0,1,0-1.41h0a1,1,0,0,1,1.42,0h0a1,1,0,0,1,0,1.41h0a1,1,0,0,1-.71.29h0A1,1,0,0,1,285.25,453.84Zm-31.82-2a1,1,0,0,1,0-1.42h0a1,1,0,0,1,1.42,0h0a1,1,0,0,1,0,1.42h0a1,1,0,0,1-.71.29h0A1,1,0,0,1,253.43,451.87Zm35.36-1.57a1,1,0,0,1,0-1.41h0a1,1,0,0,1,1.41,0h0a1,1,0,0,1,0,1.41h0a1,1,0,0,1-.71.3h0A1,1,0,0,1,288.79,450.3Zm-38.89-2a1,1,0,0,1,0-1.41h0a1,1,0,0,1,1.41,0h0a1,1,0,0,1,0,1.41h0a1,1,0,0,1-.71.3h0A1,1,0,0,1,249.9,448.33Zm42.42-1.56a1,1,0,0,1,0-1.42h0a1,1,0,0,1,1.42,0h0a1,1,0,0,1,0,1.42h0a1,1,0,0,1-.71.29h0A1,1,0,0,1,292.32,446.77Zm-46-2a1,1,0,0,1,0-1.42h0a1,1,0,0,1,1.42,0h0a1,1,0,0,1,0,1.42h0a1,1,0,0,1-.71.29h0A1,1,0,0,1,246.36,444.8Zm49.5-1.56a1,1,0,0,1,0-1.42h0a1,1,0,0,1,1.41,0h0a1,1,0,0,1,0,1.42h0a1,1,0,0,1-.7.29h0A1,1,0,0,1,295.86,443.24Zm-53-2a1,1,0,0,1,0-1.41h0a1,1,0,0,1,1.41,0h0a1,1,0,0,1,0,1.41h0a1,1,0,0,1-.71.3h0A1,1,0,0,1,242.83,441.26Zm56.56-1.56a1,1,0,0,1,0-1.42h0a1,1,0,0,1,1.42,0h0a1,1,0,0,1,0,1.42h0a1,1,0,0,1-.71.29h0A1,1,0,0,1,299.39,439.7Zm-60.1-2a1,1,0,0,1,0-1.42h0a1,1,0,0,1,1.42,0h0a1,1,0,0,1,0,1.42h0a1,1,0,0,1-.71.29h0A1,1,0,0,1,239.29,437.73Zm63.64-1.57a1,1,0,0,1,0-1.41h0a1,1,0,0,1,1.42,0h0a1,1,0,0,1,0,1.41h0a1,1,0,0,1-.71.3h0A1,1,0,0,1,302.93,436.16Zm-67.18-2a1,1,0,0,1,0-1.41h0a1,1,0,0,1,1.42,0h0a1,1,0,0,1,0,1.41h0a1,1,0,0,1-.71.29h0A1,1,0,0,1,235.75,434.19Zm70.71-1.56a1,1,0,0,1,0-1.42h0a1,1,0,0,1,1.42,0h0a1,1,0,0,1,0,1.42h0a1,1,0,0,1-.71.29h0A1,1,0,0,1,306.46,432.63Zm-74.24-2a1,1,0,0,1,0-1.42h0a1,1,0,0,1,1.41,0h0a1,1,0,0,1,0,1.42h0a1,1,0,0,1-.7.29h0A1,1,0,0,1,232.22,430.66ZM310,429.09a1,1,0,0,1,0-1.41h0a1,1,0,0,1,1.42,0h0a1,1,0,0,1,0,1.41h0a1,1,0,0,1-.71.29h0A1,1,0,0,1,310,429.09Zm-81.32-2a1,1,0,0,1,0-1.41h0a1,1,0,0,1,1.42,0h0a1,1,0,0,1,0,1.41h0a1,1,0,0,1-.71.29h0A1,1,0,0,1,228.68,427.12Zm84.86-1.56a1,1,0,0,1,0-1.42h0a1,1,0,0,1,1.41,0h0a1,1,0,0,1,0,1.42h0a1,1,0,0,1-.71.29h0A1,1,0,0,1,313.54,425.56Zm-88.39-2a1,1,0,0,1,0-1.41h0a1,1,0,0,1,1.41,0h0a1,1,0,0,1,0,1.41h0a1,1,0,0,1-.7.3h0A1,1,0,0,1,225.15,423.58ZM317.07,422a1,1,0,0,1,0-1.41h0a1,1,0,0,1,1.42,0h0a1,1,0,0,1,0,1.41h0a1,1,0,0,1-.71.29h0A1,1,0,0,1,317.07,422Zm-95.46-2a1,1,0,0,1,0-1.41h0a1,1,0,0,1,1.42,0h0a1,1,0,0,1,0,1.41h0a1,1,0,0,1-.71.29h0A1,1,0,0,1,221.61,420.05Zm99-1.56a1,1,0,0,1,0-1.42h0a1,1,0,0,1,1.41,0h0a1,1,0,0,1,0,1.42h0a1,1,0,0,1-.71.29h0A1,1,0,0,1,320.61,418.49Zm-102.53-2a1,1,0,0,1,0-1.41h0a1,1,0,0,1,1.41,0h0a1,1,0,0,1,0,1.41h0a1,1,0,0,1-.71.3h0A1,1,0,0,1,218.08,416.51ZM324.14,415a1,1,0,0,1,0-1.41h0a1,1,0,0,1,1.42,0h0a1,1,0,0,1,0,1.41h0a1,1,0,0,1-.71.29h0A1,1,0,0,1,324.14,415Zm-109.6-2a1,1,0,0,1,0-1.42h0a1,1,0,0,1,1.42,0h0a1,1,0,0,1,0,1.42h0a1,1,0,0,1-.71.29h0A1,1,0,0,1,214.54,413Zm113.14-1.57a1,1,0,0,1,0-1.41h0a1,1,0,0,1,1.41,0h0a1,1,0,0,1,0,1.41h0a1,1,0,0,1-.7.3h0A1,1,0,0,1,327.68,411.41Zm-116.67-2a1,1,0,0,1,0-1.41h0a1,1,0,0,1,1.41,0h0a1,1,0,0,1,0,1.41h0a1,1,0,0,1-.71.3h0A1,1,0,0,1,211,409.44Zm120.2-1.56a1,1,0,0,1,0-1.42h0a1,1,0,0,1,1.42,0h0a1,1,0,0,1,0,1.42h0a1,1,0,0,1-.71.29h0A1,1,0,0,1,331.21,407.88Zm-123.74-2a1,1,0,0,1,0-1.42h0a1,1,0,0,1,1.41,0h0a1,1,0,0,1,0,1.42h0a1,1,0,0,1-.7.29h0A1,1,0,0,1,207.47,405.91Zm127.28-1.57a1,1,0,0,1,0-1.41h0a1,1,0,0,1,1.41,0h0a1,1,0,0,1,0,1.41h0a1,1,0,0,1-.7.3h0A1,1,0,0,1,334.75,404.34Zm-130.82-2a1,1,0,0,1,0-1.41h0a1,1,0,0,1,1.42,0h0a1,1,0,0,1,0,1.41h0a1,1,0,0,1-.71.29h0A1,1,0,0,1,203.93,402.37Zm134.35-1.56a1,1,0,0,1,0-1.42h0a1,1,0,0,1,1.42,0h0a1,1,0,0,1,0,1.42h0a1,1,0,0,1-.71.29h0A1,1,0,0,1,338.28,400.81Zm-137.88-2a1,1,0,0,1,0-1.42h0a1,1,0,0,1,1.41,0h0a1,1,0,0,1,0,1.42h0a1,1,0,0,1-.7.29h0A1,1,0,0,1,200.4,398.84Zm141.42-1.57a1,1,0,0,1,0-1.41h0a1,1,0,0,1,1.42,0h0a1,1,0,0,1,0,1.41h0a1,1,0,0,1-.71.3h0A1,1,0,0,1,341.82,397.27Zm-145-2a1,1,0,0,1,0-1.41h0a1,1,0,0,1,1.42,0h0a1,1,0,0,1,0,1.41h0a1,1,0,0,1-.71.29h0A1,1,0,0,1,196.86,395.3Zm148.49-1.56a1,1,0,0,1,0-1.42h0a1,1,0,0,1,1.42,0h0a1,1,0,0,1,0,1.42h0a1,1,0,0,1-.71.29h0A1,1,0,0,1,345.35,393.74Zm-152-2a1,1,0,0,1,0-1.42h0a1,1,0,0,1,1.41,0h0a1,1,0,0,1,0,1.42h0a1,1,0,0,1-.7.29h0A1,1,0,0,1,193.33,391.77Zm155.56-1.57a1,1,0,0,1,0-1.41h0a1,1,0,0,1,1.42,0h0a1,1,0,0,1,0,1.41h0a1,1,0,0,1-.71.29h0A1,1,0,0,1,348.89,390.2Zm-159.1-2a1,1,0,0,1,0-1.41h0a1,1,0,0,1,1.42,0h0a1,1,0,0,1,0,1.41h0a1,1,0,0,1-.71.29h0A1,1,0,0,1,189.79,388.23Zm162.64-1.56a1,1,0,0,1,0-1.42h0a1,1,0,0,1,1.41,0h0a1,1,0,0,1,0,1.42h0a1,1,0,0,1-.71.29h0A1,1,0,0,1,352.43,386.67Zm-166.17-2a1,1,0,0,1,0-1.41h0a1,1,0,0,1,1.41,0h0a1,1,0,0,1,0,1.41h0a1,1,0,0,1-.71.3h0A1,1,0,0,1,186.26,384.69ZM356,383.13a1,1,0,0,1,0-1.41h0a1,1,0,0,1,1.42,0h0a1,1,0,0,1,0,1.41h0a1,1,0,0,1-.71.29h0A1,1,0,0,1,356,383.13Zm-173.24-2a1,1,0,0,1,0-1.42h0a1,1,0,0,1,1.42,0h0a1,1,0,0,1,0,1.42h0a1,1,0,0,1-.71.29h0A1,1,0,0,1,182.72,381.16Zm176.78-1.57a1,1,0,0,1,0-1.41h0a1,1,0,0,1,1.41,0h0a1,1,0,0,1,0,1.41h0a1,1,0,0,1-.7.3h0A1,1,0,0,1,359.5,379.59Zm-180.31-2a1,1,0,0,1,0-1.41h0a1,1,0,0,1,1.41,0h0a1,1,0,0,1,0,1.41h0a1,1,0,0,1-.71.3h0A1,1,0,0,1,179.19,377.62ZM363,376.06a1,1,0,0,1,0-1.41h0a1,1,0,0,1,1.42,0h0a1,1,0,0,1,0,1.41h0a1,1,0,0,1-.71.29h0A1,1,0,0,1,363,376.06Zm-187.38-2a1,1,0,0,1,0-1.42h0a1,1,0,0,1,1.42,0h0a1,1,0,0,1,0,1.42h0a1,1,0,0,1-.71.29h0A1,1,0,0,1,175.65,374.09Zm190.92-1.57a1,1,0,0,1,0-1.41h0a1,1,0,0,1,1.41,0h0a1,1,0,0,1,0,1.41h0a1,1,0,0,1-.7.3h0A1,1,0,0,1,366.57,372.52Zm-194.45-2a1,1,0,0,1,0-1.41h0a1,1,0,0,1,1.41,0h0a1,1,0,0,1,0,1.41h0a1,1,0,0,1-.71.3h0A1,1,0,0,1,172.12,370.55Zm198-1.56a1,1,0,0,1,0-1.42h0a1,1,0,0,1,1.42,0h0a1,1,0,0,1,0,1.42h0a1,1,0,0,1-.71.29h0A1,1,0,0,1,370.1,369Zm-201.52-2a1,1,0,0,1,0-1.42h0a1,1,0,0,1,1.41,0h0a1,1,0,0,1,0,1.42h0a1,1,0,0,1-.7.29h0A1,1,0,0,1,168.58,367Zm205.06-1.57a1,1,0,0,1,0-1.41h0a1,1,0,0,1,1.41,0h0a1,1,0,0,1,0,1.41h0a1,1,0,0,1-.7.3h0A1,1,0,0,1,373.64,365.45Zm-208.6-2a1,1,0,0,1,0-1.41h0a1,1,0,0,1,1.42,0h0a1,1,0,0,1,0,1.41h0a1,1,0,0,1-.71.29h0A1,1,0,0,1,165,363.48Zm212.14-1.56a1,1,0,0,1,0-1.42h0a1,1,0,0,1,1.41,0h0a1,1,0,0,1,0,1.42h0a1,1,0,0,1-.71.29h0A1,1,0,0,1,377.18,361.92Zm-215.67-2a1,1,0,0,1,0-1.42h0a1,1,0,0,1,1.41,0h0a1,1,0,0,1,0,1.42h0a1,1,0,0,1-.7.29h0A1,1,0,0,1,161.51,360Zm219.2-1.57a1,1,0,0,1,0-1.41h0a1,1,0,0,1,1.42,0h0a1,1,0,0,1,0,1.41h0a1,1,0,0,1-.71.29h0A1,1,0,0,1,380.71,358.38Zm-222.74-2a1,1,0,0,1,0-1.41h0a1,1,0,0,1,1.42,0h0a1,1,0,0,1,0,1.41h0a1,1,0,0,1-.71.29h0A1,1,0,0,1,158,356.41Zm226.28-1.56a1,1,0,0,1,0-1.42h0a1,1,0,0,1,1.41,0h0a1,1,0,0,1,0,1.42h0a1,1,0,0,1-.71.29h0A1,1,0,0,1,384.25,354.85Zm-229.81-2a1,1,0,0,1,0-1.42h0a1,1,0,0,1,1.41,0h0a1,1,0,0,1,0,1.42h0a1,1,0,0,1-.71.29h0A1,1,0,0,1,154.44,352.88Zm233.34-1.57a1,1,0,0,1,0-1.41h0a1,1,0,0,1,1.42,0h0a1,1,0,0,1,0,1.41h0a1,1,0,0,1-.71.29h0A1,1,0,0,1,387.78,351.31Zm-236.88-2a1,1,0,0,1,0-1.41h0a1,1,0,0,1,1.42,0h0a1,1,0,0,1,0,1.41h0a1,1,0,0,1-.71.29h0A1,1,0,0,1,150.9,349.34Zm240.42-1.56a1,1,0,0,1,0-1.42h0a1,1,0,0,1,1.41,0h0a1,1,0,0,1,0,1.42h0a1,1,0,0,1-.71.29h0A1,1,0,0,1,391.32,347.78Zm-244-2a1,1,0,0,1,0-1.41h0a1,1,0,0,1,1.41,0h0a1,1,0,0,1,0,1.41h0a1,1,0,0,1-.71.3h0A1,1,0,0,1,147.37,345.8Zm247.48-1.56a1,1,0,0,1,0-1.41h0a1,1,0,0,1,1.42,0h0a1,1,0,0,1,0,1.41h0a1,1,0,0,1-.71.29h0A1,1,0,0,1,394.85,344.24Zm-251-2a1,1,0,0,1,0-1.42h0a1,1,0,0,1,1.42,0h0a1,1,0,0,1,0,1.42h0a1,1,0,0,1-.71.29h0A1,1,0,0,1,143.83,342.27Zm254.56-1.57a1,1,0,0,1,0-1.41h0a1,1,0,0,1,1.41,0h0a1,1,0,0,1,0,1.41h0a1,1,0,0,1-.7.3h0A1,1,0,0,1,398.39,340.7Zm-258.09-2a1,1,0,0,1,0-1.41h0a1,1,0,0,1,1.41,0h0a1,1,0,0,1,0,1.41h0a1,1,0,0,1-.71.29h0A1,1,0,0,1,140.3,338.73Zm261.62-1.56a1,1,0,0,1,0-1.42h0a1,1,0,0,1,1.42,0h0a1,1,0,0,1,0,1.42h0a1,1,0,0,1-.71.29h0A1,1,0,0,1,401.92,337.17Zm-265.16-2a1,1,0,0,1,0-1.42h0a1,1,0,0,1,1.41,0h0a1,1,0,0,1,0,1.42h0a1,1,0,0,1-.7.29h0A1,1,0,0,1,136.76,335.2Zm268.7-1.57a1,1,0,0,1,0-1.41h0a1,1,0,0,1,1.41,0h0a1,1,0,0,1,0,1.41h0a1,1,0,0,1-.7.3h0A1,1,0,0,1,405.46,333.63Zm-272.24-2a1,1,0,0,1,0-1.41h0a1,1,0,0,1,1.42,0h0a1,1,0,0,1,0,1.41h0a1,1,0,0,1-.71.29h0A1,1,0,0,1,133.22,331.66ZM409,330.1a1,1,0,0,1,0-1.42h0a1,1,0,0,1,1.41,0h0a1,1,0,0,1,0,1.42h0a1,1,0,0,1-.71.29h0A1,1,0,0,1,409,330.1Zm-279.31-2a1,1,0,0,1,0-1.41h0a1,1,0,0,1,1.41,0h0a1,1,0,0,1,0,1.41h0a1,1,0,0,1-.7.3h0A1,1,0,0,1,129.69,328.12Zm282.84-1.56a1,1,0,0,1,0-1.41h0a1,1,0,0,1,1.42,0h0a1,1,0,0,1,0,1.41h0a1,1,0,0,1-.71.3h0A1,1,0,0,1,412.53,326.56Zm-286.38-2a1,1,0,0,1,0-1.41h0a1,1,0,0,1,1.42,0h0a1,1,0,0,1,0,1.41h0a1,1,0,0,1-.71.29h0A1,1,0,0,1,126.15,324.59ZM416.07,323a1,1,0,0,1,0-1.42h0a1,1,0,0,1,1.41,0h0a1,1,0,0,1,0,1.42h0a1,1,0,0,1-.71.29h0A1,1,0,0,1,416.07,323Zm-293.45-2a1,1,0,0,1,0-1.42h0a1,1,0,0,1,1.41,0h0a1,1,0,0,1,0,1.42h0a1,1,0,0,1-.7.29h0A1,1,0,0,1,122.62,321.06Zm297-1.57a1,1,0,0,1,0-1.41h0a1,1,0,0,1,1.42,0h0a1,1,0,0,1,0,1.41h0a1,1,0,0,1-.71.29h0A1,1,0,0,1,419.6,319.49Zm-300.52-2a1,1,0,0,1,0-1.42h0a1,1,0,0,1,1.42,0h0a1,1,0,0,1,0,1.42h0a1,1,0,0,1-.71.29h0A1,1,0,0,1,119.08,317.52ZM423.14,316a1,1,0,0,1,0-1.42h0a1,1,0,0,1,1.41,0h0a1,1,0,0,1,0,1.42h0a1,1,0,0,1-.7.29h0A1,1,0,0,1,423.14,316Zm-307.59-2a1,1,0,0,1,0-1.41h0a1,1,0,0,1,1.41,0h0a1,1,0,0,1,0,1.41h0a1,1,0,0,1-.71.3h0A1,1,0,0,1,115.55,314Zm311.12-1.56a1,1,0,0,1,0-1.41h0a1,1,0,0,1,1.42,0h0a1,1,0,0,1,0,1.41h0a1,1,0,0,1-.71.29h0A1,1,0,0,1,426.67,312.42Zm-314.66-2a1,1,0,0,1,0-1.42h0a1,1,0,0,1,1.42,0h0a1,1,0,0,1,0,1.42h0a1,1,0,0,1-.71.29h0A1,1,0,0,1,112,310.45Zm318.2-1.57a1,1,0,0,1,0-1.41h0a1,1,0,0,1,1.41,0h0a1,1,0,0,1,0,1.41h0a1,1,0,0,1-.7.3h0A1,1,0,0,1,430.21,308.88Zm-321.73-2a1,1,0,0,1,0-1.41h0a1,1,0,0,1,1.41,0h0a1,1,0,0,1,0,1.41h0a1,1,0,0,1-.71.3h0A1,1,0,0,1,108.48,306.91Zm325.26-1.56a1,1,0,0,1,0-1.41h0a1,1,0,0,1,1.42,0h0a1,1,0,0,1,0,1.41h0a1,1,0,0,1-.71.29h0A1,1,0,0,1,433.74,305.35Zm-328.8-2a1,1,0,0,1,0-1.42h0a1,1,0,0,1,1.42,0h0a1,1,0,0,1,0,1.42h0a1,1,0,0,1-.71.29h0A1,1,0,0,1,104.94,303.38Zm332.34-1.57a1,1,0,0,1,0-1.41h0a1,1,0,0,1,1.41,0h0a1,1,0,0,1,0,1.41h0a1,1,0,0,1-.7.3h0A1,1,0,0,1,437.28,301.81Zm-335.87-2a1,1,0,0,1,0-1.41h0a1,1,0,0,1,1.41,0h0a1,1,0,0,1,0,1.41h0a1,1,0,0,1-.71.29h0A1,1,0,0,1,101.41,299.84Zm339.4-1.56a1,1,0,0,1,0-1.42h0a1,1,0,0,1,1.42,0h0a1,1,0,0,1,0,1.42h0a1,1,0,0,1-.71.29h0A1,1,0,0,1,440.81,298.28Zm-342.94-2a1,1,0,0,1,0-1.42h0a1,1,0,0,1,1.41,0h0a1,1,0,0,1,0,1.42h0a1,1,0,0,1-.7.29h0A1,1,0,0,1,97.87,296.31Zm346.48-1.57a1,1,0,0,1,0-1.41h0a1,1,0,0,1,1.41,0h0a1,1,0,0,1,0,1.41h0a1,1,0,0,1-.7.3h0A1,1,0,0,1,444.35,294.74Zm-350-2a1,1,0,0,1,0-1.41h0a1,1,0,0,1,1.42,0h0a1,1,0,0,1,0,1.41h0a1,1,0,0,1-.71.29h0A1,1,0,0,1,94.33,292.77Zm353.56-1.56a1,1,0,0,1,0-1.42h0a1,1,0,0,1,1.41,0h0a1,1,0,0,1,0,1.42h0a1,1,0,0,1-.71.29h0A1,1,0,0,1,447.89,291.21Zm-357.09-2a1,1,0,0,1,0-1.41h0a1,1,0,0,1,1.41,0h0a1,1,0,0,1,0,1.41h0a1,1,0,0,1-.7.3h0A1,1,0,0,1,90.8,289.23Zm360.62-1.56a1,1,0,0,1,0-1.41h0a1,1,0,0,1,1.42,0h0a1,1,0,0,1,0,1.41h0a1,1,0,0,1-.71.29h0A1,1,0,0,1,451.42,287.67Zm-364.16-2a1,1,0,0,1,0-1.42h0a1,1,0,0,1,1.42,0h0a1,1,0,0,1,0,1.42h0A1,1,0,0,1,88,286h0A1,1,0,0,1,87.26,285.7ZM455,284.14a1,1,0,0,1,0-1.42h0a1,1,0,0,1,1.41,0h0a1,1,0,0,1,0,1.42h0a1,1,0,0,1-.71.29h0A1,1,0,0,1,455,284.14Zm-371.23-2a1,1,0,0,1,0-1.41h0a1,1,0,0,1,1.41,0h0a1,1,0,0,1,0,1.41h0a1,1,0,0,1-.71.3h0A1,1,0,0,1,83.73,282.16Zm374.76-1.56a1,1,0,0,1,0-1.41h0a1,1,0,0,1,1.42,0h0a1,1,0,0,1,0,1.41h0a1,1,0,0,1-.71.29h0A1,1,0,0,1,458.49,280.6Zm-378.3-2a1,1,0,0,1,0-1.42h0a1,1,0,0,1,1.42,0h0a1,1,0,0,1,0,1.42h0a1,1,0,0,1-.71.29h0A1,1,0,0,1,80.19,278.63ZM462,277.07a1,1,0,0,1,0-1.42h0a1,1,0,0,1,1.41,0h0a1,1,0,0,1,0,1.42h0a1,1,0,0,1-.7.29h0A1,1,0,0,1,462,277.07Zm-385.37-2a1,1,0,0,1,0-1.41h0a1,1,0,0,1,1.41,0h0a1,1,0,0,1,0,1.41h0a1,1,0,0,1-.71.3h0A1,1,0,0,1,76.66,275.09Zm388.9-1.56a1,1,0,0,1,0-1.41h0a1,1,0,0,1,1.42,0h0a1,1,0,0,1,0,1.41h0a1,1,0,0,1-.71.29h0A1,1,0,0,1,465.56,273.53Zm-392.44-2a1,1,0,0,1,0-1.42h0a1,1,0,0,1,1.42,0h0a1,1,0,0,1,0,1.42h0a1,1,0,0,1-.71.29h0A1,1,0,0,1,73.12,271.56Zm396-1.57a1,1,0,0,1,0-1.41h0a1,1,0,0,1,1.41,0h0a1,1,0,0,1,0,1.41h0a1,1,0,0,1-.7.3h0A1,1,0,0,1,469.1,270ZM69.58,268a1,1,0,0,1,0-1.41h0a1,1,0,0,1,1.42,0h0A1,1,0,0,1,71,268h0a1,1,0,0,1-.71.29h0A1,1,0,0,1,69.58,268Zm403-1.56a1,1,0,0,1,0-1.42h0a1,1,0,0,1,1.42,0h0a1,1,0,0,1,0,1.42h0a1,1,0,0,1-.71.29h0A1,1,0,0,1,472.63,266.46ZM66,264.49a1,1,0,0,1,0-1.42h0a1,1,0,0,1,1.41,0h0a1,1,0,0,1,0,1.42h0a1,1,0,0,1-.7.29h0A1,1,0,0,1,66,264.49Zm410.12-1.57a1,1,0,0,1,0-1.41h0a1,1,0,0,1,1.41,0h0a1,1,0,0,1,0,1.41h0a1,1,0,0,1-.7.29h0A1,1,0,0,1,476.17,262.92ZM62.51,261a1,1,0,0,1,0-1.41h0a1,1,0,0,1,1.42,0h0a1,1,0,0,1,0,1.41h0a1,1,0,0,1-.71.29h0A1,1,0,0,1,62.51,261Zm417.2-1.56a1,1,0,0,1,0-1.42h0a1,1,0,0,1,1.41,0h0a1,1,0,0,1,0,1.42h0a1,1,0,0,1-.71.29h0A1,1,0,0,1,479.71,259.39ZM59,257.41A1,1,0,0,1,59,256h0a1,1,0,0,1,1.41,0h0a1,1,0,0,1,0,1.41h0a1,1,0,0,1-.7.3h0A1,1,0,0,1,59,257.41Zm424.26-1.56a1,1,0,0,1,0-1.41h0a1,1,0,0,1,1.42,0h0a1,1,0,0,1,0,1.41h0a1,1,0,0,1-.71.29h0A1,1,0,0,1,483.24,255.85Zm-427.8-2a1,1,0,0,1,0-1.41h0a1,1,0,0,1,1.42,0h0a1,1,0,0,1,0,1.41h0a1,1,0,0,1-.71.29h0A1,1,0,0,1,55.44,253.88Zm431.34-1.56a1,1,0,0,1,0-1.42h0a1,1,0,0,1,1.41,0h0a1,1,0,0,1,0,1.42h0a1,1,0,0,1-.71.29h0A1,1,0,0,1,486.78,252.32Zm-434.87-2a1,1,0,0,1,0-1.41h0a1,1,0,0,1,1.41,0h0a1,1,0,0,1,0,1.41h0a1,1,0,0,1-.7.3h0A1,1,0,0,1,51.91,250.34Zm438.4-1.56a1,1,0,0,1,0-1.41h0a1,1,0,0,1,1.42,0h0a1,1,0,0,1,0,1.41h0a1,1,0,0,1-.71.29h0A1,1,0,0,1,490.31,248.78Zm-441.94-2a1,1,0,0,1,0-1.42h0a1,1,0,0,1,1.42,0h0a1,1,0,0,1,0,1.42h0a1,1,0,0,1-.71.29h0A1,1,0,0,1,48.37,246.81Zm445.48-1.57a1,1,0,0,1,0-1.41h0a1,1,0,0,1,1.41,0h0a1,1,0,0,1,0,1.41h0a1,1,0,0,1-.71.3h0A1,1,0,0,1,493.85,245.24Zm-449-2a1,1,0,0,1,0-1.41h0a1,1,0,0,1,1.41,0h0a1,1,0,0,1,0,1.41h0a1,1,0,0,1-.71.3h0A1,1,0,0,1,44.84,243.27Zm452.54-1.56a1,1,0,0,1,0-1.42h0a1,1,0,0,1,1.42,0h0a1,1,0,0,1,0,1.42h0a1,1,0,0,1-.71.29h0A1,1,0,0,1,497.38,241.71Zm-456.08-2a1,1,0,0,1,0-1.42h0a1,1,0,0,1,1.41,0h0a1,1,0,0,1,0,1.42h0a1,1,0,0,1-.7.29h0A1,1,0,0,1,41.3,239.74Zm459.62-1.57a1,1,0,0,1,0-1.41h0a1,1,0,0,1,1.41,0h0a1,1,0,0,1,0,1.41h0a1,1,0,0,1-.7.3h0A1,1,0,0,1,500.92,238.17Zm-463.16-2a1,1,0,0,1,0-1.41h0a1,1,0,0,1,1.42,0h0a1,1,0,0,1,0,1.41h0a1,1,0,0,1-.71.29h0A1,1,0,0,1,37.76,236.2Zm466.7-1.56a1,1,0,0,1,0-1.41h0a1,1,0,0,1,1.41,0h0a1,1,0,0,1,0,1.41h0a1,1,0,0,1-.71.29h0A1,1,0,0,1,504.46,234.64Zm-466.29-2a1,1,0,0,1,0-1.42h0a1,1,0,0,1,1.42,0h0a1,1,0,0,1,0,1.42h0a1,1,0,0,1-.71.29h0A1,1,0,0,1,38.17,232.67Zm463.16-1.16a1,1,0,0,1,0-1.41h0a1,1,0,0,1,1.41,0h0a1,1,0,0,1,0,1.41h0a1,1,0,0,1-.71.29h0A1,1,0,0,1,501.33,231.51ZM41.71,229.13a1,1,0,0,1,0-1.41h0a1,1,0,0,1,1.41,0h0a1,1,0,0,1,0,1.41h0a1,1,0,0,1-.7.29h0A1,1,0,0,1,41.71,229.13ZM497.79,228a1,1,0,0,1,0-1.42h0a1,1,0,0,1,1.42,0h0a1,1,0,0,1,0,1.42h0a1,1,0,0,1-.71.29h0A1,1,0,0,1,497.79,228ZM45.24,225.6a1,1,0,0,1,0-1.42h0a1,1,0,0,1,1.42,0h0a1,1,0,0,1,0,1.42h0a1,1,0,0,1-.71.29h0A1,1,0,0,1,45.24,225.6Zm449-1.16a1,1,0,0,1,0-1.41h0a1,1,0,0,1,1.41,0h0a1,1,0,0,1,0,1.41h0a1,1,0,0,1-.71.29h0A1,1,0,0,1,494.26,224.44ZM48.78,222.06a1,1,0,0,1,0-1.41h0a1,1,0,0,1,1.41,0h0a1,1,0,0,1,0,1.41h0a1,1,0,0,1-.7.29h0A1,1,0,0,1,48.78,222.06Zm441.94-1.16a1,1,0,0,1,0-1.41h0a1,1,0,0,1,1.41,0h0a1,1,0,0,1,0,1.41h0a1,1,0,0,1-.7.3h0A1,1,0,0,1,490.72,220.9Zm-438.4-2.38a1,1,0,0,1,0-1.41h0a1,1,0,0,1,1.41,0h0a1,1,0,0,1,0,1.41h0a1,1,0,0,1-.71.3h0A1,1,0,0,1,52.32,218.52Zm434.86-1.15a1,1,0,0,1,0-1.42h0a1,1,0,0,1,1.42,0h0a1,1,0,0,1,0,1.42h0a1,1,0,0,1-.71.29h0A1,1,0,0,1,487.18,217.37ZM55.85,215a1,1,0,0,1,0-1.42h0a1,1,0,0,1,1.41,0h0a1,1,0,0,1,0,1.42h0a1,1,0,0,1-.7.29h0A1,1,0,0,1,55.85,215Zm427.8-1.16a1,1,0,0,1,0-1.41h0a1,1,0,0,1,1.41,0h0a1,1,0,0,1,0,1.41h0a1,1,0,0,1-.7.3h0A1,1,0,0,1,483.65,213.83ZM59.39,211.45a1,1,0,0,1,0-1.41h0a1,1,0,0,1,1.41,0h0a1,1,0,0,1,0,1.41h0a1,1,0,0,1-.71.3h0A1,1,0,0,1,59.39,211.45Zm420.72-1.15a1,1,0,0,1,0-1.42h0a1,1,0,0,1,1.42,0h0a1,1,0,0,1,0,1.42h0a1,1,0,0,1-.71.29h0A1,1,0,0,1,480.11,210.3ZM62.92,207.92a1,1,0,0,1,0-1.42h0a1,1,0,0,1,1.42,0h0a1,1,0,0,1,0,1.42h0a1,1,0,0,1-.71.29h0A1,1,0,0,1,62.92,207.92Zm413.66-1.16a1,1,0,0,1,0-1.41h0a1,1,0,0,1,1.41,0h0a1,1,0,0,1,0,1.41h0a1,1,0,0,1-.7.29h0A1,1,0,0,1,476.58,206.76ZM66.46,204.38a1,1,0,0,1,0-1.41h0a1,1,0,0,1,1.41,0h0a1,1,0,0,1,0,1.41h0a1,1,0,0,1-.71.3h0A1,1,0,0,1,66.46,204.38ZM473,203.23a1,1,0,0,1,0-1.42h0a1,1,0,0,1,1.42,0h0a1,1,0,0,1,0,1.42h0a1,1,0,0,1-.71.29h0A1,1,0,0,1,473,203.23ZM70,200.85a1,1,0,0,1,0-1.42h0a1,1,0,0,1,1.42,0h0a1,1,0,0,1,0,1.42h0a1,1,0,0,1-.71.29h0A1,1,0,0,1,70,200.85Zm399.52-1.16a1,1,0,0,1,0-1.41h0a1,1,0,0,1,1.41,0h0a1,1,0,0,1,0,1.41h0a1,1,0,0,1-.71.29h0A1,1,0,0,1,469.51,199.69Zm-396-2.38a1,1,0,0,1,0-1.41h0a1,1,0,0,1,1.41,0h0a1,1,0,0,1,0,1.41h0a1,1,0,0,1-.7.29h0A1,1,0,0,1,73.53,197.31ZM466,196.16a1,1,0,0,1,0-1.42h0a1,1,0,0,1,1.42,0h0a1,1,0,0,1,0,1.42h0a1,1,0,0,1-.71.29h0A1,1,0,0,1,466,196.16ZM77.06,193.78a1,1,0,0,1,0-1.42h0a1,1,0,0,1,1.42,0h0a1,1,0,0,1,0,1.42h0a1,1,0,0,1-.71.29h0A1,1,0,0,1,77.06,193.78Zm385.37-1.16a1,1,0,0,1,0-1.41h0a1,1,0,0,1,1.42,0h0a1,1,0,0,1,0,1.41h0a1,1,0,0,1-.71.29h0A1,1,0,0,1,462.43,192.62ZM80.6,190.24a1,1,0,0,1,0-1.41h0a1,1,0,0,1,1.41,0h0a1,1,0,0,1,0,1.41h0a1,1,0,0,1-.7.29h0A1,1,0,0,1,80.6,190.24Zm378.3-1.16a1,1,0,0,1,0-1.41h0a1,1,0,0,1,1.41,0h0a1,1,0,0,1,0,1.41h0a1,1,0,0,1-.7.3h0A1,1,0,0,1,458.9,189.08ZM84.14,186.7a1,1,0,0,1,0-1.41h0a1,1,0,0,1,1.41,0h0a1,1,0,0,1,0,1.41h0a1,1,0,0,1-.71.3h0A1,1,0,0,1,84.14,186.7Zm371.23-1.15a1,1,0,0,1,0-1.42h0a1,1,0,0,1,1.41,0h0a1,1,0,0,1,0,1.42h0a1,1,0,0,1-.71.29h0A1,1,0,0,1,455.37,185.55Zm-367.7-2.38a1,1,0,0,1,0-1.41h0a1,1,0,0,1,1.41,0h0a1,1,0,0,1,0,1.41h0a1,1,0,0,1-.7.29h0A1,1,0,0,1,87.67,183.17ZM451.83,182a1,1,0,0,1,0-1.41h0a1,1,0,0,1,1.41,0h0a1,1,0,0,1,0,1.41h0a1,1,0,0,1-.7.3h0A1,1,0,0,1,451.83,182ZM91.21,179.63a1,1,0,0,1,0-1.41h0a1,1,0,0,1,1.41,0h0a1,1,0,0,1,0,1.41h0a1,1,0,0,1-.71.3h0A1,1,0,0,1,91.21,179.63Zm357.08-1.15a1,1,0,0,1,0-1.42h0a1,1,0,0,1,1.42,0h0a1,1,0,0,1,0,1.42h0a1,1,0,0,1-.71.29h0A1,1,0,0,1,448.29,178.48ZM94.74,176.1a1,1,0,0,1,0-1.42h0a1,1,0,0,1,1.42,0h0a1,1,0,0,1,0,1.42h0a1,1,0,0,1-.71.29h0A1,1,0,0,1,94.74,176.1Zm350-1.16a1,1,0,0,1,0-1.41h0a1,1,0,0,1,1.41,0h0a1,1,0,0,1,0,1.41h0a1,1,0,0,1-.7.3h0A1,1,0,0,1,444.76,174.94ZM98.28,172.56a1,1,0,0,1,0-1.41h0a1,1,0,0,1,1.41,0h0a1,1,0,0,1,0,1.41h0a1,1,0,0,1-.71.3h0A1,1,0,0,1,98.28,172.56Zm342.94-1.15a1,1,0,0,1,0-1.42h0a1,1,0,0,1,1.42,0h0a1,1,0,0,1,0,1.42h0a1,1,0,0,1-.71.29h0A1,1,0,0,1,441.22,171.41ZM101.81,169a1,1,0,0,1,0-1.42h0a1,1,0,0,1,1.42,0h0a1,1,0,0,1,0,1.42h0a1,1,0,0,1-.71.29h0A1,1,0,0,1,101.81,169Zm335.88-1.16a1,1,0,0,1,0-1.41h0a1,1,0,0,1,1.41,0h0a1,1,0,0,1,0,1.41h0a1,1,0,0,1-.71.29h0A1,1,0,0,1,437.69,167.87Zm-332.34-2.38a1,1,0,0,1,0-1.41h0a1,1,0,0,1,1.41,0h0a1,1,0,0,1,0,1.41h0a1,1,0,0,1-.7.29h0A1,1,0,0,1,105.35,165.49Zm328.8-1.15a1,1,0,0,1,0-1.42h0a1,1,0,0,1,1.42,0h0a1,1,0,0,1,0,1.42h0a1,1,0,0,1-.71.29h0A1,1,0,0,1,434.15,164.34ZM108.88,162a1,1,0,0,1,0-1.42h0a1,1,0,0,1,1.42,0h0a1,1,0,0,1,0,1.42h0a1,1,0,0,1-.71.29h0A1,1,0,0,1,108.88,162Zm321.74-1.16a1,1,0,0,1,0-1.41h0a1,1,0,0,1,1.41,0h0a1,1,0,0,1,0,1.41h0a1,1,0,0,1-.71.29h0A1,1,0,0,1,430.62,160.8Zm-318.2-2.38a1,1,0,0,1,0-1.41h0a1,1,0,0,1,1.41,0h0a1,1,0,0,1,0,1.41h0a1,1,0,0,1-.7.29h0A1,1,0,0,1,112.42,158.42Zm314.66-1.15a1,1,0,0,1,0-1.42h0a1,1,0,0,1,1.42,0h0a1,1,0,0,1,0,1.42h0a1,1,0,0,1-.71.29h0A1,1,0,0,1,427.08,157.27ZM116,154.89a1,1,0,0,1,0-1.42h0a1,1,0,0,1,1.42,0h0a1,1,0,0,1,0,1.42h0a1,1,0,0,1-.71.29h0A1,1,0,0,1,116,154.89Zm307.59-1.16a1,1,0,0,1,0-1.41h0a1,1,0,0,1,1.42,0h0a1,1,0,0,1,0,1.41h0a1,1,0,0,1-.71.29h0A1,1,0,0,1,423.54,153.73Zm-304-2.38a1,1,0,0,1,0-1.41h0a1,1,0,0,1,1.41,0h0a1,1,0,0,1,0,1.41h0a1,1,0,0,1-.7.29h0A1,1,0,0,1,119.49,151.35ZM420,150.19a1,1,0,0,1,0-1.41h0a1,1,0,0,1,1.42,0h0a1,1,0,0,1,0,1.41h0a1,1,0,0,1-.71.3h0A1,1,0,0,1,420,150.19Zm-297-2.38a1,1,0,0,1,0-1.41h0a1,1,0,0,1,1.41,0h0a1,1,0,0,1,0,1.41h0a1,1,0,0,1-.71.3h0A1,1,0,0,1,123,147.81Zm293.44-1.15a1,1,0,0,1,0-1.42h0a1,1,0,0,1,1.42,0h0a1,1,0,0,1,0,1.42h0a1,1,0,0,1-.71.29h0A1,1,0,0,1,416.47,146.66Zm-289.91-2.38a1,1,0,0,1,0-1.42h0a1,1,0,0,1,1.41,0h0a1,1,0,0,1,0,1.42h0a1,1,0,0,1-.7.29h0A1,1,0,0,1,126.56,144.28Zm286.38-1.16a1,1,0,0,1,0-1.41h0a1,1,0,0,1,1.41,0h0a1,1,0,0,1,0,1.41h0a1,1,0,0,1-.7.29h0A1,1,0,0,1,412.94,143.12ZM130.1,140.74a1,1,0,0,1,0-1.41h0a1,1,0,0,1,1.41,0h0a1,1,0,0,1,0,1.41h0a1,1,0,0,1-.71.3h0A1,1,0,0,1,130.1,140.74Zm279.3-1.15a1,1,0,0,1,0-1.42h0a1,1,0,0,1,1.42,0h0a1,1,0,0,1,0,1.42h0a1,1,0,0,1-.71.29h0A1,1,0,0,1,409.4,139.59Zm-275.77-2.38a1,1,0,0,1,0-1.42h0a1,1,0,0,1,1.42,0h0a1,1,0,0,1,0,1.42h0a1,1,0,0,1-.71.29h0A1,1,0,0,1,133.63,137.21Zm272.24-1.16a1,1,0,0,1,0-1.41h0a1,1,0,0,1,1.41,0h0a1,1,0,0,1,0,1.41h0a1,1,0,0,1-.71.3h0A1,1,0,0,1,405.87,136.05Zm-268.7-2.38a1,1,0,0,1,0-1.41h0a1,1,0,0,1,1.41,0h0a1,1,0,0,1,0,1.41h0a1,1,0,0,1-.7.3h0A1,1,0,0,1,137.17,133.67Zm265.16-1.16a1,1,0,0,1,0-1.41h0a1,1,0,0,1,1.42,0h0a1,1,0,0,1,0,1.41h0a1,1,0,0,1-.71.3h0A1,1,0,0,1,402.33,132.51ZM140.7,130.14a1,1,0,0,1,0-1.42h0a1,1,0,0,1,1.42,0h0a1,1,0,0,1,0,1.42h0a1,1,0,0,1-.71.29h0A1,1,0,0,1,140.7,130.14ZM398.8,129a1,1,0,0,1,0-1.41h0a1,1,0,0,1,1.41,0h0a1,1,0,0,1,0,1.41h0a1,1,0,0,1-.71.29h0A1,1,0,0,1,398.8,129ZM144.24,126.6a1,1,0,0,1,0-1.41h0a1,1,0,0,1,1.41,0h0a1,1,0,0,1,0,1.41h0a1,1,0,0,1-.7.29h0A1,1,0,0,1,144.24,126.6Zm251-1.16a1,1,0,0,1,0-1.41h0a1,1,0,0,1,1.42,0h0a1,1,0,0,1,0,1.41h0a1,1,0,0,1-.71.3h0A1,1,0,0,1,395.26,125.44Zm-247.49-2.37a1,1,0,0,1,0-1.42h0a1,1,0,0,1,1.42,0h0a1,1,0,0,1,0,1.42h0a1,1,0,0,1-.71.29h0A1,1,0,0,1,147.77,123.07Zm243.95-1.16a1,1,0,0,1,0-1.42h0a1,1,0,0,1,1.42,0h0a1,1,0,0,1,0,1.42h0a1,1,0,0,1-.71.29h0A1,1,0,0,1,391.72,121.91Zm-240.41-2.38a1,1,0,0,1,0-1.42h0a1,1,0,0,1,1.42,0h0a1,1,0,0,1,0,1.42h0a1,1,0,0,1-.71.29h0A1,1,0,0,1,151.31,119.53Zm236.88-1.16a1,1,0,0,1,0-1.41h0a1,1,0,0,1,1.41,0h0a1,1,0,0,1,0,1.41h0a1,1,0,0,1-.7.3h0A1,1,0,0,1,388.19,118.37ZM154.85,116a1,1,0,0,1,0-1.42h0a1,1,0,0,1,1.41,0h0a1,1,0,0,1,0,1.42h0a1,1,0,0,1-.71.29h0A1,1,0,0,1,154.85,116Zm229.8-1.16a1,1,0,0,1,0-1.42h0a1,1,0,0,1,1.42,0h0a1,1,0,0,1,0,1.42h0a1,1,0,0,1-.71.29h0A1,1,0,0,1,384.65,114.84Zm-226.27-2.38a1,1,0,0,1,0-1.42h0a1,1,0,0,1,1.42,0h0a1,1,0,0,1,0,1.42h0a1,1,0,0,1-.71.29h0A1,1,0,0,1,158.38,112.46Zm222.74-1.16a1,1,0,0,1,0-1.41h0a1,1,0,0,1,1.41,0h0a1,1,0,0,1,0,1.41h0a1,1,0,0,1-.7.3h0A1,1,0,0,1,381.12,111.3Zm-219.2-2.38a1,1,0,0,1,0-1.41h0a1,1,0,0,1,1.41,0h0a1,1,0,0,1,0,1.41h0a1,1,0,0,1-.71.3h0A1,1,0,0,1,161.92,108.92Zm215.66-1.15a1,1,0,0,1,0-1.42h0a1,1,0,0,1,1.42,0h0a1,1,0,0,1,0,1.42h0a1,1,0,0,1-.71.29h0A1,1,0,0,1,377.58,107.77Zm-212.13-2.38a1,1,0,0,1,0-1.42h0a1,1,0,0,1,1.42,0h0a1,1,0,0,1,0,1.42h0a1,1,0,0,1-.71.29h0A1,1,0,0,1,165.45,105.39ZM374,104.23a1,1,0,0,1,0-1.41h0a1,1,0,0,1,1.41,0h0a1,1,0,0,1,0,1.41h0a1,1,0,0,1-.7.29h0A1,1,0,0,1,374,104.23ZM169,101.85a1,1,0,0,1,0-1.41h0a1,1,0,0,1,1.41,0h0a1,1,0,0,1,0,1.41h0a1,1,0,0,1-.71.29h0A1,1,0,0,1,169,101.85Zm201.52-1.15a1,1,0,0,1,0-1.42h0a1,1,0,0,1,1.42,0h0a1,1,0,0,1,0,1.42h0a1,1,0,0,1-.71.29h0A1,1,0,0,1,370.51,100.7Zm-198-2.38a1,1,0,0,1,0-1.42h0a1,1,0,0,1,1.42,0h0a1,1,0,0,1,0,1.42h0a1,1,0,0,1-.71.29h0A1,1,0,0,1,172.52,98.32ZM367,97.16a1,1,0,0,1,0-1.41h0a1,1,0,0,1,1.41,0h0a1,1,0,0,1,0,1.41h0a1,1,0,0,1-.71.29h0A1,1,0,0,1,367,97.16ZM176.06,94.78a1,1,0,0,1,0-1.41h0a1,1,0,0,1,1.41,0h0a1,1,0,0,1,0,1.41h0a1,1,0,0,1-.7.29h0A1,1,0,0,1,176.06,94.78Zm187.38-1.16a1,1,0,0,1,0-1.41h0a1,1,0,0,1,1.42,0h0a1,1,0,0,1,0,1.41h0a1,1,0,0,1-.71.3h0A1,1,0,0,1,363.44,93.62ZM179.6,91.24a1,1,0,0,1,0-1.41h0a1,1,0,0,1,1.41,0h0a1,1,0,0,1,0,1.41h0a1,1,0,0,1-.71.3h0A1,1,0,0,1,179.6,91.24Zm180.31-1.15a1,1,0,0,1,0-1.42h0a1,1,0,0,1,1.41,0h0a1,1,0,0,1,0,1.42h0a1,1,0,0,1-.71.29h0A1,1,0,0,1,359.91,90.09ZM183.13,87.71a1,1,0,0,1,0-1.41h0a1,1,0,0,1,1.41,0h0a1,1,0,0,1,0,1.41h0a1,1,0,0,1-.7.29h0A1,1,0,0,1,183.13,87.71Zm173.24-1.16a1,1,0,0,1,0-1.41h0a1,1,0,0,1,1.42,0h0a1,1,0,0,1,0,1.41h0a1,1,0,0,1-.71.3h0A1,1,0,0,1,356.37,86.55Zm-169.7-2.38a1,1,0,0,1,0-1.41h0a1,1,0,0,1,1.41,0h0a1,1,0,0,1,0,1.41h0a1,1,0,0,1-.71.3h0A1,1,0,0,1,186.67,84.17ZM352.83,83a1,1,0,0,1,0-1.42h0a1,1,0,0,1,1.42,0h0a1,1,0,0,1,0,1.42h0a1,1,0,0,1-.71.29h0A1,1,0,0,1,352.83,83ZM190.2,80.64a1,1,0,0,1,0-1.42h0a1,1,0,0,1,1.42,0h0a1,1,0,0,1,0,1.42h0a1,1,0,0,1-.71.29h0A1,1,0,0,1,190.2,80.64Zm159.1-1.16a1,1,0,0,1,0-1.41h0a1,1,0,0,1,1.42,0h0a1,1,0,0,1,0,1.41h0a1,1,0,0,1-.71.3h0A1,1,0,0,1,349.3,79.48ZM193.74,77.1a1,1,0,0,1,0-1.41h0a1,1,0,0,1,1.41,0h0a1,1,0,0,1,0,1.41h0a1,1,0,0,1-.71.3h0A1,1,0,0,1,193.74,77.1Zm152-1.15a1,1,0,0,1,0-1.42h0a1,1,0,0,1,1.42,0h0a1,1,0,0,1,0,1.42h0a1,1,0,0,1-.71.29h0A1,1,0,0,1,345.76,76ZM197.27,73.57a1,1,0,0,1,0-1.42h0a1,1,0,0,1,1.42,0h0a1,1,0,0,1,0,1.42h0a1,1,0,0,1-.71.29h0A1,1,0,0,1,197.27,73.57Zm145-1.16a1,1,0,0,1,0-1.41h0a1,1,0,0,1,1.41,0h0a1,1,0,0,1,0,1.41h0a1,1,0,0,1-.71.29h0A1,1,0,0,1,342.23,72.41ZM200.81,70a1,1,0,0,1,0-1.41h0a1,1,0,0,1,1.41,0h0a1,1,0,0,1,0,1.41h0a1,1,0,0,1-.71.3h0A1,1,0,0,1,200.81,70Zm137.88-1.15a1,1,0,0,1,0-1.42h0a1,1,0,0,1,1.42,0h0a1,1,0,0,1,0,1.42h0a1,1,0,0,1-.71.29h0A1,1,0,0,1,338.69,68.88ZM204.34,66.5a1,1,0,0,1,0-1.42h0a1,1,0,0,1,1.42,0h0a1,1,0,0,1,0,1.42h0a1,1,0,0,1-.71.29h0A1,1,0,0,1,204.34,66.5Zm130.82-1.16a1,1,0,0,1,0-1.41h0a1,1,0,0,1,1.41,0h0a1,1,0,0,1,0,1.41h0a1,1,0,0,1-.71.29h0A1,1,0,0,1,335.16,65.34ZM207.88,63a1,1,0,0,1,0-1.41h0a1,1,0,0,1,1.41,0h0a1,1,0,0,1,0,1.41h0a1,1,0,0,1-.7.29h0A1,1,0,0,1,207.88,63Zm123.74-1.15a1,1,0,0,1,0-1.42h0a1,1,0,0,1,1.42,0h0a1,1,0,0,1,0,1.42h0a1,1,0,0,1-.71.29h0A1,1,0,0,1,331.62,61.81ZM211.41,59.43a1,1,0,0,1,0-1.42h0a1,1,0,0,1,1.42,0h0a1,1,0,0,1,0,1.42h0a1,1,0,0,1-.71.29h0A1,1,0,0,1,211.41,59.43Zm116.68-1.16a1,1,0,0,1,0-1.41h0a1,1,0,0,1,1.41,0h0a1,1,0,0,1,0,1.41h0a1,1,0,0,1-.71.29h0A1,1,0,0,1,328.09,58.27ZM215,55.89a1,1,0,0,1,0-1.41h0a1,1,0,0,1,1.41,0h0a1,1,0,0,1,0,1.41h0a1,1,0,0,1-.7.29h0A1,1,0,0,1,215,55.89Zm109.6-1.16a1,1,0,0,1,0-1.41h0a1,1,0,0,1,1.42,0h0a1,1,0,0,1,0,1.41h0a1,1,0,0,1-.71.3h0A1,1,0,0,1,324.55,54.73ZM218.49,52.35a1,1,0,0,1,0-1.41h0a1,1,0,0,1,1.41,0h0a1,1,0,0,1,0,1.41h0a1,1,0,0,1-.71.3h0A1,1,0,0,1,218.49,52.35ZM321,51.2a1,1,0,0,1,0-1.42h0a1,1,0,0,1,1.42,0h0a1,1,0,0,1,0,1.42h0a1,1,0,0,1-.71.29h0A1,1,0,0,1,321,51.2Zm-99-2.38a1,1,0,0,1,0-1.42h0a1,1,0,0,1,1.42,0h0a1,1,0,0,1,0,1.42h0a1,1,0,0,1-.71.29h0A1,1,0,0,1,222,48.82Zm95.46-1.16a1,1,0,0,1,0-1.41h0a1,1,0,0,1,1.41,0h0a1,1,0,0,1,0,1.41h0a1,1,0,0,1-.7.3h0A1,1,0,0,1,317.48,47.66Zm-91.92-2.38a1,1,0,0,1,0-1.41h0a1,1,0,0,1,1.41,0h0a1,1,0,0,1,0,1.41h0a1,1,0,0,1-.71.3h0A1,1,0,0,1,225.56,45.28Zm88.38-1.15a1,1,0,0,1,0-1.42h0a1,1,0,0,1,1.42,0h0a1,1,0,0,1,0,1.42h0a1,1,0,0,1-.71.29h0A1,1,0,0,1,313.94,44.13Zm-84.85-2.38a1,1,0,0,1,0-1.42h0a1,1,0,0,1,1.42,0h0a1,1,0,0,1,0,1.42h0a1,1,0,0,1-.71.29h0A1,1,0,0,1,229.09,41.75Zm81.32-1.16a1,1,0,0,1,0-1.41h0a1,1,0,0,1,1.41,0h0a1,1,0,0,1,0,1.41h0a1,1,0,0,1-.7.29h0A1,1,0,0,1,310.41,40.59Zm-77.78-2.38a1,1,0,0,1,0-1.41h0a1,1,0,0,1,1.41,0h0a1,1,0,0,1,0,1.41h0a1,1,0,0,1-.71.3h0A1,1,0,0,1,232.63,38.21Zm74.24-1.15a1,1,0,0,1,0-1.42h0a1,1,0,0,1,1.42,0h0a1,1,0,0,1,0,1.42h0a1,1,0,0,1-.71.29h0A1,1,0,0,1,306.87,37.06Zm-70.71-2.38a1,1,0,0,1,0-1.42h0a1,1,0,0,1,1.42,0h0a1,1,0,0,1,0,1.42h0a1,1,0,0,1-.71.29h0A1,1,0,0,1,236.16,34.68Zm67.18-1.16a1,1,0,0,1,0-1.41h0a1,1,0,0,1,1.41,0h0a1,1,0,0,1,0,1.41h0a1,1,0,0,1-.71.29h0A1,1,0,0,1,303.34,33.52ZM239.7,31.14a1,1,0,0,1,0-1.41h0a1,1,0,0,1,1.41,0h0a1,1,0,0,1,0,1.41h0a1,1,0,0,1-.7.29h0A1,1,0,0,1,239.7,31.14ZM299.8,30a1,1,0,0,1,0-1.42h0a1,1,0,0,1,1.42,0h0a1,1,0,0,1,0,1.42h0a1,1,0,0,1-.71.29h0A1,1,0,0,1,299.8,30Zm-56.57-2.38a1,1,0,0,1,0-1.42h0a1,1,0,0,1,1.42,0h0a1,1,0,0,1,0,1.42h0a1,1,0,0,1-.71.29h0A1,1,0,0,1,243.23,27.61Zm53-1.16a1,1,0,0,1,0-1.41h0a1,1,0,0,1,1.42,0h0a1,1,0,0,1,0,1.41h0a1,1,0,0,1-.71.29h0A1,1,0,0,1,296.26,26.45Zm-49.49-2.38a1,1,0,0,1,0-1.41h0a1,1,0,0,1,1.41,0h0a1,1,0,0,1,0,1.41h0a1,1,0,0,1-.7.29h0A1,1,0,0,1,246.77,24.07Zm46-1.16a1,1,0,0,1,0-1.41h0a1,1,0,0,1,1.41,0h0a1,1,0,0,1,0,1.41h0a1,1,0,0,1-.7.3h0A1,1,0,0,1,292.73,22.91ZM250.3,20.53a1,1,0,0,1,0-1.41h0a1,1,0,0,1,1.42,0h0a1,1,0,0,1,0,1.41h0a1,1,0,0,1-.71.3h0A1,1,0,0,1,250.3,20.53Zm38.9-1.15a1,1,0,0,1,0-1.42h0a1,1,0,0,1,1.41,0h0a1,1,0,0,1,0,1.42h0a1,1,0,0,1-.71.29h0A1,1,0,0,1,289.2,19.38ZM253.84,17a1,1,0,0,1,0-1.41h0a1,1,0,0,1,1.41,0h0a1,1,0,0,1,0,1.41h0a1,1,0,0,1-.7.29h0A1,1,0,0,1,253.84,17Zm31.82-1.16a1,1,0,0,1,0-1.41h0a1,1,0,0,1,1.41,0h0a1,1,0,0,1,0,1.41h0a1,1,0,0,1-.7.3h0A1,1,0,0,1,285.66,15.84Zm-28.28-2.38a1,1,0,0,1,0-1.41h0a1,1,0,0,1,1.41,0h0a1,1,0,0,1,0,1.41h0a1,1,0,0,1-.71.3h0A1,1,0,0,1,257.38,13.46Zm24.74-1.15a1,1,0,0,1,0-1.42h0a1,1,0,0,1,1.42,0h0a1,1,0,0,1,0,1.42h0a1,1,0,0,1-.71.29h0A1,1,0,0,1,282.12,12.31ZM260.91,9.93a1,1,0,0,1,0-1.42h0a1,1,0,0,1,1.42,0h0a1,1,0,0,1,0,1.42h0a1,1,0,0,1-.71.29h0A1,1,0,0,1,260.91,9.93Zm17.68-1.16a1,1,0,0,1,0-1.41h0a1,1,0,0,1,1.42,0h0a1,1,0,0,1,0,1.41h0a1,1,0,0,1-.71.3h0A1,1,0,0,1,278.59,8.77ZM264.45,6.39a1,1,0,0,1,0-1.41h0a1,1,0,0,1,1.41,0h0a1,1,0,0,1,0,1.41h0a1,1,0,0,1-.71.3h0A1,1,0,0,1,264.45,6.39ZM275,5.24a1,1,0,0,1,0-1.42h0a1,1,0,0,1,1.42,0h0a1,1,0,0,1,0,1.42h0a1,1,0,0,1-.71.29h0A1,1,0,0,1,275,5.24ZM268,2.86a1,1,0,0,1,0-1.42h0a1,1,0,0,1,1.42,0h0a1,1,0,0,1,0,1.42h0a1,1,0,0,1-.71.29h0A1,1,0,0,1,268,2.86Zm3.54-1.16a1,1,0,0,1,0-1.41h0a1,1,0,0,1,1.41,0h0a1,1,0,0,1,0,1.41h0a1,1,0,0,1-.71.29h0A1,1,0,0,1,271.52,1.7Z"/></g></g></svg>