<svg xmlns="http://www.w3.org/2000/svg" viewBox="0 0 18.88 32.27"><defs><style>.cls-1{fill:#4d4f53;}</style></defs><title>hero-mouse</title><g id="Layer_2" data-name="Layer 2"><g id="design"><path class="cls-1" d="M8.58,11.67a.33.33,0,0,1,.34.34v3.43a.34.34,0,0,1-.69,0V12A.33.33,0,0,1,8.58,11.67Zm0-1.37A1.73,1.73,0,0,0,6.87,12v3.43a1.72,1.72,0,0,0,3.43,0V12A1.73,1.73,0,0,0,8.58,10.3Zm0-2.06a7.18,7.18,0,0,1,7.21,7.21v8.24a7.21,7.21,0,0,1-14.42,0V15.45A7.18,7.18,0,0,1,8.58,8.24ZM11,0A3.1,3.1,0,0,0,7.9,3.09V6.9A8.57,8.57,0,0,0,0,15.45v8.24a8.58,8.58,0,0,0,17.16,0V15.45A8.57,8.57,0,0,0,9.27,6.9V3.09A1.7,1.7,0,0,1,11,1.37,1.66,1.66,0,0,1,12.7,3.11l0,.69a3.08,3.08,0,1,0,6.16,0,.69.69,0,1,0-1.37,0,1.71,1.71,0,1,1-3.41,0l0-.69A3.12,3.12,0,0,0,11,0Z"/></g></g></svg>