<svg xmlns="http://www.w3.org/2000/svg" viewBox="0 0 70 70"><defs><style>.cls-1,.cls-2{fill:#b4650e;}.cls-2,.cls-3{stroke:#fff;}.cls-2{stroke-miterlimit:10;}.cls-3{fill:none;stroke-linecap:round;stroke-linejoin:round;}</style></defs><title>impact-research-icon</title><g id="Layer_2" data-name="Layer 2"><g id="design"><circle class="cls-1" cx="35" cy="35" r="35"/><rect class="cls-2" x="20.69" y="18.41" width="29.25" height="35.51" rx="1" ry="1"/><path class="cls-2" d="M43.33,16.55H39.51a4.25,4.25,0,0,0-8.3,0h-3.9a.83.83,0,0,0-.83.83v5.14H44.16V17.38A.83.83,0,0,0,43.33,16.55Zm-8,1.58A1.16,1.16,0,1,1,36.52,17,1.09,1.09,0,0,1,35.36,18.12Z"/><line class="cls-3" x1="32.17" y1="28.72" x2="44" y2="28.72"/><line class="cls-3" x1="32.17" y1="34.8" x2="44" y2="34.8"/><line class="cls-3" x1="32.17" y1="40.89" x2="44" y2="40.89"/><line class="cls-3" x1="32.17" y1="46.97" x2="44" y2="46.97"/><line class="cls-3" x1="26.15" y1="28.72" x2="28.78" y2="28.72"/><line class="cls-3" x1="26.15" y1="34.8" x2="28.78" y2="34.8"/><line class="cls-3" x1="26.15" y1="40.89" x2="28.78" y2="40.89"/><line class="cls-3" x1="26.15" y1="46.97" x2="28.78" y2="46.97"/></g></g></svg>