<svg width="191" height="18" xmlns="http://www.w3.org/2000/svg" xmlns:sketch="http://www.bohemiancoding.com/sketch/ns"><title>Slice 2</title><g sketch:type="MSShapeGroup" transform="translate(-13)" fill="none"><path d="M46.358 8.484c0-1.724-.755-3.343-2.081-4.751l-14.564 14.564c9.195-.009 16.645-4.399 16.645-9.813" fill="#243C85"/><path d="M13 8.484c0 5.414 7.45 9.804 16.645 9.813l-14.565-14.564c-1.325 1.408-2.08 3.027-2.08 4.751" fill="#243C85"/><path d="M34.844 5.001c0 2.853-2.313 5.165-5.165 5.165-2.854 0-5.165-2.312-5.165-5.165 0-2.854 2.311-5.164 5.165-5.164 2.852 0 5.165 2.31 5.165 5.164" fill="#2A71B9"/><path d="M66.779 4.851c-.405.161-.607.283-.891 1.537l-1.658 7.419h-1.187l-1.93-5.907c-.134-.419-.256-.891-.269-1.161h-.028c-.026.216-.161.715-.323 1.161l-2.117 5.907h-1.202l-1.712-7.567c-.257-1.147-.473-1.228-.877-1.389l-.311-.122v-.229h3.913v.229l-.554.135c-.471.121-.567.256-.337 1.376l.877 4.343c.081.419.162.917.175 1.215h.041c.041-.271.175-.729.337-1.201l2.131-6.124h.85l1.93 6.083c.148.459.269.918.309 1.214h.027c.013-.283.108-.836.189-1.24l.783-3.831c.282-1.416.175-1.7-.337-1.835l-.527-.135v-.229h3.008v.229l-.31.122z" fill="#4C4D4D"/><path d="M70.314 7.292c-1.133 0-1.484 1.147-1.484 2.388 0 1.16.445 3.615 1.887 3.615 1.188 0 1.566-1.173 1.566-2.401 0-1.133-.486-3.602-1.969-3.602m.134 6.516c-2.077 0-3.332-1.336-3.332-3.373 0-1.956 1.282-3.655 3.535-3.655 2.158 0 3.331 1.403 3.331 3.372 0 2.077-1.402 3.656-3.534 3.656" fill="#4C4D4D"/><path d="M83.074 13.605v-.202l.391-.108c.472-.135.553-.202.553-1.174v-2.914c0-.863-.526-1.389-1.362-1.389-.756 0-1.229.445-1.229.863v3.44c0 .972.068 1.039.54 1.174l.391.108v.202h-3.439v-.202l.391-.108c.473-.135.553-.202.553-1.174v-2.914c0-.863-.526-1.389-1.362-1.389-.755 0-1.228.445-1.228.863v3.44c0 .972.068 1.039.539 1.174l.392.108v.202h-3.466v-.202l.417-.108c.472-.135.554-.202.554-1.174v-3.453c0-.971-.096-1.052-.581-1.16l-.472-.094v-.203l2.443-.323.093.054v.998h.013c.622-.634 1.242-1.12 2.173-1.12.944 0 1.619.432 1.901 1.187h.014c.621-.661 1.282-1.187 2.24-1.187 1.267 0 2.049.783 2.049 2.064v3.237c0 .972.081 1.039.553 1.174l.419.108v.202h-3.48z" fill="#4C4D4D"/><path d="M90.007 7.36c-1.025 0-1.524.876-1.606 1.672h1.822c.715 0 1.106-.081 1.106-.566 0-.554-.567-1.106-1.322-1.106m.134 6.407c-1.726 0-2.994-1.322-2.994-3.332 0-1.807 1.134-3.655 3.184-3.655 1.565 0 2.549 1.173 2.549 2.482l-.013.27h-4.466c-.012 1.645.918 2.994 2.685 2.994.701 0 1.295-.243 1.659-.512l.163.202c-.742.849-1.511 1.551-2.767 1.551" fill="#4C4D4D"/><path d="M98.02 13.605v-.202l.417-.108c.473-.122.554-.202.554-1.174v-2.914c0-.863-.554-1.389-1.443-1.389-.797 0-1.31.445-1.31.863v3.44c0 .972.082 1.052.554 1.174l.418.108v.202h-3.507v-.202l.419-.108c.472-.122.552-.202.552-1.174v-3.453c0-.971-.094-1.065-.579-1.16l-.473-.094v-.203l2.442-.323.095.054v.998h.013c.647-.634 1.308-1.12 2.265-1.12 1.309 0 2.119.783 2.119 2.064v3.237c0 .972.081 1.052.552 1.174l.419.108v.202h-3.507z" fill="#4C4D4D"/><path d="M101.904 7.873l-.203-.351c.621-.31 1.268-.823 1.268-1.551 0-.62-.539-1.133-1.2-1.08l-.081-.04c-.04-.108-.054-.243-.054-.35 0-.419.283-.783.769-.783.823 0 1.403.783 1.403 1.565 0 1.294-.85 2.09-1.902 2.59" fill="#4C4D4D"/><path d="M106.139 13.726c-.54 0-1.2-.121-1.618-.337l-.136-1.699.284-.055.175.567c.175.526.594.958 1.363.958.593 0 1.214-.337 1.214-.998 0-.769-.756-1.08-1.524-1.471-.796-.404-1.457-.904-1.457-1.875 0-1.322 1.2-1.956 2.334-1.956.39 0 .97.055 1.456.283v1.578h-.27l-.121-.499c-.122-.458-.499-.823-1.228-.823-.607 0-1.025.351-1.025.823 0 .608.688.891 1.443 1.269.917.458 1.565.971 1.565 2.063 0 1.282-1.052 2.172-2.455 2.172" fill="#4C4D4D"/><path d="M124.876 4.851c-.405.161-.608.283-.891 1.537l-1.659 7.419h-1.186l-1.929-5.907c-.136-.419-.258-.891-.27-1.161h-.028c-.027.216-.161.715-.323 1.161l-2.117 5.907h-1.202l-1.713-7.567c-.256-1.147-.472-1.228-.876-1.389l-.31-.122v-.229h3.911v.229l-.552.135c-.473.121-.568.256-.339 1.376l.878 4.343c.081.419.162.917.175 1.215h.041c.04-.271.174-.729.337-1.201l2.13-6.124h.851l1.929 6.083c.148.459.27.918.31 1.214h.026c.014-.283.109-.836.19-1.24l.783-3.831c.282-1.416.175-1.7-.338-1.835l-.526-.135v-.229h3.008v.229l-.31.122z" fill="#4C4D4D"/><path d="M128.409 7.292c-1.133 0-1.484 1.147-1.484 2.388 0 1.16.445 3.615 1.889 3.615 1.186 0 1.564-1.173 1.564-2.401 0-1.133-.485-3.602-1.969-3.602m.134 6.516c-2.077 0-3.33-1.336-3.33-3.373 0-1.956 1.28-3.655 3.533-3.655 2.158 0 3.332 1.403 3.332 3.372 0 2.077-1.403 3.656-3.535 3.656" fill="#4C4D4D"/><path d="M137.258 8.614l-.067-.027c-.122-.31-.46-.58-.851-.58-.633 0-.917.472-.917.796v3.318c0 .971.108 1.053.58 1.147l.688.135v.202h-3.804v-.202l.418-.109c.472-.12.554-.202.554-1.173v-3.453c0-.971-.149-1.066-.635-1.16l-.471-.095v-.202l2.481-.323.095.054v1.132h.013c.688-.849 1.2-1.254 1.835-1.254.539 0 .957.405.957.944 0 .54-.472.877-.876.85" fill="#4C4D4D"/><path d="M138.674 13.605v-.202l.418-.108c.472-.135.553-.202.553-1.174v-6.798c0-.971-.094-1.052-.58-1.16l-.472-.095v-.203l2.523-.322.094.053v8.525c0 .972.081 1.039.554 1.174l.418.108v.202h-3.508z" fill="#4C4D4D"/><path d="M147.361 8.547c0-.621-.607-1.053-1.294-1.053-1.256 0-1.647 1.269-1.647 2.347 0 1.133.446 2.928 1.888 2.928.581 0 1.053-.378 1.053-.81v-3.412zm.175 5.193l-.095-.067v-.972h-.012c-.567.594-1.255 1.106-2.145 1.106-1.646 0-2.402-1.699-2.402-3.062 0-2.023 1.134-3.79 3.346-3.79.363 0 .742.027 1.133.135v-1.767c0-.971-.08-1.053-.567-1.16l-.472-.095v-.203l2.523-.322.08.053v8.539c0 .971.096 1.052.581 1.16l.458.108v.202l-2.428.135z" fill="#4C4D4D"/><path d="M157.694 9.005h-.743v2.671c0 1.268.176 1.389.743 1.389h.107c1.026 0 2.105-.485 2.105-2.037 0-1.659-1.066-2.023-2.212-2.023m-.135-4.007h-.608v3.467h.702c.741 0 1.955-.296 1.955-1.753 0-1.403-.957-1.714-2.049-1.714m.755 8.607h-4.303v-.23l.486-.135c.539-.148.647-.256.647-1.375v-5.625c0-1.12-.108-1.228-.647-1.376l-.486-.135v-.229h4.222c1.309 0 3.251.147 3.251 1.956 0 1.227-1.335 1.902-2.01 2.05v.054c1.268.014 2.455.823 2.455 2.266 0 1.632-1.431 2.779-3.615 2.779" fill="#4C4D4D"/><path d="M166.718 10.287c-1.511.242-2.051.688-2.051 1.47 0 .594.473.998 1.053.998.621 0 .998-.378.998-.769v-1.699zm.188 3.453l-.08-.067v-.972h-.027c-.513.499-1.134 1.066-2.023 1.066-.85 0-1.699-.594-1.699-1.551 0-1.646 1.685-1.997 3.641-2.388v-.876c0-.85-.499-1.43-1.308-1.43-.716 0-.917.391-.917.836v.364l-.041.081c-.175.094-.405.162-.608.162-.256 0-.404-.148-.404-.405 0-.472.472-.917.837-1.159.471-.325 1.105-.568 1.752-.568 1.553 0 2.227.891 2.227 2.28v2.927c0 .972.094 1.133.581 1.242l.511.121v.202l-2.442.135z" fill="#4C4D4D"/><path d="M174.055 13.605v-.202l.418-.108c.472-.122.553-.202.553-1.174v-2.914c0-.863-.553-1.389-1.443-1.389-.796 0-1.308.445-1.308.863v3.44c0 .972.081 1.052.552 1.174l.419.108v.202h-3.508v-.202l.418-.108c.472-.122.554-.202.554-1.174v-3.453c0-.971-.095-1.065-.58-1.16l-.473-.094v-.203l2.442-.323.094.054v.998h.014c.648-.634 1.308-1.12 2.266-1.12 1.308 0 2.118.783 2.118 2.064v3.237c0 .972.081 1.052.553 1.174l.419.108v.202h-3.508z" fill="#4C4D4D"/><path d="M182.931 13.605l-2.199-3.656 1.483-1.389c.85-.796.594-1.066.177-1.173l-.432-.122v-.189h3.128v.189l-.431.122c-.485.121-.782.431-1.578 1.173l-.984.917 1.739 2.644c.539.823.729 1.052 1.146 1.187l.324.095v.202h-2.373zm-4.87 0v-.202l.418-.108c.473-.135.553-.202.553-1.174v-6.798c0-.971-.094-1.052-.58-1.16l-.473-.095v-.203l2.523-.322.094.053v8.525c0 .972.083 1.039.555 1.174l.417.108v.202h-3.507z" fill="#4C4D4D"/><path d="M187.504 5.377c-.675 0-.917-.446-.917-.863 0-.392.242-.864.944-.864.633 0 .943.338.943.85 0 .566-.389.877-.97.877zm-1.727 8.228v-.202l.418-.108c.472-.135.553-.202.553-1.173v-3.454c0-.971-.094-1.052-.579-1.16l-.473-.094v-.203l2.522-.323.095.054v5.18c0 .971.081 1.038.553 1.173l.419.108v.202h-3.508z" fill="#4C4D4D"/><path d="M194.207 13.605v-.202l.417-.108c.473-.122.554-.202.554-1.174v-2.914c0-.863-.554-1.389-1.442-1.389-.797 0-1.309.445-1.309.863v3.44c0 .972.081 1.052.552 1.174l.419.108v.202h-3.507v-.202l.418-.108c.472-.122.553-.202.553-1.174v-3.453c0-.971-.095-1.065-.58-1.16l-.471-.094v-.203l2.441-.323.094.054v.998h.013c.648-.634 1.309-1.12 2.265-1.12 1.311 0 2.119.783 2.119 2.064v3.237c0 .972.081 1.052.554 1.174l.418.108v.202h-3.508z" fill="#4C4D4D"/><path d="M201.167 7.211c-.714 0-.998.674-.998 1.376 0 .742.337 1.929 1.201 1.929.716 0 .986-.662.986-1.363 0-.714-.324-1.942-1.189-1.942zm.54 6.407h-1.443c-.553 0-.986.445-.986 1.093 0 1.106 1.121 1.551 2.066 1.551.903 0 1.942-.472 1.942-1.43 0-.903-.797-1.214-1.579-1.214zm2.833-5.813h-.986c.164.228.271.593.271.984 0 1.335-1.174 2.145-2.631 2.145-.444 0-.876-.081-1.255-.23l-.295.257c-.203.175-.392.364-.392.607 0 .418.459.715 1.133.715l1.889-.013c1.079-.014 2.091.498 2.091 1.834 0 1.537-1.457 2.697-3.413 2.697-1.052 0-2.779-.431-2.779-1.753 0-.823.742-1.335 1.335-1.511v-.013c-.701-.108-1.28-.567-1.28-1.254 0-.554.43-.999.823-1.322l.512-.419c-.512-.31-.864-.836-.864-1.605 0-1.268 1.094-2.145 2.645-2.145.646 0 1.213.162 1.591.418l1.658-.067v.62l-.053.055z" fill="#4C4D4D"/></g></svg>