<svg xmlns="http://www.w3.org/2000/svg" viewBox="0 0 70 70"><defs><style>.cls-1{fill:#0073cf;}.cls-2{fill:none;stroke:#fff;stroke-linecap:round;stroke-miterlimit:10;}</style></defs><title>impact-global-icon_1</title><g id="Layer_2" data-name="Layer 2"><g id="Design"><circle class="cls-1" cx="35" cy="35" r="35"/><path class="cls-2" d="M35.27,56.59l-.19-40.25m4.23,39.79c3.94,0,7.08-8.87,7-19.78s-3.28-19.73-7.22-19.71m-8,39.53c-3.93,0-7.17-8.81-7.22-19.71S27,16.7,31,16.68M15,36.6l40.24-.19M15.47,40.64c0,3.93,8.88,7.08,19.78,7S55,44.39,55,40.45m-39.53-8c0-3.93,8.81-7.16,19.71-7.22s19.76,3.1,19.78,7"/><circle class="cls-2" cx="35.23" cy="36.51" r="20.22" transform="translate(-0.17 0.16) rotate(-0.27)"/></g></g></svg>