<?xml version="1.0" encoding="utf-8"?>
<!-- Generator: Adobe Illustrator 19.2.1, SVG Export Plug-In . SVG Version: 6.00 Build 0)  -->
<svg version="1.1" xmlns="http://www.w3.org/2000/svg" xmlns:xlink="http://www.w3.org/1999/xlink" x="0px" y="0px"
	 viewBox="0 0 21.4 11" style="enable-background:new 0 0 21.4 11;" xml:space="preserve">
<style type="text/css">
	.st0{fill:#4D4F53;}
	.st1{display:none;opacity:0.251;enable-background:new    ;}
	.st2{display:inline;opacity:0.7;}
	.st3{fill-rule:evenodd;clip-rule:evenodd;fill:#FF0000;}
	.st4{display:none;}
	.st5{display:inline;opacity:0.5;fill:#FFB700;}
	.st6{display:inline;}
	.st7{display:inline;opacity:0.6;fill:#FF6CFE;}
	.st8{display:inline;opacity:0.5;}
	.st9{fill:#79FF6E;}
	.st10{fill:#00B8FF;}
	.st11{fill:#0073CF;}
</style>
<g id="Design">
</g>
<g id="Columns_1_" class="st1">
</g>
<g id="Impact_Responsive" class="st4">
</g>
<g id="Sections" class="st4">
</g>
<g id="Frontend_Specs">
	<g>
		<path class="st11" d="M14.1,4.9c0,0.1,0.1,0.2,0.2,0.2h6.4l-1.6,1.6C19,6.8,19,7,19.1,7c0.1,0.1,0.2,0.1,0.3,0l2-2
			c0,0,0.1-0.1,0.1-0.1s0-0.1-0.1-0.1l-2-2c-0.1-0.1-0.2-0.1-0.3,0S19,3,19.1,3.1l1.7,1.7h-6.5C14.2,4.7,14.1,4.8,14.1,4.9L14.1,4.9
			z"/>
		<g>
			<g>
				<path class="st11" d="M5.6,11L0,8.7V0l5.6,2.3L11.1,0v8.7L5.6,11z M0.4,8.4l5.2,2.2l5.1-2.2V0.6L5.6,2.8L0.4,0.6V8.4z"/>
				<polygon class="st11" points="6.7,4.2 6.7,3.7 9.8,2.4 9.8,2.9 				"/>
				<polygon class="st11" points="6.7,5.7 6.7,5.3 9.8,4 9.8,4.4 				"/>
				<polygon class="st11" points="6.7,8.8 6.7,8.4 9.8,7.1 9.8,7.5 				"/>
				<polygon class="st11" points="6.7,7.3 6.7,6.8 9.8,5.5 9.8,5.9 				"/>
				<polygon class="st11" points="4.4,4.2 1.2,2.9 1.2,2.4 4.4,3.7 				"/>
				<polygon class="st11" points="4.4,5.7 1.2,4.4 1.2,3.9 4.4,5.3 				"/>
				<polygon class="st11" points="4.4,8.8 1.2,7.5 1.2,7 4.4,8.4 				"/>
				<polygon class="st11" points="4.4,7.3 1.2,5.9 1.2,5.5 4.4,6.8 				"/>
				<rect x="5.4" y="2.5" class="st11" width="0.4" height="8.2"/>
			</g>
		</g>
	</g>
</g>
</svg>
