<svg xmlns="http://www.w3.org/2000/svg" viewBox="0 0 35.82 35.82"><defs><style>.cls-1{fill:#fff;}.cls-2{fill:none;}</style></defs><title>social-twitter</title><g id="Layer_2" data-name="Layer 2"><g id="Design"><path class="cls-1" d="M24.55,14.51c0,.15,0,.3,0,.45a9.75,9.75,0,0,1-15,8.21,6.79,6.79,0,0,0,.83,0,6.86,6.86,0,0,0,4.25-1.46,3.43,3.43,0,0,1-3.2-2.37,4.39,4.39,0,0,0,.65.05,3.62,3.62,0,0,0,.9-.12,3.43,3.43,0,0,1-2.75-3.36v0a3.46,3.46,0,0,0,1.55.44,3.43,3.43,0,0,1-1.06-4.58,9.74,9.74,0,0,0,7.06,3.58,3.81,3.81,0,0,1-.08-.78,3.43,3.43,0,0,1,5.93-2.34,6.73,6.73,0,0,0,2.17-.83,3.42,3.42,0,0,1-1.51,1.89,6.85,6.85,0,0,0,2-.53A7.36,7.36,0,0,1,24.55,14.51Z"/><circle class="cls-2" cx="17.91" cy="17.91" r="17.91"/></g></g></svg>