<svg xmlns="http://www.w3.org/2000/svg" viewBox="0 0 35.82 35.82"><defs><style>.cls-1{fill:#fff;}.cls-2{fill:none;}</style></defs><title>social-linkedin</title><g id="Layer_2" data-name="Layer 2"><g id="Design"><path class="cls-1" d="M11.72,13.75h0a1.8,1.8,0,0,1-1.93-1.81,1.82,1.82,0,0,1,2-1.81,1.82,1.82,0,1,1,0,3.63Zm1.75,11.94H10V15.18h3.5Zm12.59,0H22.57V20.07c0-1.41-.51-2.37-1.77-2.37A1.91,1.91,0,0,0,19,19a2.63,2.63,0,0,0-.12.86v5.86H15.4c0-9.52,0-10.51,0-10.51h3.49v1.53h0A3.46,3.46,0,0,1,22,14.94c2.3,0,4,1.51,4,4.73Z"/><circle class="cls-2" cx="17.91" cy="17.91" r="17.91"/></g></g></svg>