<svg xmlns="http://www.w3.org/2000/svg" viewBox="0 0 35.82 35.82"><defs><style>.cls-1{fill:#fff;}.cls-2{fill:none;}</style></defs><title>social-instagram</title><g id="Layer_2" data-name="Layer 2"><g id="Design"><path class="cls-1" d="M26.05,24A2.1,2.1,0,0,1,24,26.05H11.85A2.1,2.1,0,0,1,9.77,24V11.85a2.1,2.1,0,0,1,2.09-2.09H24a2.1,2.1,0,0,1,2.09,2.09Zm-1.85-7.31H22.78A4.62,4.62,0,0,1,23,18a5.07,5.07,0,0,1-10.13,0,4.65,4.65,0,0,1,.21-1.39h-1.5v6.87a.64.64,0,0,0,.65.65H23.56a.64.64,0,0,0,.65-.65Zm-6.29-2a3.17,3.17,0,1,0,3.28,3.17A3.22,3.22,0,0,0,17.92,14.71Zm6.29-2.4a.73.73,0,0,0-.73-.73H21.63a.73.73,0,0,0-.73.73v1.75a.73.73,0,0,0,.73.73h1.84a.73.73,0,0,0,.73-.73Z"/><circle class="cls-2" cx="17.91" cy="17.91" r="17.91"/></g></g></svg>