<svg xmlns="http://www.w3.org/2000/svg" viewBox="0 0 35.82 35.82"><defs><style>.cls-1{fill:#fff;}.cls-2{fill:none;}</style></defs><title>social-google</title><g id="Layer_2" data-name="Layer 2"><g id="Design"><path class="cls-1" d="M20.25,22.39a3.7,3.7,0,0,1-.51,1.83c-1.09,1.86-3.37,2.51-5.4,2.51-1.59,0-3.55-.41-4.43-1.9a2.68,2.68,0,0,1-.39-1.39,3.38,3.38,0,0,1,1.73-2.81,9.33,9.33,0,0,1,4.28-1.06A2.48,2.48,0,0,1,14.87,18a2.17,2.17,0,0,1,.22-.9c-.24,0-.48,0-.72,0a3.59,3.59,0,0,1-3.72-3.62,4.14,4.14,0,0,1,1.43-3.07,6.57,6.57,0,0,1,4.24-1.38h4.43L19.29,10H17.9a3.88,3.88,0,0,1,1.59,3.11c0,2.75-2.51,3.05-2.51,4.4S20.25,19.39,20.25,22.39Zm-1.51.9c0-1.43-1.42-2.3-2.45-3a4,4,0,0,0-.51,0c-1.73,0-4.29.55-4.29,2.74s2.24,2.81,4,2.81S18.75,25.11,18.75,23.29ZM17,15.87a2.36,2.36,0,0,0,.56-1.69c0-1.57-.92-4.23-2.83-4.23a2,2,0,0,0-1.57.76,2.69,2.69,0,0,0-.5,1.7c0,1.59.9,4.09,2.81,4.09A2.29,2.29,0,0,0,17,15.87Zm9.34.6v1.15H24v2.32H22.93V17.62H20.68V16.48h2.25v-2.3H24v2.3Z"/><circle class="cls-2" cx="17.91" cy="17.91" r="17.91"/></g></g></svg>