<svg xmlns="http://www.w3.org/2000/svg" viewBox="0 0 664.2 66.08"><defs><style>.cls-1{fill:#fff;}</style></defs><title>womens-world-banking-logo-white</title><g id="Layer_2" data-name="Layer 2"><g id="Layer_1-2" data-name="Layer 1"><path class="cls-1" d="M115.64,31c0-6.17-2.62-12-7.21-17L57.94,66.08c31.88,0,57.7-15.74,57.7-35.12"/><path class="cls-1" d="M0,31C0,50.33,25.83,66,57.7,66.08L7.21,13.95C2.62,19,0,24.78,0,31"/><path class="cls-1" d="M75.73,18.48c0,10.21-8,18.49-17.9,18.49S39.92,28.7,39.92,18.48,47.93,0,57.83,0s17.9,8.27,17.9,18.48"/><path class="cls-1" d="M186.44,17.95c-1.4.58-2.11,1-3.09,5.5L177.6,50h-4.11L166.8,28.86a20.37,20.37,0,0,1-.93-4.15h-.1a25.33,25.33,0,0,1-1.12,4.15L157.31,50h-4.16l-5.94-27.09c-.89-4.1-1.64-4.39-3-5l-1.07-.44v-.82h13.56v.82l-1.92.48c-1.63.43-2,.92-1.17,4.92l3,15.55a37.21,37.21,0,0,1,.61,4.35h.14a29.5,29.5,0,0,1,1.17-4.3l7.39-21.92h2.95l6.69,21.77a29.55,29.55,0,0,1,1.07,4.34h.09a39.54,39.54,0,0,1,.65-4.44l2.71-13.71c1-5.07.61-6.08-1.17-6.57l-1.83-.48v-.82h10.43v.82Z"/><path class="cls-1" d="M199.16,50c-7.2,0-11.55-4.78-11.55-12.07,0-7,4.44-13.08,12.25-13.08,7.48,0,11.55,5,11.55,12.07,0,7.44-4.86,13.09-12.25,13.09m-.47-23.32c-3.93,0-5.14,4.11-5.14,8.55,0,4.15,1.54,12.94,6.54,12.94,4.12,0,5.43-4.2,5.43-8.59,0-4.06-1.68-12.89-6.83-12.89"/><path class="cls-1" d="M242.93,49.28v-.72l1.35-.39c1.64-.48,1.92-.72,1.92-4.2V33.54c0-3.09-1.82-5-4.72-5-2.62,0-4.26,1.59-4.26,3.09V44c0,3.48.23,3.72,1.87,4.2l1.36.39v.72H228.52v-.72l1.36-.39c1.64-.48,1.92-.72,1.92-4.2V33.54c0-3.09-1.82-5-4.72-5-2.62,0-4.26,1.59-4.26,3.09V44c0,3.48.23,3.72,1.87,4.2l1.36.39v.72H214v-.72l1.45-.39c1.64-.48,1.92-.72,1.92-4.2V31.61c0-3.48-.33-3.77-2-4.15l-1.64-.34V26.4l8.47-1.16.33.19V29h0c2.15-2.27,4.3-4,7.53-4s5.61,1.55,6.59,4.25h0c2.15-2.37,4.44-4.25,7.76-4.25,4.39,0,7.11,2.8,7.11,7.39V44c0,3.48.28,3.72,1.92,4.2l1.45.39v.72Z"/><path class="cls-1" d="M267.43,49.86c-6,0-10.38-4.73-10.38-11.93,0-6.47,3.93-13.09,11-13.09a8.66,8.66,0,0,1,8.84,8.88,6.49,6.49,0,0,1,0,1H261.4c0,5.89,3.18,10.72,9.31,10.72a9.67,9.67,0,0,0,5.75-1.83l.56.72c-2.57,3-5.24,5.55-9.59,5.55M267,26.93c-3.55,0-5.28,3.14-5.57,6h6.32c2.48,0,3.83-.29,3.83-2,0-2-2-4-4.58-4"/><path class="cls-1" d="M294.74,49.28v-.72l1.45-.39c1.64-.43,1.92-.72,1.92-4.2V33.54a4.62,4.62,0,0,0-5-5c-2.76,0-4.54,1.59-4.54,3.09V44c0,3.48.28,3.76,1.92,4.2l1.45.39v.72H279.78v-.72l1.45-.39c1.63-.43,1.91-.72,1.91-4.2V31.61c0-3.48-.33-3.81-2-4.15l-1.64-.34V26.4L288,25.24l.33.19V29h0c2.24-2.27,4.54-4,7.85-4,4.54,0,7.34,2.8,7.34,7.39V44c0,3.48.28,3.76,1.92,4.2l1.45.39v.72Z"/><path class="cls-1" d="M308.21,28.76l-.7-1.26c2.15-1.11,4.4-2.95,4.4-5.55a3.85,3.85,0,0,0-4.16-3.86l-.28-.14a3.92,3.92,0,0,1-.19-1.25,2.64,2.64,0,0,1,2.67-2.8c2.85,0,4.86,2.8,4.86,5.6,0,4.63-2.95,7.48-6.59,9.27"/><path class="cls-1" d="M322.89,49.72a13.16,13.16,0,0,1-5.61-1.21l-.47-6.08,1-.19.61,2a4.65,4.65,0,0,0,4.72,3.43c2.06,0,4.21-1.21,4.21-3.57,0-2.75-2.62-3.87-5.28-5.26S317,35.62,317,32.14c0-4.73,4.16-7,8.09-7a12,12,0,0,1,5,1V31.8h-.93L328.78,30c-.42-1.64-1.73-2.95-4.26-2.95-2.11,0-3.55,1.26-3.55,2.95,0,2.17,2.38,3.19,5,4.54,3.18,1.64,5.43,3.48,5.43,7.39,0,4.59-3.65,7.77-8.51,7.77"/><path class="cls-1" d="M387.84,17.95c-1.4.58-2.11,1-3.09,5.5L379,50h-4.11L368.2,28.86a20.32,20.32,0,0,1-.94-4.15h-.1A25.12,25.12,0,0,1,366,28.86L358.71,50h-4.17l-5.94-27.09c-.89-4.1-1.64-4.39-3-5l-1.08-.44v-.82h13.56v.82l-1.92.48c-1.64.43-2,.92-1.17,4.92l3,15.55a37,37,0,0,1,.61,4.35h.14a29.5,29.5,0,0,1,1.17-4.3l7.39-21.92h2.95l6.69,21.77A29.23,29.23,0,0,1,378,42.71h.09a40.3,40.3,0,0,1,.66-4.44l2.71-13.71c1-5.07.61-6.08-1.17-6.57l-1.82-.48v-.82h10.43v.82Z"/><path class="cls-1" d="M400.56,50C393.36,50,389,45.23,389,37.94c0-7,4.44-13.08,12.25-13.08,7.48,0,11.55,5,11.55,12.07,0,7.44-4.86,13.09-12.25,13.09m-.47-23.32c-3.93,0-5.15,4.11-5.15,8.55,0,4.15,1.54,12.94,6.55,12.94,4.12,0,5.42-4.2,5.42-8.59,0-4.06-1.68-12.89-6.82-12.89"/><path class="cls-1" d="M430.77,31.42l-.23-.1a3.26,3.26,0,0,0-2.95-2.08,3,3,0,0,0-3.18,2.85V44c0,3.48.37,3.77,2,4.11l2.38.48v.73H415.62v-.73l1.45-.39c1.64-.43,1.92-.72,1.92-4.2V31.61c0-3.48-.51-3.82-2.2-4.15l-1.64-.34V26.4l8.6-1.16.33.19v4.06h0c2.38-3,4.16-4.49,6.36-4.49a3.29,3.29,0,0,1,3.32,3.38,3,3,0,0,1-3,3"/><path class="cls-1" d="M435.68,49.28v-.72l1.45-.39c1.64-.48,1.92-.72,1.92-4.2V19.64c0-3.48-.33-3.76-2-4.15l-1.64-.34v-.73l8.75-1.15.33.19V44c0,3.48.28,3.72,1.92,4.2l1.45.39v.72Z"/><path class="cls-1" d="M466.4,49.77l-.33-.24V46h0c-2,2.12-4.35,4-7.43,4-5.7,0-8.33-6.08-8.33-11,0-7.24,3.93-13.57,11.6-13.57a14,14,0,0,1,3.93.48V19.64c0-3.48-.28-3.77-2-4.15l-1.64-.34v-.73l8.74-1.15.28.19V44c0,3.48.33,3.77,2,4.15l1.59.39v.73Zm-.61-18.59c0-2.22-2.1-3.77-4.49-3.77-4.35,0-5.71,4.54-5.71,8.4,0,4.06,1.54,10.48,6.54,10.48,2,0,3.65-1.35,3.65-2.9Z"/><path class="cls-1" d="M503.76,49.28H488.85v-.82l1.68-.48c1.87-.53,2.24-.92,2.24-4.92V22.92c0-4-.37-4.4-2.24-4.93l-1.68-.48v-.82h14.64c4.54,0,11.27.53,11.27,7,0,4.39-4.63,6.81-7,7.34v.19c4.39,0,8.51,2.95,8.51,8.11,0,5.84-5,9.95-12.53,9.95m-2.62-30.81H499V30.89h2.43c2.57,0,6.78-1.06,6.78-6.28,0-5-3.32-6.13-7.1-6.13m.47,14.34H499v9.56c0,4.54.61,5,2.58,5H502c3.55,0,7.3-1.74,7.3-7.29,0-5.94-3.7-7.24-7.67-7.24"/><path class="cls-1" d="M533.55,49.77l-.28-.24V46h-.09c-1.78,1.79-3.93,3.82-7,3.82a5.68,5.68,0,0,1-5.89-5.55c0-5.89,5.84-7.15,12.63-8.55V32.63c0-3-1.73-5.12-4.54-5.12-2.48,0-3.18,1.4-3.18,3v1.3l-.14.29a4.61,4.61,0,0,1-2.11.58,1.3,1.3,0,0,1-1.4-1.45c0-1.69,1.64-3.28,2.9-4.15a10.82,10.82,0,0,1,6.08-2c5.38,0,7.72,3.19,7.72,8.16V43.68c0,3.48.33,4.06,2,4.44l1.77.43v.73Zm-.65-12.36c-5.24.87-7.11,2.46-7.11,5.26a3.52,3.52,0,0,0,3.65,3.58c2.15,0,3.46-1.35,3.46-2.75Z"/><path class="cls-1" d="M558.34,49.28v-.72l1.45-.39c1.64-.43,1.91-.72,1.91-4.2V33.54a4.62,4.62,0,0,0-5-5c-2.76,0-4.53,1.59-4.53,3.09V44c0,3.48.28,3.76,1.92,4.2l1.45.39v.72H543.37v-.72l1.45-.39c1.64-.43,1.92-.72,1.92-4.2V31.61c0-3.48-.33-3.81-2-4.15l-1.64-.34V26.4l8.46-1.16.33.19V29h.05c2.24-2.27,4.53-4,7.86-4,4.53,0,7.34,2.8,7.34,7.39V44c0,3.48.28,3.76,1.92,4.2l1.45.39v.72Z"/><path class="cls-1" d="M572.22,49.28v-.72l1.45-.39c1.64-.48,1.92-.72,1.92-4.2V19.64c0-3.48-.33-3.76-2-4.15l-1.64-.34v-.73l8.75-1.15.33.19V44c0,3.48.28,3.72,1.92,4.2l1.45.39v.72Zm16.88,0L581.48,36.2l5.14-5c2.95-2.85,2.06-3.82.61-4.2l-1.5-.43v-.68h10.85v.68l-1.5.43c-1.68.44-2.71,1.54-5.47,4.2l-3.41,3.28,6,9.46c1.87,2.94,2.53,3.76,4,4.25l1.13.34v.72Z"/><path class="cls-1" d="M599,49.28v-.73l1.45-.39c1.64-.48,1.92-.72,1.92-4.2V31.61c0-3.48-.33-3.77-2-4.15l-1.64-.34V26.4l8.74-1.16.33.19V44c0,3.48.28,3.72,1.91,4.2l1.45.39v.73Zm6-29.45a2.91,2.91,0,0,1-3.18-3.09A3,3,0,0,1,605,13.65c2.2,0,3.27,1.21,3.27,3,0,2-1.35,3.14-3.36,3.14"/><path class="cls-1" d="M628.2,49.28v-.72l1.45-.39c1.64-.43,1.92-.72,1.92-4.2V33.54a4.62,4.62,0,0,0-5-5c-2.76,0-4.54,1.59-4.54,3.09V44c0,3.48.28,3.76,1.92,4.2l1.45.39v.72H613.23v-.72l1.45-.39c1.64-.43,1.92-.72,1.92-4.2V31.61c0-3.48-.33-3.81-2-4.15L613,27.12V26.4l8.46-1.16.33.19V29h0c2.24-2.27,4.54-4,7.85-4,4.54,0,7.34,2.8,7.34,7.39V44c0,3.48.28,3.76,1.92,4.2l1.45.39v.72Z"/><path class="cls-1" d="M664,28.52H660.6a6.47,6.47,0,0,1,.94,3.52c0,4.78-4.07,7.68-9.12,7.68a11.61,11.61,0,0,1-4.35-.82l-1,.92A3.16,3.16,0,0,0,645.68,42c0,1.5,1.59,2.56,3.93,2.56l6.54,0c3.74-.05,7.25,1.79,7.25,6.56,0,5.51-5.05,9.66-11.83,9.66-3.65,0-9.63-1.55-9.63-6.28,0-2.94,2.57-4.78,4.63-5.41v0c-2.43-.39-4.44-2-4.44-4.49,0-2,1.49-3.58,2.85-4.73l1.77-1.5a6.41,6.41,0,0,1-3-5.74c0-4.54,3.79-7.68,9.17-7.68a9.78,9.78,0,0,1,5.52,1.5l5.75-.24v2.22ZM654.2,49.33h-5c-1.92,0-3.42,1.59-3.42,3.91,0,4,3.88,5.55,7.16,5.55s6.73-1.69,6.73-5.12c0-3.23-2.76-4.35-5.47-4.35M652.32,26.4c-2.48,0-3.46,2.41-3.46,4.92S650,38.23,653,38.23c2.48,0,3.42-2.37,3.42-4.88s-1.12-7-4.12-7"/></g></g></svg>