<svg xmlns="http://www.w3.org/2000/svg" viewBox="0 0 103 148.33"><defs><style>.cls-1,.cls-2{fill:#4d4f53;}.cls-1,.cls-2,.cls-3,.cls-4{stroke:#fff;stroke-miterlimit:10;}.cls-1,.cls-4{stroke-linecap:round;}.cls-3{fill:#867a24;}.cls-4{fill:none;}</style></defs><title>closing-3-scale</title><g id="Layer_2" data-name="Layer 2"><g id="Design"><circle class="cls-1" cx="51.5" cy="136.67" r="11.17"/><circle class="cls-2" cx="51.5" cy="136.67" r="4.79"/><path class="cls-3" d="M102.5,51.5a51,51,0,1,0-60.71,50.07l9.71,9.71,9.71-9.71A51,51,0,0,0,102.5,51.5Z"/><path class="cls-4" d="M76.5,27.69a1.28,1.28,0,0,0-1.28-1.16H59.83a1.28,1.28,0,1,0,0,2.56h12.3L51.5,49.72l-10-10a1.28,1.28,0,1,0-1.82,1.8l10,10L29.06,72.16V59.86a1.28,1.28,0,1,0-2.56,0V75.24a1.28,1.28,0,0,0,1.28,1.28H43.17a1.28,1.28,0,1,0,0-2.56H30.89L51.5,53.33l10,10a1.28,1.28,0,1,0,1.82-1.8l-10-10L73.93,30.91V43.19a1.28,1.28,0,1,0,2.56,0V27.81a1,1,0,0,0,0-.12Z"/></g></g></svg>