<svg xmlns="http://www.w3.org/2000/svg" viewBox="0 0 103 148.33"><defs><style>.cls-1,.cls-2{fill:#4d4f53;}.cls-1,.cls-2,.cls-3{stroke:#fff;stroke-miterlimit:10;}.cls-1{stroke-linecap:round;}.cls-3{fill:#95294a;}.cls-4{fill:#fff;}</style></defs><title>closing-2-broaden</title><g id="Layer_2" data-name="Layer 2"><g id="Design"><circle class="cls-1" cx="51.55" cy="136.67" r="11.17"/><circle class="cls-2" cx="51.55" cy="136.67" r="4.79"/><path class="cls-3" d="M102.5,51.5a51,51,0,1,0-60.71,50.07l9.71,9.71,9.71-9.71A51,51,0,0,0,102.5,51.5Z"/><path class="cls-4" d="M70.27,70.18l11.81-4.79L65.48,82ZM51.5,77.79l12.66,5.13H38.84ZM32.73,70.18,37.52,82l-16.6-16.6Zm0-37.54L20.92,37.43l16.6-16.6ZM51.5,25,38.84,19.9H64.15Zm18.77,7.61L65.48,20.83l16.6,16.6Zm7.61,18.77L83,38.75V64.07ZM72.36,65h9L70.58,69.4Zm-7.26,6.6V65h6.6l-1.91,4.7Zm0,.65,4.38-1.78L65.11,81.3ZM60.74,74l1,2.46,2.45,5.8L52.3,77.46Zm-18.26-.56L46.07,65H56.93l3.58,8.47-9,3.65Zm-.23.56,8.44,3.42L38.76,82.3Zm-4.36-1.77v9L33.51,70.49ZM31.29,65h6.6v6.6l-4.7-1.91Zm-.65,0,1.78,4.38L21.6,65ZM25.12,51.41,20,64.07V38.75ZM30.63,37.8h-9l10.81-4.38Zm7.26-6.6v6.6h-6.6l1.91-4.7Zm0-.65-4.38,1.78,4.38-10.81Zm4.36-1.77-1-2.46-2.45-5.8,11.94,4.84Zm18.26.56L56.93,37.8H46.07l-3.58-8.47,9-3.65Zm.23-.56L52.3,25.36l11.94-4.84Zm4.36,1.77v-9l4.38,10.81Zm6.6,7.26h-6.6V31.2l4.7,1.91Zm.65,0-1.78-4.38L81.39,37.8Zm1.77,4.36,2.46-1,5.8-2.45L77.55,50.61Zm0,18.49,3.42-8.44,4.84,11.94Zm-.23.56,7.55,3.2H72.61Zm-8.8-3.72,7.29,3.08.95.4L72,64.41H65.11Zm-7.78,6.92L52.07,52,64.5,57.24v7.17Zm4,9.4,3.2-1.29v8.85l-2.37-5.61ZM51.5,52.19l1,2.42,4.15,9.81H46.33Zm-13,20.33,3.2,1.29-3.2,7.55ZM45.42,65l-3.08,7.29-.4.95L38.5,71.87V65ZM29.66,61,37.9,57.5v6.91H31ZM27.15,62l1.95-.83,1.29,3.2H21.55Zm1.72-1.38-2.46,1-5.8,2.45,4.84-11.94Zm0-18.49-3.42,8.44L20.61,38.67Zm.23-.56-7.55-3.2h8.85Zm8.8,3.72L30.6,42.24l-.95-.4L31,38.41h6.85Zm7.78-6.92,5.26,12.44L38.5,45.58V38.41Zm-4.8-11.35L41.69,29,38.5,30.3V21.46ZM51.5,50.63l-1-2.42-4.15-9.81H56.67Zm13-20.33L61.31,29l3.2-7.55Zm-6.92,7.5,3.08-7.29.4-.95L64.5,31V37.8Zm15.76,4L65.1,45.32V38.41H72Zm2.51-1.06-1.95.83-1.29-3.2h8.85ZM65.1,56.84V46l8.47-3.58,3.65,9-3.65,9ZM54.7,50.39l9.81-4.15V56.58L52.28,51.41ZM38.5,57.24,50.93,52,45.67,64.41H38.5ZM37.89,46V56.84l-8.47,3.58-3.65-9,3.65-9ZM48.3,52.43,38.5,56.58V46.24l12.23,5.17Zm16.2-6.86L52.06,50.84,57.32,38.4H64.5ZM38.5,31l3.43-1.39,3.48,8.24H38.5Zm26,40.91-3.43,1.39L57.59,65H64.5ZM83.52,38,64.89,19.39a.29.29,0,0,0-.21-.09H38.32a.29.29,0,0,0-.21.09L19.48,38a.29.29,0,0,0-.09.21V64.59a.29.29,0,0,0,.09.21L38.11,83.43a.29.29,0,0,0,.21.09H64.68a.29.29,0,0,0,.21-.09L83.52,64.8a.29.29,0,0,0,.09-.21V38.23A.29.29,0,0,0,83.52,38Z"/></g></g></svg>