<svg xmlns="http://www.w3.org/2000/svg" viewBox="0 0 103 148.33"><defs><style>.cls-1,.cls-2{fill:#4d4f53;}.cls-1,.cls-2,.cls-3,.cls-4{stroke:#fff;stroke-miterlimit:10;}.cls-1,.cls-4{stroke-linecap:round;}.cls-3{fill:#0073cf;}.cls-4{fill:none;}</style></defs><title>closing-1-lead</title><g id="Layer_2" data-name="Layer 2"><g id="Design"><circle class="cls-1" cx="50.61" cy="136.67" r="11.17"/><circle class="cls-2" cx="50.61" cy="136.67" r="4.79"/><path class="cls-3" d="M102.5,51.5a51,51,0,1,0-60.71,50.07l9.71,9.71,9.71-9.71A51,51,0,0,0,102.5,51.5Z"/><path class="cls-4" d="M52.22,49.86l-.1-22.5M54.48,49.6c2.2,0,4-5,3.93-11.06s-1.84-11-4-11m-4.46,22.1c-2.2,0-4-4.92-4-11s1.73-11,3.93-11.05M40.9,38.68l22.5-.11M41.15,40.94c0,2.2,5,4,11.06,3.93s11-1.84,11-4m-22.1-4.46c0-2.2,4.92-4,11-4s11,1.73,11.06,3.93"/><circle class="cls-4" cx="52.2" cy="38.63" r="11.3" transform="matrix(1, 0, 0, 1, -0.18, 0.24)"/><path class="cls-4" d="M82.74,41.24,51.5,72.48,20.26,41.24c-3,3.09-4.72,6.66-4.72,10.47,0,11.67,16.1,21.13,36,21.13s36-9.46,36-21.13C87.46,47.91,85.74,44.33,82.74,41.24Z"/></g></g></svg>