<svg xmlns="http://www.w3.org/2000/svg" viewBox="0 0 103 148.33"><defs><style>.cls-1,.cls-2{fill:#4d4f53;}.cls-1,.cls-2,.cls-3,.cls-5{stroke:#fff;stroke-miterlimit:10;}.cls-1{stroke-linecap:round;}.cls-3,.cls-5{fill:#93509e;}.cls-4{fill:#fff;}.cls-5{stroke-width:1.5px;}</style></defs><title>closing-4-advance</title><g id="Layer_2" data-name="Layer 2"><g id="Design"><circle class="cls-1" cx="51.37" cy="136.67" r="11.17"/><circle class="cls-2" cx="51.37" cy="136.67" r="4.79"/><path class="cls-3" d="M102.5,51.5a51,51,0,1,0-60.71,50.07l9.71,9.71,9.71-9.71A51,51,0,0,0,102.5,51.5Z"/><path class="cls-4" d="M51.5,73.36a5.1,5.1,0,1,1-5.1,5.1A5.09,5.09,0,0,1,51.5,73.36Zm18.21-8a4.37,4.37,0,1,1-4.37,4.37A4.36,4.36,0,0,1,69.71,65.34Zm-36.43,0a4.37,4.37,0,1,1-4.37,4.37A4.36,4.36,0,0,1,33.29,65.34ZM78.46,46.4a5.1,5.1,0,1,1-5.1,5.1A5.09,5.09,0,0,1,78.46,46.4Zm-53.91,0a5.1,5.1,0,1,1-5.1,5.1A5.09,5.09,0,0,1,24.54,46.4Zm27-2.19a7.29,7.29,0,1,1-7.29,7.29A7.27,7.27,0,0,1,51.5,44.21Zm18.21-15.3a4.37,4.37,0,1,1-4.37,4.37A4.36,4.36,0,0,1,69.71,28.91Zm-36.43,0a4.37,4.37,0,1,1-4.37,4.37A4.36,4.36,0,0,1,33.29,28.91ZM51.5,19.44a5.1,5.1,0,1,1-5.1,5.1A5.09,5.09,0,0,1,51.5,19.44Zm0-1.46a6.55,6.55,0,0,0-.73,13.07V42.8a8.7,8.7,0,0,0-4.9,2l-8-8a5.72,5.72,0,1,0-1,1l8,8a8.72,8.72,0,0,0-2,4.92H31.05a6.56,6.56,0,1,0,0,1.46H42.8a8.7,8.7,0,0,0,2,4.9l-8,8a5.72,5.72,0,1,0,1,1l8-8a8.72,8.72,0,0,0,4.92,2V71.95a6.56,6.56,0,1,0,1.46,0V60.2a8.72,8.72,0,0,0,4.92-2l8,8a6,6,0,1,0,1-1l-8-8a8.69,8.69,0,0,0,2-4.9H71.95a6.56,6.56,0,1,0,0-1.46H60.2a8.72,8.72,0,0,0-2-4.92l8-8a6,6,0,1,0-1-1l-8,8a8.69,8.69,0,0,0-4.9-2V31.05A6.55,6.55,0,0,0,51.5,18Z"/><circle class="cls-5" cx="51.5" cy="51.5" r="11.99"/></g></g></svg>