<svg id="Layer_1" data-name="Layer 1" xmlns="http://www.w3.org/2000/svg" viewBox="0 0 187.79 46.62"><title>signature</title><g id="jd21Bm.tif"><path d="M0,18.14c1,0.71,2.13,1.36,3.13,2.13,3.51,2.71,7.26,2.57,11.33,1.39,5.49-1.59,10.27-4.55,15.14-7.35,1.1-.63,1.83-1.95,2.67-3C34.85,8,37.4,4.77,40,1.51A3.48,3.48,0,0,1,41.11.37c0.6-.25,1.58-0.54,1.92-0.25a2.47,2.47,0,0,1,.84,2.06,36.82,36.82,0,0,1-2.34,4.23,13.44,13.44,0,0,0-.91,2,27.55,27.55,0,0,1-.94,2.94c-1.15,2.34-2.43,4.62-3.82,7.22l3.27-2.94c0.77,2-.5,3-1.1,4.1-2.76,5.12-5.85,10.07-6.88,15.94a2.64,2.64,0,0,0,1.28,3.15c1.26-4.69,5.36-6.66,8.88-9.11a83.24,83.24,0,0,1,7.77-4.44c2.2-1.2,3.14-3.49,4.65-5.29A2.08,2.08,0,0,0,53,19a53.75,53.75,0,0,1-5.48-2.9c-2.21-1.56-2-3.18.35-5.16a10.24,10.24,0,0,1,2.71-1.53,50.86,50.86,0,0,1,6-2.11,2.71,2.71,0,0,1,3.11,1.12,4.48,4.48,0,0,1,0,3.24c-1,2.41-2.23,4.7-3.38,7,2.31,1.72,2.42,2-.33,3.44-4,2-6.88,5.27-9.93,8.37a53,53,0,0,1-11.61,9.29,5.91,5.91,0,0,0,5,2.27,75.07,75.07,0,0,0,7.68-.83l3.59-.41a2.33,2.33,0,0,1-.53.78A31.74,31.74,0,0,1,37.18,42.8a6.34,6.34,0,0,1-2.23-.9,30.48,30.48,0,0,1-3.63-2.29,3.14,3.14,0,0,1-1.19-1.81c-0.44-3.22.56-6.18,1.95-9,1.22-2.5,2.44-5,3.54-7.58-1,1.41-2.09,2.79-3.06,4.24-2.29,3.42-4.54,6.87-6.8,10.31a1.12,1.12,0,0,1-.21.35c-0.41.26-.84,0.49-1.27,0.72a4.14,4.14,0,0,1,.22-1.48c1.54-2.62,3.17-5.18,4.74-7.78,2.35-3.92,4.7-7.84,7-11.8,1-1.74,1.81-3.58,2.71-5.38l-0.35-.26-4,4.83-0.47-.31,1.59-2.76A12.06,12.06,0,0,0,31,15.25c-1.13,1.64-2.36,3.21-3.49,4.85-2.35,3.39-4.61,6.85-7,10.21-1.91,2.68-4,5.25-6,7.87-0.16.21-.31,0.44-0.46,0.65l0.3,0.26,3.17-3.92c1.12-1.38,2.25-2.74,3.35-4.13a52.15,52.15,0,0,1,3.28-4.11c1.15-1.17,1.58-3.11,3.35-3.64l0.33,0.28c-1,1.44-2,2.92-3.14,4.32s-2.22,2.58-3.29,3.91c-1.81,2.26-3.55,4.57-5.38,6.82-1.32,1.61-2.7,3.18-4.13,4.7A2,2,0,0,1,9.37,44c1.22-1.92,2.34-3.78,3.57-5.58s2.7-3.75,4.07-5.62c2.86-3.91,5.76-7.79,8.59-11.73a35.05,35.05,0,0,0,3-5.09c-1.37.78-2.72,1.58-4.1,2.35-3.9,2.16-7.87,4.16-12.32,4.9C8.44,23.85,5,23.25,2,20.6a17.27,17.27,0,0,0-2-1.36Q0,18.68,0,18.14Zm59.31-8a2.74,2.74,0,0,0-.95-1c-2,0-4.1-.31-6,0.68-1.41.74-2.74,1.65-4.08,2.53s-1.41,1.89-.21,2.82a17.91,17.91,0,0,0,3.7,2.22c3.66,1.6,2.92,1.08,4.58-1.38a4.83,4.83,0,0,0,.38-0.57C57.58,13.74,58.4,12,59.31,10.12ZM33.73,38.19l0.51,0.47A53.67,53.67,0,0,0,47.62,27.17c-0.6.29-1.09,0.74-1.66,1A43.26,43.26,0,0,0,35.8,35.55,27.32,27.32,0,0,0,33.73,38.19ZM33.49,11.94l2.88-2.1a20.35,20.35,0,0,0,5.9-6.08A11.32,11.32,0,0,0,43,1.25L42.5,1C38.1,3.42,36.2,8,33.49,11.94Zm23.19,8.54c-1.33-.87-2-0.39-3.07,2Z" style="fill:#fff"/><path d="M106.22,33.67C104,34.49,102,35.28,99.95,36c-1.27.43-2.59,1-3.9-.05a1.66,1.66,0,0,0-1,.12c-0.77.17-1.53,0.43-2.31,0.55a2,2,0,0,1-2.56-1.64C89.1,36,88.26,36.89,87.35,37.7a5,5,0,0,1-1.21.6,3,3,0,0,1-.32-1.46,20.5,20.5,0,0,1,2.17-4c2.7-3.58,5.56-7,8.31-10.59a24,24,0,0,0,1.63-2.79l-0.26-.26L91.3,24a3.49,3.49,0,0,1,.45-1.19c2.17-1.71,4.35-3.4,6.58-5a2.9,2.9,0,0,1,1.4,0,4.56,4.56,0,0,1-.3,1.37c-1,1.63-1.91,3.27-3,4.81-1.55,2.18-3.21,4.27-4.85,6.39-1.38,1.79-2.79,3.57-4.1,5.46,1.86-1,3.34-2.67,5.41-3.24l0.28,0.3-1.52,2.72a12.74,12.74,0,0,0,1.91-.18c2.66-.69,4.69-2.45,6.8-4.08a3.71,3.71,0,0,1,1-.38,2.63,2.63,0,0,1-.29,1c-1,1.19-2.15,2.32-3.25,3.48a0.86,0.86,0,0,0,.52.1c2.55-1,5.08-2.13,7.64-3.14a10.13,10.13,0,0,1,2-.37l-0.63,1.89c0,0.12-.07.25-0.17,0.59,1.3-.74,1.78-0.07,2.44.88a3.69,3.69,0,0,0,5.52.42c2.26-2.17,5.15-2.95,8.07-3.65a0.24,0.24,0,0,1,.14,0c2.66,1.07,3.4-1.37,4.63-2.67,2.24-2.37,4.28-4.92,6.4-7.39a0.6,0.6,0,0,1,.18-0.2l1.81-.59a5.84,5.84,0,0,1-.45,1.73,52.26,52.26,0,0,1-9.48,11.13c-0.71.63-1.57,1.1-2.22,1.78a8.12,8.12,0,0,0-1,1.79l0.26,0.42a13.28,13.28,0,0,0,2.69-.46,15.26,15.26,0,0,0,6.58-4.17,15.17,15.17,0,0,1,3.65-2.71,3.36,3.36,0,0,1,1.55,0l0.18,0.48c-1.23,1-2.45,2.08-3.7,3.08a25.57,25.57,0,0,0-2.1,1.5,4.32,4.32,0,0,0-.63,1.51,4.12,4.12,0,0,0,1.28.13c3.54-.78,6.66-2.28,8.89-5.29a9.58,9.58,0,0,1,1.09-1c0.85,2.65-1.64,3.5-2.3,5.35a3,3,0,0,0,3.15-.18c1.41-1,2.71-2.14,4.09-3.17a7.63,7.63,0,0,1,1.5-.65c0.4,2-1.76,2.48-1.85,4.06a2.9,2.9,0,0,0,3.34-.66c1.27-1.18,3.09-1.78,4.7-2.57a1,1,0,0,1,.9.33,1,1,0,0,1-.25.92c-1.12.9-2.29,1.73-3.79,2.84a16.12,16.12,0,0,0,2.41-.71c1.68-.83,3.32-1.75,5-2.62a3.72,3.72,0,0,1,1.09-.49,0.91,0.91,0,0,1,.78.36,0.89,0.89,0,0,1-.23.82c-0.45.38-1,.6-1.48,1-1.11.88-2.18,1.8-3.27,2.7L157,39c1.41-.47,2.87-0.82,4.22-1.43,1.53-.68,3-1.59,4.44-2.38a4.62,4.62,0,0,1,1.36-.62,5.5,5.5,0,0,1,1.49.16,4.41,4.41,0,0,1-.34,1.5,16.22,16.22,0,0,1-1.68,1.86,2,2,0,0,0,.56.66c1.71,0.5,3.31,1.25,5.22,1.25a60.84,60.84,0,0,0,9-1.06c3.2-.48,5.19-2.31,5.41-5.52a7.78,7.78,0,0,0-1-3.29A18.2,18.2,0,0,1,184.5,28a2.51,2.51,0,0,1,1,.33c2.63,2.75,3,5.75.85,8.92a6.14,6.14,0,0,1-2.92,2.08,50.58,50.58,0,0,1-5.54,1.32c-2.68.62-5.38,0.24-8.07,0.14a6.43,6.43,0,0,1-2.38-.49c-1.05-.48-2-1-3.18-0.35a0.78,0.78,0,0,1-.66-0.23,1.09,1.09,0,0,1,.25-0.79c0.67-.68,1.4-1.29,2.09-2,0.31-.29.57-0.62,0.75-0.82-2.89,1.22-5.85,2.43-8.77,3.74-0.9.4-1.78,0.59-2.28-.3a4.26,4.26,0,0,1,0-2,30.11,30.11,0,0,1-3.67,1.06,6.56,6.56,0,0,1-2.24-.4,9.37,9.37,0,0,0-1.67-.35c-1.2,0-2-.38-2.13-1.8a16.16,16.16,0,0,1-3.17,1.56,6.21,6.21,0,0,1-2.92-.2,2.08,2.08,0,0,1-.59-1.11c-2.07.72-4.3,1.52-6.55,2.28-1.4.47-2.28-.09-2.61-1.55-1.46.65-2.86,1.3-4.28,1.89-2.27.95-3.2,0.58-4.3-1.79-1.21.57-2.42,1.16-3.64,1.72a5.63,5.63,0,0,1-2,.77c-0.73,0-1.91-.24-2.09-0.7-0.38-1-1.11-1-1.82-1.34-1.25-.58-2.42-1.31-3.67-1.89a1.42,1.42,0,0,0-1.15,0c-0.69.4-1.27,1-2,1.42a2.85,2.85,0,0,1-1.08.16,2.7,2.7,0,0,1,.12-1.13C104.86,35.39,105.51,34.61,106.22,33.67Zm9.9,2.9c3,0.48,7.15-1.06,8-2.87C122.72,32.88,117.55,34.68,116.12,36.57Zm1.86,1-3.1.44L115,38.61C116.07,38.84,117,37.92,118,37.61Z" style="fill:#fff"/><path d="M73.21,46.62c-5.6-.33-7.55-4.12-8.2-9.23-2.23,1.41-4.27,1.53-5.91-.08a27.94,27.94,0,0,1-3.34-4.56c-0.36-.55-0.29-1.26.59-1.28a43.74,43.74,0,0,1,6.88.29c-2,1.08-4.18.41-6.35,0.75a8,8,0,0,0,4.62,5c1.12,0.5,3.06-1,3.16-2.19,0.17-2.16.46-4.31,0.72-6.46a34.18,34.18,0,0,1,3.71-11.43c1.38-2.71,3-5.32,5.63-7.06,1.64-1.07,3.4-.52,3.58,1.39A22.46,22.46,0,0,1,78,17.27c-1,6.27-4.38,11.36-8.42,16.06A29.08,29.08,0,0,1,67,35.73c-0.68.62-1.5,1.2-.56,2.24a1,1,0,0,1,.11.65A6.29,6.29,0,0,0,70.81,45c0.9,0.32,1.76.75,2.64,1.13ZM65.89,35.26A30.23,30.23,0,0,0,73,26.93a39.16,39.16,0,0,0,3.41-8.25,30.55,30.55,0,0,0,.7-6.95c0-.84-0.54-1.15-1.41-0.59a16.72,16.72,0,0,0-5,5.46,36.57,36.57,0,0,0-2.56,5.54A31.65,31.65,0,0,0,65.89,35.26Z" style="fill:#fff"/><path d="M87.43,27l-1.11,1.7a19.56,19.56,0,0,1-.46,2.21,2,2,0,0,1-.78.58,3.67,3.67,0,0,1-.24-0.93,5.69,5.69,0,0,1,.28-1.17L80.32,33.6c1,0.81,2,1.57,2.92,2.48a2.34,2.34,0,0,1,.1,3.14A7.13,7.13,0,0,1,76,41.63c-1.83-.65-2.13-3.16-0.53-4.89,0.8-.86,1.69-1.63,2.75-2.63-0.89-.25-1.53-0.39-2.15-0.6a8.27,8.27,0,0,1-2.1-.85,2.22,2.22,0,0,1-1-1.5,2.54,2.54,0,0,1,1.38-1.25c2.49-1.3,5.25-1.38,8-1.54a8.42,8.42,0,0,0,5-1.56Zm-5,11c0.08-2-1.3-2.3-2.37-3a1.2,1.2,0,0,0-1.87.29c-0.85,1.2-1.72,2.4-2.51,3.64-0.55.86-.14,1.46,0.71,1.8,1.54,0.62,5.08-.6,5.85-2A2.22,2.22,0,0,0,82.47,38Zm-8.22-6.88v0.58c1.49,0.48,3,1,4.48,1.41A0.83,0.83,0,0,0,79.36,33c1.45-1.1,2.88-2.22,4.55-3.52A19.6,19.6,0,0,0,74.25,31.14Z" style="fill:#fff"/><path d="M27.7,22.76c1.63-2.82,3.94-5.17,6.17-7.75a2.71,2.71,0,0,1-.15,1.21c-1.68,2.21-3.41,4.37-5.14,6.53A1.61,1.61,0,0,1,28,23Z" style="fill:#fff"/><path d="M155.45,18.08a4,4,0,0,0,.8,1.27c1,0.67,2,1.17,3,1.82a2.24,2.24,0,0,1,.41,1,2,2,0,0,1-1,.32c-1.32-.85-2.59-1.77-3.83-2.73a1.36,1.36,0,0,1-.2-1A2.93,2.93,0,0,1,155.45,18.08Z" style="fill:#fff"/><path d="M87.28,26.82l1.83-1.69,0.37,0.44c-0.48.72-.9,1.51-2.05,1.45Z" style="fill:#fff"/></g></svg>