<svg xmlns="http://www.w3.org/2000/svg" viewBox="0 0 64.2 64.2"><defs><style>.cls-1{fill:#95294a;}.cls-2{fill:none;stroke:#fff;stroke-miterlimit:10;}</style></defs><title>impact-leadership-icon</title><g id="Layer_2" data-name="Layer 2"><g id="Design"><circle class="cls-1" cx="32.1" cy="32.1" r="32.1"/><path class="cls-2" d="M32.86,12.72a4.15,4.15,0,1,1-4.15,4.15,4.16,4.16,0,0,1,4.15-4.15m11.32,3.73A4.15,4.15,0,1,1,40,20.61a4.16,4.16,0,0,1,4.15-4.15m-22.64,0a4.15,4.15,0,1,1-4.15,4.15,4.16,4.16,0,0,1,4.15-4.15M16.87,27.77a4.15,4.15,0,1,1-4.15,4.15,4.16,4.16,0,0,1,4.15-4.15m30.45,0a4.15,4.15,0,1,1-4.15,4.15,4.16,4.16,0,0,1,4.15-4.15M44.18,39.1A4.15,4.15,0,1,1,40,43.25a4.16,4.16,0,0,1,4.15-4.15m-22.64,0a4.15,4.15,0,1,1-4.15,4.15,4.16,4.16,0,0,1,4.15-4.15m11.32,4.07a4.15,4.15,0,1,1-4.15,4.15,4.16,4.16,0,0,1,4.15-4.15"/></g></g></svg>